<?xml version="1.0" encoding="UTF-8"?>
<svg width="602.94" height="576.5" version="1.1" viewBox="0 0 602.94 576.5" xml:space="preserve" xmlns="http://www.w3.org/2000/svg" xmlns:cc="http://creativecommons.org/ns#" xmlns:dc="http://purl.org/dc/elements/1.1/" xmlns:rdf="http://www.w3.org/1999/02/22-rdf-syntax-ns#"><metadata><rdf:RDF><cc:Work rdf:about=""><dc:format>image/svg+xml</dc:format><dc:type rdf:resource="http://purl.org/dc/dcmitype/StillImage"/><dc:title/></cc:Work></rdf:RDF></metadata>
<style type="text/css">
	.st0{fill:#FFFFFF;}
	.st1{fill:none;}
	.st2{fill:#D19134;}
	.st3{fill:#236192;}
	.st4{fill:#EADB5B;}
</style>
<path class="st0" d="m491.1 413.8-2 1.3-0.1 0.1-2.3 1.4c-8.8 5.4-17.6 11-26.4 16.5l-0.2 0.1-3.7 2.2-1.5 0.9-0.4 0.2-0.5-8-0.2-2.4c-0.3-4.6-0.5-9.1-0.9-13.5-0.8-10.7-1.8-21.6-2.5-32.3-0.2-1.8-1.2-2.4-2.6-2.9l-46.8-18.8c-0.8-0.4-1.7-0.6-3.1-1.1-0.1 0-0.3-0.1-0.4-0.1 0.1 2.6 0.2 4.9 0.4 7 0.6 6.5 1.2 13 1.9 19.4l0.2 2-5.3 2.4-27.2 12.7h-0.1l-1 0.5-1.7 0.8-0.4 0.2 0.2-2.1c1.4-20.8 2.8-41.3 4.2-61.9 1-0.5 1.7-0.8 2.5-1.1 0.6-0.2 1.1-0.4 1.7-0.6 0.1 0 0.1-0.1 0.2-0.1 1.8-0.6 3.7-1.2 5.5-1.8 1.7-0.6 3.5-1.2 5.3-1.9 0.7-0.3 1.5-0.5 2.2-0.6 0.2-0.1 0.3-0.1 0.5-0.1 1.5-0.1 2.9 0.1 4.3 0.6 12.4 4 24.8 8.3 37.2 12.3 15.4 5.1 30.7 10.1 46 15.2 1.3 0.5 2.6 0.9 4 1.6 3.5 1.6 6.1 5 6.6 8.8 1.6 9.4 3 18.9 4.6 28.4 0.4 2 0.7 4 1 5.9v0.2l0.4 2.7z" fill="#fff"/>
<g transform="translate(-119.5,-9.3)"><g fill="none">
	<path class="st1" d="m260.1 403.9c0.3-0.4 0.7-0.7 1.1-1.1l2.4-2.1c0-0.1 0.1-0.1 0.1-0.1 0.4-0.3 0.8-0.7 1.2-1s0.9-0.7 1.3-1c0.8-0.6 1.7-1.2 2.5-1.8l0.1-0.1c1.3-0.8 2.6-1.7 4.1-2.5 0.5-0.3 0.9-0.5 1.4-0.8 0-0.1 0.1-0.1 0.1-0.1 0.7-0.4 1.4-0.7 2.1-1.1s1.5-0.7 2.2-1.1c1.5-0.7 3-1.3 4.6-1.9h0.1c1.5-0.6 3.1-1.1 4.7-1.6 0.6-0.2 1.1-0.4 1.6-0.5 2.1-0.5 4.4-1 6.6-1.4 1-0.2 2-0.4 3-0.5 1.2-0.2 2.5-0.3 3.7-0.4 0.6-0.1 1.1-0.1 1.7-0.1h1.3 0.5 1.3c1.2 0 2.3 0 3.4 0.1 1.1 0 2.2 0.1 3.3 0.2 34.7 3.4 61.8 32.6 61.8 68.2 0 7.9-1.3 15.5-3.8 22.6 2.5-7.2 3.9-14.9 3.9-22.9 0-35.6-27.1-64.8-61.8-68.2-1.1-0.1-2.2-0.2-3.3-0.2-1.1-0.1-2.3-0.1-3.4-0.1h-1.3-0.5-1.3c-0.6 0-1.1 0.1-1.7 0.1-1.2 0.1-2.5 0.2-3.7 0.4-1 0.2-2 0.3-3 0.5-2.2 0.3-4.5 0.8-6.6 1.4-0.6 0.2-1.1 0.3-1.6 0.5-1.6 0.5-3.1 1-4.7 1.6h-0.1c-1.6 0.6-3 1.2-4.6 1.9-0.8 0.4-1.5 0.7-2.2 1.1-0.7 0.3-1.4 0.7-2.1 1.1 0 0.1-0.1 0.1-0.1 0.1-0.5 0.3-0.9 0.5-1.4 0.8-1.4 0.8-2.7 1.6-4.1 2.5l-0.1 0.1c-0.9 0.6-1.7 1.2-2.5 1.8-0.5 0.3-0.9 0.7-1.3 1s-0.8 0.7-1.2 1c0 0.1-0.1 0.1-0.1 0.1l-2.4 2.1c-0.3 0.4-0.7 0.7-1.1 1.1-0.4 0.3-0.7 0.7-1.1 1.1-10.2 10.3-17.2 23.9-19.1 38.8 2.1-14.9 8.9-28.3 19-38.5 0.3-0.4 0.7-0.7 1.1-1.1z"/>
	<path class="st1" d="m355.6 423.7c2.5 8.6 3.1 17.6 1.5 26.3h-0.1c-0.3 2.9-1.8 5.7-4.2 7.5-2.4 2.2-5.3 3.7-8.5 4.4v0.2c3.3-0.6 6.3-2.2 8.7-4.5 2.3-1.9 3.7-4.6 4.2-7.5h0.1c1.5-8.8 1-17.7-1.5-26.3-3.3-10.6-8.6-19.8-19.1-24.9 10.3 5 15.6 14.2 18.9 24.8z"/>
	<path class="st1" d="m334.8 43.9 3.7-4.3-2-0.5-0.7-0.1-1.2-0.2c-0.1 0-0.3-0.1-0.4-0.1-5-0.9-10-1.4-15.1-1.6h-0.7-1.7-0.4c0.8 0 1.6 0.1 2.4 0.1 5.1 0.2 10.1 0.7 15.1 1.6 0.1 0 0.3 0.1 0.4 0.1l1.2 0.2 0.7 0.1 2 0.5-3.7 4.3-22.9 26.3c-18.9 21.8-37.9 43.5-56.9 65.3l-2.3 2.8 0.1-0.1 2.3-2.8c19-21.8 37.9-43.5 57.3-65.3z"/>
	<path class="st1" d="m314 449.9c0-0.2 0-0.5 0.1-0.7v-0.4c0.8-4.6 1.1-9.2 1-13.9-0.3-7.1-1.7-13.8-4.3-20 2.6 6.2 3.9 12.8 4.2 19.8 0.1 4.7-0.2 9.3-1 13.9v0.4c-0.1 0.2-0.1 0.5-0.1 0.7-0.1 1-0.3 2.1-0.5 3-0.1 0.6-0.3 0.9-0.3 1.1l0.1 0.1c0-0.2 0.2-0.6 0.3-1 0.1-1 0.3-2.1 0.5-3z"/>
	<path class="st1" d="m309.8 392.4h-0.1c1 0.1 2 0.5 2.6 1.2 4.3 3.6 8 7.5 11.3 11.6-3.3-4.2-7.1-8.2-11.4-11.8-0.7-0.7-1.6-1.1-2.5-1.2-5.3-0.5-10.4 0-15.6 1.4 0.1 0.1 0.3 0.2 0.4 0.4 5-1.5 10.1-2.1 15.3-1.6z"/>
	<path class="st1" d="m315 37.1c-3 0-6.1 0.2-9.1 0.6 3.3-0.4 6.7-0.6 10-0.6h-0.9z"/>
	<path class="st1" d="m278.2 44.1c2.4-0.8 4.9-1.6 7.4-2.3h-0.1c-0.8 0.2-1.5 0.4-2.3 0.6-0.9 0.3-1.8 0.5-2.7 0.8-0.6 0.2-1.1 0.4-1.7 0.6-0.1 0-0.2 0.1-0.3 0.1-0.4 0.1-0.8 0.3-1.2 0.4h-0.1c-0.7 0.2-1.3 0.5-2 0.7-0.7 0.3-1.5 0.5-2.2 0.8-0.1 0.1-0.1 0.1-0.2 0.1 1.5-0.5 2.9-1 4.4-1.5 0.2 0 0.6-0.2 1-0.3z"/>
	<path class="st1" d="m217.9 85.1c10.8-14.6 25.3-25.8 44-34.5 3.2-1.4 6.5-2.8 9.7-4.1 0.1-0.1 0.3-0.1 0.4-0.2-0.1 0-0.1 0.1-0.2 0.1-3.3 1.2-6.7 2.5-9.9 4.1-18.9 8.5-33.2 19.8-44 34.5-1.8 2.3-3.3 4.9-4.9 7.4-0.6 0.7-1 1.5-1.6 2.3 0.6-0.8 1-1.7 1.6-2.3 1.5-2.5 3.1-5 4.9-7.3z"/>
	<path class="st1" d="m338.2 470.9c10.6-0.6 19.7-4.4 25.3-14.3h-0.1c0.2-0.3 0.2-0.3 0.4-0.8h-0.1c-0.2 0.4-0.2 0.5-0.4 0.8-5.4 9.9-14.5 13.7-25.2 14.3-0.7 0-1.4 0.1-2.1 0 0.8 0.1 1.5 0.1 2.2 0z"/>
	<path class="st1" d="m275.4 463.4-0.2-0.3-0.1-0.2c-0.1-0.1-0.1-0.2-0.2-0.3l-0.3-0.4c-0.4-0.5-0.9-1.2-1.2-1.8 1.2-1.2 2.7-1.8 4.6-1.9l1.7-0.2c3.5-0.3 6.9-0.5 10.3-0.4-3.5 0-7 0.2-10.4 0.4l-1.7 0.2c-1.7 0.1-3.3 0.7-4.6 1.9 0.3 0.5 0.8 1.3 1.2 1.8l0.3 0.4c0.1 0.1 0.1 0.2 0.2 0.3l0.1 0.2 0.2 0.3c5.4 7.2 11.6 13.6 18.9 18.8 13.5 9.6 28.2 14.2 44 14.2-15.8-0.1-30.4-4.7-43.9-14.2-7.3-5.3-13.7-11.7-18.9-18.8z"/>
	<path class="st1" d="m286.9 41.4c-0.1 0.1-0.2 0.1-0.4 0.1 0.2 0 0.3 0 0.4-0.1 0.1 0 0.1 0 0 0z"/>
	<polygon class="st1" points=""/>
	<path class="st1" d="m288.1 399.2c0.5 0.4 0.9 0.7 1.2 0.9-0.3-0.2-0.7-0.6-1.2-0.9z"/>
	<path class="st1" d="m282.7 410.6h0.1l0.3-0.1 1.3-0.4 0.4-0.1c0.8-0.2 1.7-0.4 2.8-0.7 2.6-0.7 5.2-1.1 7.9-1.3h1.9l-0.4-0.5c-0.9-1.1-1.9-2.1-2.9-3.2 1 1 1.9 2 2.8 3.1l0.4 0.5h-1.9c-2.6 0.2-5.3 0.7-7.9 1.3-1.1 0.2-2.1 0.4-2.8 0.7l-0.4 0.1-1.3 0.4-0.4 0.1c-11.2 3.7-21.1 11-27.9 20.6-2.3 3-4.1 6.2-6.1 9.2-0.1 0.3-0.1 0.5-0.2 0.8 2.2-3.3 4.2-6.7 6.5-9.8 6.7-9.7 16.5-17 27.8-20.7z"/>
	<path class="st1" d="m287.9 416.9c4.7-1.2 9.3-1.8 14.2-2 0.6 0.9 1 1.8 1.4 2.7l0.6 1.4v0.1c0.2 0.6 0.4 1.1 0.6 1.7 0.1 0.2 0.2 0.5 0.3 0.8l0.1 0.4c0.2 0.5 0.3 0.9 0.4 1.4 0 0.2 0.1 0.3 0.1 0.5s0.2 0.5 0.2 0.8c0.1 0.3 0.2 0.8 0.2 0.9 1.1 4.7 1.4 9.5 0.9 14.4-0.2 2.7-0.5 5.4-0.9 8.2v0.1c0 0.3-0.1 0.5-0.2 0.8-0.1 0.8-0.3 1.3-0.4 1.8h0.2c0.1-0.5 0.3-1.2 0.4-1.9 0.1-0.3 0.2-0.5 0.2-0.8v-0.1c0.4-2.8 0.6-5.5 0.9-8.2 0.5-4.9 0.2-9.7-0.9-14.4 0-0.1-0.1-0.6-0.2-0.9 0-0.2-0.2-0.6-0.2-0.8s-0.1-0.3-0.1-0.5c-0.1-0.5-0.2-0.9-0.4-1.4l-0.1-0.4c-0.1-0.3-0.2-0.5-0.3-0.8-0.2-0.6-0.4-1.2-0.6-1.7v-0.1l-0.6-1.4c-0.4-0.9-0.9-1.9-1.4-2.7-4.9 0.2-9.5 0.8-14.2 2l-0.8 0.2c-3.1 0.9-6.1 2.1-8.9 3.5 2.8-1.4 5.7-2.6 8.7-3.4z"/>
	<path class="st1" d="m256.9 461.2c3.7-3.4 7.6-6.3 12-8.2-4.5 1.9-8.5 4.8-12.2 8.3-2.6 2.5-5 5.2-7.6 7.9v0.1c2.7-2.8 5.1-5.5 7.8-8.1z"/>
	<path class="st1" d="m717.6 184.1c-0.2-1.6-0.3-3.3-0.5-4.9-0.5-4.5-1.2-9-2.1-13.5 0.9 4.7 1.6 9.4 2.1 14.1 0.2 1.4 0.4 2.8 0.5 4.3z"/>
	<path class="st1" d="m316 12.2h-0.1c0.7 0 1.4 0 2.1 0.1-0.8-0.1-1.4-0.1-2-0.1z"/>
	<path class="st1" d="m141.9 489.7c-8.6-16.7-14.8-34.6-18.2-53 3.4 18.4 9.5 36.3 18.2 53z"/>
	<path class="st1" d="m701.1 125.2c6.4 12.8 11.1 26.3 13.9 40.4-2.8-14.1-7.4-27.8-13.9-40.7-13.6-26.9-31.5-48.9-53.5-66.2 22.1 17.3 40 39.4 53.5 66.5z"/>
	<path class="st1" d="m289.6 583c-40.8-0.4-77.4-12.7-108-40.4 30.6 27.8 67.3 40 108 40.4z"/>
	<path class="st1" d="m451.4 333h-0.2c-55.5-0.6-110.9-4.5-166-11.3l-0.5 1c-0.7 1.8-1.4 3.3-2.1 5.1-10.7 25.1-26.4 47-48.2 67.3-22.8 21.1-49 38.2-80.3 51.9l-1.8 0.8-0.4 0.2c0 0.6 0.2 1 0.3 1.5 0.8 2.6 1.7 5.3 2.6 7.8-0.9-2.5-1.7-5-2.5-7.5-0.1-0.5-0.3-1-0.3-1.5l0.4-0.2 1.8-0.8c31.4-13.8 57.5-30.9 80.3-51.9 21.8-20.4 37.5-42.2 48.2-67.3 0.7-1.7 1.4-3.2 2.1-5.1l0.5-1c55.1 6.9 110.5 10.6 166 11.3 0 0.7 0 1.4-0.1 2-4.7 45.1-14.2 85-29.2 121.9-2.7 6.8-5.8 13.7-9 20.3-9.3 19.2-23.2 36-42.5 51.6-23.1 18.7-51.8 28.9-81.6 28.9 29.8 0.2 58.6-10 81.6-28.9 19.3-15.6 33.2-32.4 42.5-51.6 3.1-6.7 6.3-13.5 9.1-20.1 15.1-37 24.6-76.9 29.2-122.1 0.2-0.7 0.2-1.6 0.1-2.3z"/>
	<path class="st1" d="m181.9 103.5c2.8 2.2 5.5 4.2 8.1 6.3 1.5 1.2 3.1 2.5 4.6 3.8-1.5-1.3-3.1-2.6-4.7-3.9-2.6-2.2-5.2-4.1-8-6.2z"/>
	<path class="st1" d="m336.9 575.4c-14.8 5-30.3 7.5-46 7.6 15.7 0 31.2-2.5 46-7.6z"/>
	<path class="st1" d="m409.3 227.2-0.6 0.6h0.1l3.8 0.3h1.1c2 0.1 3.7 0.2 5.4 0.2l24.6 0.3c10.3 0.1 20.7 0.2 31 0.4h0.2l6.6 0.3 2.2-0.1c0.9 0 1.6-0.1 2-0.2l0.1-0.1c-0.4 0.1-1.1 0.2-2 0.2l-2.2 0.1-6.6-0.3h-0.2c-10.3-0.2-20.8-0.3-31-0.4l-24.6-0.3c-1.6 0-3.3-0.1-5.4-0.2h-1.1l-3.8-0.3 0.4-0.4 0.8-0.9 79.3-91.4 65.5-75.7 7.7-8.8-7.6 8.5-65.4 75.6-79.5 91.6z"/>
	<path class="st1" d="m252.3 138.4c-1.1-1.2-2.1-2.5-3.2-3.7 1 1.3 2.1 2.5 3.2 3.7z"/>
	<path class="st1" d="m141.9 489.7c9.7 19.8 23 37.6 39.3 52.5-16.3-14.9-29.5-32.7-39.3-52.5z"/>
	<path class="st1" d="m567.2 46.5h0.2c1.4 0.3 4.5 1 10.1 2.7 0.1 0 0.3 0.1 0.4 0.1 7.4 2.3 14.7 5.3 21.8 8.7 7.8 3.7 15.1 8 22.3 12.9 0.4 0.2 0.6 0.3 0.9 0.6v-0.1c-0.4-0.2-0.6-0.5-0.9-0.7-7.1-4.9-14.6-9.1-22.2-12.9-7.1-3.4-14.3-6.4-21.8-8.7-0.1 0-0.3-0.1-0.4-0.1-5.6-1.6-8.6-2.3-10.1-2.7h-0.2l-0.8-0.2-2.3 2.7 2.2-2.5z"/>
	<path class="st1" d="m299.4 178.1-6.5 7.5-8.9 10.2v0.1l8.9-10.2 6.5-7.5c3.9-4.6 7.9-9.1 11.8-13.5l85.6-98.9c0.3-0.4 0.6-0.7 0.9-1.1l0.1-0.1c0.2-0.3 0.5-0.5 0.7-0.8 0-0.1 0.1-0.2 0.2-0.3l0.8-0.9c16.1 8.3 31.4 17.9 45.9 28.8 0.1-0.1 0.1-0.2 0.2-0.2-14.5-10.8-29.9-20.6-46-28.9l-0.1 0.1-0.8 0.9c0 0.1-0.1 0.2-0.2 0.3-0.2 0.3-0.5 0.6-0.7 0.8l-0.1 0.1c-0.4 0.4-0.7 0.7-0.9 1.1l-85.6 98.7c-3.9 4.7-7.8 9.3-11.8 13.8z"/>
	<polygon class="st1" points="489.9 224.3 489.6 224.6"/>
	<path class="st1" d="m376.2 556-0.1 0.1 0.1-0.1c0.8-0.5 1.6-1 2.4-1.6-0.8 0.5-1.6 1.1-2.4 1.6z"/>
	<path class="st1" d="m416.5 517.9c-1.5 1.8-2.9 3.3-3.9 4.7-7.8 9.3-16.3 17.7-25.4 25.2-0.3 0.2-0.6 0.5-0.8 0.7 0.3-0.2 0.6-0.5 0.8-0.7 9.2-7.5 17.8-16 25.7-25.4 1.1-1.3 2.4-2.8 3.9-4.7l3.3-4.7-3.8 5.2z"/>
	<path class="st1" d="m266.2 464.3c-2.3 1.6-4.5 3.5-6.4 5.7l-1.6 1.8c-2 2.2-5.2 6-5.6 7.1v0.1c0.5-1.2 3.5-4.8 5.5-7l1.6-1.8c1.9-2.1 4.1-3.9 6.4-5.7 17.8 25.4 41.6 39.5 73.2 40.4l0.1-0.1c-31.6-1-55.4-15.1-73.2-40.5z"/>
	<path class="st1" d="m371.6 257.1c0.1 0 0.2-0.1 0.3-0.2-0.1 0.1-0.2 0.1-0.3 0.2z"/>
	<polygon class="st1" points=""/>
	<path class="st1" d="m386.8 303.8c-6.4 0.4-12.3-1-17.2-5.4-3.6-3.2-6.1-7.7-6.8-12.7-1.1-5.7-0.9-11.4 0.6-16.9 1.5-5.3 4.5-9.1 8.1-11.7-0.1 0-0.2 0.1-0.3 0.2-3.7 2.6-6.7 6.5-8.2 11.8-1.4 5.6-1.6 11.3-0.6 16.9 0.7 4.9 3.1 9.3 6.8 12.7 4.9 4.4 10.7 5.8 17.2 5.4 5.5-0.3 10.2-2.5 13.4-6.3-3.2 3.6-7.6 5.6-13 6z"/>
	<path class="st1" d="m396.2 268.8-0.4 0.1c-0.5-0.9-0.9-1.9-1.1-2.2s-0.4-0.6-0.5-0.8c-0.1-0.1-0.1-0.2-0.2-0.3s-0.1-0.2-0.2-0.3v-0.1c-2.3-3.1-6.1-4.8-9.9-4.3-2.7 0-5.2 1-7.1 2.6-0.2 0.1-0.4 0.3-0.5 0.4l-0.2 0.2c0.1-0.1 0.2-0.2 0.4-0.3 1.9-1.6 4.4-2.5 7-2.5 3.8-0.6 7.7 1.1 9.9 4.3v0.1c0.1 0.1 0.1 0.2 0.2 0.3s0.1 0.2 0.2 0.3c0.2 0.2 0.3 0.4 0.5 0.8 0.1 0.4 0.6 1.3 1.1 2.2l0.4-0.1 7.7-1.8 0.8-0.2-0.1-0.2-0.4 0.1z"/>
	<path class="st1" d="m392.1 292.6c0.2-0.1 0.3-0.3 0.4-0.4 0.8-1 1.5-2.1 2.1-3.4 0.4-0.9 0.7-1.8 1.1-3.1l-0.2-0.1c-0.1 0.1-0.1 0.1-0.1 0.2-0.4 1.4-0.7 2.4-1.2 3.3-0.5 1.3-1.2 2.4-2 3.3-0.2 0.1-0.3 0.3-0.4 0.4l-0.2 0.2c0.2 0 0.3-0.2 0.5-0.4z"/>
	<path class="st1" d="m615.7 173.6-13 15.1-31.3 36.1h0.1l31.2-35.9z"/>
	<path class="st1" d="m468.7 246.1c75.5 0.1 150.9-6.3 225.3-19.2v-0.1c-74.4 12.9-149.8 19.3-225.4 19.2-58.2-0.1-116.2-3.6-174-10.5h-0.1c0.3 2.2 0.6 4.3 0.8 6.5-0.1-2.2-0.3-4.3-0.6-6.4 57.8 6.8 115.8 10.4 174 10.5z"/>
	<path class="st1" d="m694.5 205.7v-1.7-0.1c0-1-0.1-2-0.1-2.9 0-1-0.1-1.9-0.1-2.8v-0.5c0-0.7-0.1-1.5-0.1-2.2-0.1-0.4-0.1-0.8-0.1-1.1v-0.1c-0.1-0.8-0.1-1.6-0.2-2.4-0.1-0.2-0.1-0.5-0.1-0.7v-0.2c-1.2-14.9-3.8-27.4-8.1-39.3-3.6-9.9-8.2-19.4-13.7-28.5-0.1-0.1-0.2-0.3-0.3-0.4-0.3-0.5-0.6-1-0.9-1.5s-0.6-0.9-0.9-1.4c-0.1-0.2-0.2-0.3-0.3-0.5-1-1.4-1.9-2.8-2.9-4.3l-0.2 0.2c1 1.4 2 2.8 2.9 4.2 0.1 0.2 0.2 0.3 0.3 0.5 0.6 0.9 1.2 1.8 1.8 2.8 0.1 0.1 0.2 0.3 0.3 0.4 5.6 9 10.1 18.5 13.7 28.5 4.3 11.8 6.9 24.4 8.1 39.3 0 0.4 0.1 0.7 0.1 1 0.1 0.8 0.1 1.6 0.2 2.4 0.1 0.4 0.1 0.8 0.1 1.2 0 0.7 0.1 1.4 0.1 2.2v0.5c0.1 2.5 0.2 5 0.3 7.6v0.6c0.1 1.3 0.1 2.7 0.1 4.2-0.6 0.2-1.5 0.4-2.5 0.6 1.1-0.2 1.9-0.4 2.6-0.6v-0.1c0-1.4-0.1-2.7-0.1-4.2v-0.7z"/>
	<path class="st1" d="m291.8 306.4c0.1 0 0.2 0 0.3 0.1l0.6 0.1-0.5-0.3c-0.1-0.1-0.2 0-0.4 0.1z"/>
	<rect class="st1" x="464.2" y="276.8" width="25.9" height=".1"/>
	<polygon class="st1" points="550.9 272.9 551 272.9 550.1 261.7 575.9 259.4 575.3 251.4 575.2 251.4 575 251.4 575.7 259.4 549.9 261.7 550.8 272.9"/>
	<path class="st1" d="m693.9 226.8v1.3c0.1 1.7 0.1 3.4 0 5.3l-0.1 1.4c-0.2 3-0.4 6.2-0.7 9.3s-0.6 6.3-0.9 9.4c-0.2 2.1-0.5 4.3-0.7 6.3-0.4 3-0.8 6.2-1.2 9.3v0.3c-1 6.3-2.1 12.6-3.3 18.8-0.1 0.6-0.3 1.2-0.4 1.8-0.3 1.6-0.7 3.1-1 4.8-0.2 1-0.5 2.1-0.7 3.1 0 0.2-0.1 0.3-0.1 0.4s-0.1 0.2-0.1 0.4c0.1-0.1 0.1-0.2 0.2-0.4 0-0.2 0.1-0.3 0.1-0.4 0.2-1 0.5-2.1 0.7-3.1 0.3-1.6 0.7-3.1 1-4.8 0.2-0.6 0.3-1.2 0.4-1.8 1.3-6.3 2.4-12.6 3.3-18.8v-0.3c0.4-3 0.8-6.2 1.2-9.3 0.2-2.1 0.5-4.2 0.7-6.3 0.4-3.1 0.6-6.3 0.9-9.4 0.2-3.1 0.5-6.3 0.7-9.3l0.1-1.4c0.1-1.8 0.1-3.5-0.1-5.5z"/>
	<polygon class="st1" points="552.6 293.1 551.5 281 577.4 278.8 576.8 270.8 576.7 270.8 576.6 270.8 577.3 278.8 551.4 281 552.5 293.1"/>
	<polygon class="st1" points="578.4 290.9 578.3 290.9 579 298.9"/>
	<polygon class="st1" points="454.6 276.8 454.6 284.9 454.6 297.2 454.6 305.2 454.6 305.3 454.7 305.3 454.7 297.2 454.7 285 454.7 276.9 454.7 265.5 454.7 257.5 464.2 257.5 490.1 257.5 490.1 257.4 454.6 257.4 454.6 257.5 454.6 265.5"/></g><g fill="#fff">
	<polygon class="st0" points="497.8 350.9 509 356.1 509 356 497.9 350.9"/>
	<polygon class="st0" points="528.1 353.7 515.2 349.1 515.2 349.2 528 353.8 584.9 373.8 585 373.7"/>
	<polygon class="st0" points="493.2 357.6 490 401.6 493.3 357.7 503.1 361 510 363.3 512.1 382.9 513 390.8 513 390.8 512.1 382.8 510 363.2 503 360.9"/>
	</g><circle class="st2" cx="308.5" cy="452.5" r="66.1" fill="#d19134"/><g fill="#fff">
	<path class="st0" d="m603.7 419.1-0.3-1.3-0.4-1.9v-0.2c-0.4-2.4-0.8-5-1.2-7.5-1.5-8.7-2.9-17.3-4.6-26-0.7-3.7-2.5-4.9-6-3-3.4 1.8-6.8 3.9-10.2 5.9l-5.2 2.9 0.7 9.1 0.2 2.1v-0.1c0.7 9.5 1.4 19.1 2.1 28.9 0.1 0.8 0.2 1.7 0.3 2.5l0.1 0.8 0.4 3.9 0.2-0.1 0.8-0.5 2.2-1.3h0.1l0.1-0.1 9.6-6.1 7.7-4.9 3.4-2.1-0.1-0.7z"/>
	<path class="st0" d="m311.5 70.3 22.9-26.3 3.7-4.3-2-0.5-0.7-0.1-1.2-0.2c-0.1 0-0.3-0.1-0.4-0.1-5-0.9-10-1.4-15.1-1.6-0.8 0-1.6-0.1-2.4-0.1h-0.1-0.3c-3.3 0-6.7 0.3-10 0.6-0.2 0-0.5 0.1-0.7 0.1-3.6 0.5-7.2 1.1-10.7 1.9-0.2 0-0.3 0.1-0.4 0.1-1.7 0.3-3.3 0.7-5 1.1-0.2 0-0.3 0.1-0.4 0.1-0.1 0.1-0.1 0.1-0.2 0.1-0.5 0.1-0.9 0.2-1.3 0.3h-0.1c-0.2 0-0.3 0.1-0.5 0.1-0.3 0.1-0.6 0.2-0.9 0.3-2.5 0.7-5 1.4-7.4 2.3-0.4 0.1-0.8 0.3-1.2 0.4-1.4 0.5-2.8 1-4.4 1.5-0.1 0.1-0.1 0.1-0.2 0.1-0.1 0.1-0.3 0.1-0.4 0.2s-0.3 0.1-0.4 0.2c-3.2 1.2-6.5 2.6-9.7 4.1-18.7 8.7-33.2 19.9-44 34.5-1.7 2.3-3.3 4.9-4.9 7.4-0.6 0.6-1 1.5-1.6 2.3 2.2 2.1 4.3 4.1 6.3 6.1 5.3 5.2 10.3 10 15.2 15.2 4.9 5.1 9.5 10.7 14.1 16.1 0.7 0.9 1.4 1.7 2.1 2.6 1 1.2 2.1 2.5 3.2 3.7l2.3-2.8c18.9-21.9 37.9-43.6 56.8-65.4z"/>
	<path class="st0" d="m413.1 477.5c3.2-6.6 6.3-13.5 9-20.3 15-37 24.5-76.9 29.2-121.9 0.1-0.6 0.1-1.3 0.1-2-55.5-0.7-110.9-4.5-166-11.3l-0.5 1c-0.7 1.8-1.4 3.3-2.1 5.1-10.7 25.1-26.4 47-48.2 67.3-22.8 21.1-48.9 38.2-80.3 51.9l-1.8 0.8-0.4 0.2c0 0.5 0.2 1 0.3 1.5 0.8 2.5 1.6 5 2.5 7.5 6.4 18 15.7 34.9 27.5 50 11 14.2 24.9 26 40.7 34.6 1.2 0.6 2.3 1.2 3.5 1.8l1.8 0.9c0.7 0.3 1.3 0.6 1.9 0.9 1.3 0.7 2.6 1.2 3.9 1.8 13.8 5.6 28.2 9 43 10 3.9 0.3 7.8 0.5 11.7 0.5 29.7 0.1 58.5-10.1 81.6-28.9 19.4-15.3 33.3-32.1 42.6-51.4zm-100.6 43.9c-0.6 0.1-1.1 0.1-1.7 0.1-0.5 0.1-1.1 0.1-1.6 0.1-2.2 0-4.4 0-6.5-0.2-3.6-0.2-7.2-0.8-10.6-1.6-9.4-2.2-18-6.4-25.5-12-0.8-0.6-1.5-1.2-2.3-1.8-0.4-0.3-0.7-0.6-1.1-0.9-0.8-0.7-1.5-1.3-2.2-2-0.3-0.3-0.6-0.7-1-1-1.9-1.9-3.7-3.9-5.5-6.1-0.2-0.4-0.5-0.7-0.8-1.1-8.6-11.2-13.9-25.3-14.3-40.4-0.1-3.7 0.1-7.3 0.6-10.8 1.9-14.9 8.9-28.5 19.1-38.8 0.4-0.4 0.7-0.8 1.1-1.1 0.4-0.4 0.8-0.7 1.1-1.1l2.4-2.1s0.1 0 0.1-0.1c0.4-0.3 0.8-0.7 1.2-1s0.8-0.7 1.3-1c0.8-0.6 1.6-1.2 2.5-1.8l0.1-0.1c1.3-0.9 2.6-1.7 4.1-2.5 0.5-0.3 0.9-0.5 1.4-0.8 0 0 0.1 0 0.1-0.1 0.7-0.4 1.4-0.8 2.1-1.1 0.7-0.4 1.4-0.7 2.2-1.1 1.5-0.7 2.9-1.3 4.6-1.9h0.1c1.5-0.6 3-1.1 4.7-1.6 0.5-0.2 1-0.3 1.6-0.5 2.1-0.6 4.4-1.1 6.6-1.4 1-0.2 2-0.3 3-0.5 1.2-0.2 2.5-0.3 3.7-0.4 0.6 0 1.1-0.1 1.7-0.1h1.3 0.5 1.3c1.1 0 2.3 0 3.4 0.1 1.1 0 2.2 0.1 3.3 0.2 34.6 3.4 61.8 32.6 61.8 68.2 0 8-1.4 15.7-3.9 22.9-0.2 0.6-0.5 1.2-0.7 1.8l-0.3 0.9c-9.4 23.6-32.1 40.9-59 42.7z"/>
	<path class="st0" d="m398.7 63.6c-0.1 0.1-0.2 0.2-0.2 0.3-0.2 0.3-0.5 0.5-0.7 0.8l-0.1 0.1c-0.3 0.4-0.6 0.7-0.9 1.1l-85.6 98.9c-3.9 4.4-7.9 8.9-11.8 13.5l-6.5 7.5-8.9 10.2c0.6 1.9 2 5.7 3 8.8 0.2 0.5 0.3 0.9 0.5 1.4 0 0.1 0.1 0.3 0.1 0.4 0.1 0.3 0.2 0.5 0.2 0.8l1.6 5.2v0.2l1.7 5.9 5.9 0.8c9.2 0.9 16.8 1.8 24.2 2.6l8.1 0.9 1.7 0.2 1.3-1.5v-0.1l5.6-6.4c9.9-11.3 19.7-22.8 29.7-34.1l10.2-11.8c22.1-25.3 44.1-50.5 66.1-75.8l0.1-0.1c0.1-0.2 0.2-0.3 0.3-0.4 0.4-0.4 0.7-0.9 1-1.3-14.5-10.9-29.8-20.5-45.9-28.8z"/>
	<polygon class="st0" points="509 356 507.6 346.9 497.9 350.9"/>
	<polygon class="st0" points="493.3 357.7 490 401.6 513 390.8 512.1 382.9 510 363.3 503.1 361"/>
	<path class="st0" d="m684.8 298c0.2-1 0.5-2.1 0.7-3.1 0.3-1.6 0.7-3.1 1-4.8 0.1-0.6 0.3-1.2 0.4-1.8 1.2-6.3 2.3-12.6 3.3-18.8v-0.3c0.4-3.1 0.8-6.3 1.2-9.3 0.2-2 0.5-4.2 0.7-6.3 0.3-3.1 0.6-6.3 0.9-9.4s0.5-6.3 0.7-9.3l0.1-1.4c0.1-1.8 0.1-3.5 0-5.3v-1.3c-74.4 12.9-149.8 19.3-225.3 19.2-58.1-0.1-116.1-3.6-174-10.5 0.3 2.1 0.5 4.2 0.6 6.4 2.4 21.5 0.6 43.2-5.1 64.1 0.4 0.1 1 0.2 1.5 0.3 0.2-0.1 0.3-0.2 0.4-0.1l0.5 0.3 4.4 0.5c6.5 0.7 13.4 1.5 20 2.1 13.2 1.2 23.8 2.2 33.7 2.8 13.3 1 30.9 2.2 48.7 3 13.2 0.7 26.1 0.9 37.3 1.2 9.2 0.2 18.5 0.3 27.7 0.3 16.2 0 32.7-0.3 49.1-0.9 5.2-0.2 10.2-0.3 15.3-0.7 16.3-1.2 30.6-2.1 44.1-3 8.3-0.5 17.1-1.2 26-2.1 11.8-1.1 25.7-2.5 39.7-4.4 9.2-1.1 18.5-2.4 27.4-3.6 5.8-0.7 11.3-1.5 16.9-2 0.9-0.1 1.3-0.3 1.6-1 0-0.2 0-0.3 0.1-0.4 0.3-0.1 0.4-0.2 0.4-0.4zm-280.5-30.8-0.8 0.2-7.7 1.8-0.4 0.1c-0.5-0.9-1-1.8-1.1-2.2-0.2-0.4-0.3-0.6-0.5-0.8-0.1-0.1-0.1-0.2-0.2-0.3s-0.1-0.2-0.2-0.3v-0.1c-2.2-3.1-6.1-4.9-9.9-4.3-2.6 0-5.1 0.9-7 2.5-0.1 0.1-0.2 0.2-0.4 0.3-0.1 0.2-0.3 0.4-0.4 0.5-0.9 1.1-1.6 2.3-2.1 3.6-2.4 6.6-2.3 13.8 0.1 20.3 1.7 4.9 5.6 7.2 10.6 7.4 1.9 0.1 3.6-0.3 5.3-1.2 0.1-0.1 0.2-0.1 0.3-0.2s0.2-0.1 0.3-0.2c0.2-0.1 0.4-0.3 0.6-0.4 0.3-0.3 0.6-0.5 0.9-0.8l0.2-0.2c0.1-0.1 0.2-0.3 0.4-0.4 0.8-0.9 1.5-2 2-3.3 0.5-0.9 0.8-1.9 1.2-3.3 0-0.1 0-0.1 0.1-0.2l0.2 0.1v-0.2c0.1-0.1 0.1-0.1 0.1-0.2l8.7 2.8c-0.4 1.8-1 3.5-1.7 5.1-0.2 0.4-0.4 0.8-0.6 1.1-0.1 0.1-0.1 0.2-0.2 0.3-0.1 0.3-0.3 0.6-0.5 0.9-0.1 0.1-0.1 0.2-0.2 0.3-0.5 0.7-1 1.3-1.5 1.9-3.2 3.8-7.9 6.1-13.4 6.3-6.5 0.4-12.4-1-17.2-5.4-3.6-3.3-6.1-7.8-6.8-12.7-1-5.6-0.8-11.3 0.6-16.9 1.5-5.4 4.5-9.2 8.2-11.8 0.1-0.1 0.2-0.2 0.3-0.2 0.1-0.1 0.2-0.1 0.3-0.2 0.4-0.3 0.7-0.5 1.1-0.7 0.2-0.2 0.4-0.3 0.6-0.4 0.3-0.1 0.5-0.3 0.8-0.4s0.6-0.3 0.9-0.4h0.1c4.1-1.7 8.5-2.2 13.1-1.6 7.3 0.9 12.7 4.5 15.4 11.4 0.1 0.4 0.2 0.7 0.3 1.1l0.4 1h-0.1l-0.3 0.1zm85.8-9.7v8h-25.9v11.3h25.9v8.2h-25.9v12.2h25.9v8.1h-35.5v-47.9h35.5zm63.1 43.6-9.6 0.8-0.7-8-0.7-8.4-0.3-3.7v-0.2l-0.7-7.9-0.9-11.2-0.7-8.1 9.5-0.8 25.9-2.2v0.1h0.3l0.6 8-25.8 2.2 0.9 11.2 25.6-2.1h0.2l0.6 8-25.9 2.2 1.1 12.1 25.6-2.2h0.2l0.6 8z"/>
	<polygon class="st0" points=""/>
	<path class="st0" d="m489.4 135-79.3 91.4-0.8 0.9-0.4 0.4 3.8 0.3h1.1c2 0.1 3.7 0.2 5.4 0.2l24.6 0.3c10.2 0.1 20.7 0.2 31 0.4h0.2l6.6 0.3 2.2-0.1c0.9 0 1.6-0.1 2-0.2l3.7-4.3 0.4-0.4c17.8-20.5 35.6-40.9 53.5-61.4l78.3-89.8c0.1-0.1 0.2-0.3 0.3-0.4 0.2-0.2 0.3-0.4 0.5-0.6 0.1-0.1 0.2-0.3 0.3-0.4 0-0.1 0-0.1 0.1-0.1-0.3-0.3-0.5-0.4-0.9-0.6-7.2-4.9-14.5-9.1-22.3-12.9-7.1-3.4-14.4-6.4-21.8-8.7-0.1 0-0.3-0.1-0.4-0.1-5.7-1.7-8.7-2.4-10.1-2.7h-0.2l-0.8-0.2-2.2 2.5-0.3 0.4-1.2 1.4-7.7 8.8z"/>
	<path class="st0" d="m694.4 206.4v-0.6c-0.1-2.6-0.2-5.1-0.3-7.6v-0.5c0-0.8-0.1-1.5-0.1-2.2 0-0.4 0-0.8-0.1-1.2-0.1-0.8-0.1-1.6-0.2-2.4 0-0.3-0.1-0.6-0.1-1-1.2-14.9-3.8-27.4-8.1-39.3-3.5-9.9-8.1-19.4-13.7-28.5-0.1-0.1-0.2-0.3-0.3-0.4-0.6-1-1.2-1.9-1.8-2.8-0.1-0.2-0.2-0.3-0.3-0.5-0.9-1.4-1.9-2.8-2.9-4.2l-48.6 55.8-2.2 2.6-13 15.3-31.2 35.9h0.9c21.9-0.7 100.7-10 119.6-13.8 1-0.2 1.9-0.4 2.5-0.6 0-1.3 0-2.7-0.1-4z"/></g><g fill="#236192">
	<path class="st3" d="m717.6 184.1c-0.1-1.4-0.3-2.9-0.5-4.3-0.4-4.1-1-8.2-1.8-12.3l-0.3-1.8v-0.1c-0.4-1.8-0.7-3.5-1.1-5.2-0.1-0.4-0.2-0.7-0.3-1.1-2.8-11.8-7.1-23.2-12.5-34-12.7-25.4-29.2-46.4-49.4-63.2-1.3-1.1-2.7-2.2-4.1-3.3-17.1-13.4-36.6-23.9-58.6-31.7-15.4-5.7-31.7-8.7-48.2-8.9-5.8 0-11.3 0.4-17 1.1-22.5 3-42.9 10.6-60.5 23.9-0.7 0.5-1.4 1-2.1 1.6-0.1 0-0.2 0.1-0.3 0.2-4.8 3.8-9.4 8.1-13.8 12.8l-2.5 2.3c-1.1-0.7-2.1-1.3-3-1.8-12.2-8-25-15.2-38.2-21.7-20.8-10.2-41.8-18.3-64.8-22.3-6.8-1.2-13.7-2-20.8-2.2-0.7 0-1.4-0.1-2.1-0.1-0.9 0-1.8 0.1-2.7 0.1-9.8 0.4-19.5 1.9-29.2 4.5-15.3 3.8-30 8.9-43.4 16.5-0.9 0.6-1.9 1.1-2.9 1.7-0.1 0.1-0.2 0.1-0.3 0.2-1.3 0.7-2.5 1.4-3.7 2.2-1.7 1.1-3.5 2.2-5.2 3.4-2.4 1.7-4.8 3.4-7.1 5.3-14.5 11.1-26.1 25.4-34 41.8-2.3 5.1-4.1 10.3-5.4 15.6 2.8 2.1 5.4 4 8 6.2 0.8 0.6 1.6 1.3 2.4 2 0.8 0.6 1.5 1.3 2.3 1.9 22.6 19.1 41.5 42.3 55.9 68.2 11.3 20.8 18.9 42.7 20.8 66.4 1.5 18.2-0.3 36.5-5.5 54.1-8.1 27.3-23 50.5-43.3 70.3-8.3 8.1-17.1 15.6-26.3 22.4l-6.3 4.5c-0.1 0.1-0.2 0.1-0.3 0.2-1 0.7-1.9 1.3-2.9 2-0.8 0.5-1.7 1.1-2.6 1.7-0.9 0.7-1.9 1.3-2.9 1.9l-6 3.6c-15.2 9-31.4 16.4-48.2 22.1-0.9 0.3-1.9 0.6-2.7 0.9l-0.9 0.3v0.1l0.3 2c0.1 0.7 0.3 1.5 0.4 2.2 0.4 2.3 0.9 4.6 1.4 6.9 3.6 16 9.3 31.5 16.8 46.1l0.9 1.8c8.4 16.6 19.3 31.8 32.4 44.9 1.9 2 3.9 3.9 6 5.7l0.4 0.4c0.5 0.4 1 0.9 1.4 1.3 25.5 22.5 55.2 34.6 87.8 38.1 1.8 0.2 3.7 0.4 5.6 0.5 1.2 0.1 2.5 0.2 3.7 0.2 1.9 0.1 3.8 0.2 5.7 0.2 1.3 0 2.5 0.1 3.8 0.1h1.3c15.7-0.1 31.2-2.6 45.9-7.6 14.1-4.7 27.2-11.3 39.2-19.4 0 0 0.1 0 0.1-0.1 0.8-0.5 1.6-1.1 2.4-1.6 2.2-1.6 4.4-3.3 6.7-5.1 0.3-0.3 0.7-0.6 1-0.8s0.5-0.5 0.8-0.7c9.1-7.5 17.6-15.9 25.4-25.2 1-1.3 2.4-2.8 4-4.7l-0.2 0.3 3.8-5.2 9.9-14.2 0.2-0.2 2.4 0.6c0.5 0.1 0.9 0.2 1.3 0.3 16.4 3.7 33 5.5 49.8 5.5 5.8 0 11.4-0.2 17.2-0.6 16.9-1.2 33.6-4.3 49.7-9.4 12.2-3.8 23.8-8.5 34.8-14.1 0.7-0.3 1.5-0.7 2.2-1.1 0.3-0.1 0.7-0.3 1-0.5 0.9-0.4 1.7-0.9 2.5-1.3 25.7-13.9 47.8-32.8 66-57.3 10.9-14.7 20-30.3 27.7-46.7 4.7-9.9 8.8-20.2 12.5-30.6 5.9-16.7 10.5-33.7 14-51 3.8-19 6.3-38.4 7.3-57.9 1-16.3 0.4-33.1-1.2-49.8zm-228-49.4 65.4-75.7 7.6-8.6 1.2-1.4 0.3-0.3 2.3-2.7 0.8 0.2h0.2c1.5 0.4 4.6 1.1 10.1 2.7 0.1 0 0.3 0.1 0.4 0.1 7.5 2.3 14.7 5.3 21.8 8.7 7.6 3.8 15.1 8 22.2 12.9 0.3 0.2 0.5 0.5 0.9 0.7v0.1 0.1c-0.1 0.1-0.2 0.3-0.3 0.4-0.2 0.2-0.3 0.4-0.5 0.6-0.1 0.1-0.2 0.3-0.3 0.4l-78.3 89.9c-17.8 20.5-35.7 40.9-53.5 61.4l-0.4 0.4-3.7 4.2-0.1 0.1c-0.4 0.1-1.1 0.2-2 0.2l-2.2 0.1-6.6-0.3h-0.2c-10.3-0.2-20.6-0.3-31-0.4l-24.6-0.3c-1.6 0-3.4-0.1-5.4-0.2h-1.1l-3.8-0.3h-0.1l0.6-0.6 0.8-0.9zm-92.8-69c0.2-0.4 0.5-0.7 0.9-1.1l0.1-0.1c0.2-0.2 0.5-0.5 0.7-0.8 0.1-0.1 0.2-0.2 0.2-0.3l0.8-0.9 0.1-0.1c16.1 8.3 31.5 18 46 28.8-0.1 0.1-0.1 0.2-0.2 0.2-0.3 0.4-0.6 0.9-1 1.3-0.1 0.1-0.2 0.2-0.3 0.4l-0.1 0.1c-22 25.3-44 50.5-66.1 75.8l-10.2 11.8c-9.9 11.3-19.8 22.8-29.7 34.1l-5.6 6.4v0.1l-1.3 1.5-1.7-0.2-8.1-0.9c-7.4-0.8-15-1.7-24.2-2.6l-5.9-0.8-1.7-5.9v-0.2l-1.6-5.2c-0.1-0.2-0.2-0.5-0.2-0.8 0-0.1-0.1-0.2-0.1-0.4-0.1-0.4-0.3-0.9-0.5-1.4-1-3.1-2.4-6.9-3-8.8 0 0 0-0.1-0.1-0.1l8.9-10.2 6.5-7.5c4-4.6 7.9-9.1 11.9-13.7zm-127.8 53.5c-0.1 0-0.1 0 0 0-4.8 5.5-9.5 10.9-14.2 16.3l-2.3 2.8-0.1 0.1c-1.1-1.2-2.2-2.4-3.2-3.7-0.7-0.8-1.4-1.7-2.1-2.6-4.5-5.4-9.2-11-14.1-16.1-4.9-5.2-9.9-10-15.2-15.2-2-2-4.1-4-6.3-6.1 0.6-0.8 1-1.6 1.6-2.3 1.5-2.5 3-5.1 4.9-7.4 10.7-14.7 25-26 43.9-34.6 3.2-1.5 6.6-2.8 9.9-4 0.1 0 0.1-0.1 0.2-0.1 0.1-0.1 0.3-0.1 0.4-0.2 0.1 0 0.2 0 0.2-0.1h0.1s0.1 0 0.1-0.1c0.7-0.3 1.5-0.5 2.2-0.8 0.7-0.2 1.3-0.5 2-0.7h0.1c0.4-0.1 0.8-0.3 1.2-0.4 0.1 0 0.2-0.1 0.3-0.1 0.6-0.2 1.1-0.4 1.7-0.6 0.9-0.3 1.8-0.5 2.7-0.8 0.8-0.2 1.5-0.4 2.3-0.6h0.1c0.3-0.1 0.6-0.1 0.9-0.3 0.1 0 0.2-0.1 0.4-0.1h0.2c0.4-0.1 0.8-0.2 1.3-0.3 0.1 0 0.1 0 0.2-0.1 0.1 0 0.2-0.1 0.4-0.1 1.6-0.4 3.2-0.8 5-1.1 0.1 0 0.2-0.1 0.4-0.1 3.5-0.8 7.1-1.4 10.7-1.9 0.2 0 0.5-0.1 0.7-0.1 3-0.4 6.1-0.6 9.1-0.6h4.1c5.1 0.2 10.1 0.7 15.1 1.6 0.1 0 0.3 0.1 0.4 0.1l1.2 0.2 0.7 0.1 2 0.5-3.8 4.3-22.4 26.2c-14.6 16.3-28.8 32.6-43 49zm153.3 338.2c-2.8 6.7-6 13.5-9.1 20.2-9.3 19.2-23.2 36-42.5 51.6-23 18.8-51.9 29.1-81.6 28.9-3.9 0-7.8-0.2-11.7-0.5-14.8-1-29.3-4.5-43-10-1.3-0.6-2.6-1.1-4-1.8-0.6-0.3-1.2-0.6-1.9-0.9l-1.8-0.9c-1.2-0.6-2.3-1.2-3.5-1.8-15.8-8.6-29.7-20.5-40.7-34.6-11.8-15-21.1-32-27.5-50-0.7-1.9-1.3-3.8-1.9-5.6-0.2-0.6-0.4-1.3-0.6-1.9 0-0.1-0.1-0.2-0.1-0.3-0.1-0.5-0.3-0.9-0.3-1.5l0.4-0.2 1.8-0.8c31.3-13.8 57.5-30.9 80.3-51.9 21.8-20.3 37.5-42.2 48.2-67.3 0.7-1.7 1.4-3.2 2.1-5.1l0.5-1c55.1 6.9 110.5 10.7 166 11.3h0.2c0.1 0.7 0.1 1.5 0 2.2-4.7 45-14.2 84.9-29.3 121.9zm257.9-140.7v0.2c-9.9 34.4-23.5 63.2-41.7 88-4.6 5.9-9.3 11.6-14.4 17-0.5 0.6-1 1.1-1.6 1.6l-1.6 1.6c-1.6 1.6-3.2 3.2-5 4.9-2.8 2.6-5.8 5.2-8.7 7.6-13.2 10.7-28 19.7-44.2 26.6-3.6 1.6-7.4 3-11.2 4.5-3.7 1.3-7.3 2.5-11 3.6-8.8 2.6-17.9 4.6-27 5.9-2.1 0.3-4.3 0.6-6.4 0.8-2.6 0.3-5.3 0.5-7.9 0.7-5.2 0.4-10.2 0.6-15.3 0.6-13.5 0-26.7-1.3-39.9-3.9-0.4-0.1-0.7-0.2-1.2-0.3 9.4-22 17-44.6 22.8-68.2s9.8-48.2 12.1-74.1c0.5-0.1 0.8-0.1 1.3-0.2 3-0.1 6.2-0.2 9.3-0.2 5.9-0.1 11.9-0.2 17.9-0.5 12-0.6 24.8-1.2 38.7-2 2-0.1 4-0.2 6.1-0.3 1.3-0.1 2.5-0.2 3.8-0.2 1.1-0.1 2.2-0.1 3.3-0.2 7.7-0.5 15-1 22.2-1.8 7.5-0.7 15.3-1.5 23.8-2.3 1.3-0.1 2.6-0.3 4-0.4 2.4-0.3 4.9-0.5 7.4-0.8 12.5-1.4 23.6-2.7 34.1-4.2 1.5-0.2 3-0.4 4.6-0.6 0.8-0.1 1.5-0.2 2.3-0.3 3.8-0.5 7.7-1.1 11.4-1.7 3.4-0.5 6.9-0.9 10.2-1.5 0.6-0.1 1.3-0.2 2-0.2-0.1-0.1-0.2 0.1-0.2 0.3zm13.8-83.3-0.1 1.4c-0.2 3-0.5 6.2-0.7 9.3-0.3 3.1-0.5 6.3-0.9 9.4-0.2 2.1-0.5 4.2-0.7 6.3-0.4 3.1-0.8 6.3-1.2 9.3v0.3c-0.9 6.3-2 12.6-3.3 18.8-0.1 0.6-0.2 1.2-0.4 1.8-0.3 1.6-0.7 3.1-1 4.8-0.2 1-0.5 2.1-0.7 3.1 0 0.1-0.1 0.2-0.1 0.4-0.1 0.1-0.1 0.2-0.2 0.4-0.3 0.6-0.7 0.9-1.6 1-5.6 0.5-11.1 1.3-16.9 2-8.9 1.2-18.2 2.5-27.4 3.7-14 1.8-27.9 3.2-39.7 4.3-8.9 0.9-17.7 1.6-26 2.1-13.6 0.9-27.8 1.8-44.1 3-5.1 0.4-10.1 0.5-15.3 0.7-16.4 0.6-32.9 0.9-49.1 0.9-9.2 0-18.5-0.1-27.8-0.3-11.1-0.3-24.1-0.5-37.3-1.2-17.8-0.8-35.4-2-48.7-3-9.9-0.6-20.6-1.6-33.7-2.8-6.7-0.6-13.6-1.4-20-2.1l-4.4-0.5-0.6-0.1c-0.1 0-0.2 0-0.3-0.1-0.5-0.1-1.1-0.3-1.5-0.4 5.7-20.9 7.5-42.6 5.1-64.1-0.2-2.2-0.5-4.3-0.8-6.5h0.1c57.7 6.9 115.7 10.4 174 10.5 75.6 0.1 151-6.4 225.4-19.2v1.2c0.1 2.1 0.1 3.8-0.1 5.6zm0.6-22.9c-0.6 0.2-1.3 0.3-2.2 0.5-0.1 0-0.3 0-0.4 0.1-18.9 3.8-97.8 13.1-119.6 13.8h-1l31.3-36.2 13-15.1 2.2-2.6 48.6-55.9 0.1-0.2c1 1.4 1.9 2.8 2.9 4.2 0.1 0.2 0.2 0.3 0.3 0.5 0.3 0.5 0.6 0.9 0.9 1.4s0.6 1 0.9 1.5c0.1 0.1 0.2 0.3 0.3 0.4 5.5 9 10 18.5 13.7 28.4 4.2 11.9 6.9 24.4 8.1 39.3v0.2c0 0.2 0 0.5 0.1 0.7 0.1 0.8 0.1 1.6 0.2 2.4v0.1c0 0.3 0 0.7 0.1 1.1 0 0.7 0.1 1.5 0.1 2.2v0.5c0 0.9 0.1 1.8 0.1 2.8 0 0.9 0.1 1.9 0.1 2.9v2.4c0.1 1.8 0.2 3.1 0.2 4.6z"/>
	<path class="st3" d="m404.6 266.9-0.4-1c-0.1-0.4-0.2-0.7-0.3-1.1-2.7-7-8.1-10.5-15.4-11.4-4.6-0.6-9-0.1-13.1 1.6h-0.1c-0.3 0.1-0.6 0.3-0.9 0.4s-0.5 0.3-0.8 0.4c-0.2 0.1-0.4 0.2-0.6 0.4-0.4 0.2-0.7 0.4-1.1 0.7-0.1 0.1-0.2 0.2-0.3 0.2-3.6 2.6-6.6 6.5-8.1 11.7-1.5 5.5-1.7 11.2-0.6 16.9 0.7 5 3.1 9.4 6.8 12.7 5 4.4 10.8 5.8 17.2 5.4 5.3-0.3 9.8-2.4 13-6 0.5-0.6 1-1.2 1.5-1.9 0.1-0.1 0.1-0.2 0.2-0.3 0.2-0.3 0.4-0.6 0.5-0.9 0.1-0.1 0.1-0.2 0.2-0.3 0.2-0.3 0.4-0.7 0.6-1.1 0.7-1.5 1.3-3.2 1.7-5.1l-8.7-2.8c0 0.1 0 0.1-0.1 0.2v0.2c-0.4 1.3-0.7 2.2-1.1 3.1-0.6 1.3-1.3 2.4-2.1 3.4-0.1 0.1-0.2 0.3-0.4 0.4-0.2 0.2-0.3 0.4-0.5 0.5-0.3 0.3-0.6 0.5-0.9 0.8-0.2 0.1-0.4 0.3-0.6 0.4-0.1 0.1-0.2 0.1-0.3 0.2s-0.2 0.1-0.3 0.2c-1.6 0.9-3.3 1.3-5.3 1.2-5.1-0.2-8.9-2.5-10.6-7.4-2.4-6.5-2.5-13.7-0.1-20.3 0.5-1.3 1.2-2.5 2.1-3.6 0.1-0.1 0.3-0.3 0.4-0.5l0.2-0.2c0.1-0.1 0.3-0.3 0.5-0.4 1.9-1.6 4.4-2.6 7.1-2.6 3.8-0.5 7.6 1.1 9.9 4.3v0.1c0.1 0.1 0.1 0.2 0.2 0.3s0.1 0.2 0.2 0.3c0.1 0.2 0.3 0.5 0.5 0.8s0.6 1.3 1.1 2.2l0.4-0.1 7.6-1.7 0.4-0.1 0.3-0.1h0.1z"/>
	<polygon class="st3" points="454.7 276.9 454.7 285 454.7 297.2 454.7 305.3 464.2 305.3 490.1 305.3 490.1 297.2 464.2 297.2 464.2 285 490.1 285 490.1 284.9 490.1 276.9 464.2 276.9 464.2 276.8 464.2 265.5 490.1 265.5 490.1 257.5 464.2 257.5 454.7 257.5 454.7 265.5"/>
	<polygon class="st3" points="552.5 293.1 551.4 281 577.3 278.8 576.6 270.8 576.6 270.8 551 272.9 550.9 272.9 550.8 272.9 549.9 261.7 575.7 259.4 575 251.4 575 251.4 575 251.3 549.1 253.6 539.5 254.4 540.2 262.5 541.2 273.7 541.9 281.6 541.9 281.8 542.2 285.6 542.9 294 543.6 302 553.2 301.1 579 298.9 578.3 290.9 578.2 290.9 552.6 293.1"/>
	</g><path d="m372 477.5c0.2-0.6 0.5-1.2 0.7-1.8 2.5-7.1 3.8-14.7 3.8-22.6 0-35.6-27-64.8-61.8-68.2-1.1-0.1-2.2-0.2-3.3-0.2-1.1-0.1-2.2-0.1-3.4-0.1h-1.3-0.5-1.3c-0.6 0-1.1 0-1.7 0.1-1.2 0.1-2.5 0.2-3.7 0.4-1 0.1-2 0.3-3 0.5-2.2 0.4-4.5 0.9-6.6 1.4-0.5 0.1-1 0.3-1.6 0.5-1.5 0.5-3.1 1-4.7 1.6h-0.1c-1.5 0.6-3 1.2-4.6 1.9-0.7 0.4-1.5 0.7-2.2 1.1s-1.4 0.7-2.1 1.1c0 0-0.1 0-0.1 0.1-0.5 0.3-0.9 0.5-1.4 0.8-1.4 0.8-2.7 1.7-4.1 2.5l-0.1 0.1c-0.8 0.6-1.7 1.2-2.5 1.8-0.4 0.3-0.9 0.7-1.3 1s-0.8 0.7-1.2 1c0 0-0.1 0-0.1 0.1l-2.4 2.1c-0.4 0.4-0.8 0.7-1.1 1.1-0.4 0.4-0.8 0.7-1.1 1.1-10.1 10.2-17 23.7-19 38.5-0.5 3.5-0.7 7.1-0.6 10.8 0.4 15.1 5.7 29.2 14.3 40.4 0.3 0.4 0.6 0.7 0.8 1.1 1.7 2.1 3.5 4.2 5.5 6.1 0.4 0.3 0.7 0.7 1 1 0.7 0.7 1.4 1.3 2.2 2 0.4 0.3 0.7 0.6 1.1 0.9 0.8 0.6 1.5 1.2 2.3 1.8 7.5 5.7 16.1 9.8 25.5 12 3.4 0.8 7 1.4 10.6 1.6 2.1 0.2 4.3 0.2 6.5 0.2 0.5 0 1.1 0 1.6-0.1 0.6 0 1.1 0 1.7-0.1 26.9-1.8 49.6-19.1 59.1-43l0.2-0.6zm-41.1-81.2 1 0.5 1.6 0.7h0.1c1 0.5 1.9 0.8 3 1.3 10.5 5.1 15.8 14.3 19.1 24.9 2.5 8.6 3 17.5 1.5 26.3h-0.1c-0.4 2.9-1.8 5.6-4.2 7.5-2.4 2.2-5.4 3.8-8.7 4.5v-0.2c4.3-25.2-1.9-47.6-19.2-67.4 2 0.5 4 1.2 5.9 1.9zm-21.2-4.1c0.9 0.1 1.8 0.5 2.5 1.2 4.3 3.6 8.1 7.6 11.4 11.8 7.2 9.3 11.7 20.1 13.5 32.4 0.8 5.8 0.9 11.7 0.2 17.5-0.1 0.8-0.3 1.7-0.4 2.5 0 0.5-0.2 0.9-0.3 1.5-0.2 0.9-0.4 1.8-0.5 2.5-0.2 0.5-0.4 1.2-0.7 1.8-1.8-0.4-3.7-0.9-5.4-1.7-0.9-0.4-1.7-0.7-2.4-1l-0.5-0.2-1.2-0.6c-1.8-0.8-3.6-1.7-5.4-2.5l-0.3-0.1-0.4-0.2c-0.7-0.4-2.1-0.9-3.4-1.6l-1-0.5-0.5-0.2-0.4-0.2c-0.5-0.2-0.8-0.4-1.2-0.7l-0.1-0.1c0-0.2 0.2-0.5 0.3-1.1 0.2-0.9 0.4-2 0.5-3 0-0.2 0-0.5 0.1-0.7v-0.4c0.8-4.6 1.1-9.2 1-13.9-0.3-7-1.7-13.7-4.2-19.8-2-4.9-4.9-9.4-8.6-13.6-2.3-2.6-5-4.8-7.7-7.3-0.1-0.1-0.3-0.2-0.4-0.4 5.1-1.4 10.2-1.9 15.5-1.4zm-61.2 48.1c4-17.9 13.7-31.5 29.3-40.6 0 0 0.9-0.6 2-1.1l0.4-0.2 0.5-0.2c1-0.5 2.1-1 3.2-1.4 0.7 0.3 1.3 0.6 1.9 1 0.1 0.1 0.3 0.2 0.4 0.2 0.2 0.1 0.4 0.2 0.5 0.4l0.6 0.4 0.2 0.1c0.2 0.1 0.3 0.2 0.5 0.3 0.5 0.4 0.9 0.7 1.2 0.9l0.3 0.3c0.5 0.4 1 0.7 1.5 1.1 1 0.9 2 1.8 3 2.8s2 2.1 2.9 3.2l0.4 0.5h-1.9c-2.7 0.2-5.3 0.6-7.9 1.3-1.1 0.3-2 0.5-2.8 0.7l-0.4 0.1-1.3 0.4-0.3 0.1h-0.1c-11.2 3.7-21.1 11-27.8 20.7-2.3 3.1-4.3 6.5-6.5 9.8 0.1-0.3 0.2-0.6 0.2-0.8zm0.6 29c-0.6-0.9-0.9-2.4-0.7-3.9-0.1-2 0.4-4.2 1.1-6.2 0.1-0.5 0.3-0.9 0.5-1.5 0.3-0.9 0.7-1.9 0.9-2.8 0.5-1.5 1-2.8 1.5-3.9 0.3-0.7 0.6-1.4 0.8-2 0-0.1 0.1-0.2 0.2-0.4v-0.2c2.9-6.8 7.2-13.1 12.3-18.3 3.7-3.8 7.9-7 12.6-9.4 2.8-1.5 5.8-2.7 8.9-3.5l0.8-0.2c4.7-1.2 9.3-1.8 14.2-2 0.5 0.8 1 1.8 1.4 2.7l0.6 1.4v0.1c0.2 0.5 0.4 1.1 0.6 1.7 0.1 0.3 0.2 0.5 0.3 0.8l0.1 0.4c0.2 0.5 0.3 0.9 0.4 1.4 0 0.2 0.1 0.3 0.1 0.5s0.2 0.6 0.2 0.8c0.1 0.3 0.2 0.8 0.2 0.9 1.1 4.7 1.4 9.5 0.9 14.4-0.3 2.7-0.5 5.4-0.9 8.2v0.1c0 0.3-0.1 0.5-0.2 0.8-0.1 0.7-0.3 1.4-0.4 1.9h-1c-6-0.5-11.4-1-17-1.2-3.3 0-6.7 0.3-10 0.8-3.1 0.4-5.9 1.3-8.6 2.4-4.4 1.9-8.4 4.8-12 8.2-2.7 2.5-5.1 5.2-7.8 8zm90.2 35.5c-0.9 0.7-1.3 1.2-1.9 1.4-12.2 6.9-26.3 9.3-39.9 6.8-17.7-2.9-33.1-13.6-42.2-29.1 0 0-0.4-0.7-0.9-1.5-0.2-0.4-0.5-0.8-0.7-1.2s-0.4-0.7-0.6-1.1-0.4-0.8-0.5-1.2v-0.1c0.4-1.1 3.5-4.9 5.6-7.1l1.6-1.8c1.9-2.1 4.1-4.1 6.4-5.7 17.8 25.4 41.6 39.5 73.3 40.4l-0.2 0.2zm29.1-45.1-0.2 1.2-0.1 0.5c-0.3 2.2-0.7 4.5-1.3 6.6-2.5 9.4-7.3 18.1-13.7 25.4-0.9 1.4-2.3 2.1-3.8 2.3-3.8 0.5-7.4 0.7-11.1 0.7-15.8-0.1-30.5-4.7-44-14.2-7.3-5.3-13.6-11.6-18.9-18.8l-0.2-0.3-0.1-0.2c-0.1-0.1-0.1-0.2-0.2-0.3l-0.3-0.4c-0.4-0.5-0.9-1.3-1.2-1.8 1.2-1.2 2.8-1.8 4.6-1.9l1.7-0.2c3.5-0.3 7-0.5 10.4-0.4 7.6 0 15.1 1.1 22.3 4.3 3.1 1.5 6.3 3 9.4 4.5 4.6 2.2 9.3 4.3 14.4 4.5h2.1c10.7-0.6 19.8-4.4 25.2-14.3 0.2-0.3 0.2-0.4 0.4-0.8h0.1l0.9 0.4 2.1 0.8 1.8 0.6zm1.4-8.1c-0.1 0-2-0.7-4.8-1.5 1.5-7.3-0.2-18.5-0.2-18.6 5.3 7.5 5 20.1 5 20.1z"/>
	<path class="st4" d="m720.3 178.9c-2.2-19.2-7.8-38-16.4-55.3-24.1-47.7-62.4-81.2-113.8-99.4-15.9-5.8-32.5-8.8-49.4-8.9-5.8 0-11.6 0.4-17.4 1.2-31.6 4.3-58 17.7-78.4 39.7l-0.4 0.4-1-0.7c-12.4-8-25.2-15.4-38.4-21.8-24.1-11.8-45.2-18.9-65.9-22.6-7.6-1.4-15.4-2.1-23.2-2.2-0.9 0-1.9 0.1-2.8 0.1-10.1 0.5-20.2 1.9-30.1 4.6-25.2 6.3-46.1 16.1-63.7 30.1-14.7 11.3-26.6 26-34.8 42.7-2.4 5.2-4.2 10.6-5.6 16.1l-0.5 1.8 1.5 1.1 2.5 1.8c1.9 1.5 3.8 2.8 5.5 4.2 24.2 19.6 44.6 43.9 59.7 71.2 12 21.8 18.6 42.9 20.5 65.1 1.5 17.9-0.3 35.8-5.4 53-7.6 25.6-21.9 48.8-42.6 69.1-27 26.3-59.3 46.2-94.9 58.2-0.9 0.3-1.8 0.6-2.7 0.9l-0.8 0.3-2.3 0.7 0.4 2.4 0.3 2.1 1.8 8.9c3.7 16.4 9.5 32.2 17.2 47.2 10 20.2 23.6 38.5 40.3 53.8 29.8 26.9 66.7 40.8 110.1 41.1h1.4c15.9-0.1 31.8-2.7 46.9-7.8 29.7-9.8 55.7-27.8 77.4-53.9 4.3-5.3 8.5-11 12.3-16.5 1.2-1.7 2.3-3.3 3.5-5.1 0.2-0.3 0.4-0.5 0.6-0.7h0.1c0.5 0.1 0.8 0.2 1.2 0.3l0.3 0.1c16.6 3.7 33.4 5.6 50.4 5.6 5.8 0 11.5-0.2 17.4-0.7 17.1-1.2 34-4.4 50.4-9.5 45-14.2 81.4-39.5 108.1-75.3 16.9-22.6 30.2-48.1 40.6-78.1 12.3-35.4 19.5-72.3 21.6-109.9 1.2-18.2 0.7-36.9-1.5-55.4zm-1.5 55.5c-1 19.5-3.5 38.9-7.3 57.9-3.4 17.3-8.1 34.3-14 51-3.6 10.4-7.8 20.7-12.5 30.6-7.7 16.4-16.8 32-27.7 46.7-18.2 24.5-40.3 43.4-66 57.3-0.8 0.4-1.6 0.9-2.5 1.3-0.3 0.2-0.7 0.4-1 0.5-0.7 0.4-1.5 0.8-2.2 1.1-11 5.6-22.7 10.2-34.8 14.1-16.1 5.1-32.8 8.2-49.7 9.4-5.8 0.4-11.4 0.6-17.2 0.6-16.8 0-33.4-1.8-49.8-5.5-0.4-0.1-0.8-0.2-1.3-0.3l-2.4-0.6-0.2 0.2-9.9 14.2-3.3 4.7c-1.5 1.8-2.8 3.3-4 4.6-7.9 9.4-16.5 17.9-25.7 25.4-0.3 0.2-0.6 0.5-0.8 0.7-0.3 0.3-0.7 0.6-1 0.8-2.2 1.7-4.5 3.4-6.7 5.1-0.8 0.6-1.6 1.1-2.4 1.6 0 0-0.1 0-0.1 0.1-11.9 8.1-25 14.6-39.2 19.4-14.8 5.1-30.3 7.6-45.9 7.6h-1.3c-1.3 0-2.5 0-3.8-0.1-1.9-0.1-3.8-0.1-5.7-0.2-1.2-0.1-2.5-0.2-3.7-0.2-1.9-0.1-3.7-0.3-5.6-0.5-32.6-3.5-62.2-15.5-87.8-38.1-0.5-0.4-1-0.9-1.4-1.3l-0.4-0.4-6-5.7c-13.1-13.2-24-28.3-32.4-44.9l-0.9-1.8c-7.6-14.6-13.2-30.1-16.8-46.1-0.5-2.3-1-4.6-1.4-6.9-0.1-0.7-0.3-1.5-0.4-2.2l-0.3-2v-0.1l0.9-0.3c0.8-0.3 1.8-0.6 2.7-0.9 16.8-5.7 33-13.1 48.2-22.1l6-3.6c1-0.6 2-1.2 2.9-1.9 0.9-0.6 1.8-1.2 2.6-1.7 1-0.7 1.9-1.3 2.9-2 0.1-0.1 0.2-0.1 0.3-0.2l6.3-4.5c9.2-6.8 18-14.3 26.3-22.4 20.4-19.8 35.2-42.9 43.3-70.3 5.2-17.5 7-35.8 5.5-54.1-1.8-23.7-9.4-45.7-20.8-66.4-14.4-25.9-33.3-49.1-55.9-68.2-0.8-0.6-1.5-1.3-2.3-1.9s-1.5-1.2-2.3-1.9c-2.6-2.1-5.3-4-8.1-6.3 1.2-5.2 3-10.5 5.4-15.6 7.9-16.4 19.5-30.7 34-41.8 2.3-1.8 4.7-3.5 7.1-5.3 1.7-1.2 3.5-2.3 5.2-3.4 1.2-0.8 2.4-1.5 3.7-2.2 0.1-0.1 0.2-0.1 0.3-0.2 1-0.6 2-1.1 2.9-1.7 13.5-7.6 28.1-12.7 43.4-16.5 9.6-2.5 19.3-4 29.2-4.5 0.9 0 1.8-0.1 2.7-0.1h0.1c0.6 0 1.3 0 1.9 0.1 7 0.2 14 1 20.8 2.2 23 4 44 12 64.8 22.3 13.2 6.5 25.9 13.7 38.2 21.7 0.9 0.5 1.9 1.1 3 1.8l2.5-2.3c4.4-4.7 9-9 13.8-12.8 0.1-0.1 0.2-0.2 0.3-0.2 0.7-0.6 1.4-1.1 2.1-1.6 17.5-13.3 38-20.9 60.5-23.9 5.7-0.7 11.2-1.1 17-1.1 16.5 0.2 32.8 3.2 48.2 8.9 22 7.7 41.5 18.2 58.6 31.6 1.4 1.1 2.8 2.2 4.1 3.3 20.2 16.7 36.7 37.6 49.4 62.8 5.5 11 9.6 22.5 12.5 34.3 0.1 0.4 0.2 0.7 0.3 1.1 0.4 1.8 0.8 3.5 1.1 5.2v0.1l0.3 1.8c0.7 3.9 1.3 7.8 1.8 11.7 0.2 1.7 0.3 3.3 0.5 4.9 1.7 16.5 2.3 33.3 1.3 50.1z" fill="#eadb5b"/>
	<path class="st0" d="m680.3 316.2c0 0.1-0.1 0.3-0.1 0.5v0.2c-9.9 34.4-23.5 63.2-41.7 88-4.6 5.9-9.3 11.6-14.4 17-0.5 0.6-1 1.1-1.6 1.6l-1.6 1.6c-1.6 1.6-3.2 3.2-5 4.9-2.8 2.6-5.8 5.2-8.7 7.6-13.2 10.7-28 19.7-44.2 26.6-3.6 1.6-7.4 3-11.2 4.5-3.7 1.3-7.3 2.5-11 3.6-8.8 2.6-17.9 4.6-27 5.9-2.1 0.3-4.3 0.6-6.4 0.8-2.6 0.3-5.3 0.5-7.9 0.7-5.2 0.4-10.2 0.6-15.3 0.6-13.5 0-26.7-1.3-39.9-3.9-0.4-0.1-0.7-0.2-1.2-0.3 9.4-22 17-44.6 22.8-68.2s9.8-48.2 12.1-74.1c0.5-0.1 0.8-0.1 1.3-0.2 3-0.1 6.2-0.2 9.3-0.2 5.9-0.1 11.9-0.2 17.9-0.5 12-0.6 24.8-1.2 38.7-2 2-0.1 4-0.2 6.1-0.3 1.3-0.1 2.5-0.2 3.8-0.2 1.1-0.1 2.2-0.1 3.3-0.2 7.7-0.5 15-1 22.2-1.8 7.5-0.7 15.3-1.5 23.8-2.3 1.3-0.1 2.6-0.3 4-0.4 2.4-0.3 4.9-0.5 7.4-0.8 12.5-1.4 23.6-2.7 34.1-4.2 1.5-0.2 3-0.4 4.6-0.6 0.8-0.1 1.5-0.2 2.3-0.3 3.8-0.5 7.7-1.1 11.4-1.7 3.4-0.5 6.9-0.9 10.2-1.5 0.5-0.3 1.2-0.4 1.9-0.4z" fill="#fff"/>
	<path class="st3" d="m608.4 408.5c-1.5-9.4-2.9-18.9-4.6-28.4-0.5-3.8-3-7.2-6.6-8.8-1.3-0.7-2.6-1.1-4-1.6-15.3-5.1-30.6-10.1-46-15.2-12.4-4-24.8-8.3-37.2-12.3-1.4-0.5-2.8-0.7-4.3-0.6-0.2 0-0.3 0-0.5 0.1-0.7 0.1-1.5 0.3-2.2 0.6-1.7 0.7-3.6 1.3-5.3 1.9-1.8 0.6-3.6 1.2-5.5 1.8-0.1 0-0.1 0.1-0.2 0.1-0.6 0.2-1.1 0.4-1.7 0.6-0.8 0.3-1.5 0.6-2.5 1.1-1.3 20.6-2.7 41.1-4.2 61.9l-0.2 2.1 0.4-0.2 1.7-0.8 1-0.5h0.1l27.2-12.7 5.3-2.4-0.2-2c-0.7-6.5-1.3-13-1.9-19.4-0.2-2.1-0.3-4.3-0.4-7 0.1 0 0.3 0.1 0.4 0.1 1.4 0.5 2.3 0.7 3.1 1.1l46.8 18.8c1.4 0.5 2.4 1.1 2.6 2.9 0.7 10.7 1.7 21.6 2.5 32.3 0.4 4.3 0.6 8.9 0.9 13.5l0.2 2.4 0.5 8 0.4-0.2 1.5-0.9 3.7-2.2 0.2-0.1c8.8-5.5 17.6-11.1 26.4-16.5l2.3-1.4 0.1-0.1 2-1.3zm-110.5-57.6 9.7-3.9 1.3 9.1v0.1zm15.1 39.9-23 10.8 3.1-44 9.8 3.2 7 2.3 2.1 19.5zm59.8-10.1-13.6-5.3-43.2-16.6-0.4-5.5-0.3-4.1v-0.1l12.9 4.5 56.9 20-0.1 0.1-5.7 3.2zm27.7 41.5-7.7 4.9-9.6 6.1-0.1 0.1h-0.1l-2.2 1.3-0.8 0.5-0.2 0.1-0.4-3.9-0.1-0.8c-0.1-0.8-0.2-1.7-0.3-2.5-0.7-9.7-1.4-19.3-2.1-28.9v0.1l-0.2-2.1-0.7-9.1 5.2-2.9c3.4-1.9 6.8-4.1 10.2-5.9s5.3-0.7 6 3c1.6 8.7 3 17.3 4.6 26 0.2 1 0.3 2 0.5 3l1.5 8 0.2 0.9z" fill="#236192"/>
</g>
</svg>
