<?xml version="1.0" encoding="utf-8"?>
<!-- Generator: Adobe Illustrator 23.0.0, SVG Export Plug-In . SVG Version: 6.00 Build 0)  -->
<svg version="1.1" id="Capa_1" xmlns="http://www.w3.org/2000/svg" xmlns:xlink="http://www.w3.org/1999/xlink" x="0px" y="0px"
	 viewBox="0 0 273 90" style="enable-background:new 0 0 273 90;" xml:space="preserve">
<style type="text/css">
	.st0{fill:#CE7D36;}
	.st1{fill:#E7B679;}
	.st2{fill:none;stroke:#000000;stroke-width:0.25;stroke-linejoin:round;stroke-miterlimit:10;}
	.st3{fill:none;stroke:#010202;stroke-width:0.25;stroke-linecap:round;stroke-linejoin:round;stroke-miterlimit:3.864;}
	.st4{fill:none;stroke:#000000;stroke-width:0.25;stroke-linecap:round;stroke-linejoin:round;stroke-miterlimit:3.864;}
	.st5{fill:#FFFFFF;}
	.st6{fill:none;stroke:#010202;stroke-width:0.25;stroke-linejoin:bevel;stroke-miterlimit:3.864;}
	.st7{fill:none;stroke:#010202;stroke-width:0.25;stroke-miterlimit:3.864;}
	.st8{fill:#E5AB23;}
	.st9{fill:#010202;}
	.st10{fill:#FBEA25;}
	.st11{clip-path:url(#SVGID_2_);fill:#E20D19;}
	.st12{clip-path:url(#SVGID_2_);fill:none;stroke:#010202;stroke-width:0.25;stroke-miterlimit:3.864;}
	.st13{clip-path:url(#SVGID_4_);fill:none;stroke:#010202;stroke-width:0.25;stroke-miterlimit:3.864;}
	.st14{clip-path:url(#SVGID_4_);fill:#010202;}
	.st15{clip-path:url(#SVGID_6_);fill:#CE7D36;}
	.st16{clip-path:url(#SVGID_6_);fill:none;stroke:#010202;stroke-width:0.25;stroke-miterlimit:3.864;}
	.st17{clip-path:url(#SVGID_8_);fill:#010202;}
	.st18{clip-path:url(#SVGID_10_);fill:#CE7D36;}
	.st19{clip-path:url(#SVGID_10_);fill:none;stroke:#010202;stroke-width:0.25;stroke-miterlimit:3.864;}
	.st20{clip-path:url(#SVGID_12_);fill:#010202;}
	.st21{clip-path:url(#SVGID_14_);fill:#CE7D36;}
	.st22{clip-path:url(#SVGID_14_);fill:none;stroke:#010202;stroke-width:0.25;stroke-miterlimit:3.864;}
	.st23{clip-path:url(#SVGID_16_);fill:#010202;}
	.st24{clip-path:url(#SVGID_18_);fill:#CE7D36;}
	.st25{clip-path:url(#SVGID_18_);fill:none;stroke:#010202;stroke-width:0.25;stroke-miterlimit:3.864;}
	.st26{clip-path:url(#SVGID_20_);fill:#010202;}
	.st27{clip-path:url(#SVGID_22_);fill:#CE7D36;}
	.st28{clip-path:url(#SVGID_22_);fill:none;stroke:#010202;stroke-width:0.25;stroke-miterlimit:3.864;}
	.st29{clip-path:url(#SVGID_24_);fill:#010202;}
	.st30{clip-path:url(#SVGID_26_);fill:#CE7D36;}
	.st31{clip-path:url(#SVGID_26_);fill:none;stroke:#010202;stroke-width:0.25;stroke-miterlimit:3.864;}
	.st32{clip-path:url(#SVGID_28_);fill:#010202;}
	.st33{clip-path:url(#SVGID_30_);fill:#CE7D36;}
	.st34{clip-path:url(#SVGID_30_);fill:none;stroke:#010202;stroke-width:0.25;stroke-miterlimit:3.864;}
	.st35{clip-path:url(#SVGID_32_);fill:#010202;}
	.st36{clip-path:url(#SVGID_34_);fill:#CE7D36;}
	.st37{clip-path:url(#SVGID_34_);fill:none;stroke:#010202;stroke-width:0.25;stroke-miterlimit:3.864;}
	.st38{clip-path:url(#SVGID_36_);fill:#010202;}
	.st39{clip-path:url(#SVGID_38_);fill:#CE7D36;}
	.st40{clip-path:url(#SVGID_38_);fill:none;stroke:#010202;stroke-width:0.25;stroke-miterlimit:3.864;}
	.st41{clip-path:url(#SVGID_40_);fill:#010202;}
	.st42{clip-path:url(#SVGID_42_);fill:#CE7D36;}
	.st43{clip-path:url(#SVGID_42_);fill:none;stroke:#010202;stroke-width:0.25;stroke-miterlimit:3.864;}
	.st44{clip-path:url(#SVGID_44_);fill:#010202;}
	.st45{clip-path:url(#SVGID_46_);fill:#CE7D36;}
	.st46{clip-path:url(#SVGID_46_);fill:none;stroke:#010202;stroke-width:0.25;stroke-miterlimit:3.864;}
	.st47{clip-path:url(#SVGID_48_);fill:#010202;}
	.st48{clip-path:url(#SVGID_50_);fill:#CE7D36;}
	.st49{clip-path:url(#SVGID_50_);fill:none;stroke:#010202;stroke-width:0.25;stroke-miterlimit:3.864;}
	.st50{clip-path:url(#SVGID_52_);fill:#010202;}
	.st51{clip-path:url(#SVGID_54_);fill:#CE7D36;}
	.st52{clip-path:url(#SVGID_54_);fill:none;stroke:#010202;stroke-width:0.25;stroke-miterlimit:3.864;}
	.st53{clip-path:url(#SVGID_56_);fill:#010202;}
	.st54{clip-path:url(#SVGID_58_);fill:#CE7D36;}
	.st55{clip-path:url(#SVGID_58_);fill:none;stroke:#010202;stroke-width:0.25;stroke-miterlimit:3.864;}
	.st56{clip-path:url(#SVGID_60_);fill:#010202;}
	.st57{clip-path:url(#SVGID_62_);fill:#CE7D36;}
	.st58{clip-path:url(#SVGID_62_);fill:none;stroke:#010202;stroke-width:0.25;stroke-miterlimit:3.864;}
	.st59{clip-path:url(#SVGID_64_);fill:#CE7D36;}
	.st60{clip-path:url(#SVGID_64_);fill:none;stroke:#010202;stroke-width:0.25;stroke-miterlimit:3.864;}
	.st61{clip-path:url(#SVGID_66_);fill:#010202;}
	.st62{clip-path:url(#SVGID_68_);fill:#CE7D36;}
	.st63{clip-path:url(#SVGID_68_);fill:none;stroke:#010202;stroke-width:0.25;stroke-miterlimit:3.864;}
	.st64{clip-path:url(#SVGID_70_);fill:#E20D19;}
	.st65{clip-path:url(#SVGID_70_);fill:none;stroke:#010202;stroke-width:0.25;stroke-miterlimit:3.864;}
	.st66{clip-path:url(#SVGID_70_);fill:#FBEA25;}
	.st67{clip-path:url(#SVGID_70_);fill:none;stroke:#010202;stroke-width:0.25;stroke-linejoin:bevel;stroke-miterlimit:3.864;}
	.st68{clip-path:url(#SVGID_72_);fill:#FFFFFF;}
	.st69{clip-path:url(#SVGID_72_);fill:none;stroke:#010202;stroke-width:0.25;stroke-miterlimit:3.864;}
	.st70{clip-path:url(#SVGID_72_);fill:#005095;}
	.st71{clip-path:url(#SVGID_72_);fill:#CF732F;}
	.st72{clip-path:url(#SVGID_72_);fill-rule:evenodd;clip-rule:evenodd;fill:#FFFFFF;}
	.st73{clip-path:url(#SVGID_74_);fill:url(#SVGID_75_);}
	.st74{clip-path:url(#SVGID_77_);fill:none;stroke:#010202;stroke-width:0.25;stroke-miterlimit:3.864;}
	.st75{clip-path:url(#SVGID_77_);fill:#CF732F;}
	.st76{clip-path:url(#SVGID_77_);fill:#0065B1;}
	.st77{clip-path:url(#SVGID_77_);fill:#010202;}
	
		.st78{clip-path:url(#SVGID_77_);fill:none;stroke:#010202;stroke-width:0.25;stroke-linecap:square;stroke-linejoin:bevel;stroke-miterlimit:3.864;}
	.st79{clip-path:url(#SVGID_79_);fill:none;stroke:#010202;stroke-width:0.25;stroke-miterlimit:3.864;}
	.st80{fill:none;stroke:#010202;stroke-width:0.25;stroke-linecap:round;stroke-linejoin:bevel;stroke-miterlimit:3.864;}
</style>
<g>
	<path d="M78.2,34.3c-0.4-0.3-0.9-0.5-1.3-0.7c-0.3-0.1-0.7-0.3-0.8-0.4c-0.1-0.1-0.1-0.4,0-0.6c0,0,0-0.1,0-0.1c0-0.5,0-1.2,0-1.9
		c-0.1-1.3-0.3-2.5-0.6-3.6c-0.6-2-1.6-4-3.2-6.2c-0.8-1.1-1.6-1.9-2.4-2.5c-0.9-0.7-2-1.2-3.1-1.5c-1.1-0.3-2.3-0.4-3.4-0.4
		c-1,0-2.2,0.1-3.4,0.7c-1.1,0.5-2,1.5-2.4,2.7c-0.4,1.2-0.4,2.3-0.3,3.3l0,0.1c0,0.9-0.1,1.4-0.5,1.8c-0.4,0.4-1.1,0.6-1.8,0.7
		c-0.1,0-0.3,0-0.4,0c-0.4,0-0.9-0.1-1.2-0.4c-0.3-0.3-0.3-0.8-0.1-1.9c0-0.2,0.1-0.4,0.1-0.5c0.1-0.8,0.3-1.6,0.6-2.1
		c0,0,0,0,0-0.1c0.1,0.1,0.3,0.2,0.4,0.2c0.2,0.1,0.3,0.1,0.5,0.1c1.1,0,1.5-1.3,1.7-1.7l0,0c0.1-0.3,0.2-0.6,0.2-0.9
		c0.1-0.2,0.1-0.4,0.2-0.6c0.1-0.4,0.4-0.9,0.6-1.3c0.3-0.5,0.5-0.9,0.8-1.3c0.3-0.4,0.6-0.8,0.9-1.2c0-0.1,0.1-0.1,0.1-0.2l0-0.1
		c0.2-0.1,1-0.6,2.2-0.6c1,0,1.9,0.4,2.6,1.1c0.2,0.2,0.5,0.3,0.8,0.3c0.2,0,0.4,0,0.5-0.1c0.4-0.2,0.7-0.7,0.6-1.2
		c-0.1-0.4-0.1-0.8-0.2-1.1l0,0c-0.2-1.4-0.4-2.4-1.1-3.3c-0.7-0.8-1.6-1.4-3.6-2.2c-0.1-0.1-0.2-0.2-0.3-0.2c0,0-0.1,0-0.1-0.1
		c-0.1-0.1-0.2-0.2-0.3-0.4l0,0c-0.7-1-1.7-1.7-2.8-2.1c-0.7-0.3-1.5-0.4-2.3-0.4c-1.4,0-2.9,0.4-4.2,1.2c-1.7,1-2.9,2.5-4.1,4
		c-0.1,0.2-0.3,0.4-0.4,0.5c-0.3,0.4-0.7,0.8-1.1,1.3c-0.1,0.1-0.2,0.2-0.3,0.4l0,0c-0.3,0.3-0.6,0.6-0.8,0.9
		c-0.1,0.1-0.2,0.2-0.3,0.3c-0.2,0.2-0.3,0.4-0.4,0.5c-0.1,0-0.3,0.1-0.4,0.1c-0.2,0-0.4,0.1-0.7,0.1c-1.1,0.3-1.7,1.3-1.4,2.3
		c0.1,0.5,0.5,0.9,1,1.2c0,0-0.1,0-0.1,0.1c0,0,0,0,0,0l0,0c-0.9,0.4-1.3,0.9-1.2,1.6c0,0.2,0.2,0.9,1.1,1.2c0,0,0,0,0,0
		c-0.1,0.1-0.2,0.3-0.3,0.4c-0.3,0.4-0.5,0.7-0.8,1.1l-0.2,0.2c0,0-0.1,0.1-0.1,0.1c-0.3-0.3-0.5-0.7-0.8-1.1
		c-0.1-0.2-0.3-0.4-0.4-0.6l0,0c-0.1-0.1-0.1-0.2-0.2-0.2c0-0.1,0.1-0.1,0.1-0.2c0.3-0.6,0.3-1.2-0.1-1.8c-0.2-0.3-0.5-0.5-0.7-0.7
		c0,0,0,0,0,0c0,0,0.1,0,0.1,0c1-0.3,1.5-1.1,1.4-2c-0.1-0.7-0.7-1.2-1-1.5c-0.3-0.2-0.5-0.4-0.8-0.6C38,12.1,37.9,12,37.8,12
		c-0.7-0.5-1.5-1.1-2.1-1.9c-0.4-0.5-0.8-1.1-1.2-1.7c-0.2-0.3-0.4-0.6-0.6-0.9c-0.8-1.1-1.5-1.9-2.5-2.5c-0.8-0.5-2-1.2-3.4-1.4
		c-0.2,0-0.4-0.1-0.7-0.1c-1.3,0-2.4,0.5-3.1,1c-1.1,0.6-1.9,1.4-2.7,2.2l0,0c0,0-0.1,0.1-0.1,0.1c-1.9,0.7-2.8,1.3-3.5,2.1
		c-0.7,0.9-0.9,1.9-1.1,3.3c-0.1,0.3-0.1,0.7-0.2,1.1c-0.1,0.5,0.1,1,0.6,1.2c0.2,0.1,0.3,0.1,0.5,0.1c0.3,0,0.6-0.1,0.8-0.3
		c0.8-0.8,1.7-1.2,2.7-1.2c0.9,0,1.6,0.3,1.8,0.4c0.3,0.2,0.5,0.3,0.7,0.5l0,0c0.5,0.4,0.8,0.7,1.1,1.1c0.5,0.7,0.7,1.6,0.9,2.4
		c0.2,0.6,0.3,1.1,0.4,1.5c0,0,0,0.1,0,0.1c0,0.2,0,0.5,0.1,0.8c0.1,0.4,0.4,0.7,0.7,0.8c0,0.1,0,0.2,0,0.3c0,0.4-0.1,0.7-0.1,1
		c-0.1,1-0.4,1.9-0.8,2.6c-0.1,0.2-0.2,0.3-0.4,0.4c-0.3,0.2-0.7,0.2-1.1,0.3c0,0-0.1,0-0.1,0c0-0.1-0.1-0.3-0.1-0.6
		c0-0.1,0.2-0.4,0.3-0.6c0.1-0.2,0.2-0.3,0.3-0.5c0.3-0.6,0.5-1.2,0.5-1.8c0.1-1.3-0.3-2.5-1.1-3.4c-0.7-0.8-1.8-1.2-3.1-1.3
		c-0.2,0-0.3,0-0.5,0c-0.5,0-1,0.1-1.4,0.1c-0.6,0.1-1.1,0.1-1.7,0.2c-1.2,0.1-2.4,0.3-3.5,0.7c-2.4,0.8-4.1,2.6-5.1,3.9
		c-0.7,0.9-1.3,1.9-1.7,3c-0.4,1.2-0.6,2.4-0.9,3.4c-0.3,1.2-0.5,2.3-0.6,3.5c0,0.1,0,0.3-0.1,0.4c-0.1,0.8-0.2,1.2-0.5,1.4
		c0,0-0.1,0-0.1,0c-0.1,0-0.1,0-0.2,0c-0.1,0-0.1-0.1-0.1-0.1c0,0,0,0,0-0.1l0,0c-0.1-0.2-0.3-0.4-0.6-0.6c-0.2-0.1-0.5-0.2-0.7-0.2
		c-0.8,0-1.4,0.6-1.5,1.5c-0.1,0.5,0,1.1,0.1,1.7c0.3,1.2,1.2,2.3,2.3,2.8c0.6,0.3,1.2,0.4,1.9,0.4h0c0.1,0,0.2,0,0.4,0
		c-0.1,0.5-0.1,1-0.1,1.6c0,1.1,0.1,2.3,0.3,3.6c0.2,1.4,0.6,2.9,0.9,4.3c0.2,0.9,0.4,1.8,0.6,2.7c0.4,2.3,0.7,4.5,0.6,6.7l0,0.1
		c0,1,0,2.1-0.3,3c-0.2,0.8-0.6,1.5-1.2,2c-0.1,0.1-0.3,0.2-0.5,0.4c-0.2,0.1-0.4,0.2-0.5,0.4C5.9,65,5.6,65.5,5.6,66
		c0,0.5,0.2,0.9,0.6,1.3c0.6,0.6,1.5,0.7,2,0.8c0.2,0,0.5,0,0.7,0c0.3,0,0.6,0,1-0.1c0,0,0.1,0,0.1,0l0,0c0.1,0,0.3,0,0.4-0.1
		c0,0.1,0,0.3,0,0.4c0,0.3,0,0.6,0,0.9c0,0.5,0.1,0.9,0.2,1.3c0,0.2,0.1,0.3,0.1,0.5c0.1,0.9,0,1.8-0.1,2.8c0,0.1,0,0.3-0.1,0.4
		c0,0.3-0.1,0.5-0.1,0.8l0,0c-0.1,0.9-0.2,1.7-0.4,2.5C10,78.1,9.9,78.5,9.8,79l0,0.2c0,0.1,0,0.2-0.1,0.2c0,0,0,0.1-0.1,0.2h0
		c-0.1,0-0.3,0-0.4,0l0,0c0,0-0.1,0-0.1,0l0,0c-0.2,0-0.4,0-0.6,0c-0.5,0-1,0.1-1.4,0.2c-1.6,0.6-2.7,2.4-2.7,4.3
		c0,1.7,0.9,3.1,2.4,3.7C7.1,87.9,7.6,88,8.2,88c0.6,0,1.3-0.1,2.1-0.3c1.2-0.3,2.3-0.8,3.3-1.2c1.2-0.5,2.2-1.2,3-1.9
		c0.2-0.2,0.3-0.3,0.5-0.5c0.2-0.2,0.4-0.4,0.6-0.6c0.2-0.2,0.6-0.3,0.9-0.5c0.1,0,0.1-0.1,0.2-0.1c0.6-0.3,1.2-0.6,1.5-1.3
		c0.1-0.1,0.1-0.2,0.2-0.4c0.5,0,0.9-0.1,1.3-0.3c0.7-0.3,1.2-0.8,1.5-1.5c0.3-0.5,0.3-1.1,0.4-1.6l0,0c0-0.1,0-0.1,0-0.2
		c0.1-0.4,0.2-0.8,0.3-1.3l0-0.1c0-0.1,0-0.2,0.1-0.3c0.2-0.8,0.3-1.6,0.5-2.4c0.3-1.5,0.6-3,0.9-4.4c0-0.1,0-0.1,0.1-0.2
		c0.1-0.2,0.1-0.4,0.2-0.6c0.1-0.8-0.3-1.3-0.5-1.5c0,0,0,0,0,0c0,0,0-0.1,0-0.2c0.2-0.7,0.6-1.4,1.1-2c0.2-0.3,0.5-0.5,1-0.7
		c0.1-0.1,0.2-0.1,0.4-0.2c0.3-0.1,0.6-0.3,0.9-0.6c0.7-0.6,0.8-1.5,0.8-2c0-0.1,0-0.1,0-0.2l0-0.2c0-0.4,0.1-0.9,0.2-1.2l0,0
		c0.1-0.2,0.2-0.7-0.1-1.2c-0.2-0.4-0.6-0.6-1.1-0.6c-0.4,0-0.8,0.2-1,0.3l0,0c-0.2,0.1-0.4,0.2-0.6,0.3c-0.1,0.1-0.3,0.1-0.4,0.2
		c0-0.3,0-0.5,0-0.8c0-0.4-0.1-0.8-0.2-1.2c0-0.2-0.1-0.4-0.1-0.5c-0.2-1.1-0.3-2.2-0.5-3.5c-0.1-0.7-0.2-1.5-0.3-2.2l0,0
		c-0.1-0.4-0.1-0.9-0.2-1.3l0-0.3c-0.1-1-0.3-2-0.2-2.9c0-0.4,0.1-0.8,0.2-1.2c0-0.1,0-0.2,0.1-0.4c0-0.3,0.1-0.6,0.1-0.9
		c0,0,0-0.1,0-0.1c0,0,0,0,0.1,0c0.4,0,0.9,0,1.3,0l0,0c0.1,0,0.3,0,0.4,0c1.9-0.1,3.8-0.1,5.7-0.2l0.1,0c0.4,0,0.9,0,1.3,0
		c5.8-0.2,10.2-0.3,14.4-0.4c0.7,0,1.4,0,2.1-0.1c1.7-0.1,3.4-0.1,5.1-0.1c0.3,0,0.6,0,0.9,0c0,0.2,0,0.5,0,0.7c0,0.2,0,0.3,0,0.5
		c0,0.5-0.1,1-0.1,1.5l0,0.2c-0.1,1.9-0.3,3.8-0.4,5.6c0,0.5-0.1,1-0.1,1.5c0,0.4-0.1,0.8-0.1,1.2c-0.1,0.7-0.1,1.5-0.2,2.3l0,0.4
		c0,0.4-0.1,0.9-0.1,1.3h0c-0.6,0-1.2,0.4-1.2,1.2c0,0.3,0.1,0.6,0.1,0.8c0,0.1,0,0.1,0,0.2c0,0.2,0.1,0.5,0.1,0.8l0,0.1
		c0,0.5,0.1,1.1,0.1,1.6c0,0.3,0,0.8,0.4,1.3c0.2,0.3,0.6,0.5,0.8,0.6l0,0c0,0,0,0,0.1,0c0,0,0,0,0,0.1c0,0.1,0,0.2,0,0.3
		c0,0.1,0,0.1,0,0.2c0,0.1,0,0.3,0,0.4c0,0.1-0.1,0.2-0.1,0.3c-0.1,0.1-0.1,0.2-0.2,0.3c0,0-0.1,0.1-0.1,0.1l0,0
		c-0.2,0.2-0.4,0.4-0.6,0.7c-0.3,0.6-0.4,1.2-0.4,1.7c0,0.1,0,0.2,0,0.3c0,0.1,0,0.1,0,0.2l0,0c0,0.4-0.1,0.8-0.1,1.1
		c0,0,0,0.1,0,0.1l0,0c-0.1,0.2-0.1,0.6-0.1,0.9c0,0.5,0.3,0.9,0.8,1.1c-0.1,0.1-0.1,0.2-0.2,0.4c0,0.1-0.1,0.1-0.2,0.2
		c-0.1,0.1-0.2,0.2-0.3,0.4c-0.3,0.4-0.4,0.9-0.3,1.4c0,0.2,0.1,0.4,0.1,0.6c0,0.1,0,0.2,0.1,0.2c0.1,0.3,0.1,0.6,0.2,0.9l0,0
		c0.1,0.2,0.2,0.7,0.7,1.1c0.2,0.2,0.5,0.3,0.8,0.3c0.7,0,1.2-0.4,1.5-0.7c0,0,0.1-0.1,0.1-0.1c0,0,0,0,0,0c0,0,0.1,0.1,0.1,0.1
		c0,0,0,0.2,0.1,0.3l0,0.1c0.1,0.6,0.4,1.3,0.9,1.9c0.4,0.5,0.8,0.9,1.4,1.2c0.4,0.2,0.7,0.4,1,0.5c0.2,0.1,0.3,0.1,0.4,0.2
		c0,0.1,0.1,0.2,0.1,0.2c0.1,0.1,0.1,0.2,0.2,0.4c0.3,0.5,0.8,0.9,1.5,1.3c0.3,0.2,0.6,0.3,0.9,0.5c0.2,0.1,0.4,0.2,0.6,0.3
		c0.3,0.2,0.7,0.5,1,0.7l0.1,0.1c1.4,1.2,3.4,2.6,5.8,3.1c0.4,0.1,0.8,0.1,1.2,0.1c0.9,0,1.7-0.2,2.4-0.6c1.1-0.6,2-1.8,2.1-3.1
		c0.1-0.7,0-1.4-0.4-2c-0.3-0.5-0.8-0.9-1.3-1.1c-0.4-0.2-0.9-0.3-1.3-0.4c-0.4-0.1-0.7-0.2-1-0.4c-0.5-0.3-0.7-1-1-1.7
		c0-0.1-0.1-0.2-0.1-0.3c-0.3-0.9-0.7-2-1-3.1c-0.4-1.6-0.5-3.3-0.6-5.1c0-0.5-0.1-1.1-0.1-1.6c0-0.6-0.1-1.2-0.2-1.7
		c0.1,0.1,0.3,0.1,0.4,0.2c0.5,0.2,1.1,0.2,1.6,0.2c0.8,0,1.6-0.2,2.3-0.5c0.3-0.1,0.6-0.3,0.9-0.7c0.4-0.5,0.5-1.3-0.1-2L75.3,64
		c-0.3-0.3-0.6-0.7-0.9-1c-0.6-0.8-1.1-1.7-1.4-2.5c-0.3-0.9-0.5-1.9-0.6-3c-0.1-1-0.1-2.1,0-3.1l0-0.3c0-1.4,0.1-2.5,0.1-3.6
		c0-0.5,0.1-1,0.1-1.5l0,0c0.1-1.8,0.3-3.7,0.2-5.6c-0.1-1.4-0.2-2.6-0.4-3.7c0-0.1,0-0.2-0.1-0.2c0.5,0.2,1,0.3,1.5,0.3
		c0.1,0,0.2,0,0.3,0c1.2,0,2.4-0.5,3.2-1.3c0.5-0.4,0.9-1,1.1-1.6C79.3,35.4,78.5,34.6,78.2,34.3"/>
	<path class="st0" d="M77.5,35.2c-0.7-0.6-1.8-0.6-2.3-1.4c-0.2-0.4-0.2-0.9-0.2-1.4c0-0.6,0-1.2,0-1.8c-0.1-1.1-0.2-2.3-0.5-3.4
		c-0.6-2.1-1.7-4.1-3-5.9c-0.6-0.9-1.3-1.6-2.2-2.3c-0.8-0.6-1.8-1-2.8-1.3c-1-0.3-2.1-0.4-3.1-0.4c-1,0-2,0.1-2.9,0.5
		c-0.9,0.4-1.5,1.1-1.8,2.1c-0.3,1-0.3,2-0.3,3c0,1-0.1,2-0.9,2.6c-0.6,0.6-1.5,0.9-2.4,1c-0.9,0.1-2,0-2.7-0.7
		c-0.8-0.8-0.6-1.9-0.5-2.9c0.2-1,0.3-2.2,0.9-3.1c0.1-0.2,0.3-0.4,0.5-0.5c0.1-0.2,0.3-0.4,0.6-0.4c0.4,0,0.4,0.6,0.8,0.7
		c0.4,0.1,0.6-0.7,0.7-0.9c0.2-0.5,0.2-1,0.4-1.5c0.2-0.5,0.4-1.1,0.7-1.5c0.3-0.5,0.5-0.9,0.8-1.4c0.3-0.4,0.6-0.9,1-1.3
		c0.1-0.1,0.2-0.2,0.3-0.3c1-0.7,4-1.9,6.4,0.6c-0.7-3.6-0.3-4.3-4.3-5.8c0,0-0.1,0-0.1,0c0,0,0-0.1-0.1-0.1
		c-0.1-0.1-0.3-0.2-0.5-0.4c-0.2-0.2-0.3-0.4-0.5-0.6c-0.6-0.8-1.4-1.4-2.3-1.8c-1.8-0.7-3.9-0.3-5.6,0.7c-1.7,1.1-3,2.7-4.3,4.3
		c-0.4,0.4-0.7,0.9-1.1,1.3c-0.4,0.4-0.8,0.8-1.1,1.2c-0.3,0.4-0.5,0.8-0.9,1c-0.4,0.3-0.9,0.3-1.4,0.4c-0.4,0.1-0.8,0.4-0.6,0.9
		c0.1,0.4,0.5,0.6,0.9,0.6c0.3,0,0.5,0,0.8,0c0.2,0,0.4-0.1,0.6,0.1c0.2,0.2-0.1,0.5-0.2,0.6c-0.5,0.5-1.1,1-1.8,1.3
		c-0.2,0.1-0.6,0.2-0.6,0.5c0,0.2,0.2,0.2,0.4,0.2c0.3,0,0.6,0.1,0.8,0.1c0.1,0,0.4,0,0.5,0.2c0.1,0.2,0,0.4-0.1,0.5
		c-0.3,0.4-0.6,0.9-0.9,1.4c-0.3,0.5-0.7,0.9-1,1.4c-0.1,0.2-0.3,0.4-0.4,0.6c-0.1,0.2-0.2,0.4-0.5,0.4c-0.4,0.1-0.6-0.4-0.8-0.6
		c-0.3-0.4-0.7-0.9-1-1.3c-0.3-0.5-0.6-0.9-1-1.4c-0.1-0.2-0.2-0.4-0.1-0.5c0.2-0.1,0.4-0.2,0.5-0.4c0.3-0.4-0.3-0.9-0.6-1.2
		c-0.4-0.3-0.8-0.6-1.2-1c-0.2-0.1-0.4-0.3-0.5-0.4c-0.1-0.1-0.3-0.3-0.1-0.4c0.2-0.2,0.8-0.1,1,0c0.4,0,0.9,0,1.4-0.1
		c0.3-0.1,0.7-0.3,0.6-0.7c-0.1-0.3-0.3-0.6-0.6-0.8c-0.3-0.3-0.6-0.5-0.9-0.7c-0.9-0.6-1.7-1.3-2.3-2.1C34.2,10,33.6,9,33,8.1
		c-0.6-0.9-1.3-1.6-2.2-2.2c-0.9-0.6-1.9-1-2.9-1.2c-1.1-0.2-2.1,0.3-3.1,0.8c-0.9,0.6-1.7,1.3-2.5,2c-0.1,0.1-0.2,0.2-0.3,0.3
		c-4,1.5-3.6,2.2-4.3,5.8c2.1-2.1,4.6-1.6,5.9-0.9c0.3,0.2,0.6,0.4,0.8,0.6c0,0,0,0,0,0.1c0,0,0,0,0,0c0.5,0.4,1,0.8,1.3,1.3
		c0.6,0.8,0.8,1.8,1.1,2.8c0.1,0.5,0.3,1.1,0.4,1.7c0.1,0.3,0,1,0.5,1c0.2,0,0.4-0.1,0.5,0.1c0.1,0.2,0,0.5,0,0.7
		c-0.1,0.6-0.1,1.2-0.2,1.7c-0.2,1-0.4,2-0.9,3c-0.2,0.4-0.5,0.7-0.9,0.9c-0.5,0.2-1,0.3-1.5,0.4c-0.5,0.1-0.9,0-1.2-0.4
		c-0.2-0.4-0.3-0.9-0.3-1.3c0-0.5,0.4-1,0.7-1.5c0.2-0.4,0.4-0.9,0.4-1.4c0.1-0.9-0.2-1.8-0.8-2.5c-0.6-0.7-1.5-0.9-2.4-0.9
		c-0.5,0-1.1,0-1.6,0.1c-0.6,0.1-1.2,0.1-1.7,0.2c-1.1,0.1-2.2,0.3-3.3,0.6c-1.8,0.6-3.4,2-4.5,3.5c-0.6,0.8-1.2,1.7-1.5,2.7
		c-0.4,1.1-0.6,2.2-0.8,3.3c-0.2,1.2-0.4,2.3-0.6,3.5c-0.2,1-0.2,2.1-1.2,2.7c-0.4,0.2-0.9,0.2-1.4,0C4.3,35.2,4.1,35,4,34.9
		c-0.1-0.1-0.2-0.3-0.4-0.4C3.3,34.3,3.1,34.7,3,35c-0.1,0.4,0,0.9,0.1,1.3C3.3,37.2,4,38,4.8,38.4c0.5,0.2,0.9,0.3,1.4,0.3
		c0.3,0,0.5,0,0.8-0.1c0.2,0,0.5-0.1,0.7-0.1C8,38.5,8,38.7,8,38.9c0,0.3-0.1,0.5-0.2,0.8c-0.1,0.6-0.2,1.1-0.2,1.7
		c0,1.1,0.1,2.3,0.3,3.4c0.4,2.3,1,4.6,1.4,6.9c0.5,2.3,0.7,4.6,0.6,7c0,1.1,0,2.3-0.3,3.3c-0.3,0.9-0.8,1.8-1.5,2.5
		c-0.3,0.3-0.7,0.5-1.1,0.8c-0.4,0.3-0.6,0.7-0.2,1.1c0.4,0.3,0.9,0.4,1.4,0.5c0.5,0.1,1,0,1.5,0c0.2,0,0.5,0,0.7-0.1
		c0.1,0,0.2-0.1,0.3-0.2c0.1-0.1,0.1-0.1,0.2-0.1c0.2,0,0.3,0.3,0.4,0.4c0.1,0.2,0.1,0.5,0.2,0.7c0,0.5-0.1,1.1,0,1.6
		c0,0.6,0.2,1.1,0.2,1.7c0.2,1.2,0,2.3-0.2,3.5c-0.1,1.1-0.2,2.3-0.5,3.4c-0.1,0.5-0.3,1.1-0.4,1.6c-0.1,0.4-0.2,0.9-0.5,1.1
		c-0.4,0.3-1,0.2-1.4,0.1c0,0,0,0,0,0c-0.5-0.1-1-0.1-1.5,0.1c-2.3,0.9-2.9,4.9-0.4,5.9c1,0.4,2.1,0.2,3.1-0.1
		c1.1-0.3,2.1-0.7,3.1-1.2c1-0.4,1.9-1,2.7-1.7c0.4-0.4,0.8-0.8,1.2-1.1c0.4-0.3,0.9-0.5,1.3-0.7c0.4-0.2,0.8-0.4,1-0.8
		c0.2-0.3,0.2-0.7,0.6-0.9c0.2-0.1,0.4-0.1,0.6-0.1c0.3,0,0.5,0,0.8-0.1c0.4-0.2,0.8-0.5,1-1c0.2-0.5,0.3-1,0.4-1.5
		c0.1-0.6,0.2-1.1,0.3-1.7c0.5-2.3,0.9-4.6,1.4-6.9c0.1-0.2,0.2-0.5,0.2-0.7c0-0.2-0.1-0.4-0.2-0.6c-0.3-0.4-0.3-0.8-0.2-1.2
		c0.2-0.9,0.7-1.8,1.4-2.5c0.3-0.4,0.8-0.7,1.2-0.9c0.4-0.2,0.8-0.4,1.2-0.7c0.4-0.3,0.4-0.9,0.4-1.3c0-0.5,0.1-1.1,0.2-1.6
		c0-0.1,0.1-0.3,0-0.4c-0.1-0.2-0.4,0-0.5,0.1c-0.5,0.3-1,0.4-1.4,0.6c-0.2,0.1-0.5,0.3-0.7,0.4c-0.2,0.1-0.5,0.3-0.7,0.3
		c-0.2,0-0.4-0.1-0.4-0.3c-0.1-0.2,0.1-0.5,0.2-0.7c0.2-0.5,0.4-1,0.3-1.6c0-0.6-0.2-1.1-0.3-1.7c-0.2-1.2-0.4-2.3-0.5-3.5
		c-0.2-1.2-0.3-2.3-0.5-3.5c-0.2-1.2-0.4-2.3-0.2-3.5c0.1-0.6,0.2-1.1,0.2-1.7c0-0.3,0.1-0.5,0.1-0.8c0-0.3,0-0.5,0-0.8
		c0-0.2,0.1-0.3,0.3-0.4c0.3,0,0.6,0,0.8,0c0.6,0,1.1,0,1.7-0.1c2.4-0.1,4.7-0.2,7.1-0.2c4.8-0.1,9.6-0.3,14.4-0.4
		c2.4-0.1,4.8-0.2,7.1-0.2c0.6,0,1.1,0,1.7-0.1c0.2,0,0.4-0.1,0.5,0.1c0.1,0.2,0,0.5-0.1,0.7c-0.1,0.6-0.1,1.1-0.1,1.7
		c0,0.6-0.1,1.1-0.1,1.7c-0.2,2.4-0.4,4.8-0.6,7.1c-0.1,1.2-0.2,2.3-0.3,3.5c-0.1,0.6-0.1,1.2-0.2,1.8c0,0.6-0.1,1.1,0,1.7
		c0,0.1,0,0.3,0,0.3c-0.1,0.1-0.3-0.3-0.4-0.3c-0.2-0.2-0.3-0.4-0.5-0.5c-0.1-0.1-0.3-0.2-0.3,0c0,0.2,0.1,0.5,0.1,0.7
		c0,0.3,0.1,0.6,0.1,0.9c0,0.6,0.1,1.1,0.1,1.7c0,0.2,0,0.5,0.2,0.7c0.1,0.2,0.4,0.3,0.5,0.4c0.2,0.1,0.4,0.2,0.4,0.5
		c0.1,0.2,0.1,0.5,0.1,0.7c0,0.3,0.1,0.5,0,0.8c0,0.3-0.1,0.5-0.3,0.7c-0.1,0.2-0.3,0.4-0.4,0.5c-0.2,0.2-0.4,0.3-0.5,0.5
		c-0.3,0.4-0.2,1-0.3,1.5c0,0.5-0.1,1-0.2,1.5c-0.1,0.2-0.1,0.5-0.1,0.8c0,0.4,0.5,0.1,0.7,0c0.2-0.1,0.4-0.2,0.6-0.3
		c0.1-0.1,0.2-0.1,0.2-0.2c0-0.1,0.1-0.2,0.2-0.2c0.2-0.1,0.1,0.1,0.1,0.2c-0.1,0.2-0.2,0.4-0.3,0.6c-0.2,0.5-0.5,1-0.8,1.5
		c-0.1,0.2-0.2,0.5-0.4,0.7c-0.2,0.2-0.4,0.4-0.5,0.7c-0.1,0.2-0.2,0.4-0.1,0.6c0,0.3,0.1,0.6,0.2,0.8c0.1,0.3,0.1,0.5,0.2,0.8
		c0.1,0.2,0.1,0.4,0.3,0.5c0.4,0.3,0.9-0.3,1.2-0.5c0.4-0.3,0.8-0.3,1.2,0c0.2,0.1,0.4,0.3,0.5,0.5c0.2,0.2,0.2,0.5,0.2,0.8
		c0.1,0.5,0.3,1,0.7,1.4c0.3,0.4,0.7,0.7,1.1,1c0.4,0.3,0.9,0.4,1.4,0.6c0.4,0.2,0.5,0.6,0.8,0.9c0.3,0.4,0.7,0.7,1.1,1
		c0.5,0.3,1,0.5,1.4,0.7c0.5,0.3,0.9,0.6,1.3,1c1.5,1.3,3.3,2.5,5.3,2.8c1,0.2,2,0.1,2.9-0.3c0.8-0.5,1.4-1.3,1.6-2.2
		c0.1-0.4,0-0.8-0.2-1.2c-0.2-0.3-0.5-0.6-0.9-0.7c-0.8-0.4-1.6-0.4-2.4-0.8c-0.9-0.5-1.2-1.7-1.6-2.6c-0.4-1.1-0.7-2.1-1-3.2
		c-0.5-2.3-0.5-4.6-0.7-6.9c0-0.6-0.1-1.1-0.2-1.7c-0.1-0.5-0.2-1-0.1-1.4c0-0.2,0.2-0.4,0.3-0.5c0.2,0,0.3,0.1,0.5,0.2
		c0.3,0.3,0.7,0.5,1.2,0.6c1,0.3,2.1,0.3,3.1-0.2c0.2-0.1,0.4-0.2,0.5-0.3c0.2-0.2,0.1-0.4-0.1-0.6c-0.4-0.4-0.7-0.8-1-1.2
		c-0.6-0.8-1.2-1.8-1.5-2.8c-0.4-1.1-0.6-2.2-0.6-3.3c-0.1-1.2-0.1-2.3,0-3.5c0-1.2,0-2.4,0.1-3.6c0.1-2.4,0.4-4.7,0.3-7.1
		c0-1.2-0.2-2.3-0.4-3.5c-0.1-0.5-0.2-1-0.4-1.5c-0.1-0.2-0.3-0.9,0.2-0.9c0.2,0,0.5,0.2,0.6,0.4c0.2,0.2,0.5,0.3,0.7,0.4
		c0.5,0.2,1,0.3,1.5,0.4c1,0.1,2-0.3,2.7-1c0.4-0.3,0.7-0.8,0.9-1.2C77.7,36,77.8,35.5,77.5,35.2"/>
	<path class="st1" d="M22,7.9c1.3-0.5,1.8,3.7,2.4,5.5c-0.2-0.5-3.9-2.6-6.7,0.3C18.4,10.1,18,9.4,22,7.9"/>
	<path class="st2" d="M22,7.9c1.3-0.5,1.8,3.7,2.4,5.5c-0.2-0.5-3.9-2.6-6.7,0.3C18.4,10.1,18,9.4,22,7.9z"/>
	<path class="st1" d="M60.7,7.7c-1.3-0.5-1.8,3.7-2.4,5.6c0.2-0.5,3.9-2.7,6.7,0.2C64.3,9.9,64.7,9.2,60.7,7.7"/>
	<path class="st2" d="M60.7,7.7c-1.3-0.5-1.8,3.7-2.4,5.6c0.2-0.5,3.9-2.7,6.7,0.2C64.3,9.9,64.7,9.2,60.7,7.7z"/>
	<path class="st3" d="M15.4,33.7c0,1-0.4,1.9-1.1,2.5c-0.9,0.9-2.4,1.5-3.8,1.5c1.5,0,2.9-0.5,3.8-1.5C15,35.6,15.4,34.7,15.4,33.7z
		 M21.2,34.7c-0.4,0.8-0.8,1.5-1.3,2c-0.4,0.4-0.9,0.7-1.6,0.8c0.7-0.1,1.2-0.3,1.6-0.8C20.4,36.2,20.8,35.5,21.2,34.7z M18.2,34.5
		c-0.4,0.8-0.8,1.4-1.3,1.9c-0.7,0.7-1.5,1.1-2.5,1.1c1,0,1.9-0.4,2.5-1.1C17.4,35.9,17.8,35.2,18.2,34.5z M30.6,30.9
		c0.8-0.2,1.5-0.5,2-1c0.7-0.7,1.1-1.6,1.5-2.7c1.5,1,1.6,3,3.4,3.2c-1.8-0.2-1.9-2.1-3.4-3.2c-0.3,1.1-0.8,2-1.5,2.7
		C32.1,30.4,31.4,30.7,30.6,30.9z M43.9,30.4c0.7-0.2,1.2-0.5,1.7-0.9c0.2-0.2,0.3-0.3,0.4-0.5c0.5-0.6,0.9-1.2,1.5-1.8
		c0.1-0.1,0.2-0.2,0.2-0.2c0.7,1.7,1.5,3.8,2.5,4.1c-1-0.3-1.8-2.4-2.5-4.1c-0.1,0.1-0.2,0.2-0.2,0.2c-0.6,0.6-1,1.3-1.5,1.8
		c-0.1,0.2-0.3,0.3-0.4,0.5C45.1,30,44.6,30.3,43.9,30.4z M65.8,30.2c0.3,0.3,0.5,0.6,0.6,1C66.3,30.8,66.1,30.5,65.8,30.2z
		 M20.2,59.7c-0.3,11.2-1.1,17.1-2.1,17.6 M22.2,69.6c-0.7,1.3-1.1,3.5-1,6.6 M19.8,54.4c3.8-0.8-0.4-11.2,0.8-16.9 M16.9,60.6
		c2.9-1.1,3.2-2.1,2.3-7.6c-1.9-8.4-1.6-13.5-0.5-17.8 M71.2,37.3c-2.4-3.9-2.9-6.9-2.1-10.1c0.6-4.4-2-6.3-7.8-5.9 M59.5,27.5
		c1.3-0.4,1.7-1.5,1.5-3.1h1.9c1,0.2,1.7,0.9,2.3,2.2 M63.3,27.7c1.5,0.3,1.9,1.2,1.5,2.8 M69.8,64.8c-2.7-10.3-1.2-13.3-0.8-18.2
		C68.9,41,66.6,36.3,63.6,34 M62.4,39.3c2.3,1.7,3.2,4.9,3.4,8c-0.7,12.5-1.2,14.2,3.4,16.1 M60.4,41.4c1.7,2.1,2.5,4.3,2.5,6.5
		c-0.8,7.9-1.5,12.1,3.5,13.7 M58,43.9c1.9,2.3,2.4,5.4,1.6,9.4c-0.2,3.8,1.1,6,4,6.8 M70.7,37.5c-2.7-0.7-4.6-2-5.7-4.1 M75.3,36.4
		c-2.2-0.3-3.8-2.4-3.5-4.5c0.3-1.6-0.4-7.1-1.5-9"/>
	<path class="st4" d="M31.2,16.7c0.3-0.1,0.5-0.3,0.7-0.5c0.3-0.3,0.5-0.7,0.6-1.1c0.4,0.3,0.3,0.9,0.8,0.9
		c-0.5,0.1-0.4-0.6-0.8-0.9c-0.2,0.4-0.4,0.8-0.6,1.1C31.7,16.4,31.4,16.5,31.2,16.7z"/>
	<path class="st4" d="M35.4,15.5L35.4,15.5c-0.2,0-0.4-0.1-0.5-0.2c-0.2-0.2-0.2-0.5-0.3-0.8c-0.5,0.5-0.7,1.2-1.3,1.4
		c0.6-0.2,0.7-0.9,1.3-1.4c0,0.4,0.1,0.7,0.3,0.8C35,15.5,35.1,15.5,35.4,15.5z"/>
	<path class="st4" d="M27,17.8c0.3-0.1,0.5-0.3,0.7-0.5c0.3-0.3,0.4-0.7,0.6-1.1c0.4,0.3,0.3,0.9,0.8,0.9c-0.5,0.1-0.4-0.6-0.8-0.9
		c-0.2,0.4-0.4,0.8-0.6,1.1C27.5,17.5,27.2,17.7,27,17.8z"/>
	<path class="st4" d="M31.2,16.7L31.2,16.7c-0.2,0-0.4-0.1-0.5-0.2c-0.2-0.2-0.2-0.5-0.3-0.8c-0.5,0.5-0.7,1.2-1.3,1.4
		c0.6-0.2,0.7-0.9,1.3-1.4c0,0.4,0.1,0.7,0.3,0.8C30.8,16.6,30.9,16.7,31.2,16.7z"/>
	<path class="st4" d="M50,16.7L50,16.7c-0.3-0.1-0.6-0.3-0.9-0.5c-0.3-0.3-0.6-0.7-0.8-1.1c-0.5,0.3-0.4,0.9-1.1,0.9
		c0.7,0.1,0.6-0.6,1.1-0.9c0.2,0.4,0.5,0.8,0.8,1.1C49.4,16.4,49.7,16.5,50,16.7z"/>
	<path class="st4" d="M44.7,15.5c0.3,0,0.5-0.1,0.7-0.2c0.2-0.2,0.3-0.5,0.3-0.8c0.7,0.5,0.9,1.2,1.6,1.4c-0.7-0.2-0.9-0.9-1.6-1.4
		c0,0.4-0.1,0.7-0.3,0.8C45.2,15.5,45,15.5,44.7,15.5z"/>
	<path class="st4" d="M55.4,17.8L55.4,17.8c-0.3-0.1-0.6-0.3-0.9-0.5c-0.3-0.3-0.6-0.7-0.8-1.1c-0.5,0.3-0.4,0.9-1.1,0.9
		c0.7,0.1,0.6-0.6,1.1-0.9c0.2,0.4,0.5,0.8,0.8,1.1C54.7,17.5,55,17.7,55.4,17.8z"/>
	<path class="st4" d="M50,16.7c0.3,0,0.5-0.1,0.7-0.2c0.2-0.2,0.3-0.5,0.3-0.8c0.7,0.5,0.9,1.2,1.6,1.4c-0.7-0.2-0.9-0.9-1.6-1.4
		c0,0.4-0.1,0.7-0.3,0.8C50.6,16.6,50.3,16.7,50,16.7z"/>
	<path class="st3" d="M11.2,66.5c2.5-3.1,3.2-4.2,2.2-9.7c-1.9-8.4-2.6-14.4-1.6-18.7"/>
	<path class="st3" d="M13.2,64.5c2.9-1.1,4.4-2.6,3.5-8.1C14.9,48,14.1,42,15.2,37.7"/>
	<path class="st3" d="M16.3,28.2c1-0.6,1.9-1.4,2.7-2.4c0.8,0.3,2-0.3,2.8-0.9c-0.5,1.5-0.3,2.6,0.5,3.4"/>
	<path class="st3" d="M20.4,23.2c-2.3-0.4-4.3,0.5-6,2.6C12,33.9,9.8,38.2,7.9,38.6"/>
	<path class="st3" d="M15.9,22.5c-0.4,0-3.3,0.3-4.6,3.4c-0.7,8.3-2.1,9.1-3.8,10.5"/>
	<path class="st3" d="M9.9,80.8c1.9,0.2,3.5-0.5,4.9-2.3"/>
	<path class="st3" d="M13.9,66.5c0.9,5.4,0.5,10-1.2,13.6"/>
	<path class="st3" d="M16.7,63.1c0.7,7.8,0.3,12.8-1.1,14.8l0.2,0.3"/>
	<path class="st3" d="M8.9,84.3c2.2,1.7,4.4,1.3,7.4-0.9"/>
	<path class="st3" d="M21.3,77.6c-0.4,0-2,1.5-4.6,2.2c1.1,0.6,2.1,0.7,3.3,0.5"/>
	<path class="st3" d="M73.1,84.3c-3,2.1-7.1,0.8-6.9-3.5"/>
	<path class="st3" d="M66.9,64.1c0.2,6,0.2,9.7,2.7,16.3"/>
	<path class="st3" d="M63.9,62.5c0.2,7.8,1.2,12.9,2.9,15.2"/>
	<path class="st3" d="M61.2,61c-0.2,7.4,0.8,12.5,3,15.2"/>
	<path class="st3" d="M60.4,68c-0.1,2.9,0.1,5.5,0.4,7.6c0.1,1.6,0.8,2.5,2.2,2.7c-0.5,0.8-1.2,1.2-2.2,1.1"/>
	<path class="st3" d="M72.2,81.3c-1.9-0.5-3.2-0.8-4-1.4"/>
	<path class="st5" d="M27,6.6c0.6,0,1.2,0.2,1.6,0.6c0,0,1.1,1,1,1.1c-0.1,0.1-2.2,0.2-2.3,0.2c-1.2,0.1-2-0.6-2.1-0.7
		C25.6,7.2,26.2,6.8,27,6.6"/>
	<path class="st6" d="M27,6.6c0.6,0,1.2,0.2,1.6,0.6c0,0,1.1,1,1,1.1c-0.1,0.1-2.2,0.2-2.3,0.2c-1.2,0.1-2-0.6-2.1-0.7
		C25.6,7.2,26.2,6.8,27,6.6z"/>
	<path class="st7" d="M32.3,19.5L32.3,19.5z"/>
	<path class="st5" d="M55.7,6.4c-0.6,0-1.2,0.2-1.6,0.6c0,0-1.1,1-1,1.1c0.1,0.1,2.2,0.2,2.3,0.2c1.2,0.1,2-0.6,2.1-0.7
		C57,6.9,56.4,6.5,55.7,6.4"/>
	<path class="st6" d="M55.7,6.4c-0.6,0-1.2,0.2-1.6,0.6c0,0-1.1,1-1,1.1c0.1,0.1,2.2,0.2,2.3,0.2c1.2,0.1,2-0.6,2.1-0.7
		C57,6.9,56.4,6.5,55.7,6.4z"/>
	<path class="st8" d="M26.8,8.3c-0.4,0.1-0.8,0-0.9-0.4c-0.1-0.3,0-0.7,0.4-0.8c0.4-0.1,0.8,0,0.9,0.4C27.4,7.8,27.2,8.1,26.8,8.3"
		/>
	<path class="st9" d="M26.7,8c-0.2,0.1-0.5,0-0.6-0.2c-0.1-0.2,0-0.4,0.3-0.5c0.2-0.1,0.5,0,0.6,0.2C27.1,7.7,27,8,26.7,8"/>
	<path class="st8" d="M56.2,8.1c-0.4,0.1-0.8,0-0.9-0.4c-0.1-0.3,0-0.7,0.4-0.8c0.4-0.1,0.8,0,0.9,0.4C56.7,7.6,56.6,8,56.2,8.1"/>
	<path class="st9" d="M56.1,7.9c-0.2,0.1-0.5,0-0.6-0.2c-0.1-0.2,0-0.4,0.3-0.5c0.2-0.1,0.5,0,0.6,0.2C56.4,7.5,56.3,7.8,56.1,7.9"
		/>
	<path class="st3" d="M30.4,19.8c0.6,2.1,1,4.4,1.1,7.1"/>
	<path class="st3" d="M32.7,19.3c0.8,2.1,1.3,3.8,1.7,6.3"/>
	<path class="st3" d="M35.1,18.4c0.8,1.1,1.7,3.6,2,5.2"/>
	<path class="st3" d="M47.8,19.1C47.1,21,47.2,23,47.5,25"/>
	<path class="st3" d="M50.2,19.3c-0.5,1.5-0.3,5.2,0.1,6.7"/>
	<path class="st3" d="M45.8,18.4c-0.8,1.9-1.1,3.9-1.2,6"/>
	<path class="st10" d="M14.3,32.4c0.5-1.4,4.1-4.4,6.7,0.5c1.5,0.7,3.6-0.1,5.3-1.8c-3.2,0-3.4-2.9-1.2-4.3c0.9-2.1,1.8-2.4,3.2-0.7
		c2,0.1,3.4,2.2,1.1,4.1c2.9,1.1,6.4,0.7,9.9-1.2c-2.8-1.4-2.8-3.7-0.1-4.9c1.1-2,2.2-2,3.5-0.1c2.5,1.4,2.9,2.9,0.1,4.9
		c2.6,1.8,5.8,1.8,9.7,0.6c-2.1-1.9-1.3-4.1,1.5-4c1.4-1.3,2.5-1,3.2,0.8c2.5,1.4,1.1,4-1.2,4.1c1.2,1.6,3.2,2.6,5.6,2.3
		c2.2-5.7,7-1.4,7-1.2c-2.4,1.4-4,3-5.7,5.1l-1.5-0.8l0.6-1.3c-3.4,0-6.2-1.2-8.4-3.4c-4.4,1.3-8.6,0.8-12.5-1.4
		c-3.9,2.5-8.3,3.2-13.2,2.1c-1.8,2.2-4.3,3.2-7.4,2.8l1.3,1.5L20,37.4C18.2,34.9,16,32.9,14.3,32.4"/>
</g>
<g>
	<defs>
		<path id="SVGID_1_" d="M39.1,24.1c-2.7,1.2-2.7,3.5,0.1,4.9c-3.5,2-7,2.3-9.9,1.2c2.3-1.9,0.9-4-1.1-4.1c-1.3-1.6-2.3-1.4-3.2,0.7
			c-2.2,1.4-2,4.3,1.2,4.3c-1.6,1.7-3.8,2.5-5.3,1.8c-2.6-5-6.2-1.9-6.7-0.5c1.8,0.5,3.9,2.5,5.8,5l1.5-1.1l-1.3-1.5
			c3.1,0.4,5.5-0.6,7.4-2.8c4.9,1.1,9.3,0.4,13.2-2.1c3.9,2.3,8.1,2.7,12.5,1.4c2.2,2.2,5,3.3,8.4,3.4l-0.6,1.3l1.5,0.8
			c1.7-2.1,3.3-3.7,5.7-5.1c0-0.2-4.8-4.4-7,1.2c-2.4,0.3-4.4-0.7-5.6-2.3c2.4-0.1,3.8-2.7,1.2-4.1c-0.7-1.9-1.7-2.1-3.2-0.8
			c-2.7-0.1-3.5,2-1.5,4c-3.8,1.1-7.1,1.2-9.7-0.6c2.8-2,2.4-3.6-0.1-4.9c-0.7-1-1.2-1.5-1.8-1.5C40.2,22.6,39.7,23.1,39.1,24.1"/>
	</defs>
	<clipPath id="SVGID_2_">
		<use xlink:href="#SVGID_1_"  style="overflow:visible;"/>
	</clipPath>
	<path class="st11" d="M16.4,31.9c0.5-0.4,1.7-0.7,2.4-0.1c0.7,0.6,0.6,1.9,0.1,2.2C18.5,34.2,16.3,32,16.4,31.9"/>
	<path class="st12" d="M16.4,31.9c0.5-0.4,1.7-0.7,2.4-0.1c0.7,0.6,0.6,1.9,0.1,2.2C18.5,34.2,16.3,32,16.4,31.9z"/>
	<path class="st11" d="M66.3,31.4c-0.5-0.4-1.7-0.6-2.4,0c-0.7,0.6-0.6,1.9,0,2.2C64.2,33.8,66.4,31.5,66.3,31.4"/>
	<path class="st12" d="M66.3,31.4c-0.5-0.4-1.7-0.6-2.4,0c-0.7,0.6-0.6,1.9,0,2.2C64.2,33.8,66.4,31.5,66.3,31.4z"/>
	<path class="st11" d="M39.5,26.4c0-1.2,0.4-2.1,1-2.2c0.6,0,1,0.9,1,2.1c0,1.2-0.4,2.1-1,2.2C40,28.5,39.5,27.6,39.5,26.4"/>
	<path class="st12" d="M39.5,26.4c0-1.2,0.4-2.1,1-2.2c0.6,0,1,0.9,1,2.1c0,1.2-0.4,2.1-1,2.2C40,28.5,39.5,27.6,39.5,26.4z"/>
	<path class="st11" d="M42.5,25.2c0-0.6,1.2,0.3,1.3,1.2c0.1,0.9-1.2,1.7-1.3,1.1C42.5,26.6,42.6,27.7,42.5,25.2"/>
	<path class="st12" d="M42.5,25.2c0-0.6,1.2,0.3,1.3,1.2c0.1,0.9-1.2,1.7-1.3,1.1C42.5,26.6,42.6,27.7,42.5,25.2z"/>
	<path class="st11" d="M39.1,25.3c0-0.6-1.2,0.3-1.2,1.2c0,0.9,1.3,1.7,1.3,1.1C39.2,26.7,39.2,27.8,39.1,25.3"/>
	<path class="st12" d="M39.1,25.3c0-0.6-1.2,0.3-1.2,1.2c0,0.9,1.3,1.7,1.3,1.1C39.2,26.7,39.2,27.8,39.1,25.3z"/>
	<path class="st11" d="M25.5,28.7c-0.2-1.1,0-2.1,0.5-2.2c0.5-0.1,1.1,0.7,1.4,1.8c0.2,1.1,0,2.1-0.5,2.2
		C26.4,30.7,25.8,29.9,25.5,28.7"/>
	<path class="st12" d="M25.5,28.7c-0.2-1.1,0-2.1,0.5-2.2c0.5-0.1,1.1,0.7,1.4,1.8c0.2,1.1,0,2.1-0.5,2.2
		C26.4,30.7,25.8,29.9,25.5,28.7z"/>
	<path class="st11" d="M28.4,27.1c-0.1-0.6,1.2,0.1,1.4,0.9c0.2,0.8-0.9,1.9-1,1.3C28.6,28.4,28.9,29.5,28.4,27.1"/>
	<path class="st12" d="M28.4,27.1c-0.1-0.6,1.2,0.1,1.4,0.9c0.2,0.8-0.9,1.9-1,1.3C28.6,28.4,28.9,29.5,28.4,27.1z"/>
	<path class="st11" d="M25.2,27.8c-0.1-0.6-1.1,0.5-0.9,1.4c0.1,0.9,1.5,1.3,1.4,0.8C25.5,29.1,25.7,30.1,25.2,27.8"/>
	<path class="st12" d="M25.2,27.8c-0.1-0.6-1.1,0.5-0.9,1.4c0.1,0.9,1.5,1.3,1.4,0.8C25.5,29.1,25.7,30.1,25.2,27.8z"/>
	<path class="st11" d="M55.5,28.3c0.3-1.1,0.1-2.1-0.4-2.2c-0.5-0.1-1.2,0.7-1.5,1.8c-0.3,1.1-0.1,2.1,0.4,2.2
		C54.5,30.2,55.2,29.4,55.5,28.3"/>
	<path class="st12" d="M55.5,28.3c0.3-1.1,0.1-2.1-0.4-2.2c-0.5-0.1-1.2,0.7-1.5,1.8c-0.3,1.1-0.1,2.1,0.4,2.2
		C54.5,30.2,55.2,29.4,55.5,28.3z"/>
	<path class="st11" d="M53.6,26.5c0.1-0.5-1.2,0-1.5,0.8c-0.3,0.8,0.8,1.9,0.9,1.3C53.3,27.8,53,28.8,53.6,26.5"/>
	<path class="st12" d="M53.6,26.5c0.1-0.5-1.2,0-1.5,0.8c-0.3,0.8,0.8,1.9,0.9,1.3C53.3,27.8,53,28.8,53.6,26.5z"/>
	<path class="st11" d="M56.7,27.3c0.1-0.5,1,0.6,0.8,1.4S56,30,56.1,29.5C56.4,28.6,56.1,29.6,56.7,27.3"/>
	<path class="st12" d="M56.7,27.3c0.1-0.5,1,0.6,0.8,1.4S56,30,56.1,29.5C56.4,28.6,56.1,29.6,56.7,27.3z"/>
</g>
<g>
	<defs>
		<rect id="SVGID_3_" x="-26" y="-28.8" width="242.3" height="147.7"/>
	</defs>
	<clipPath id="SVGID_4_">
		<use xlink:href="#SVGID_3_"  style="overflow:visible;"/>
	</clipPath>
	<path class="st13" d="M14.3,32.4c0.5-1.4,4.1-4.4,6.7,0.5c1.5,0.7,3.6-0.1,5.3-1.8c-3.2,0-3.4-2.9-1.2-4.3c0.9-2.1,1.8-2.4,3.2-0.7
		c2,0.1,3.4,2.2,1.1,4.1c2.9,1.1,6.4,0.7,9.9-1.2c-2.8-1.4-2.8-3.7-0.1-4.9c1.1-2,2.2-2,3.5-0.1c2.5,1.4,2.9,2.9,0.1,4.9
		c2.6,1.8,5.8,1.8,9.7,0.6c-2.1-1.9-1.3-4.1,1.5-4c1.4-1.3,2.5-1,3.2,0.8c2.5,1.4,1.1,4-1.2,4.1c1.2,1.6,3.2,2.6,5.6,2.3
		c2.2-5.7,7-1.4,7-1.2c-2.4,1.4-4,3-5.7,5.1l-1.5-0.8l0.6-1.3c-3.4,0-6.2-1.2-8.4-3.4c-4.4,1.3-8.6,0.8-12.5-1.4
		c-3.9,2.5-8.3,3.2-13.2,2.1c-1.8,2.2-4.3,3.2-7.4,2.8l1.3,1.5L20,37.4C18.2,34.9,16,32.9,14.3,32.4z"/>
	<rect x="22.7" y="36.8" class="st14" width="36.4" height="4"/>
</g>
<g>
	<defs>
		<rect id="SVGID_5_" x="22.7" y="36.8" width="36.4" height="4"/>
	</defs>
	<clipPath id="SVGID_6_">
		<use xlink:href="#SVGID_5_"  style="overflow:visible;"/>
	</clipPath>
	<path class="st15" d="M22.5,38.9c0-1.2,0.5-2.2,1.1-2.2c0.6,0,1.1,1,1.1,2.2c0,1.2-0.5,2.2-1.1,2.2C23,41,22.5,40.1,22.5,38.9"/>
	<path class="st16" d="M22.5,38.9c0-1.2,0.5-2.2,1.1-2.2c0.6,0,1.1,1,1.1,2.2c0,1.2-0.5,2.2-1.1,2.2C23,41,22.5,40.1,22.5,38.9z"/>
</g>
<g>
	<defs>
		<rect id="SVGID_7_" x="-26" y="-28.8" width="242.3" height="147.7"/>
	</defs>
	<clipPath id="SVGID_8_">
		<use xlink:href="#SVGID_7_"  style="overflow:visible;"/>
	</clipPath>
	<path class="st17" d="M23.4,38.9c0-0.5,0.1-0.9,0.2-0.9c0.1,0,0.2,0.4,0.2,0.9c0,0.5-0.1,0.9-0.2,0.9
		C23.5,39.8,23.4,39.3,23.4,38.9"/>
</g>
<g>
	<defs>
		<rect id="SVGID_9_" x="22.7" y="36.8" width="36.4" height="4"/>
	</defs>
	<clipPath id="SVGID_10_">
		<use xlink:href="#SVGID_9_"  style="overflow:visible;"/>
	</clipPath>
	<path class="st18" d="M24.7,38.9c0-1.2,0.5-2.2,1.1-2.2c0.6,0,1.1,1,1.1,2.2c0,1.2-0.5,2.2-1.1,2.2C25.2,41,24.7,40.1,24.7,38.9"/>
	<path class="st19" d="M24.7,38.9c0-1.2,0.5-2.2,1.1-2.2c0.6,0,1.1,1,1.1,2.2c0,1.2-0.5,2.2-1.1,2.2C25.2,41,24.7,40.1,24.7,38.9z"
		/>
</g>
<g>
	<defs>
		<rect id="SVGID_11_" x="-26" y="-28.8" width="242.3" height="147.7"/>
	</defs>
	<clipPath id="SVGID_12_">
		<use xlink:href="#SVGID_11_"  style="overflow:visible;"/>
	</clipPath>
	<path class="st20" d="M25.5,38.9c0-0.5,0.1-0.9,0.2-0.9s0.2,0.4,0.2,0.9c0,0.5-0.1,0.9-0.2,0.9S25.5,39.3,25.5,38.9"/>
</g>
<g>
	<defs>
		<rect id="SVGID_13_" x="22.7" y="36.8" width="36.4" height="4"/>
	</defs>
	<clipPath id="SVGID_14_">
		<use xlink:href="#SVGID_13_"  style="overflow:visible;"/>
	</clipPath>
	<path class="st21" d="M26.8,38.9c0-1.2,0.5-2.2,1.1-2.2c0.6,0,1.1,1,1.1,2.2c0,1.2-0.5,2.2-1.1,2.2C27.3,41,26.8,40.1,26.8,38.9"/>
	<path class="st22" d="M26.8,38.9c0-1.2,0.5-2.2,1.1-2.2c0.6,0,1.1,1,1.1,2.2c0,1.2-0.5,2.2-1.1,2.2C27.3,41,26.8,40.1,26.8,38.9z"
		/>
</g>
<g>
	<defs>
		<rect id="SVGID_15_" x="-26" y="-28.8" width="242.3" height="147.7"/>
	</defs>
	<clipPath id="SVGID_16_">
		<use xlink:href="#SVGID_15_"  style="overflow:visible;"/>
	</clipPath>
	<path class="st23" d="M27.7,38.9c0-0.5,0.1-0.9,0.2-0.9c0.1,0,0.2,0.4,0.2,0.9c0,0.5-0.1,0.9-0.2,0.9
		C27.8,39.8,27.7,39.3,27.7,38.9"/>
</g>
<g>
	<defs>
		<rect id="SVGID_17_" x="22.7" y="36.8" width="36.4" height="4"/>
	</defs>
	<clipPath id="SVGID_18_">
		<use xlink:href="#SVGID_17_"  style="overflow:visible;"/>
	</clipPath>
	<path class="st24" d="M29,38.9c0-1.2,0.5-2.2,1.1-2.2c0.6,0,1.1,1,1.1,2.2c0,1.2-0.5,2.2-1.1,2.2C29.5,41,29,40.1,29,38.9"/>
	<path class="st25" d="M29,38.9c0-1.2,0.5-2.2,1.1-2.2c0.6,0,1.1,1,1.1,2.2c0,1.2-0.5,2.2-1.1,2.2C29.5,41,29,40.1,29,38.9z"/>
</g>
<g>
	<defs>
		<rect id="SVGID_19_" x="-26" y="-28.8" width="242.3" height="147.7"/>
	</defs>
	<clipPath id="SVGID_20_">
		<use xlink:href="#SVGID_19_"  style="overflow:visible;"/>
	</clipPath>
	<path class="st26" d="M29.8,38.9c0-0.5,0.1-0.9,0.2-0.9s0.2,0.4,0.2,0.9c0,0.5-0.1,0.9-0.2,0.9S29.8,39.3,29.8,38.9"/>
</g>
<g>
	<defs>
		<rect id="SVGID_21_" x="22.7" y="36.8" width="36.4" height="4"/>
	</defs>
	<clipPath id="SVGID_22_">
		<use xlink:href="#SVGID_21_"  style="overflow:visible;"/>
	</clipPath>
	<path class="st27" d="M31.1,38.9c0-1.2,0.5-2.2,1.1-2.2c0.6,0,1.1,1,1.1,2.2c0,1.2-0.5,2.2-1.1,2.2C31.6,41,31.1,40.1,31.1,38.9"/>
	<path class="st28" d="M31.1,38.9c0-1.2,0.5-2.2,1.1-2.2c0.6,0,1.1,1,1.1,2.2c0,1.2-0.5,2.2-1.1,2.2C31.6,41,31.1,40.1,31.1,38.9z"
		/>
</g>
<g>
	<defs>
		<rect id="SVGID_23_" x="-26" y="-28.8" width="242.3" height="147.7"/>
	</defs>
	<clipPath id="SVGID_24_">
		<use xlink:href="#SVGID_23_"  style="overflow:visible;"/>
	</clipPath>
	<path class="st29" d="M32,38.9c0-0.5,0.1-0.9,0.2-0.9s0.2,0.4,0.2,0.9c0,0.5-0.1,0.9-0.2,0.9S32,39.3,32,38.9"/>
</g>
<g>
	<defs>
		<rect id="SVGID_25_" x="22.7" y="36.8" width="36.4" height="4"/>
	</defs>
	<clipPath id="SVGID_26_">
		<use xlink:href="#SVGID_25_"  style="overflow:visible;"/>
	</clipPath>
	<path class="st30" d="M33.3,38.9c0-1.2,0.5-2.2,1.1-2.2c0.6,0,1.1,1,1.1,2.2c0,1.2-0.5,2.2-1.1,2.2C33.8,41,33.3,40.1,33.3,38.9"/>
	<path class="st31" d="M33.3,38.9c0-1.2,0.5-2.2,1.1-2.2c0.6,0,1.1,1,1.1,2.2c0,1.2-0.5,2.2-1.1,2.2C33.8,41,33.3,40.1,33.3,38.9z"
		/>
</g>
<g>
	<defs>
		<rect id="SVGID_27_" x="-26" y="-28.8" width="242.3" height="147.7"/>
	</defs>
	<clipPath id="SVGID_28_">
		<use xlink:href="#SVGID_27_"  style="overflow:visible;"/>
	</clipPath>
	<path class="st32" d="M34.1,38.9c0-0.5,0.1-0.9,0.2-0.9s0.2,0.4,0.2,0.9c0,0.5-0.1,0.9-0.2,0.9S34.1,39.3,34.1,38.9"/>
</g>
<g>
	<defs>
		<rect id="SVGID_29_" x="22.7" y="36.8" width="36.4" height="4"/>
	</defs>
	<clipPath id="SVGID_30_">
		<use xlink:href="#SVGID_29_"  style="overflow:visible;"/>
	</clipPath>
	<path class="st33" d="M35.5,38.9c0-1.2,0.5-2.2,1.1-2.2c0.6,0,1.1,1,1.1,2.2c0,1.2-0.5,2.2-1.1,2.2C35.9,41,35.5,40.1,35.5,38.9"/>
	<path class="st34" d="M35.5,38.9c0-1.2,0.5-2.2,1.1-2.2c0.6,0,1.1,1,1.1,2.2c0,1.2-0.5,2.2-1.1,2.2C35.9,41,35.5,40.1,35.5,38.9z"
		/>
</g>
<g>
	<defs>
		<rect id="SVGID_31_" x="-26" y="-28.8" width="242.3" height="147.7"/>
	</defs>
	<clipPath id="SVGID_32_">
		<use xlink:href="#SVGID_31_"  style="overflow:visible;"/>
	</clipPath>
	<path class="st35" d="M36.3,38.9c0-0.5,0.1-0.9,0.2-0.9c0.1,0,0.2,0.4,0.2,0.9c0,0.5-0.1,0.9-0.2,0.9
		C36.4,39.8,36.3,39.3,36.3,38.9"/>
</g>
<g>
	<defs>
		<rect id="SVGID_33_" x="22.7" y="36.8" width="36.4" height="4"/>
	</defs>
	<clipPath id="SVGID_34_">
		<use xlink:href="#SVGID_33_"  style="overflow:visible;"/>
	</clipPath>
	<path class="st36" d="M37.6,38.9c0-1.2,0.5-2.2,1.1-2.2c0.6,0,1.1,1,1.1,2.2c0,1.2-0.5,2.2-1.1,2.2C38.1,41,37.6,40.1,37.6,38.9"/>
	<path class="st37" d="M37.6,38.9c0-1.2,0.5-2.2,1.1-2.2c0.6,0,1.1,1,1.1,2.2c0,1.2-0.5,2.2-1.1,2.2C38.1,41,37.6,40.1,37.6,38.9z"
		/>
</g>
<g>
	<defs>
		<rect id="SVGID_35_" x="-26" y="-28.8" width="242.3" height="147.7"/>
	</defs>
	<clipPath id="SVGID_36_">
		<use xlink:href="#SVGID_35_"  style="overflow:visible;"/>
	</clipPath>
	<path class="st38" d="M38.4,38.9c0-0.5,0.1-0.9,0.2-0.9c0.1,0,0.2,0.4,0.2,0.9c0,0.5-0.1,0.9-0.2,0.9
		C38.5,39.8,38.4,39.3,38.4,38.9"/>
</g>
<g>
	<defs>
		<rect id="SVGID_37_" x="22.7" y="36.8" width="36.4" height="4"/>
	</defs>
	<clipPath id="SVGID_38_">
		<use xlink:href="#SVGID_37_"  style="overflow:visible;"/>
	</clipPath>
	<path class="st39" d="M39.8,38.9c0-1.2,0.5-2.2,1.1-2.2c0.6,0,1.1,1,1.1,2.2c0,1.2-0.5,2.2-1.1,2.2C40.2,41,39.8,40.1,39.8,38.9"/>
	<path class="st40" d="M39.8,38.9c0-1.2,0.5-2.2,1.1-2.2c0.6,0,1.1,1,1.1,2.2c0,1.2-0.5,2.2-1.1,2.2C40.2,41,39.8,40.1,39.8,38.9z"
		/>
</g>
<g>
	<defs>
		<rect id="SVGID_39_" x="-26" y="-28.8" width="242.3" height="147.7"/>
	</defs>
	<clipPath id="SVGID_40_">
		<use xlink:href="#SVGID_39_"  style="overflow:visible;"/>
	</clipPath>
	<path class="st41" d="M40.6,38.9c0-0.5,0.1-0.9,0.2-0.9s0.2,0.4,0.2,0.9c0,0.5-0.1,0.9-0.2,0.9S40.6,39.3,40.6,38.9"/>
</g>
<g>
	<defs>
		<rect id="SVGID_41_" x="22.7" y="36.8" width="36.4" height="4"/>
	</defs>
	<clipPath id="SVGID_42_">
		<use xlink:href="#SVGID_41_"  style="overflow:visible;"/>
	</clipPath>
	<path class="st42" d="M41.9,38.9c0-1.2,0.5-2.2,1.1-2.2c0.6,0,1.1,1,1.1,2.2c0,1.2-0.5,2.2-1.1,2.2C42.4,41,41.9,40.1,41.9,38.9"/>
	<path class="st43" d="M41.9,38.9c0-1.2,0.5-2.2,1.1-2.2c0.6,0,1.1,1,1.1,2.2c0,1.2-0.5,2.2-1.1,2.2C42.4,41,41.9,40.1,41.9,38.9z"
		/>
</g>
<g>
	<defs>
		<rect id="SVGID_43_" x="-26" y="-28.8" width="242.3" height="147.7"/>
	</defs>
	<clipPath id="SVGID_44_">
		<use xlink:href="#SVGID_43_"  style="overflow:visible;"/>
	</clipPath>
	<path class="st44" d="M42.7,38.9c0-0.5,0.1-0.9,0.2-0.9s0.2,0.4,0.2,0.9c0,0.5-0.1,0.9-0.2,0.9S42.7,39.3,42.7,38.9"/>
</g>
<g>
	<defs>
		<rect id="SVGID_45_" x="22.7" y="36.8" width="36.4" height="4"/>
	</defs>
	<clipPath id="SVGID_46_">
		<use xlink:href="#SVGID_45_"  style="overflow:visible;"/>
	</clipPath>
	<path class="st45" d="M44.1,38.9c0-1.2,0.5-2.2,1.1-2.2c0.6,0,1.1,1,1.1,2.2c0,1.2-0.5,2.2-1.1,2.2C44.6,41,44.1,40.1,44.1,38.9"/>
	<path class="st46" d="M44.1,38.9c0-1.2,0.5-2.2,1.1-2.2c0.6,0,1.1,1,1.1,2.2c0,1.2-0.5,2.2-1.1,2.2C44.6,41,44.1,40.1,44.1,38.9z"
		/>
</g>
<g>
	<defs>
		<rect id="SVGID_47_" x="-26" y="-28.8" width="242.3" height="147.7"/>
	</defs>
	<clipPath id="SVGID_48_">
		<use xlink:href="#SVGID_47_"  style="overflow:visible;"/>
	</clipPath>
	<path class="st47" d="M44.9,38.9c0-0.5,0.1-0.9,0.2-0.9s0.2,0.4,0.2,0.9c0,0.5-0.1,0.9-0.2,0.9S44.9,39.3,44.9,38.9"/>
</g>
<g>
	<defs>
		<rect id="SVGID_49_" x="22.7" y="36.8" width="36.4" height="4"/>
	</defs>
	<clipPath id="SVGID_50_">
		<use xlink:href="#SVGID_49_"  style="overflow:visible;"/>
	</clipPath>
	<path class="st48" d="M46.2,38.9c0-1.2,0.5-2.2,1.1-2.2c0.6,0,1.1,1,1.1,2.2c0,1.2-0.5,2.2-1.1,2.2C46.7,41,46.2,40.1,46.2,38.9"/>
	<path class="st49" d="M46.2,38.9c0-1.2,0.5-2.2,1.1-2.2c0.6,0,1.1,1,1.1,2.2c0,1.2-0.5,2.2-1.1,2.2C46.7,41,46.2,40.1,46.2,38.9z"
		/>
</g>
<g>
	<defs>
		<rect id="SVGID_51_" x="-26" y="-28.8" width="242.3" height="147.7"/>
	</defs>
	<clipPath id="SVGID_52_">
		<use xlink:href="#SVGID_51_"  style="overflow:visible;"/>
	</clipPath>
	<path class="st50" d="M47.1,38.9c0-0.5,0.1-0.9,0.2-0.9s0.2,0.4,0.2,0.9c0,0.5-0.1,0.9-0.2,0.9S47.1,39.3,47.1,38.9"/>
</g>
<g>
	<defs>
		<rect id="SVGID_53_" x="22.7" y="36.8" width="36.4" height="4"/>
	</defs>
	<clipPath id="SVGID_54_">
		<use xlink:href="#SVGID_53_"  style="overflow:visible;"/>
	</clipPath>
	<path class="st51" d="M48.4,38.9c0-1.2,0.5-2.2,1.1-2.2c0.6,0,1.1,1,1.1,2.2c0,1.2-0.5,2.2-1.1,2.2C48.9,41,48.4,40.1,48.4,38.9"/>
	<path class="st52" d="M48.4,38.9c0-1.2,0.5-2.2,1.1-2.2c0.6,0,1.1,1,1.1,2.2c0,1.2-0.5,2.2-1.1,2.2C48.9,41,48.4,40.1,48.4,38.9z"
		/>
</g>
<g>
	<defs>
		<rect id="SVGID_55_" x="-26" y="-28.8" width="242.3" height="147.7"/>
	</defs>
	<clipPath id="SVGID_56_">
		<use xlink:href="#SVGID_55_"  style="overflow:visible;"/>
	</clipPath>
	<path class="st53" d="M49.2,38.9c0-0.5,0.1-0.9,0.2-0.9c0.1,0,0.2,0.4,0.2,0.9c0,0.5-0.1,0.9-0.2,0.9
		C49.3,39.8,49.2,39.3,49.2,38.9"/>
</g>
<g>
	<defs>
		<rect id="SVGID_57_" x="22.7" y="36.8" width="36.4" height="4"/>
	</defs>
	<clipPath id="SVGID_58_">
		<use xlink:href="#SVGID_57_"  style="overflow:visible;"/>
	</clipPath>
	<path class="st54" d="M50.5,38.9c0-1.2,0.5-2.2,1.1-2.2c0.6,0,1.1,1,1.1,2.2c0,1.2-0.5,2.2-1.1,2.2C51,41,50.5,40.1,50.5,38.9"/>
	<path class="st55" d="M50.5,38.9c0-1.2,0.5-2.2,1.1-2.2c0.6,0,1.1,1,1.1,2.2c0,1.2-0.5,2.2-1.1,2.2C51,41,50.5,40.1,50.5,38.9z"/>
</g>
<g>
	<defs>
		<rect id="SVGID_59_" x="-26" y="-28.8" width="242.3" height="147.7"/>
	</defs>
	<clipPath id="SVGID_60_">
		<use xlink:href="#SVGID_59_"  style="overflow:visible;"/>
	</clipPath>
	<path class="st56" d="M51.4,38.9c0-0.5,0.1-0.9,0.2-0.9c0.1,0,0.2,0.4,0.2,0.9c0,0.5-0.1,0.9-0.2,0.9
		C51.5,39.8,51.4,39.3,51.4,38.9"/>
</g>
<g>
	<defs>
		<rect id="SVGID_61_" x="22.7" y="36.8" width="36.4" height="4"/>
	</defs>
	<clipPath id="SVGID_62_">
		<use xlink:href="#SVGID_61_"  style="overflow:visible;"/>
	</clipPath>
	<path class="st57" d="M52.7,38.9c0-1.2,0.5-2.2,1.1-2.2c0.6,0,1.1,1,1.1,2.2c0,1.2-0.5,2.2-1.1,2.2C53.2,41,52.7,40.1,52.7,38.9"/>
	<path class="st58" d="M52.7,38.9c0-1.2,0.5-2.2,1.1-2.2c0.6,0,1.1,1,1.1,2.2c0,1.2-0.5,2.2-1.1,2.2C53.2,41,52.7,40.1,52.7,38.9z"
		/>
</g>
<g>
	<path class="st9" d="M53.5,38.9c0-0.5,0.1-0.9,0.2-0.9c0.1,0,0.2,0.4,0.2,0.9c0,0.5-0.1,0.9-0.2,0.9C53.6,39.8,53.5,39.3,53.5,38.9
		"/>
</g>
<g>
	<defs>
		<rect id="SVGID_63_" x="22.7" y="36.8" width="36.4" height="4"/>
	</defs>
	<clipPath id="SVGID_64_">
		<use xlink:href="#SVGID_63_"  style="overflow:visible;"/>
	</clipPath>
	<path class="st59" d="M54.8,38.9c0-1.2,0.5-2.2,1.1-2.2c0.6,0,1.1,1,1.1,2.2c0,1.2-0.5,2.2-1.1,2.2C55.3,41,54.8,40.1,54.8,38.9"/>
	<path class="st60" d="M54.8,38.9c0-1.2,0.5-2.2,1.1-2.2c0.6,0,1.1,1,1.1,2.2c0,1.2-0.5,2.2-1.1,2.2C55.3,41,54.8,40.1,54.8,38.9z"
		/>
</g>
<g>
	<defs>
		<rect id="SVGID_65_" x="-16.6" y="-22" width="242.3" height="147.7"/>
	</defs>
	<clipPath id="SVGID_66_">
		<use xlink:href="#SVGID_65_"  style="overflow:visible;"/>
	</clipPath>
	<path class="st61" d="M65.1,45.7c0-0.5,0.1-0.9,0.2-0.9s0.2,0.4,0.2,0.9c0,0.5-0.1,0.9-0.2,0.9S65.1,46.2,65.1,45.7"/>
</g>
<g>
	<defs>
		<rect id="SVGID_67_" x="22.7" y="36.8" width="36.4" height="4"/>
	</defs>
	<clipPath id="SVGID_68_">
		<use xlink:href="#SVGID_67_"  style="overflow:visible;"/>
	</clipPath>
	<path class="st62" d="M57,38.9c0-1.2,0.5-2.2,1.1-2.2c0.6,0,1.1,1,1.1,2.2c0,1.2-0.5,2.2-1.1,2.2C57.5,41,57,40.1,57,38.9"/>
	<path class="st63" d="M57,38.9c0-1.2,0.5-2.2,1.1-2.2c0.6,0,1.1,1,1.1,2.2c0,1.2-0.5,2.2-1.1,2.2C57.5,41,57,40.1,57,38.9z"/>
</g>
<g>
	<path class="st9" d="M57.8,38.9c0-0.5,0.1-0.9,0.2-0.9s0.2,0.4,0.2,0.9c0,0.5-0.1,0.9-0.2,0.9S57.8,39.3,57.8,38.9"/>
	<rect x="22.7" y="36.8" class="st7" width="36.4" height="4"/>
	<path class="st10" d="M18.8,35.9c20.8-6,24.2-5.9,44.6,0l-4.3,4.7c-14.9-5.3-21.8-4.5-36.6-0.2L18.8,35.9z"/>
</g>
<g>
	<defs>
		<path id="SVGID_69_" d="M18.8,35.9l3.7,4.5c14.8-4.4,21.7-5.1,36.6,0.2l4.3-4.7c-10.3-3-16.2-4.5-22.3-4.5
			C35.1,31.4,29.1,32.9,18.8,35.9"/>
	</defs>
	<clipPath id="SVGID_70_">
		<use xlink:href="#SVGID_69_"  style="overflow:visible;"/>
	</clipPath>
	<path class="st64" d="M18.4,36.6c20.7-6,24.9-5.8,44.8-0.1l-2.7,3.7c-16.9-6-23.1-5.1-39.2-0.3L18.4,36.6z"/>
	<path class="st65" d="M18.4,36.6c20.7-6,24.9-5.8,44.8-0.1l-2.7,3.7c-16.9-6-23.1-5.1-39.2-0.3L18.4,36.6z"/>
	<path class="st66" d="M25.1,37.4c-0.2-0.5,0.7-1.2,1.9-1.5c1.2-0.4,2.3-0.2,2.5,0.3c0.2,0.5-0.7,1.2-1.9,1.5
		C26.4,38,25.2,37.9,25.1,37.4"/>
	<path class="st65" d="M25.1,37.4c-0.2-0.5,0.7-1.2,1.9-1.5c1.2-0.4,2.3-0.2,2.5,0.3c0.2,0.5-0.7,1.2-1.9,1.5
		C26.4,38,25.2,37.9,25.1,37.4z"/>
	<path class="st66" d="M55.7,37.2c0.2-0.5-0.7-1.2-1.9-1.6c-1.2-0.4-2.3-0.3-2.5,0.2c-0.2,0.5,0.7,1.2,1.9,1.6
		C54.4,37.8,55.5,37.7,55.7,37.2"/>
	<path class="st65" d="M55.7,37.2c0.2-0.5-0.7-1.2-1.9-1.6c-1.2-0.4-2.3-0.3-2.5,0.2c-0.2,0.5,0.7,1.2,1.9,1.6
		C54.4,37.8,55.5,37.7,55.7,37.2z"/>
	<path class="st66" d="M39,34.5c0-0.6,0.8-1.1,1.8-1.1c1,0,1.7,0.5,1.7,1.1s-0.8,1.1-1.8,1.1C39.8,35.7,39,35.1,39,34.5"/>
	<path class="st65" d="M39,34.5c0-0.6,0.8-1.1,1.8-1.1c1,0,1.7,0.5,1.7,1.1s-0.8,1.1-1.8,1.1C39.8,35.7,39,35.1,39,34.5z"/>
	<polygon class="st64" points="32.5,34.9 34.5,33.7 36.9,34.6 34.8,35.8 	"/>
	<polygon class="st67" points="32.5,34.9 34.5,33.7 36.9,34.6 34.8,35.8 	"/>
	<polygon class="st64" points="19,39.4 20.3,37.5 22.8,37.3 21.5,39.2 	"/>
	<polygon class="st67" points="19,39.4 20.3,37.5 22.8,37.3 21.5,39.2 	"/>
	<polygon class="st64" points="49.5,35 47.5,33.8 45,34.6 47.1,35.8 	"/>
	<polygon class="st67" points="49.5,35 47.5,33.8 45,34.6 47.1,35.8 	"/>
	<polygon class="st64" points="62.6,39.7 61.4,37.8 58.8,37.5 60.1,39.4 	"/>
	<polygon class="st67" points="62.6,39.7 61.4,37.8 58.8,37.5 60.1,39.4 	"/>
</g>
<g>
	<path class="st7" d="M18.8,35.9c20.8-6,24.2-5.9,44.6,0l-4.3,4.7c-14.9-5.3-21.8-4.5-36.6-0.2L18.8,35.9z"/>
	<path class="st5" d="M22.6,40.6h36.5v35.8c0,2.4-9.1,2.1-11.7,2.8c-4.3,1.1-5.2,2.6-6.2,2.6c-1,0-1.9-1.9-6-2.8
		c-4.7-1-12.6,0.2-12.6-2.4V40.6z"/>
</g>
<g>
	<defs>
		<path id="SVGID_71_" d="M22.6,40.6v36c0,2.6,7.9,1.4,12.6,2.4c4.1,0.9,5,2.8,6,2.8c1,0,1.9-1.5,6.2-2.6c2.6-0.7,11.7-0.4,11.7-2.8
			V40.6H22.6z"/>
	</defs>
	<clipPath id="SVGID_72_">
		<use xlink:href="#SVGID_71_"  style="overflow:visible;"/>
	</clipPath>
	<rect x="21" y="39.4" class="st68" width="6.5" height="43.6"/>
	<rect x="21" y="39.4" class="st69" width="6.5" height="43.6"/>
	<rect x="32.7" y="39.4" class="st68" width="6.5" height="43.6"/>
	<rect x="32.7" y="39.4" class="st69" width="6.5" height="43.6"/>
	<rect x="43.7" y="39.4" class="st68" width="6.5" height="43.6"/>
	<rect x="43.7" y="39.4" class="st69" width="6.5" height="43.6"/>
	<rect x="53.1" y="39.4" class="st68" width="6.5" height="43.6"/>
	<rect x="53.1" y="39.4" class="st69" width="6.5" height="43.6"/>
	<rect x="26.7" y="39.4" class="st70" width="6.5" height="43.6"/>
	<rect x="26.7" y="39.4" class="st69" width="6.5" height="43.6"/>
	<rect x="38" y="39.4" class="st70" width="6.5" height="43.6"/>
	<rect x="38" y="39.4" class="st69" width="6.5" height="43.6"/>
	<rect x="49.1" y="39.5" class="st70" width="6.5" height="43.6"/>
	<rect x="49.1" y="39.5" class="st69" width="6.5" height="43.6"/>
	<rect x="13.3" y="55.3" transform="matrix(0.7314 -0.682 0.682 0.7314 -29.1241 43.6823)" class="st71" width="55.2" height="7"/>
	<rect x="13.3" y="55.3" transform="matrix(0.7314 -0.682 0.682 0.7314 -29.1241 43.6823)" class="st69" width="55.2" height="7"/>
	<path class="st72" d="M29.9,70.8l1.1-1l0.8,0.4l0.7-0.6l-3.8-2l-0.7,0.7l1.7,3.9l0.6-0.6L29.9,70.8z M28.9,68.6L28.9,68.6l1.5,0.8
		l-0.7,0.7L28.9,68.6z"/>
	<path class="st68" d="M33.3,66.8l0.7-0.6c0.4,0.7,0,1.2-0.1,1.3c-0.4,0.4-1,0.6-1.8-0.2c-0.7-0.8-0.6-1.4-0.1-1.8
		c0.4-0.4,1-0.2,1.1-0.1l0.6-0.6c-0.4-0.4-1.3-0.6-2.2,0.2c-1,0.9-0.7,2.1,0,2.9c1,1,2.1,0.9,2.8,0.3c0.5-0.5,0.5-1,0.5-1.3l0.4,0.3
		l0.4-0.4L34,65.1l-1.2,1.1L33.3,66.8z"/>
	<path class="st68" d="M35.8,61l-0.6,0.6l1.8,1.9c0.3,0.4,0.4,0.7-0.1,1.1c-0.3,0.3-0.7,0.3-1.1-0.1L34,62.6l-0.6,0.6l1.8,1.9
		c0.3,0.3,0.6,0.5,0.9,0.5c0.5,0,1-0.3,1.3-0.5c0.7-0.7,0.9-1.5,0.2-2.2L35.8,61z"/>
	<rect x="37.7" y="59.5" transform="matrix(0.7313 -0.6821 0.6821 0.7313 -31.7512 42.5137)" class="st68" width="0.8" height="4"/>
	<polygon class="st68" points="38.3,58.6 37.7,59.2 40.4,62.1 42.5,60.2 42,59.7 40.5,61 	"/>
	<path class="st72" d="M43,58.5l1.1-1l0.8,0.4l0.7-0.6l-3.8-2L41.1,56l1.7,3.9l0.6-0.6L43,58.5z M42,56.4L42,56.4l1.5,0.8l-0.7,0.7
		L42,56.4z"/>
	<path class="st68" d="M45,56.1c0.3,0.4,1.1,0.8,2.2-0.2c0.3-0.2,1.1-1.2,0.3-2c-0.5-0.5-1-0.3-1.5-0.1l-0.9,0.5
		c-0.1,0.1-0.4,0.2-0.6,0c-0.2-0.3,0-0.6,0.2-0.8c0.5-0.5,0.9-0.2,1-0.1l0.6-0.5c-0.3-0.4-1.1-0.7-2,0.1c-1,0.9-0.6,1.6-0.3,2
		c0.6,0.6,1.2,0.3,1.7,0l0.4-0.2c0.4-0.2,0.7-0.4,0.9-0.1c0.3,0.3,0,0.7-0.3,1c-0.5,0.5-0.9,0.3-1.1,0.1L45,56.1z"/>
	<path class="st68" d="M55,44.9c-0.4-0.4-1.4-0.7-2.2,0.1c-0.8,0.7-0.9,1.8,0.1,2.8c0.9,1,2,1,2.8,0.3c0.7-0.7,0.7-1.5,0.3-2.3
		l-0.6,0.6c0.3,0.4,0.2,0.8-0.1,1.2c-0.5,0.5-1.2,0.2-1.7-0.3c-0.8-0.8-0.5-1.4-0.2-1.7c0.5-0.5,0.9-0.2,1.1-0.1L55,44.9z"/>
	
		<rect x="56.9" y="45.4" transform="matrix(0.7313 -0.6821 0.6821 0.7313 -15.8698 51.4362)" class="st68" width="0.8" height="0.8"/>
</g>
<g>
	<defs>
		<rect id="SVGID_73_" x="22.6" y="40.7" width="18.5" height="11.2"/>
	</defs>
	<clipPath id="SVGID_74_">
		<use xlink:href="#SVGID_73_"  style="overflow:visible;"/>
	</clipPath>
	
		<linearGradient id="SVGID_75_" gradientUnits="userSpaceOnUse" x1="-171.6957" y1="232.3541" x2="-171.3031" y2="232.3541" gradientTransform="matrix(-2.9942 -34.2235 -34.2235 2.9942 7470.4746 -6517.4102)">
		<stop  offset="0" style="stop-color:#FFFFFF"/>
		<stop  offset="0.797" style="stop-color:#FFFFFF"/>
		<stop  offset="0.9167" style="stop-color:#97B6E1"/>
		<stop  offset="1" style="stop-color:#3B8ACA"/>
	</linearGradient>
	<polygon class="st73" points="22.8,53.4 21.7,40.7 41,39 42.1,51.8 	"/>
</g>
<g>
	<defs>
		<rect id="SVGID_76_" x="22.7" y="40.7" width="18.5" height="11.2"/>
	</defs>
	<clipPath id="SVGID_77_">
		<use xlink:href="#SVGID_76_"  style="overflow:visible;"/>
	</clipPath>
	<rect x="20.1" y="38.8" class="st74" width="24" height="10.2"/>
	<polygon class="st75" points="28,46.3 28,45 29.1,44.7 29.4,42.5 32.1,42.6 33,44.1 37.7,44 38.5,44.9 39.3,47.4 36.9,48.2 
		34.7,47.7 32.9,47.5 31.1,46.9 29.6,47.1 28.8,46.6 27.9,46.4 	"/>
	<polygon class="st74" points="28,46.3 28,45 29.1,44.7 29.4,42.5 32.1,42.6 33,44.1 37.7,44 38.5,44.9 39.3,47.4 36.9,48.2 
		34.7,47.7 32.9,47.5 31.1,46.9 29.6,47.1 28.8,46.6 27.9,46.4 	"/>
	<path class="st76" d="M41.5,48.9l1,2.6l-1.7,1.6l-5.1,0.4l-5.6-0.2c0,0-5.8,0.1-5.9,0.1c-0.1,0-1.8-0.8-1.8-0.8l-0.6-3.5l0.8-2.4
		l2.2,0.3l1.5-0.2c0,0,1.2-0.5,1.4-0.5c0.2,0,1.1,0.4,1.1,0.4s0.5-0.3,0.6-0.4c0.1-0.1,1-0.3,1-0.3l0.7,0l0.9,0.6c0,0,0.8,0.5,1,0.6
		c0.2,0,0.7,0.1,0.9,0.1h0.9c0,0,0.5,0.2,0.7,0.3c0.2,0.1,0.7,0.3,0.7,0.3s0.4,0.1,0.5,0.1c0.1,0,0.5-0.2,0.7-0.3
		c0.2-0.1,0.7-0.4,0.9-0.3c0.2,0.1,0.7,0,0.9,0.1c0.3,0.1,0.9,0.1,1,0.1c0.1,0.1,1,0.3,1,0.3L41.5,48.9z"/>
	<path class="st74" d="M41.5,48.9l1,2.6l-1.7,1.6l-5.1,0.4l-5.6-0.2c0,0-5.8,0.1-5.9,0.1c-0.1,0-1.8-0.8-1.8-0.8l-0.6-3.5l0.8-2.4
		l2.2,0.3l1.5-0.2c0,0,1.2-0.5,1.4-0.5c0.2,0,1.1,0.4,1.1,0.4s0.5-0.3,0.6-0.4c0.1-0.1,1-0.3,1-0.3l0.7,0l0.9,0.6c0,0,0.8,0.5,1,0.6
		c0.2,0,0.7,0.1,0.9,0.1h0.9c0,0,0.5,0.2,0.7,0.3c0.2,0.1,0.7,0.3,0.7,0.3s0.4,0.1,0.5,0.1c0.1,0,0.5-0.2,0.7-0.3
		c0.2-0.1,0.7-0.4,0.9-0.3c0.2,0.1,0.7,0,0.9,0.1c0.3,0.1,0.9,0.1,1,0.1c0.1,0.1,1,0.3,1,0.3L41.5,48.9z"/>
	<rect x="36.2" y="44.9" class="st77" width="1" height="0.7"/>
	<rect x="36.2" y="44.9" class="st74" width="1" height="0.7"/>
	<rect x="34.3" y="44.8" class="st77" width="0.7" height="0.9"/>
	<rect x="34.3" y="44.8" class="st74" width="0.7" height="0.9"/>
	<rect x="30.5" y="43.5" class="st77" width="0.9" height="0.9"/>
	<rect x="30.5" y="43.5" class="st74" width="0.9" height="0.9"/>
	<path class="st78" d="M23.4,48.1l0.9,0.1l0.7,0.3c0,0,0.8-0.4,0.9-0.4c0.2-0.5,0.6-0.6,1.1-0.5c0,0,0.5-0.1,0.7-0.1
		c0.2,0,0.6,0,0.7,0.2c0.1,0.1,0.3,0.3,0.3,0.3c0.9,0.4,1.8,1.3,1.3,2 M27,50.7l1.3-0.5l1.5,0c0,0,0.3,0.2,0.4,0.4
		c0.1,0.2,0.5,0.6,0.5,0.6l0.4-0.8c0,0,0.1-0.3,0.6-0.3c0.5,0,1.1,0.1,1.1,0.1h0.6c0,0,0.1,0.5,0.2-0.1c0.1-0.7,0.1-0.9,0-1.1
		c-0.1-0.2-0.1-0.5-0.3-0.7c-0.2-0.2-0.1-0.3-0.4-0.4c-0.3-0.1-0.3-0.1-0.6-0.2c-0.3-0.1-0.5,0-0.6-0.1c-0.1-0.1-0.3-0.3-0.3-0.3
		s-0.3-0.1-0.4-0.1c-0.1,0-0.8-0.9-1.3-0.6c-0.5,0.3-0.6,0.3-0.6,0.3 M35,47.6l-0.4,0.3c0,0-0.5,0.3,0,0.7c0.4,0.4,0.7,0.5,1.1,0.5
		c0.3,0,0.7,0,0.9,0c0.2,0,0.1-0.2,0.5,0.1c0.5,0.3,0.2,0.2,0.8,0.6c0.6,0.4,0.8,0.2,0.9,0.1c0.2-0.1-0.6-0.1,0.4-0.3
		c1-0.2,1-0.2,1-0.2 M35.3,50.7c0,0-0.5,0-0.5,0.2c0,0.2-0.3,0.3-0.2,0.4c0.1,0.1,0.1,0.2,0.1,0.2 M35.8,49.5
		c1.6,0.8-0.1,1.7,2.6,1.6c0,0,0.5-0.4,0.4,0.6c-0.1,1.1,1.3-1.4,1.3-1.4s-0.3-1.3,0.5-1.2 M26.8,51.1c0.1-0.9-1.4-1.2-1.4-0.9
		c0,0.2-1.7,0.1-1.6,0.3c0.1,0.1,0.1,0.2,0.1,0.2"/>
</g>
<g>
	<defs>
		<path id="SVGID_78_" d="M22.6,40.6v36c0,2.6,7.9,1.4,12.6,2.4c4.1,0.9,5,2.8,6,2.8c1,0,1.9-1.5,6.2-2.6c2.6-0.7,11.7-0.4,11.7-2.8
			V40.6H22.6z"/>
	</defs>
	<clipPath id="SVGID_79_">
		<use xlink:href="#SVGID_78_"  style="overflow:visible;"/>
	</clipPath>
	<rect x="22.7" y="40.7" class="st79" width="18.5" height="11.2"/>
</g>
<g>
	<path class="st80" d="M22.6,40.6h36.5v35.8c0,2.4-9.1,2.1-11.7,2.8c-4.3,1.1-5.2,2.6-6.2,2.6c-1,0-1.9-1.9-6-2.8
		c-4.7-1-12.6,0.2-12.6-2.4V40.6z"/>
	<polygon class="st5" points="50.3,51 51.6,49.8 51.1,49.3 49.8,50.5 49.2,49.9 50.7,48.5 50.2,48 48.1,49.9 50.8,52.9 51.5,52.3 	
		"/>
	
		<rect x="52.5" y="49.9" transform="matrix(0.7313 -0.6821 0.6821 0.7313 -20.1024 49.6411)" class="st5" width="0.8" height="0.8"/>
	<path d="M23.6,77.8c0.4,0,0.7-0.1,1-0.2c0.2-0.1,0.3-0.3,0.3-0.4c0-0.2-0.2-0.3-0.3-0.4c-0.1,0-0.2,0-0.3-0.1
		c-0.1,0-0.3-0.1-0.4-0.1c0.8-0.9,0.5-1.8,0.3-2.5c-0.1-0.2-0.1-0.5-0.2-0.7c-0.1-1,0.4-1.5,1-2.2c0.7-0.8,1.5-1.7,1-3.4
		c0.1-0.5,1.6-1.2,2.9-1.5c0.1,0,0.1,0,0.2-0.1c0.7-0.5,0.8-1,0.9-1.4c0,0,0.1,0.1,0.1,0.1c0,0.1,0.1,0.1,0.2,0.2
		c0.1,0.1,0.2,0.2,0.3,0.1c0.1,0,0.1,0,0.2,0c0.2-0.1,0.3-0.2,0.3-0.4c-0.1-1.4-1.6-2.3-2.9-2.3c-0.3,0-0.5,0.1-0.7,0.1
		c-0.8,0.3-1.2,1-1.5,1.6c-0.2,0.3-0.3,0.6-0.4,0.7c0.1-0.8,0.6-2.3,1.8-3.4c0,0,0.1-0.1,0.1-0.1c0.4-0.7,0.2-1.3,0.1-1.7
		c0.1,0,0.3,0.1,0.4,0.1c0.1,0,0.1,0,0.2,0c0.2,0,0.3-0.2,0.3-0.3c0-0.2,0-0.3-0.1-0.4c-0.6-0.5-1.4-0.8-2.1-0.8
		c-1,0-1.9,0.6-2.2,1.5c-0.2,0.6-0.2,1.3-0.2,2.1c0,0.9,0,1.7-0.3,2.2c-0.2-0.4-0.2-0.8-0.3-1.2c-0.1-0.7-0.2-1.6-1-2
		c0.1,0,0.2-0.1,0.3-0.1c0.1,0,0.5-0.2,0.4-0.5c0-0.2-0.1-0.4-0.5-0.4c-0.1,0-0.3,0-0.4,0c-1.6,0.1-2.4,1.6-2.5,2.6
		c-0.1,1,0.6,1.6,1.2,2.2c0.4,0.4,0.9,0.8,1.1,1.3c0.4,1,0.2,2-0.2,3.2c-0.2,0.8,0,1.7,0.1,2.4c0,0.2,0.1,0.5,0.1,0.6c0,0,0,0,0,0
		c0.1,0.7-0.1,1.2-0.4,1.7c-0.2,0.4-0.5,0.8-0.5,1.3c0,0.6,0.2,1.2,0.7,1.7C22,77.5,22.8,77.9,23.6,77.8L23.6,77.8z"/>
	<path class="st1" d="M23.5,73.5c0.1,0.9,0.9,2-0.3,3c0,0.6,0.6,0.6,1.2,0.7c-1.5,0.7-3.4-0.5-3.3-1.9c0.1-1,1.2-1.6,0.9-3.1
		c-0.1-0.7-0.5-2-0.2-2.9c0.3-1.2,0.6-2.4,0.2-3.5c-0.6-1.5-2.4-1.9-2.2-3.3c0.1-0.9,0.9-2.4,2.4-2.2c0.6,0.1-1,0.1-0.7,0.9
		c1.5,0.4,0.6,2.4,1.7,3.7c1.4-1.1,0.5-3.5,1-4.9c0.5-1.2,2.3-1.6,3.6-0.5c-0.4,0.1-0.6-0.3-1.1-0.1c-0.1,0.3,0.6,0.9,0.1,1.9
		c-1.9,1.8-2.1,4.3-1.8,4.5c1.3-0.3,1.2-2.3,2.5-2.7c1.1-0.4,3,0.3,3,1.7c-0.4-0.5-0.4-0.5-0.9-0.5c-0.3,0.2,0.1,0.9-0.9,1.5
		c-1,0.2-3.2,0.9-3.2,2C26.4,70.8,23.4,70.9,23.5,73.5"/>
	<path d="M28.9,65.5c0.3-0.3,0.3-0.6,0.3-0.8c0-0.2,0.1-0.4,0.2-0.5c0,0,0.1,0,0.1,0l0,0c0.2,0,0.4,0,0.5,0.1
		c-0.1-0.2-0.3-0.4-0.4-0.5c-0.3-0.3-0.7-0.4-1.1-0.5c-0.2,0.3-0.4,0.6-0.3,1C28.2,64.8,28.5,65.3,28.9,65.5"/>
	<path d="M26.8,60.8c0-0.3-0.1-0.6-0.2-0.8c-0.1-0.2-0.2-0.4-0.1-0.6c0,0,0-0.1,0.1-0.1c0.1-0.1,0.2-0.1,0.3-0.1
		c-0.3-0.1-0.6-0.2-0.9-0.2c-0.3,0-0.5,0.1-0.7,0.2c0,0,0,0.1,0,0.1C25.3,60.1,26,60.8,26.8,60.8"/>
	<path d="M21.3,62.4c0.3,0,0.6-0.1,0.9-0.3c-0.1-0.4-0.4-0.5-0.7-0.6c-0.1,0-0.1-0.1-0.1-0.1c-0.1-0.2-0.1-0.3,0-0.5
		c0-0.1,0.1-0.2,0.2-0.2c-0.7,0.2-1.1,0.8-1.4,1.3C20.4,62.2,20.8,62.4,21.3,62.4"/>
	<path d="M23.6,77.2C23.6,77.2,23.7,77.2,23.6,77.2c-0.2-0.1-0.5-0.3-0.5-0.7c0-0.1,0-0.1,0.1-0.1c0.4-0.3,0.6-0.7,0.6-1.2
		c-0.1,0-0.1,0-0.2,0c-0.8,0-1.5,0.7-1.5,1.5C22.5,77,23,77.2,23.6,77.2"/>
	<path d="M58.1,77.8c-0.4,0-0.7-0.1-1-0.2c-0.2-0.1-0.3-0.3-0.3-0.4c0-0.2,0.2-0.3,0.3-0.4c0.1,0,0.2,0,0.3-0.1
		c0.1,0,0.3-0.1,0.4-0.1c-0.8-0.9-0.5-1.8-0.3-2.5c0.1-0.2,0.1-0.5,0.2-0.7c0.1-1-0.4-1.5-1-2.2c-0.7-0.8-1.5-1.7-1-3.4
		c-0.1-0.5-1.6-1.2-2.9-1.5c-0.1,0-0.1,0-0.2-0.1c-0.7-0.5-0.8-1-0.9-1.4c0,0-0.1,0.1-0.1,0.1c0,0.1-0.1,0.1-0.2,0.2
		c-0.1,0.1-0.2,0.2-0.3,0.1c-0.1,0-0.1,0-0.2,0c-0.2-0.1-0.3-0.2-0.3-0.4c0.1-1.4,1.6-2.3,2.9-2.3c0.3,0,0.5,0.1,0.7,0.1
		c0.8,0.3,1.2,1,1.5,1.6c0.2,0.3,0.3,0.6,0.4,0.7c-0.1-0.8-0.6-2.3-1.8-3.4c0,0-0.1-0.1-0.1-0.1c-0.4-0.7-0.2-1.3-0.1-1.7
		C54.3,60,54.2,60,54,60c-0.1,0-0.1,0-0.2,0c-0.2,0-0.3-0.2-0.3-0.3c0-0.2,0-0.3,0.1-0.4c0.6-0.5,1.4-0.8,2.1-0.8
		c1,0,1.9,0.6,2.2,1.5c0.2,0.6,0.2,1.3,0.2,2.1c0,0.9,0,1.7,0.3,2.2c0.2-0.4,0.2-0.8,0.3-1.2c0.1-0.7,0.2-1.6,1-2
		c-0.1,0-0.2-0.1-0.3-0.1c-0.1,0-0.5-0.2-0.4-0.5c0-0.2,0.1-0.4,0.5-0.4c0.1,0,0.3,0,0.4,0c1.6,0.1,2.4,1.6,2.5,2.6
		c0.1,1-0.6,1.6-1.2,2.2c-0.4,0.4-0.9,0.8-1.1,1.3c-0.4,1-0.2,2,0.2,3.2c0.2,0.8,0,1.7-0.1,2.4c0,0.2-0.1,0.5-0.1,0.6c0,0,0,0,0,0
		c-0.1,0.7,0.1,1.2,0.4,1.7c0.2,0.4,0.5,0.8,0.5,1.3c0,0.6-0.2,1.2-0.7,1.7C59.8,77.5,58.9,77.9,58.1,77.8"/>
	<path class="st1" d="M58.2,73.5c-0.1,0.9-0.9,2,0.3,3c0,0.6-0.6,0.6-1.2,0.7c1.5,0.7,3.4-0.5,3.3-1.9c-0.1-1-1.2-1.6-0.9-3.1
		c0.1-0.7,0.5-2,0.2-2.9c-0.4-1.2-0.6-2.4-0.2-3.5c0.6-1.5,2.4-1.9,2.2-3.3c-0.1-0.9-0.9-2.4-2.4-2.2c-0.6,0.1,1,0.1,0.7,0.9
		c-1.5,0.4-0.6,2.4-1.7,3.7c-1.4-1.1-0.5-3.5-1-4.9c-0.5-1.2-2.3-1.6-3.6-0.5c0.4,0.1,0.6-0.3,1.1-0.1c0.1,0.3-0.6,0.9-0.1,1.9
		c1.9,1.8,2.1,4.3,1.8,4.5c-1.3-0.3-1.2-2.3-2.5-2.7c-1.1-0.4-3,0.3-3,1.7c0.4-0.5,0.4-0.5,0.9-0.5c0.3,0.2-0.1,0.9,0.9,1.5
		c1,0.2,3.2,0.9,3.2,2C55.3,70.8,58.4,70.9,58.2,73.5"/>
	<path d="M52.8,65.5c-0.3-0.3-0.3-0.6-0.3-0.8c0-0.2-0.1-0.4-0.2-0.5c0,0-0.1,0-0.1,0l0,0c-0.2,0-0.4,0-0.5,0.1
		c0.1-0.2,0.3-0.4,0.4-0.5c0.3-0.3,0.7-0.4,1.1-0.5c0.2,0.3,0.4,0.6,0.3,1C53.5,64.8,53.3,65.3,52.8,65.5"/>
	<path d="M54.9,60.8c0-0.3,0.1-0.6,0.2-0.8c0.1-0.2,0.2-0.4,0.1-0.6c0,0,0-0.1-0.1-0.1c-0.1-0.1-0.2-0.1-0.3-0.1
		c0.3-0.1,0.6-0.2,0.9-0.2c0.3,0,0.5,0.1,0.7,0.2c0,0,0,0.1,0,0.1C56.4,60.1,55.7,60.8,54.9,60.8"/>
	<path d="M60.5,62.4c-0.3,0-0.6-0.1-0.9-0.3c0.1-0.4,0.4-0.5,0.7-0.6c0.1,0,0.1-0.1,0.1-0.1c0.1-0.2,0.1-0.3,0-0.5
		c0-0.1-0.1-0.2-0.2-0.2c0.7,0.2,1.1,0.8,1.4,1.3C61.3,62.2,60.9,62.4,60.5,62.4"/>
	<path d="M58.1,77.2C58.1,77.2,58.1,77.2,58.1,77.2c0.2-0.1,0.5-0.3,0.5-0.7c0-0.1,0-0.1-0.1-0.1C58.2,76,58,75.7,58,75.2
		c0.1,0,0.1,0,0.2,0c0.8,0,1.5,0.7,1.5,1.5C59.3,77,58.7,77.2,58.1,77.2"/>
</g>
<g>
	<path class="st5" d="M99.5,58.4L98,53.4h-7.8l-1.5,5.1h-4.9l7.5-21.4h5.5l7.5,21.4H99.5z M96.9,49.6c-1.4-4.6-2.2-7.2-2.4-7.8
		s-0.3-1.1-0.4-1.4c-0.3,1.2-1.2,4.3-2.8,9.2H96.9z M91.7,35.5v-0.4c1.7-1.9,2.8-3.4,3.4-4.4h5V31c-0.5,0.5-1.4,1.3-2.6,2.2
		c-1.2,1-2.2,1.7-2.9,2.2H91.7z"/>
	<path class="st5" d="M115.2,46.5h8.4v11c-1.4,0.4-2.7,0.8-3.9,0.9c-1.2,0.2-2.4,0.3-3.7,0.3c-3.2,0-5.7-0.9-7.4-2.8
		c-1.7-1.9-2.5-4.6-2.5-8.1c0-3.4,1-6.1,2.9-8c2-1.9,4.7-2.9,8.2-2.9c2.2,0,4.3,0.4,6.3,1.3l-1.5,3.6c-1.6-0.8-3.2-1.2-4.8-1.2
		c-1.9,0-3.5,0.7-4.7,2c-1.2,1.3-1.8,3.1-1.8,5.3c0,2.3,0.5,4.1,1.4,5.3c0.9,1.2,2.3,1.8,4.1,1.8c0.9,0,1.9-0.1,2.9-0.3v-4.4h-4
		V46.5z"/>
	<path class="st5" d="M146,37.2v13.8c0,1.6-0.4,2.9-1.1,4.1c-0.7,1.2-1.7,2.1-3,2.7c-1.3,0.6-2.9,0.9-4.7,0.9
		c-2.7,0-4.9-0.7-6.4-2.1c-1.5-1.4-2.3-3.3-2.3-5.8V37.2h4.5v13c0,1.6,0.3,2.8,1,3.6c0.7,0.8,1.8,1.2,3.3,1.2c1.5,0,2.5-0.4,3.2-1.2
		c0.7-0.8,1-2,1-3.6v-13H146z"/>
	<path class="st5" d="M151.2,58.4V37.2h4.5v21.3H151.2z"/>
	<path class="st5" d="M161.1,58.4V37.2h4.5v17.6h8.6v3.7H161.1z"/>
	<path class="st5" d="M190.9,58.4l-1.5-5.1h-7.8l-1.5,5.1h-4.9l7.5-21.4h5.5l7.5,21.4H190.9z M188.3,49.6c-1.4-4.6-2.2-7.2-2.4-7.8
		c-0.2-0.6-0.3-1.1-0.4-1.4c-0.3,1.2-1.2,4.3-2.8,9.2H188.3z"/>
	<path class="st5" d="M211,52.5c0,1.9-0.7,3.4-2.1,4.5c-1.4,1.1-3.3,1.7-5.8,1.7c-2.3,0-4.3-0.4-6-1.3v-4.2c1.4,0.6,2.7,1.1,3.6,1.4
		c1,0.3,1.9,0.4,2.7,0.4c1,0,1.7-0.2,2.3-0.6c0.5-0.4,0.8-0.9,0.8-1.7c0-0.4-0.1-0.8-0.3-1.1c-0.2-0.3-0.6-0.6-1-0.9
		c-0.5-0.3-1.4-0.8-2.8-1.4c-1.3-0.6-2.3-1.2-2.9-1.8c-0.7-0.6-1.2-1.2-1.6-2s-0.6-1.6-0.6-2.6c0-1.9,0.6-3.4,1.9-4.4
		c1.3-1.1,3-1.6,5.3-1.6c1.1,0,2.2,0.1,3.2,0.4c1,0.3,2.1,0.6,3.2,1.1l-1.5,3.5c-1.1-0.5-2.1-0.8-2.8-1c-0.7-0.2-1.5-0.3-2.2-0.3
		c-0.9,0-1.5,0.2-2,0.6c-0.5,0.4-0.7,0.9-0.7,1.6c0,0.4,0.1,0.7,0.3,1c0.2,0.3,0.5,0.6,0.9,0.9c0.4,0.3,1.4,0.8,2.9,1.5
		c2,1,3.4,1.9,4.1,2.9C210.6,50,211,51.1,211,52.5z"/>
	<path class="st5" d="M227,58.4h-4.4V37.2h12.2v3.7H227v5.5h7.2V50H227V58.4z"/>
	<path class="st5" d="M238,56.4c0-0.8,0.2-1.4,0.7-1.8c0.4-0.4,1.1-0.6,1.9-0.6c0.8,0,1.4,0.2,1.9,0.6c0.4,0.4,0.7,1,0.7,1.8
		c0,0.8-0.2,1.4-0.7,1.8s-1.1,0.7-1.9,0.7c-0.8,0-1.4-0.2-1.9-0.6S238,57.1,238,56.4z"/>
	<path class="st5" d="M256.5,40.6c-1.7,0-3,0.6-3.9,1.9c-0.9,1.3-1.4,3.1-1.4,5.3c0,4.7,1.8,7.1,5.3,7.1c1.5,0,3.3-0.4,5.4-1.1v3.8
		c-1.7,0.7-3.7,1.1-5.9,1.1c-3.1,0-5.5-0.9-7.1-2.8c-1.6-1.9-2.5-4.6-2.5-8.1c0-2.2,0.4-4.2,1.2-5.8c0.8-1.7,2-2.9,3.5-3.8
		s3.3-1.3,5.3-1.3c2.1,0,4.1,0.5,6.2,1.5l-1.5,3.7c-0.8-0.4-1.6-0.7-2.4-1C258.1,40.8,257.3,40.6,256.5,40.6z"/>
	<path class="st5" d="M265.5,56.4c0-0.8,0.2-1.4,0.7-1.8c0.4-0.4,1.1-0.6,1.9-0.6c0.8,0,1.4,0.2,1.9,0.6c0.4,0.4,0.7,1,0.7,1.8
		c0,0.8-0.2,1.4-0.7,1.8s-1.1,0.7-1.9,0.7c-0.8,0-1.4-0.2-1.9-0.6S265.5,57.1,265.5,56.4z"/>
</g>
</svg>
