<?xml version="1.0" encoding="UTF-8" standalone="no"?>
<svg
   xmlns:dc="http://purl.org/dc/elements/1.1/"
   xmlns:cc="http://creativecommons.org/ns#"
   xmlns:rdf="http://www.w3.org/1999/02/22-rdf-syntax-ns#"
   xmlns:svg="http://www.w3.org/2000/svg"
   xmlns="http://www.w3.org/2000/svg"
   xmlns:sodipodi="http://sodipodi.sourceforge.net/DTD/sodipodi-0.dtd"
   xmlns:inkscape="http://www.inkscape.org/namespaces/inkscape"
   viewBox="0 0 117 150"
   height="150"
   width="117"
   xml:space="preserve"
   id="svg2"
   version="1.1"
   sodipodi:docname="Logo of CD Castellón.svg"
   inkscape:version="0.92.4 (5da689c313, 2019-01-14)"><title
     id="title1067">Logo of Club Deportivo Castellón, S.A.D.</title><sodipodi:namedview
     pagecolor="#ffffff"
     bordercolor="#666666"
     borderopacity="1"
     objecttolerance="10"
     gridtolerance="10"
     guidetolerance="10"
     inkscape:pageopacity="0"
     inkscape:pageshadow="2"
     inkscape:window-width="1600"
     inkscape:window-height="837"
     id="namedview985"
     showgrid="false"
     inkscape:zoom="2.7951193"
     inkscape:cx="29.463362"
     inkscape:cy="58.734953"
     inkscape:window-x="-8"
     inkscape:window-y="-8"
     inkscape:window-maximized="1"
     inkscape:current-layer="svg2" /><metadata
     id="metadata8"><rdf:RDF><cc:Work
         rdf:about=""><dc:format>image/svg+xml</dc:format><dc:type
           rdf:resource="http://purl.org/dc/dcmitype/StillImage" /><dc:title>Logo of Club Deportivo Castellón, S.A.D.</dc:title><dc:creator><cc:Agent><dc:title>Club Deportivo Castellón, S.A.D.</dc:title></cc:Agent></dc:creator><dc:publisher><cc:Agent><dc:title>Club Deportivo Castellón, S.A.D.</dc:title></cc:Agent></dc:publisher><dc:description>Logo of Club Deportivo Castellón, S.A.D.</dc:description></cc:Work></rdf:RDF></metadata><defs
     id="defs6"><clipPath
   id="clipPath30"
   clipPathUnits="userSpaceOnUse"><path
     id="path28"
     d="M 0,716.964 H 850.39 V 0 H 0 Z"
     inkscape:connector-curvature="0" /></clipPath>

</defs><g
     id="g1143"
     transform="matrix(1.25,0,0,1.25,-0.2440087,-3.7479795e-6)"><g
       transform="matrix(0.27692305,0,0,-0.27692305,46.663003,119.51302)"
       id="g20"><path
         id="path22"
         style="fill:#ffffff;fill-opacity:1;fill-rule:evenodd;stroke:none"
         d="m 0,0 20.828,21.065 21.267,23.209 19.689,23.213 20.132,25.237 14.369,19.32 14.153,20.266 20.633,32.995 13.734,25.574 7.675,17.827 10.574,29.881 3.734,21.351 0.645,19.342 -3.952,20.753 -8.125,16.683 -6.683,8.903 -8.271,8.27 -11.347,7.481 -17.531,10.204 -14.175,9.701 -16.588,11.277 -16.031,13.799 -11.059,11.582 -8.261,9.622 -7.694,7.118 -4.741,3.52 -15.014,8.044 -11.871,3.239 -7.102,0.933 -7.338,-1.224 -11.493,-3.88 -10.276,-5.537 -10.786,-7.757 -6.756,-7.046 -6.253,-7.4 -6.17,-6.324 -6.764,-6.468 -8.627,-8.475 -18.177,-12.874 -19.761,-12.362 -21.278,-13.08 -5.823,-4.809 -8.618,-8.484 -6.68,-9.058 -5.897,-11.923 -4.166,-12.29 -1.585,-14.512 v -11.28 l 1.435,-12.3 3.519,-15.743 8.125,-23.102 10.787,-25.74 12.996,-24.725 19.609,-30.621 18.505,-26.098 27.57,-36.147 32.196,-37.436 26.385,-28.533 z"
         inkscape:connector-curvature="0" /></g><g
       transform="matrix(0.27692305,0,0,-0.27692305,-71.147262,173.83689)"
       id="g24"><g
         clip-path="url(#clipPath30)"
         id="g26"><g
           transform="translate(341.564,302.8931)"
           id="g32"><path
             id="path34"
             style="fill:#f6d70d;fill-opacity:1;fill-rule:evenodd;stroke:none"
             d="m 0,0 c -25.717,35.164 -50.424,71.332 -66.266,116.369 -5.487,16.743 -11.432,37.008 -8.084,58.377 3.069,19.609 11.808,34.418 23.516,44.898 8.003,7.204 18.545,11.879 27.663,17.96 19.107,11.369 37.017,23.926 52.081,39.32 6.919,8.249 13.481,16.567 22.455,23.171 10.243,7.551 25.536,16.609 42.924,12.04 20.865,-5.492 34.425,-20.04 45.798,-34.311 16.516,-17.726 37.587,-31.061 59.08,-43.998 7.103,-4.266 14.502,-8.146 20.652,-13.641 8.27,-7.011 14.616,-15.935 19.221,-26.588 3.335,-8.312 5.67,-17.805 6.098,-28.369 0.46,-10.745 -1.638,-21.574 -3.763,-30.539 C 236.993,116.268 230.127,99.567 222.87,84.586 207.907,53.668 189.025,26.219 169.897,0.184 144.783,-33.465 117.326,-65.315 87.634,-95.013 c -0.775,-0.778 -2.433,-2.845 -2.692,-2.867 -0.778,-0.041 -5.065,5.056 -5.739,5.751 C 50.771,-63.696 24.389,-32.38 0,0 m 173.665,216.953 v 0 c 3.703,-16.541 7.45,-33.037 11.132,-49.578 h 58.193 c -1.72,23.438 -10.911,39.373 -24.072,51.368 -6.63,6.254 -14.98,10.232 -22.799,14.902 -23.58,14.11 -46.393,29.382 -63.046,50.29 -5.638,6.826 -12.043,12.764 -19.933,17.782 -7.37,4.681 -16.888,9.592 -28.014,9.69 -11.041,0.101 -20.806,-4.86 -28.194,-9.512 C 49.013,296.896 42.504,290.883 36.996,283.935 25.791,270.026 12.034,258.708 -2.876,248.37 -17.818,238.015 -34.715,230.104 -49.031,218.916 -62.01,206.698 -71.436,190.915 -73.093,167.375 h 58.18 c 3.696,16.541 7.454,33.037 11.137,49.578 0.82,-0.33 1.679,-0.616 2.516,-0.904 -3.734,-16.211 -7.531,-32.338 -11.134,-48.674 h 51.366 c 3.898,9.518 7.81,19.006 11.849,28.382 0.461,3.654 0.85,7.409 1.619,10.774 3.592,-0.121 7.665,0.247 10.959,-0.181 0,-0.861 -0.009,-2.046 0,-3.235 0,-0.962 -0.49,-2.783 0.719,-2.691 0.939,0.121 0.532,1.657 0.532,2.691 0.009,1.144 0,2.742 0,3.416 h 2.517 9.333 c 0.234,-1.933 -0.461,-4.776 0.368,-6.107 h 0.901 c 0.409,1.666 0.053,4.123 0.174,6.107 h 3.06 7.903 3.048 c 0.225,-1.933 -0.47,-4.776 0.359,-6.107 h 0.888 c 0.544,1.607 -0.163,4.491 0.371,6.107 h 9.149 2.517 v -3.591 c 0.246,-0.829 -0.614,-2.784 0.716,-2.516 0.963,0.193 0.544,1.759 0.544,2.691 0.008,1.227 0,2.454 0,3.416 h 11.143 c 0.389,-3.683 1.075,-7.061 1.434,-10.774 4.031,-9.376 7.952,-18.864 11.85,-28.382 h 51.366 c -3.437,16.458 -7.513,32.24 -10.961,48.674 0.665,0.41 1.606,0.555 2.335,0.904 m -56.924,-21.74 v 0 c -0.378,2.867 -0.665,5.814 -1.085,8.618 -1.851,0.419 -4.483,0.063 -6.643,0.184 v -6.098 h -6.292 v 6.098 h -6.817 c -0.121,-1.984 0.234,-4.432 -0.184,-6.098 -2.038,0.112 -4.545,-0.247 -6.283,0.172 v 5.926 H 80.46 c -0.122,-1.984 0.238,-4.432 -0.185,-6.098 -2.034,0.112 -4.553,-0.247 -6.282,0.172 v 5.926 h -6.826 v -6.098 c -2.039,0.112 -4.543,-0.247 -6.284,0.172 v 5.926 h -6.651 c -0.371,-2.979 -0.758,-5.956 -1.075,-8.986 -3.951,-9.15 -7.831,-18.379 -11.678,-27.654 h 33.773 v 4.319 c 1.741,2.152 3.378,4.403 5.567,6.102 h 8.433 c 1.923,-1.987 3.911,-3.871 5.393,-6.285 v -4.136 h 33.764 c -3.829,9.354 -7.822,18.525 -11.668,27.838 M 88.177,175.277 v 0 h -6.642 c -1.72,-2.29 -4.768,-3.253 -4.135,-7.902 h 15.085 c 0.573,4.649 -2.353,5.796 -4.308,7.902 m 126.259,-42.02 v 0 h 24.787 c 2.273,9.456 4.197,19.259 3.951,31.255 H -73.277 c -0.244,-11.996 1.687,-21.799 3.951,-31.255 H -44.54 V 72.192 c 4.044,-7.39 8.146,-14.715 12.579,-21.718 -0.021,-0.264 0.083,-0.41 0.163,-0.553 33.833,-53.34 72.95,-101.378 116.924,-144.566 43.539,43.74 83.248,91.309 116.744,145.119 4.38,7.165 8.779,14.31 12.566,22.087 v 60.696"
             inkscape:connector-curvature="0" /></g><g
           transform="translate(297.0244,436.1505)"
           id="g36"><path
             id="path38"
             style="fill:#cd3537;fill-opacity:1;fill-rule:evenodd;stroke:none"
             d="M 0,0 H 36.997 V -92.854 C 27.5,-90.866 19.321,-87.53 12.578,-82.783 8.146,-75.781 4.044,-68.456 0,-61.065 V 0"
             inkscape:connector-curvature="0" /></g><g
           transform="translate(334.0215,436.1505)"
           id="g40"><path
             id="path42"
             style="fill:#f6d70d;fill-opacity:1;fill-rule:evenodd;stroke:none"
             d="M 0,0 H 36.996 V -98.768 C 26.159,-95.31 11.502,-95.658 0,-92.854 V 0"
             inkscape:connector-curvature="0" /></g><g
           transform="translate(371.0176,436.1505)"
           id="g44"><path
             id="path46"
             style="fill:#cd3537;fill-opacity:1;fill-rule:evenodd;stroke:none"
             d="M 0,0 H 37.181 V -116.74 C 26.662,-108.88 14.625,-102.535 0,-98.768 V 0"
             inkscape:connector-curvature="0" /></g><g
           transform="translate(408.1987,436.1505)"
           id="g48"><path
             id="path50"
             style="fill:#f6d70d;fill-opacity:1;fill-rule:evenodd;stroke:none"
             d="m 0,0 h 36.812 v -116.557 c -6.479,-4.889 -12.773,-9.986 -18.32,-15.8 -5.986,5.403 -11.85,10.89 -18.492,15.617 L 0,0"
             inkscape:connector-curvature="0" /></g><g
           transform="translate(445.0107,436.1505)"
           id="g52"><path
             id="path54"
             style="fill:#cd3537;fill-opacity:1;fill-rule:evenodd;stroke:none"
             d="M 0,0 H 36.996 V -98.768 C 22.443,-102.494 10.531,-108.839 0,-116.557 V 0"
             inkscape:connector-curvature="0" /></g><g
           transform="translate(482.0068,436.1505)"
           id="g56"><path
             id="path58"
             style="fill:#f6d70d;fill-opacity:1;fill-rule:evenodd;stroke:none"
             d="M 0,0 H 36.997 V -92.854 C 25.482,-95.658 10.837,-95.31 0,-98.768 V 0"
             inkscape:connector-curvature="0" /></g><g
           transform="translate(519.0039,436.1505)"
           id="g60"><path
             id="path62"
             style="fill:#cd3537;fill-opacity:1;fill-rule:evenodd;stroke:none"
             d="M 0,0 H 36.996 V -60.696 C 33.209,-68.474 28.81,-75.618 24.43,-82.783 17.675,-87.53 9.509,-90.866 0,-92.854 V 0"
             inkscape:connector-curvature="0" /></g><g
           transform="translate(262.5479,497.022)"
           id="g64"><path
             id="path66"
             style="fill:#2b2b2a;fill-opacity:1;fill-rule:evenodd;stroke:none"
             d="m 0,0 c 5.668,16.6 15.503,29.044 28.91,37.909 13.6,8.596 27.826,16.579 41.132,25.503 14.365,10.397 28.776,21.091 40.219,34.836 3.889,4.667 7.367,9.231 11.85,13.11 8.782,7.587 19.405,14.271 31.973,17.96 14.931,4.382 28.554,-2.38 38.612,-8.083 10.657,-5.995 18.351,-15.04 26.047,-24.062 15.249,-17.919 35.125,-31.325 55.673,-44.179 10.133,-6.346 20.878,-12.046 30.529,-19.405 12.055,-10.154 20.992,-23.426 25.32,-41.307 5.086,-18.299 1.545,-42.429 -3.592,-58.005 -15.415,-50.625 -42.043,-91.421 -70.217,-129.674 -28.216,-38.319 -59.001,-74.139 -92.67,-107.214 -34.192,34.121 -65.693,70.924 -94.647,110.264 C 40.935,-152.293 13.16,-111.824 -0.903,-57.639 -5.57,-40.834 -6.254,-15.537 0,0 m 272.616,-169.526 v 0 c 16.089,23.251 30.785,48.552 42.738,76.684 5.719,13.467 10.992,29.288 13.837,45.804 2.949,17.153 1.768,37.582 -5.21,51.357 -4.821,11.218 -11.389,20.388 -20.111,27.651 -8.739,7.287 -19.547,12.058 -29.278,18.504 -19.764,12.076 -38.583,25.114 -53.885,41.675 -6.66,8.232 -13.775,16.687 -23.888,23.881 -4.428,3.153 -9.514,6.058 -15.431,8.437 -5.568,2.228 -13.488,4.498 -20.121,3.595 -14.164,-1.931 -24.131,-7.477 -33.405,-14.544 C 118.531,107.05 112.317,97.449 104.694,89.262 88.953,73.399 70.163,60.586 50.453,48.674 40.852,42.471 29.86,37.662 21.899,29.823 10.129,18.912 0.458,3.172 -2.16,-17.236 -5.098,-40.098 1.084,-60.565 6.998,-77.76 c 16.479,-46.184 41.898,-84.725 68.958,-120.668 27.14,-36.045 56.083,-70.246 88.187,-101.48 39.78,39.338 75.804,83.202 108.473,130.382"
             inkscape:connector-curvature="0" /></g><g
           transform="translate(434.0488,470.2686)"
           id="g68"><path
             id="path70"
             style="fill:#d7412c;fill-opacity:1;fill-rule:evenodd;stroke:none"
             d="m 0,0 h -15.085 c -0.633,4.649 2.415,5.611 4.135,7.902 h 6.642 C -2.353,5.795 0.573,4.649 0,0"
             inkscape:connector-curvature="0" /></g><g
           transform="translate(402.4473,266.4371)"
           id="g72"><path
             id="path74"
             style="fill:#ffffff;fill-opacity:1;fill-rule:evenodd;stroke:none"
             d="m 0,0 c 0.87,13.553 8.822,21.576 22.984,22.435 3.05,-1.042 3.523,-6.957 0.535,-8.431 C 11.339,15.067 4.583,7.718 0,0"
             inkscape:connector-curvature="0" /></g><g
           transform="translate(438.543,284.7574)"
           id="g76"><path
             id="path78"
             style="fill:#ffffff;fill-opacity:1;fill-rule:evenodd;stroke:none"
             d="m 0,0 c 2.528,-8.556 4.249,-23.845 -6.826,-24.071 -2.722,0.677 -4.567,2.252 -5.383,4.851 3.684,2.252 5.22,11.054 0.716,13.653 2.394,1.883 2.591,7.308 0.9,9.518 C -6.131,3.562 -2.949,1.904 0,0"
             inkscape:connector-curvature="0" /></g><g
           transform="translate(446.6172,257.4547)"
           id="g80"><path
             id="path82"
             style="fill:#ffffff;fill-opacity:1;fill-rule:evenodd;stroke:none"
             d="M 0,0 C -4.586,-0.452 -6.612,1.657 -8.433,3.95 -4.164,8.882 -3.888,18.851 -6.63,26.034 -0.163,21.857 4.094,9.701 0,0"
             inkscape:connector-curvature="0" /></g><g
           transform="translate(425.6182,266.7877)"
           id="g84"><path
             id="path86"
             style="fill:#ffffff;fill-opacity:1;fill-rule:evenodd;stroke:none"
             d="m 0,0 c -4.608,3.601 -11.012,-0.268 -11.321,-5.383 -4.91,1.616 -8.597,-1.372 -9.875,-5.035 -0.911,1.964 -2.2,4.564 -1.975,6.836 0.184,1.842 2.005,4.42 3.235,6.099 3.805,5.218 9.987,9.865 17.601,10.418 C 4.174,12.629 4.421,2.742 0,0"
             inkscape:connector-curvature="0" /></g><g
           transform="translate(469.9727,470.2686)"
           id="g88"><path
             id="path90"
             style="fill:#6b2f2d;fill-opacity:1;fill-rule:evenodd;stroke:none"
             d="m 0,0 h -33.764 v 4.135 c -1.482,2.415 -3.469,4.299 -5.392,6.286 H -47.59 C -49.779,8.722 -51.416,6.47 -53.156,4.319 V 0 H -86.93 c 3.847,9.274 7.727,18.504 11.678,27.653 0.317,3.031 0.704,6.007 1.075,8.987 h 6.652 v -5.927 c 1.74,-0.419 4.245,-0.059 6.283,-0.172 v 6.099 h 6.826 v -5.927 c 1.729,-0.419 4.248,-0.059 6.283,-0.172 0.422,1.667 0.062,4.114 0.184,6.099 h 8.977 v -5.927 c 1.739,-0.419 4.245,-0.059 6.284,-0.172 0.417,1.667 0.062,4.114 0.183,6.099 h 6.818 v -6.099 h 6.291 v 6.099 c 2.161,-0.122 4.792,0.235 6.643,-0.184 0.42,-2.805 0.707,-5.751 1.085,-8.618 C -7.821,18.525 -3.829,9.354 0,0"
             inkscape:connector-curvature="0" /></g><g
           transform="translate(408.7305,509.4244)"
           id="g92"><path
             id="path94"
             style="fill:#487098;fill-opacity:1;fill-rule:evenodd;stroke:none"
             d="M 0,0 C 0.674,3.984 1.506,7.819 5.21,8.802 8.463,7.267 8.739,2.745 10.777,0 10.656,-1.984 11.012,-4.441 10.602,-6.107 h -0.9 C 8.873,-4.776 9.568,-1.934 9.333,0 H 0"
             inkscape:connector-curvature="0" /></g><g
           transform="translate(433.5176,509.4244)"
           id="g96"><path
             id="path98"
             style="fill:#487098;fill-opacity:1;fill-rule:evenodd;stroke:none"
             d="M 0,0 C 2.037,2.745 2.313,7.267 5.566,8.802 9.274,7.819 10.091,3.984 10.768,0 H 1.618 C 1.084,-1.616 1.791,-4.5 1.247,-6.107 H 0.359 C -0.47,-4.776 0.226,-1.934 0,0"
             inkscape:connector-curvature="0" /></g><g
           transform="translate(422.5674,509.4244)"
           id="g100"><path
             id="path102"
             style="fill:#487098;fill-opacity:1;fill-rule:evenodd;stroke:none"
             d="M 0,0 C 1.135,2.867 0.553,7.462 4.299,7.718 7.091,6.735 6.939,2.805 7.902,0 H 0"
             inkscape:connector-curvature="0" /></g><g
           transform="translate(446.8018,509.4244)"
           id="g104"><path
             id="path106"
             style="fill:#487098;fill-opacity:1;fill-rule:evenodd;stroke:none"
             d="m 0,0 c -0.029,0.146 0.083,0.167 0.185,0.184 0.296,1.004 0.644,1.988 0.899,3.051 1.177,13.264 -12.465,15.311 -8.986,29.086 7.082,-0.276 15.465,0.737 21.196,-0.9 6.416,-4.228 12.762,-8.535 21.195,-10.766 7.104,-2.56 12.076,-9.785 19.752,-12.037 3.541,-1.034 8.514,-0.582 11.851,0.9 3.448,-16.434 7.524,-32.217 10.961,-48.674 H 25.687 c -3.898,9.518 -7.819,19.006 -11.85,28.382 C 13.479,-7.062 12.792,-3.684 12.403,0 H 1.26 c 0,-0.962 0.009,-2.189 0,-3.416 0,-0.933 0.419,-2.498 -0.544,-2.691 C -0.614,-6.375 0.246,-4.42 0,-3.591 V 0"
             inkscape:connector-curvature="0" /></g><g
           transform="translate(406.2139,509.4244)"
           id="g108"><path
             id="path110"
             style="fill:#487098;fill-opacity:1;fill-rule:evenodd;stroke:none"
             d="m 0,0 c 0,-0.674 0.009,-2.272 0,-3.416 0,-1.034 0.407,-2.57 -0.532,-2.691 -1.209,-0.093 -0.718,1.729 -0.718,2.691 -0.01,1.188 0,2.374 0,3.235 -3.295,0.428 -7.368,0.059 -10.959,0.181 -0.77,-3.366 -1.159,-7.121 -1.62,-10.774 -4.039,-9.376 -7.951,-18.864 -11.849,-28.382 h -51.366 c 3.604,16.336 7.4,32.463 11.134,48.674 7.433,-3.601 15.189,0 20.12,3.767 3.357,2.578 6.541,4.872 10.237,6.654 4.052,1.943 8.146,3.152 11.85,5.023 3.827,1.913 6.773,4.513 10.418,6.459 5.731,1.637 14.102,0.624 21.184,0.9 C 11.381,18.558 -2.046,16.775 -1.075,3.411 -0.862,2.314 -0.573,1.271 -0.184,0.36 -0.142,0.205 0,0.184 0,0"
             inkscape:connector-curvature="0" /></g><g
           transform="translate(337.7876,519.8458)"
           id="g112"><path
             id="path114"
             style="fill:#2b2b2a;fill-opacity:1;fill-rule:evenodd;stroke:none"
             d="M 0,0 C -0.288,0.184 -0.715,0.164 -0.359,0.532 7.225,8.514 14.8,16.507 22.269,24.6 c 7.747,7.821 14.217,16.908 23.355,23.334 0.184,0 0.205,0.154 0.356,0.196 8.107,4.043 20.613,1.872 26.763,-2.527 2.602,2.976 4.28,6.867 6.47,10.245 1.339,3.633 4.973,7.602 3.579,12.207 -2.759,1.31 -5.462,-1.29 -7.183,-1.617 2.047,4.073 4.424,7.789 9.171,9.162 1.669,0.469 3.633,0.029 5.014,-0.354 8.104,-2.86 4.023,-17.895 8.086,-24.793 1.545,-1.515 2.436,-3.478 4.852,-3.767 2.105,-0.246 4.562,1.147 6.65,1.8 6.589,2.03 15.178,2.725 21.553,0 2.795,-1.206 5.345,-3.825 7.718,-6.107 2.025,-1.954 3.98,-4.064 5.751,-5.926 11.359,-12.025 22.72,-24.93 33.395,-36.289 -0.174,0.02 -0.216,-0.134 -0.358,-0.164 -0.729,-0.348 -1.67,-0.494 -2.335,-0.903 -3.337,-1.483 -8.31,-1.934 -11.851,-0.9 -7.675,2.251 -12.648,9.476 -19.752,12.036 -8.433,2.231 -14.779,6.539 -21.195,10.767 -5.73,1.636 -14.114,0.624 -21.196,0.899 -3.479,-13.774 10.163,-15.821 8.986,-29.085 -0.255,-1.064 -0.602,-2.047 -0.899,-3.051 -0.102,-0.017 -0.214,-0.039 -0.185,-0.184 h -2.516 c -0.677,3.984 -1.494,7.818 -5.202,8.801 -3.253,-1.535 -3.529,-6.056 -5.566,-8.801 h -3.048 c -0.963,2.804 -0.811,6.734 -3.603,7.718 -3.746,-0.256 -3.164,-4.851 -4.299,-7.718 h -3.06 c -2.038,2.745 -2.314,7.266 -5.567,8.801 -3.704,-0.983 -4.536,-4.817 -5.21,-8.801 h -2.517 c 0,0.184 -0.142,0.205 -0.183,0.359 -0.39,0.912 -0.679,1.955 -0.892,3.051 C 66.38,6.354 79.807,8.136 76.326,21.899 69.243,21.624 60.872,22.636 55.142,21 51.497,19.054 48.55,16.454 44.724,14.541 41.019,12.669 36.925,11.46 32.874,9.518 29.178,7.735 25.994,5.442 22.637,2.864 17.706,-0.903 9.949,-4.504 2.517,-0.903 1.679,-0.615 0.82,-0.33 0,0"
             inkscape:connector-curvature="0" /></g><g
           transform="translate(425.0747,265.7242)"
           id="g116"><path
             id="path118"
             style="fill:#ffffff;fill-opacity:1;fill-rule:evenodd;stroke:none"
             d="m 0,0 c 0.154,-5.486 7.278,-7.574 11.85,-4.851 1.598,-3.072 4.557,-4.792 9.161,-4.851 -1.586,-3.029 -3.411,-5.814 -6.098,-7.717 -4.852,0.306 -10.113,0.837 -14.37,2.679 -3.624,1.556 -7.901,4.629 -9.345,7.554 C -11.503,-1.698 -5.374,4.052 0,0"
             inkscape:connector-curvature="0" /></g><g
           transform="translate(414.4814,259.9703)"
           id="g120"><path
             id="path122"
             style="fill:#ffffff;fill-opacity:1;fill-rule:evenodd;stroke:none"
             d="M 0,0 C 3.675,-8.597 12.568,-11.972 24.062,-12.75 20.245,-15.696 15.126,-17.521 8.801,-17.069 0.071,-16.434 -6.253,-11.01 -9.343,-5.035 -8.555,-1.164 -4.851,1.904 0,0"
             inkscape:connector-curvature="0" /></g><g
           transform="translate(309.6025,353.3672)"
           id="g124"><path
             id="path126"
             style="fill:#2b2b2a;fill-opacity:1;fill-rule:evenodd;stroke:none"
             d="m 0,0 c 6.743,-4.747 14.921,-8.083 24.419,-10.07 11.502,-2.805 26.159,-2.457 36.996,-5.915 14.625,-3.767 26.662,-10.112 37.181,-17.972 6.642,-4.727 12.506,-10.213 18.492,-15.617 5.547,5.814 11.841,10.911 18.32,15.801 10.531,7.717 22.444,14.063 36.996,17.788 10.837,3.458 25.483,3.11 36.997,5.915 9.509,1.987 17.675,5.323 24.43,10.07 C 200.335,-53.81 160.626,-101.379 117.088,-145.119 73.113,-101.931 33.996,-53.893 0.164,-0.553 0.083,-0.41 -0.021,-0.264 0,0 m 116.363,-72.926 v 0 c 2.989,1.473 2.516,7.388 -0.534,8.43 -14.162,-0.858 -22.114,-8.881 -22.984,-22.434 4.583,7.718 11.339,15.067 23.518,14.004 m 1.985,8.267 v 0 c 1.69,-2.21 1.494,-7.634 -0.901,-9.518 4.504,-2.599 2.968,-11.401 -0.716,-13.653 0.817,-2.599 2.662,-4.173 5.383,-4.851 11.075,0.226 9.355,15.515 6.826,24.071 -2.949,1.904 -6.13,3.562 -10.592,3.951 m 12.037,-5.219 v 0 c 2.742,-7.184 2.466,-17.153 -1.803,-22.084 1.82,-2.293 3.847,-4.403 8.433,-3.951 4.093,9.702 -0.163,21.858 -6.63,26.035 m -16.705,-3.767 v 0 c -7.613,-0.553 -13.795,-5.199 -17.6,-10.418 -1.23,-1.679 -3.051,-4.257 -3.235,-6.099 -0.226,-2.272 1.063,-4.872 1.975,-6.836 1.278,3.664 4.964,6.652 9.874,5.036 0.309,5.115 6.714,8.983 11.322,5.382 4.421,2.743 4.173,12.629 -2.336,12.935 m -7.01,-21.184 v 0 c 1.444,-2.925 5.722,-5.998 9.346,-7.554 4.256,-1.842 9.517,-2.373 14.369,-2.679 2.687,1.903 4.512,4.687 6.098,7.717 -4.604,0.059 -7.563,1.779 -9.161,4.851 -4.572,-2.723 -11.696,-0.635 -11.85,4.851 -5.374,4.052 -11.503,-1.698 -8.802,-7.186 m -11.134,-3.603 v 0 c 3.09,-5.975 9.414,-11.399 18.144,-12.034 6.325,-0.452 11.444,1.373 15.26,4.319 -11.493,0.778 -20.386,4.153 -24.061,12.75 -4.851,1.904 -8.555,-1.164 -9.343,-5.035"
             inkscape:connector-curvature="0" /></g><g
           transform="translate(320.4307,443.3907)"
           id="g128"><path
             id="path130"
             style="fill:#2b2b2a;fill-opacity:1;fill-rule:nonzero;stroke:none"
             d="m 0,0 c -2.153,-2.124 -4.935,-3.11 -7.956,-3.11 -7.775,0 -11.065,5.353 -11.094,10.796 -0.031,5.472 3.529,11.035 11.094,11.035 2.842,0 5.534,-1.076 7.686,-3.2 l -2.631,-2.542 c -1.376,1.346 -3.23,1.974 -5.055,1.974 -5.053,0 -7.236,-3.768 -7.207,-7.267 0.03,-3.469 2.034,-7.088 7.207,-7.088 1.825,0 3.889,0.748 5.264,2.123 z"
             inkscape:connector-curvature="0" /></g><g
           transform="translate(328.3833,444.5567)"
           id="g132"><path
             id="path134"
             style="fill:#2b2b2a;fill-opacity:1;fill-rule:nonzero;stroke:none"
             d="m 0,0 h 4.307 c 4.755,0 6.639,3.469 6.549,6.879 -0.089,3.259 -2.003,6.519 -6.549,6.519 H 0 Z M 14.774,6.848 C 14.863,1.555 11.634,-3.798 4.307,-3.798 h -8.224 v 20.934 h 8.224 c 7.177,0 10.377,-5.114 10.467,-10.288"
             inkscape:connector-curvature="0" /></g><g
           transform="translate(375.0347,443.3907)"
           id="g136"><path
             id="path138"
             style="fill:#2b2b2a;fill-opacity:1;fill-rule:nonzero;stroke:none"
             d="m 0,0 c -2.153,-2.124 -4.935,-3.11 -7.955,-3.11 -7.776,0 -11.066,5.353 -11.095,10.796 -0.031,5.472 3.529,11.035 11.095,11.035 2.841,0 5.533,-1.076 7.685,-3.2 l -2.631,-2.542 c -1.376,1.346 -3.23,1.974 -5.054,1.974 -5.054,0 -7.237,-3.768 -7.208,-7.267 0.03,-3.469 2.034,-7.088 7.208,-7.088 1.824,0 3.888,0.748 5.263,2.123 z"
             inkscape:connector-curvature="0" /></g><g
           transform="translate(388.1016,457.2964)"
           id="g140"><path
             id="path142"
             style="fill:#2b2b2a;fill-opacity:1;fill-rule:nonzero;stroke:none"
             d="M 0,0 -3.888,-8.912 H 3.888 Z M 5.473,-12.59 H -5.473 l -1.794,-3.948 h -4.276 l 9.39,20.934 h 4.306 l 9.391,-20.934 H 7.237 Z"
             inkscape:connector-curvature="0" /></g><g
           transform="translate(416.4209,456.6387)"
           id="g144"><path
             id="path146"
             style="fill:#2b2b2a;fill-opacity:1;fill-rule:nonzero;stroke:none"
             d="m 0,0 c -0.717,1.196 -2.691,2.333 -4.964,2.333 -2.931,0 -4.337,-1.227 -4.337,-2.781 0,-1.825 2.154,-2.333 4.666,-2.632 4.366,-0.539 8.433,-1.675 8.433,-6.669 0,-4.666 -4.127,-6.669 -8.792,-6.669 -4.277,0 -7.567,1.315 -9.121,5.143 l 3.289,1.705 c 0.927,-2.303 3.349,-3.32 5.891,-3.32 2.483,0 4.815,0.868 4.815,3.141 0,1.974 -2.063,2.781 -4.844,3.08 -4.277,0.508 -8.224,1.645 -8.224,6.34 0,4.307 4.246,6.071 8.104,6.101 3.26,0 6.639,-0.927 8.224,-4.157 z"
             inkscape:connector-curvature="0" /></g><g
           transform="translate(431.0732,458.1041)"
           id="g148"><path
             id="path150"
             style="fill:#2b2b2a;fill-opacity:1;fill-rule:nonzero;stroke:none"
             d="M 0,0 H -6.639 V 3.589 H 10.587 V 0 H 3.948 V -17.345 H 0 Z"
             inkscape:connector-curvature="0" /></g><g
           transform="translate(462.0547,440.7589)"
           id="g152"><path
             id="path154"
             style="fill:#2b2b2a;fill-opacity:1;fill-rule:nonzero;stroke:none"
             d="M 0,0 H -15.671 V 20.934 H 0 V 17.106 H -11.753 V 12.291 H -0.419 V 8.612 H -11.753 V 3.887 H 0 Z"
             inkscape:connector-curvature="0" /></g><g
           transform="translate(471.4434,461.6929)"
           id="g156"><path
             id="path158"
             style="fill:#2b2b2a;fill-opacity:1;fill-rule:nonzero;stroke:none"
             d="m 0,0 v -17.286 h 10.767 v -3.648 H -3.947 V 0 Z"
             inkscape:connector-curvature="0" /></g><g
           transform="translate(491.3301,461.6929)"
           id="g160"><path
             id="path162"
             style="fill:#2b2b2a;fill-opacity:1;fill-rule:nonzero;stroke:none"
             d="m 0,0 v -17.286 h 10.766 v -3.648 H -3.948 V 0 Z"
             inkscape:connector-curvature="0" /></g><g
           transform="translate(521.2939,467.337)"
           id="g164"><path
             id="path166"
             style="fill:#2b2b2a;fill-opacity:1;fill-rule:nonzero;stroke:none"
             d="M 0,0 H -4.307 L -6.52,-4.067 v -0.18 h 3.231 L 0,-0.149 Z m -4.814,-8.814 c -4.935,0 -6.969,-3.978 -6.879,-7.506 0.09,-3.44 1.944,-7.118 6.879,-7.118 4.934,0 6.789,3.709 6.848,7.147 0.06,3.529 -1.914,7.477 -6.848,7.477 m 0,3.588 c 7.207,0 10.795,-5.532 10.736,-11.005 -0.061,-5.413 -3.379,-10.826 -10.736,-10.826 -7.357,0 -10.766,5.294 -10.766,10.796 0,5.503 3.528,11.035 10.766,11.035"
             inkscape:connector-curvature="0" /></g><g
           transform="translate(546.2637,461.7227)"
           id="g168"><path
             id="path170"
             style="fill:#2b2b2a;fill-opacity:1;fill-rule:nonzero;stroke:none"
             d="M 0,0 H 3.947 V -20.964 H 1.495 v -0.03 L -9.51,-6.848 v -14.116 h -3.948 V -0.03 h 3.2 L 0,-13.009 Z"
             inkscape:connector-curvature="0" /></g></g></g></g></svg>