<?xml version="1.0" encoding="UTF-8"?>
<svg id="Calque_4" data-name="Calque 4" xmlns="http://www.w3.org/2000/svg" viewBox="0 0 75.54 117.03">
  <defs>
    <style>
      .cls-1 {
        fill: none;
      }

      .cls-2 {
        fill: #fff;
      }

      .cls-3 {
        fill: #f5c00e;
      }

      .cls-4 {
        fill: #fb0407;
      }

      .cls-5 {
        fill: #231489;
      }
    </style>
  </defs>
  <g>
    <g>
      <path class="cls-4" d="M63.74,86.36c0-.39-.01-.79,0-1.28v-1.18c.01-.91.01-1.81,0-2.71l-.03-1.48v-41.31H11.8v42.87c-.02.87-.01,1.75-.01,2.63v1.28s.01,1.18.01,1.18c-.02,1.97-.03,4.42.54,7.03,1.22,5.9,4.49,11.2,9.15,14.91,4.51,3.62,10.26,5.61,16.18,5.61h.19c5.92,0,11.67-1.99,16.15-5.59,4.7-3.73,7.96-9.03,9.17-14.85.59-2.7.57-5.14.56-7.11ZM53.83,81.34h-.01v-10.66c-5.36,0-16.05,0-16.05,0,0,0-11.06,7.33-16.08,10.67v-10.67h16.08l-16.08-10.7v-14.55l16.07,11.4v13.85s9.91-6.82,9.91-6.82l6.16,4.37v13.11Z"/>
      <path d="M63.94,86.36c0-.39-.01-.79,0-1.28v-1.18c.01-.91.01-1.81,0-2.72l-.03-42.98H11.6v43.06c-.02.88,0,1.76,0,2.64v1.28s0,1.18,0,1.18c-.02,1.98-.03,4.44.54,7.07,1.24,5.94,4.51,11.28,9.22,15.02,4.55,3.65,10.35,5.66,16.31,5.66h.19c5.97,0,11.75-2,16.28-5.63,4.73-3.76,8.01-9.08,9.24-14.96.59-2.73.57-5.19.56-7.16ZM37.86,113.72h-.19c-5.87,0-11.58-1.97-16.06-5.57-4.63-3.69-7.86-8.94-9.08-14.79-.56-2.59-.55-5.03-.53-6.99v-2.46c-.01-.88-.02-1.75,0-2.63v-42.67h51.51v41.11l.03,1.48c.01.9.01,1.8,0,2.71v1.18c0,.49,0,.89,0,1.28.01,1.96.03,4.39-.55,7.07-1.21,5.8-4.44,11.03-9.1,14.74-4.46,3.57-10.15,5.54-16.03,5.54Z"/>
    </g>
    <g>
      <g>
        <rect class="cls-3" x="13.05" y="72.74" width="7.18" height=".22"/>
        <polygon class="cls-3" points="14.66 66.81 14.66 68.16 14.49 68.16 14.49 68.78 13.94 68.78 13.94 68.16 13.58 68.16 13.58 66.81 14.66 66.81"/>
        <path class="cls-3" d="M19.97,72.57c0-.51-.27-1.3-.27-2.93h-6.13c0,1.63-.27,2.42-.27,2.93h2.62v-1.19c0-.39.31-.71.71-.71s.71.31.71.71v1.19h2.62ZM14.93,70.93h-.73v-.7c0-.2.16-.36.36-.36s.36.16.36.36v.7ZM18.35,70.23c0-.2.16-.36.36-.36s.36.16.36.36v.7h-.73v-.7Z"/>
        <path class="cls-3" d="M14.93,70.23v.7h-.73v-.7c0-.2.16-.36.36-.36s.36.16.36.36Z"/>
        <polygon class="cls-3" points="17.3 66.21 17.3 68.78 17.17 68.78 17.17 68.16 16.1 68.16 16.1 68.78 15.98 68.78 15.98 66.21 17.3 66.21"/>
        <path class="cls-3" d="M20.23,68.33v1.14h-7.18v-1.14h.72v.62h.9v-.62h.72v.62h.9v-.62h.73v.62h.9v-.62h.72v.62h.9v-.62h.72Z"/>
        <path d="M14.93,70.23v.7h-.73v-.7c0-.2.16-.36.36-.36s.36.16.36.36Z"/>
        <path d="M14.12,66.96h0c.18,0,.32.16.32.36v.5h-.64v-.5c0-.2.14-.36.32-.36Z"/>
        <polygon class="cls-3" points="17.47 65.62 17.47 66.04 15.81 66.04 15.81 65.62 16.18 65.85 16.64 65.62 17.1 65.85 17.47 65.62"/>
        <path d="M20.4,68.16h-.52v-1.37h0l.17-.17v-.56h-.27l-.24.18-.31-.18h-.17l-.31.18-.24-.18h-.27v.56l.17.17h0v1.37h-.72v.62h-.26v-2.58l.17-.17v-.56h-.25l-.31.18-.37-.18h-.15l-.37.18-.31-.18h-.25v.56l.17.17v2.58h-.26v-.62h-.72v-1.37h0l.17-.17v-.56h-.27l-.24.18-.31-.18h-.17l-.31.18-.24-.18h-.27v.56l.17.17h0v1.37h-.52v1.48h.52c0,1.04-.1,1.73-.19,2.22-.04.29-.08.52-.08.71h-.26v.56h7.52v-.56h-.26c0-.19-.04-.42-.08-.71-.09-.5-.19-1.18-.19-2.22h.52v-1.48ZM18.43,66.62v-.41l.32.23.4-.23.4.23.32-.23v.41h-1.45ZM18.61,68.16v-1.36h1.09v1.36h-.36v.62h-.55v-.62h-.17ZM15.81,65.62l.37.23.46-.23.46.23.37-.23v.41h-1.66v-.41ZM17.3,66.21v2.58h-.12v-.62h-1.07v.62h-.12v-2.58h1.32ZM13.39,66.62v-.41l.32.23.4-.23.4.23.32-.23v.41h-1.45ZM13.58,68.16v-1.36h1.09v1.36h-.17v.62h-.55v-.62h-.36ZM20.23,72.74v.22h-7.18v-.22h7.18ZM19.97,72.57h-2.62v-1.19c0-.39-.31-.71-.71-.71s-.71.31-.71.71v1.19h-2.62c0-.51.27-1.3.27-2.93h6.13c0,1.63.27,2.42.27,2.93ZM20.23,69.47h-7.18v-1.14h.72v.62h.9v-.62h.72v.62h.9v-.62h.73v.62h.9v-.62h.72v.62h.9v-.62h.72v1.14Z"/>
        <polygon class="cls-3" points="14.84 66.21 14.84 66.62 13.39 66.62 13.39 66.21 13.72 66.44 14.12 66.21 14.52 66.44 14.84 66.21"/>
        <polygon class="cls-3" points="19.7 66.81 19.7 68.16 19.34 68.16 19.34 68.78 18.79 68.78 18.79 68.16 18.61 68.16 18.61 66.81 19.7 66.81"/>
        <path class="cls-3" d="M19.07,70.23v.7h-.73v-.7c0-.2.16-.36.36-.36s.36.16.36.36Z"/>
        <path d="M19.07,70.23v.7h-.73v-.7c0-.2.16-.36.36-.36s.36.16.36.36Z"/>
        <path d="M19.16,66.96h0c-.18,0-.32.16-.32.36v.5s.64,0,.64,0v-.5c0-.2-.14-.36-.32-.36Z"/>
        <path d="M16.64,66.35h0c-.18,0-.32.16-.32.36v.5s.64,0,.64,0v-.5c0-.2-.14-.36-.32-.36Z"/>
        <polygon class="cls-3" points="19.88 66.21 19.88 66.62 18.43 66.62 18.43 66.21 18.76 66.44 19.16 66.21 19.56 66.44 19.88 66.21"/>
      </g>
      <g>
        <rect class="cls-3" x="16.03" y="98.86" width="7.18" height=".22" transform="translate(-36.97 15.44) rotate(-22.9)"/>
        <polygon class="cls-3" points="15.44 94.17 15.97 95.42 15.81 95.49 16.05 96.06 15.54 96.27 15.3 95.7 14.97 95.84 14.44 94.59 15.44 94.17"/>
        <path class="cls-3" d="M22.57,97.42c-.2-.47-.75-1.09-1.39-2.59l-5.64,2.38c.64,1.5.7,2.34.89,2.8l2.42-1.02-.46-1.1c-.15-.36.02-.77.38-.93s.77.02.93.38l.46,1.1,2.42-1.02ZM17.29,97.86l-.67.28-.27-.64c-.08-.18,0-.4.19-.48s.4,0,.48.19l.27.64ZM20.17,95.89c-.08-.18,0-.4.19-.48s.4,0,.48.19l.27.64-.67.28-.27-.64Z"/>
        <path class="cls-3" d="M17.02,97.22l.27.64-.67.28-.27-.64c-.08-.18,0-.4.19-.48s.4,0,.48.19Z"/>
        <polygon class="cls-3" points="17.64 92.59 18.64 94.97 18.52 95.01 18.28 94.44 17.3 94.86 17.54 95.43 17.43 95.48 16.42 93.11 17.64 92.59"/>
        <path class="cls-3" d="M21.16,93.41l.44,1.05-6.61,2.79-.44-1.05.66-.28.24.57.83-.35-.24-.57.66-.28.24.57.83-.35-.24-.57.67-.28.24.57.83-.35-.24-.57.66-.28.24.57.83-.35-.24-.57.66-.28Z"/>
        <path d="M17.02,97.22l.27.64-.67.28-.27-.64c-.08-.18,0-.4.19-.48s.4,0,.48.19Z"/>
        <path d="M15,94.52h0c.16-.07.36.02.44.2l.2.46-.59.25-.2-.46c-.08-.18,0-.39.16-.45Z"/>
        <polygon class="cls-3" points="17.57 91.99 17.73 92.37 16.2 93.01 16.04 92.64 16.47 92.7 16.8 92.31 17.31 92.35 17.57 91.99"/>
        <path d="M21.25,93.19l-.48.2-.53-1.27h0s.09-.23.09-.23l-.22-.52-.25.1-.15.26-.35-.05-.16.07-.21.29-.29-.07-.25.1.22.52.23.09h0s.53,1.26.53,1.26l-.66.28.24.57-.24.1-1-2.37.09-.23-.22-.52-.23.1-.21.29-.41-.02-.14.06-.27.31-.35-.05-.23.1.22.52.23.09,1,2.37-.24.1-.24-.57-.66.28-.53-1.27h0s.09-.23.09-.23l-.22-.52-.25.1-.15.26-.35-.05-.16.07-.21.29-.29-.07-.25.1.22.52.23.09h0s.53,1.26.53,1.26l-.48.2.58,1.36.48-.2c.4.96.58,1.63.69,2.12.08.28.13.5.2.68l-.24.1.22.52,6.93-2.93-.22-.52-.24.1c-.07-.18-.2-.37-.35-.62-.27-.42-.64-1.02-1.04-1.97l.48-.2-.58-1.36ZM18.84,92.53l-.16-.38.39.08.28-.37.46.05.21-.34.16.38-1.34.56ZM19.61,93.88l-.53-1.25,1-.42.53,1.25-.33.14.24.57-.51.22-.24-.57-.16.07ZM16.04,92.64l.43.07.33-.39.51.03.25-.36.16.38-1.53.65-.16-.38ZM17.64,92.59l1,2.37-.11.05-.24-.57-.98.42.24.57-.11.05-1-2.37,1.21-.51ZM14.2,94.49l-.16-.38.39.08.28-.37.46.05.21-.34.16.38-1.34.56ZM14.97,95.84l-.53-1.25,1-.42.53,1.25-.16.07.24.57-.51.22-.24-.57-.33.14ZM22.88,97.47l.09.2-6.61,2.79-.09-.2,6.61-2.79ZM22.57,97.42l-2.42,1.02-.46-1.1c-.15-.36-.56-.53-.93-.38s-.53.56-.38.93l.46,1.1-2.42,1.02c-.2-.47-.26-1.3-.89-2.8l5.64-2.38c.64,1.5,1.19,2.13,1.39,2.59ZM21.6,94.46l-6.61,2.79-.44-1.05.66-.28.24.57.83-.35-.24-.57.66-.28.24.57.83-.35-.24-.57.67-.28.24.57.83-.35-.24-.57.66-.28.24.57.83-.35-.24-.57.66-.28.44,1.05Z"/>
        <polygon class="cls-3" points="15.38 93.55 15.54 93.92 14.2 94.49 14.04 94.11 14.43 94.2 14.71 93.83 15.17 93.88 15.38 93.55"/>
        <polygon class="cls-3" points="20.09 92.21 20.61 93.46 20.28 93.6 20.52 94.17 20.01 94.39 19.77 93.82 19.61 93.88 19.08 92.63 20.09 92.21"/>
        <path class="cls-3" d="M20.84,95.61l.27.64-.67.28-.27-.64c-.08-.18,0-.4.19-.48s.4,0,.48.19Z"/>
        <path d="M20.84,95.61l.27.64-.67.28-.27-.64c-.08-.18,0-.4.19-.48s.4,0,.48.19Z"/>
        <path d="M19.64,92.56h0c-.16.07-.23.27-.16.45l.2.46.59-.25-.2-.46c-.08-.18-.27-.27-.44-.2Z"/>
        <path d="M17.08,92.98h0c-.16.07-.23.27-.16.45l.2.46.59-.25-.2-.46c-.08-.18-.27-.27-.44-.2Z"/>
        <polygon class="cls-3" points="20.02 91.59 20.18 91.96 18.84 92.53 18.68 92.15 19.07 92.24 19.35 91.87 19.81 91.92 20.02 91.59"/>
      </g>
      <g>
        <rect class="cls-3" x="34.18" y="112.49" width="7.18" height=".22"/>
        <polygon class="cls-3" points="35.79 106.55 35.79 107.91 35.62 107.91 35.62 108.53 35.07 108.53 35.07 107.91 34.7 107.91 34.7 106.55 35.79 106.55"/>
        <path class="cls-3" d="M41.1,112.32c0-.51-.27-1.3-.27-2.93h-6.13c0,1.63-.27,2.42-.27,2.93h2.62v-1.19c0-.39.31-.71.71-.71s.71.31.71.71v1.19h2.62ZM36.06,110.68h-.73v-.7c0-.2.16-.36.36-.36s.36.16.36.36v.7ZM39.47,109.98c0-.2.16-.36.36-.36s.36.16.36.36v.7h-.73v-.7Z"/>
        <path class="cls-3" d="M36.06,109.98v.7h-.73v-.7c0-.2.16-.36.36-.36s.36.16.36.36Z"/>
        <polygon class="cls-3" points="38.43 105.95 38.43 108.53 38.3 108.53 38.3 107.91 37.23 107.91 37.23 108.53 37.11 108.53 37.11 105.95 38.43 105.95"/>
        <path class="cls-3" d="M41.35,108.08v1.14h-7.18v-1.14h.72v.62h.9v-.62h.72v.62h.9v-.62h.73v.62h.9v-.62h.72v.62h.9v-.62h.72Z"/>
        <path d="M36.06,109.98v.7h-.73v-.7c0-.2.16-.36.36-.36s.36.16.36.36Z"/>
        <path d="M35.25,106.71h0c.18,0,.32.16.32.36v.5h-.64v-.5c0-.2.14-.36.32-.36Z"/>
        <polygon class="cls-3" points="38.6 105.37 38.6 105.78 36.94 105.78 36.94 105.37 37.31 105.6 37.77 105.37 38.22 105.6 38.6 105.37"/>
        <path d="M41.53,107.91h-.52v-1.37h0l.17-.17v-.56h-.27l-.24.18-.31-.18h-.17l-.31.18-.24-.18h-.27v.56l.17.17h0v1.37h-.72v.62h-.26v-2.58l.17-.17v-.56h-.25l-.31.18-.37-.18h-.15l-.37.18-.31-.18h-.25v.56l.17.17v2.58h-.26v-.62h-.72v-1.37h0l.17-.17v-.56h-.27l-.24.18-.31-.18h-.17l-.31.18-.24-.18h-.27v.56l.17.17h0v1.37h-.52v1.48h.52c0,1.04-.1,1.73-.19,2.22-.04.29-.08.52-.08.71h-.26v.56h7.52v-.56h-.26c0-.19-.04-.42-.08-.71-.09-.5-.19-1.18-.19-2.22h.52v-1.48ZM39.56,106.36v-.41l.32.23.4-.23.4.23.32-.23v.41h-1.45ZM39.74,107.91v-1.36h1.09v1.36h-.36v.62h-.55v-.62h-.17ZM36.94,105.37l.37.23.46-.23.46.23.37-.23v.41h-1.66v-.41ZM38.43,105.95v2.58h-.12v-.62h-1.07v.62h-.12v-2.58h1.32ZM34.52,106.36v-.41l.32.23.4-.23.4.23.32-.23v.41h-1.45ZM34.7,107.91v-1.36h1.09v1.36h-.17v.62h-.55v-.62h-.36ZM41.35,112.49v.22h-7.18v-.22h7.18ZM41.1,112.32h-2.62v-1.19c0-.39-.31-.71-.71-.71s-.71.31-.71.71v1.19h-2.62c0-.51.27-1.3.27-2.93h6.13c0,1.63.27,2.42.27,2.93ZM41.35,109.22h-7.18v-1.14h.72v.62h.9v-.62h.72v.62h.9v-.62h.73v.62h.9v-.62h.72v.62h.9v-.62h.72v1.14Z"/>
        <polygon class="cls-3" points="35.97 105.95 35.97 106.36 34.52 106.36 34.52 105.95 34.85 106.18 35.25 105.95 35.65 106.18 35.97 105.95"/>
        <polygon class="cls-3" points="40.83 106.55 40.83 107.91 40.47 107.91 40.47 108.53 39.91 108.53 39.91 107.91 39.74 107.91 39.74 106.55 40.83 106.55"/>
        <path class="cls-3" d="M40.2,109.98v.7h-.73v-.7c0-.2.16-.36.36-.36s.36.16.36.36Z"/>
        <path d="M40.2,109.98v.7h-.73v-.7c0-.2.16-.36.36-.36s.36.16.36.36Z"/>
        <path d="M40.28,106.71h0c-.18,0-.32.16-.32.36v.5s.64,0,.64,0v-.5c0-.2-.14-.36-.32-.36Z"/>
        <path d="M37.77,106.1h0c-.18,0-.32.16-.32.36v.5s.64,0,.64,0v-.5c0-.2-.14-.36-.32-.36Z"/>
        <polygon class="cls-3" points="41.01 105.95 41.01 106.36 39.56 106.36 39.56 105.95 39.89 106.18 40.29 105.95 40.69 106.18 41.01 105.95"/>
      </g>
      <g>
        <rect class="cls-3" x="13.05" y="48.86" width="7.18" height=".22"/>
        <polygon class="cls-3" points="14.66 42.92 14.66 44.28 14.49 44.28 14.49 44.9 13.94 44.9 13.94 44.28 13.58 44.28 13.58 42.92 14.66 42.92"/>
        <path class="cls-3" d="M19.97,48.69c0-.51-.27-1.3-.27-2.93h-6.13c0,1.63-.27,2.42-.27,2.93h2.62v-1.19c0-.39.31-.71.71-.71s.71.31.71.71v1.19h2.62ZM14.93,47.05h-.73v-.7c0-.2.16-.36.36-.36s.36.16.36.36v.7ZM18.35,46.35c0-.2.16-.36.36-.36s.36.16.36.36v.7h-.73v-.7Z"/>
        <path class="cls-3" d="M14.93,46.35v.7h-.73v-.7c0-.2.16-.36.36-.36s.36.16.36.36Z"/>
        <polygon class="cls-3" points="17.3 42.32 17.3 44.9 17.17 44.9 17.17 44.28 16.1 44.28 16.1 44.9 15.98 44.9 15.98 42.32 17.3 42.32"/>
        <path class="cls-3" d="M20.23,44.45v1.14h-7.18v-1.14h.72v.62h.9v-.62h.72v.62h.9v-.62h.73v.62h.9v-.62h.72v.62h.9v-.62h.72Z"/>
        <path d="M14.93,46.35v.7h-.73v-.7c0-.2.16-.36.36-.36s.36.16.36.36Z"/>
        <path d="M14.12,43.07h0c.18,0,.32.16.32.36v.5h-.64v-.5c0-.2.14-.36.32-.36Z"/>
        <polygon class="cls-3" points="17.47 41.74 17.47 42.15 15.81 42.15 15.81 41.74 16.18 41.97 16.64 41.74 17.1 41.97 17.47 41.74"/>
        <path d="M20.4,44.28h-.52v-1.37h0l.17-.17v-.56h-.27l-.24.18-.31-.18h-.17l-.31.18-.24-.18h-.27v.56l.17.17h0v1.37h-.72v.62h-.26v-2.58l.17-.17v-.56h-.25l-.31.18-.37-.18h-.15l-.37.18-.31-.18h-.25v.56l.17.17v2.58h-.26v-.62h-.72v-1.37h0l.17-.17v-.56h-.27l-.24.18-.31-.18h-.17l-.31.18-.24-.18h-.27v.56l.17.17h0v1.37h-.52v1.48h.52c0,1.04-.1,1.73-.19,2.22-.04.29-.08.52-.08.71h-.26v.56h7.52v-.56h-.26c0-.19-.04-.42-.08-.71-.09-.5-.19-1.18-.19-2.22h.52v-1.48ZM18.43,42.73v-.41l.32.23.4-.23.4.23.32-.23v.41h-1.45ZM18.61,44.28v-1.36h1.09v1.36h-.36v.62h-.55v-.62h-.17ZM15.81,41.74l.37.23.46-.23.46.23.37-.23v.41h-1.66v-.41ZM17.3,42.32v2.58h-.12v-.62h-1.07v.62h-.12v-2.58h1.32ZM13.39,42.73v-.41l.32.23.4-.23.4.23.32-.23v.41h-1.45ZM13.58,44.28v-1.36h1.09v1.36h-.17v.62h-.55v-.62h-.36ZM20.23,48.86v.22h-7.18v-.22h7.18ZM19.97,48.69h-2.62v-1.19c0-.39-.31-.71-.71-.71s-.71.31-.71.71v1.19h-2.62c0-.51.27-1.3.27-2.93h6.13c0,1.63.27,2.42.27,2.93ZM20.23,45.59h-7.18v-1.14h.72v.62h.9v-.62h.72v.62h.9v-.62h.73v.62h.9v-.62h.72v.62h.9v-.62h.72v1.14Z"/>
        <polygon class="cls-3" points="14.84 42.32 14.84 42.73 13.39 42.73 13.39 42.32 13.72 42.55 14.12 42.32 14.52 42.55 14.84 42.32"/>
        <polygon class="cls-3" points="19.7 42.92 19.7 44.28 19.34 44.28 19.34 44.9 18.79 44.9 18.79 44.28 18.61 44.28 18.61 42.92 19.7 42.92"/>
        <path class="cls-3" d="M19.07,46.35v.7h-.73v-.7c0-.2.16-.36.36-.36s.36.16.36.36Z"/>
        <path d="M19.07,46.35v.7h-.73v-.7c0-.2.16-.36.36-.36s.36.16.36.36Z"/>
        <path d="M19.16,43.07h0c-.18,0-.32.16-.32.36v.5s.64,0,.64,0v-.5c0-.2-.14-.36-.32-.36Z"/>
        <path d="M16.64,42.46h0c-.18,0-.32.16-.32.36v.5s.64,0,.64,0v-.5c0-.2-.14-.36-.32-.36Z"/>
        <polygon class="cls-3" points="19.88 42.32 19.88 42.73 18.43 42.73 18.43 42.32 18.76 42.55 19.16 42.32 19.56 42.55 19.88 42.32"/>
      </g>
      <g>
        <rect class="cls-3" x="55.36" y="72.74" width="7.18" height=".22"/>
        <polygon class="cls-3" points="60.92 66.81 60.92 68.16 61.1 68.16 61.1 68.78 61.65 68.78 61.65 68.16 62.01 68.16 62.01 66.81 60.92 66.81"/>
        <path class="cls-3" d="M58.24,72.57v-1.19c0-.39.31-.71.71-.71s.71.31.71.71v1.19s2.62,0,2.62,0c0-.51-.27-1.3-.27-2.93h-6.13c0,1.63-.27,2.42-.27,2.93h2.62ZM60.66,70.23c0-.2.16-.36.36-.36s.36.16.36.36v.7h-.73v-.7ZM57.24,70.93h-.73v-.7c0-.2.16-.36.36-.36s.36.16.36.36v.7Z"/>
        <path class="cls-3" d="M60.66,70.23v.7s.73,0,.73,0v-.7c0-.2-.16-.36-.36-.36s-.36.16-.36.36Z"/>
        <polygon class="cls-3" points="58.29 66.21 58.29 68.78 58.41 68.78 58.41 68.16 59.48 68.16 59.48 68.78 59.61 68.78 59.61 66.21 58.29 66.21"/>
        <path class="cls-3" d="M55.36,68.33v1.14s7.18,0,7.18,0v-1.14s-.72,0-.72,0v.62h-.9v-.62s-.72,0-.72,0v.62h-.9v-.62s-.73,0-.73,0v.62h-.9v-.62s-.72,0-.72,0v.62h-.9v-.62s-.72,0-.72,0Z"/>
        <path d="M60.66,70.23v.7s.73,0,.73,0v-.7c0-.2-.16-.36-.36-.36s-.36.16-.36.36Z"/>
        <path d="M61.47,66.96h0c-.18,0-.32.16-.32.36v.5s.64,0,.64,0v-.5c0-.2-.14-.36-.32-.36Z"/>
        <polygon class="cls-3" points="58.12 65.62 58.12 66.04 59.78 66.04 59.78 65.62 59.41 65.85 58.95 65.62 58.49 65.85 58.12 65.62"/>
        <path d="M55.19,69.64h.52c0,1.04-.1,1.73-.19,2.22-.04.29-.08.52-.08.71h-.26s0,.56,0,.56h7.52s0-.56,0-.56h-.26c0-.19-.04-.42-.08-.71-.09-.5-.19-1.18-.19-2.22h.52s0-1.48,0-1.48h-.52v-1.37h0l.17-.17v-.56s-.27,0-.27,0l-.24.18-.31-.18h-.17s-.31.18-.31.18l-.24-.18h-.27s0,.56,0,.56l.17.17h0v1.37h-.72s0,.62,0,.62h-.26v-2.58s.17-.17.17-.17v-.56s-.25,0-.25,0l-.31.18-.37-.18h-.15s-.37.18-.37.18l-.31-.18h-.25s0,.56,0,.56l.17.17v2.58h-.26v-.62s-.72,0-.72,0v-1.37h0l.17-.17v-.56s-.27,0-.27,0l-.24.18-.31-.18h-.17s-.31.18-.31.18l-.24-.18h-.27s0,.56,0,.56l.17.17h0v1.37h-.52s0,1.48,0,1.48ZM55.7,66.62v-.41l.32.23.4-.23.4.23.32-.23v.41h-1.45ZM56.8,68.16v.62h-.55v-.62s-.36,0-.36,0v-1.36h1.09v1.36h-.17ZM59.78,66.04h-1.66v-.41l.37.23.46-.23.46.23.37-.23v.41ZM59.61,66.21v2.58h-.12v-.62s-1.07,0-1.07,0v.62h-.12v-2.58h1.32ZM60.74,66.62v-.41l.32.23.4-.23.4.23.32-.23v.41h-1.45ZM61.65,68.16v.62h-.55v-.62s-.17,0-.17,0v-1.36h1.09v1.36h-.36ZM62.54,72.74v.22h-7.18v-.22h7.18ZM55.89,69.64h6.13c0,1.63.27,2.42.27,2.93h-2.62v-1.19c0-.39-.31-.71-.71-.71s-.71.31-.71.71v1.19h-2.62c0-.51.27-1.3.27-2.93ZM55.36,68.33h.72v.62s.9,0,.9,0v-.62h.72v.62s.9,0,.9,0v-.62h.73v.62s.9,0,.9,0v-.62h.72v.62s.9,0,.9,0v-.62h.72v1.14h-7.18v-1.14Z"/>
        <polygon class="cls-3" points="60.74 66.21 60.74 66.62 62.19 66.62 62.19 66.21 61.87 66.44 61.47 66.21 61.07 66.44 60.74 66.21"/>
        <polygon class="cls-3" points="55.89 66.81 55.89 68.16 56.25 68.16 56.25 68.78 56.8 68.78 56.8 68.16 56.97 68.16 56.97 66.81 55.89 66.81"/>
        <path class="cls-3" d="M56.52,70.23v.7s.73,0,.73,0v-.7c0-.2-.16-.36-.36-.36s-.36.16-.36.36Z"/>
        <path d="M56.52,70.23v.7s.73,0,.73,0v-.7c0-.2-.16-.36-.36-.36s-.36.16-.36.36Z"/>
        <path d="M56.43,66.96h0c.18,0,.32.16.32.36v.5h-.64s0-.5,0-.5c0-.2.14-.36.32-.36Z"/>
        <path d="M58.95,66.35h0c.18,0,.32.16.32.36v.5h-.64v-.5c0-.2.14-.36.32-.36Z"/>
        <polygon class="cls-3" points="55.7 66.21 55.7 66.62 57.15 66.62 57.15 66.21 56.83 66.44 56.43 66.21 56.03 66.44 55.7 66.21"/>
      </g>
      <g>
        <rect class="cls-3" x="55.86" y="95.38" width=".22" height="7.18" transform="translate(-56.98 112.01) rotate(-67.1)"/>
        <polygon class="cls-3" points="60.14 94.17 59.62 95.42 59.77 95.49 59.53 96.06 60.04 96.27 60.28 95.7 60.62 95.84 61.15 94.59 60.14 94.17"/>
        <path class="cls-3" d="M55.43,98.44l.46-1.1c.15-.36.56-.53.93-.38s.53.56.38.93l-.46,1.1,2.42,1.02c.2-.47.26-1.3.89-2.8l-5.64-2.38c-.64,1.5-1.19,2.13-1.39,2.59l2.42,1.02ZM58.56,97.22c.08-.18.29-.27.48-.19s.27.29.19.48l-.27.64-.67-.28.27-.64ZM55.15,96.54l-.67-.28.27-.64c.08-.18.29-.27.48-.19s.27.29.19.48l-.27.64Z"/>
        <path class="cls-3" d="M58.56,97.22l-.27.64.67.28.27-.64c.08-.18,0-.4-.19-.48s-.4,0-.48.19Z"/>
        <polygon class="cls-3" points="57.95 92.59 56.95 94.97 57.06 95.01 57.3 94.44 58.29 94.86 58.05 95.43 58.16 95.48 59.16 93.11 57.95 92.59"/>
        <path class="cls-3" d="M54.42,93.41l-.44,1.05,6.61,2.79.44-1.05-.66-.28-.24.57-.83-.35.24-.57-.66-.28-.24.57-.83-.35.24-.57-.67-.28-.24.57-.83-.35.24-.57-.66-.28-.24.57-.83-.35.24-.57-.66-.28Z"/>
        <path d="M58.56,97.22l-.27.64.67.28.27-.64c.08-.18,0-.4-.19-.48s-.4,0-.48.19Z"/>
        <path d="M60.58,94.52h0c-.16-.07-.36.02-.44.2l-.2.46.59.25.2-.46c.08-.18,0-.39-.16-.45Z"/>
        <polygon class="cls-3" points="58.02 91.99 57.86 92.37 59.39 93.01 59.55 92.64 59.12 92.7 58.78 92.31 58.27 92.35 58.02 91.99"/>
        <path d="M53.76,94.55l.48.2c-.4.96-.77,1.55-1.04,1.97-.15.25-.27.44-.35.62l-.24-.1-.22.52,6.93,2.93.22-.52-.24-.1c.07-.18.13-.4.2-.68.11-.49.28-1.16.69-2.12l.48.2.58-1.36-.48-.2.53-1.27h0s.23-.09.23-.09l.22-.52-.25-.1-.29.07-.21-.29-.16-.07-.35.05-.15-.26-.25-.1-.22.52.09.23h0s-.53,1.27-.53,1.27l-.66-.28-.24.57-.24-.1,1-2.37.23-.09.22-.52-.23-.1-.35.05-.27-.31-.14-.06-.41.02-.21-.29-.23-.1-.22.52.09.23-1,2.37-.24-.1.24-.57-.66-.28.53-1.27h0s.23-.09.23-.09l.22-.52-.25-.1-.29.07-.21-.29-.16-.07-.35.05-.15-.26-.25-.1-.22.52.09.23h0s-.53,1.27-.53,1.27l-.48-.2-.58,1.36ZM55.41,91.96l.16-.38.21.34.46-.05.28.37.39-.08-.16.38-1.34-.56ZM55.82,93.82l-.24.57-.51-.22.24-.57-.33-.14.53-1.25,1,.42-.53,1.25-.16-.07ZM59.39,93.01l-1.53-.65.16-.38.25.36.51-.03.33.39.43-.07-.16.38ZM59.16,93.11l-1,2.37-.11-.05.24-.57-.98-.42-.24.57-.11-.05,1-2.37,1.21.51ZM60.05,93.92l.16-.38.21.34.46-.05.28.37.39-.08-.16.38-1.34-.56ZM60.28,95.7l-.24.57-.51-.22.24-.57-.16-.07.53-1.25,1,.42-.53,1.25-.33-.14ZM59.32,100.27l-.09.2-6.61-2.79.09-.2,6.61,2.79ZM54.4,94.82l5.64,2.38c-.64,1.5-.7,2.34-.89,2.8l-2.42-1.02.46-1.1c.15-.36-.02-.77-.38-.93s-.77.02-.93.38l-.46,1.1-2.42-1.02c.2-.47.75-1.09,1.39-2.59ZM54.42,93.41l.66.28-.24.57.83.35.24-.57.66.28-.24.57.83.35.24-.57.67.28-.24.57.83.35.24-.57.66.28-.24.57.83.35.24-.57.66.28-.44,1.05-6.61-2.79.44-1.05Z"/>
        <polygon class="cls-3" points="60.21 93.55 60.05 93.92 61.39 94.49 61.55 94.11 61.16 94.2 60.88 93.83 60.42 93.88 60.21 93.55"/>
        <polygon class="cls-3" points="55.5 92.21 54.97 93.46 55.31 93.6 55.07 94.17 55.58 94.39 55.82 93.82 55.98 93.88 56.5 92.63 55.5 92.21"/>
        <path class="cls-3" d="M54.75,95.61l-.27.64.67.28.27-.64c.08-.18,0-.4-.19-.48s-.4,0-.48.19Z"/>
        <path d="M54.75,95.61l-.27.64.67.28.27-.64c.08-.18,0-.4-.19-.48s-.4,0-.48.19Z"/>
        <path d="M55.95,92.56h0c.16.07.23.27.16.45l-.2.46-.59-.25.2-.46c.08-.18.27-.27.44-.2Z"/>
        <path d="M58.5,92.98h0c.16.07.23.27.16.45l-.2.46-.59-.25.2-.46c.08-.18.27-.27.44-.2Z"/>
        <polygon class="cls-3" points="55.57 91.59 55.41 91.96 56.75 92.53 56.91 92.15 56.52 92.24 56.24 91.87 55.78 91.92 55.57 91.59"/>
      </g>
    </g>
    <g>
      <path class="cls-2" d="M37.77,70.67v33.35h-.09c-.45,0-.9-.02-1.35-.06-.45-.03-.89-.09-1.34-.16-.44-.08-.88-.17-1.32-.28-.43-.1-.86-.23-1.29-.38-.42-.14-.84-.3-1.25-.48-.41-.18-.81-.38-1.21-.59-.59-.32-1.16-.68-1.7-1.08-.18-.13-.36-.27-.54-.41-2.88-2.29-4.91-5.61-5.66-9.21-.45-2.07-.31-4.19-.33-6.29,0-1.24-.02-2.49,0-3.74,5.02-3.34,16.08-10.67,16.08-10.67Z"/>
      <path d="M53.85,85.09c-.02,2.1.12,4.22-.33,6.29-.75,3.6-2.78,6.92-5.66,9.21-.18.14-.36.28-.54.41-.19.14-.39.28-.59.41-.17.12-.35.23-.53.33-.19.12-.38.23-.58.34-.4.21-.8.41-1.21.59-.41.18-.83.34-1.25.48-.42.15-.86.27-1.29.38-.44.11-.88.2-1.32.28-.45.07-.89.13-1.34.16-.45.04-.9.06-1.35.06h-.09v-33.35l2.23,1.48.98.65,1.1.73.59.39c1,.66,2.09,1.38,3.19,2.12,2.88,1.91,5.91,3.92,7.96,5.28h.01s.01.02.02.02c.02,1.25,0,2.5,0,3.74Z"/>
      <path class="cls-2" d="M53.82,70.67v10.67l-7.96-5.3-3.19-2.12-.59-.39-1.1-.73-.98-.65-2.23-1.48s10.69,0,16.05,0Z"/>
      <g>
        <path d="M37.79,100.44c-.75,0-1.49-.07-2.21-.21-3.2-.61-6.09-2.64-7.73-5.44-1.38-2.29-1.91-5.04-1.5-7.72.5-3.4,2.68-6.57,5.68-8.27,1.73-.99,3.72-1.52,5.76-1.53,2.04,0,4.03.54,5.76,1.53,3,1.7,5.18,4.87,5.68,8.27.41,2.68-.12,5.43-1.5,7.72-1.65,2.8-4.54,4.83-7.73,5.44-.72.14-1.46.21-2.21.21Z"/>
        <path class="cls-2" d="M37.79,77.4c1.99.01,3.97.52,5.7,1.51,2.98,1.69,5.12,4.79,5.62,8.18.4,2.62-.12,5.37-1.48,7.64-1.63,2.77-4.49,4.78-7.65,5.38-.72.14-1.46.21-2.19.21s-1.47-.07-2.19-.21c-3.16-.6-6.02-2.61-7.65-5.38-1.36-2.27-1.88-5.02-1.48-7.64.5-3.39,2.64-6.49,5.62-8.18,1.73-.99,3.71-1.5,5.7-1.51h0ZM37.79,77.15h0c-2.06.01-4.08.54-5.82,1.54-3.04,1.72-5.24,4.93-5.74,8.36-.41,2.71.12,5.49,1.51,7.8,1.66,2.83,4.59,4.88,7.82,5.5.73.14,1.48.21,2.24.21s1.51-.07,2.24-.21c3.23-.61,6.15-2.67,7.82-5.5,1.39-2.32,1.93-5.09,1.51-7.8-.51-3.43-2.71-6.64-5.74-8.36-1.75-1-3.76-1.53-5.82-1.54h0Z"/>
      </g>
      <g>
        <g>
          <path class="cls-2" d="M30.97,86.38c-.05-.4-.1-.81-.15-1.23-.09-.68-.18-1.36-.25-2.03,1.1-1.34,2.5-2.35,4.02-2.89.76.38,1.52.74,2.29,1.11l.69.33v3.69s-1.42,1.03-1.42,1.03l-1.66,1.22-3.51-1.23Z"/>
          <path d="M34.58,80.24c.74.36,1.49.72,2.21,1.07.25.12.5.24.75.36v3.67c-.51.38-1.02.75-1.53,1.13-.51.37-1.02.75-1.53,1.13-1.16-.41-2.33-.81-3.5-1.22-.05-.4-.1-.81-.15-1.21-.09-.67-.18-1.36-.25-2.04h0c1.11-1.34,2.49-2.33,4-2.87h0ZM34.59,80.21c-1.58.57-2.97,1.61-4.04,2.9h.01c.11,1.1.27,2.19.4,3.28,1.18.41,2.36.82,3.53,1.23,1.03-.76,2.06-1.51,3.09-2.27v-3.7c-1-.48-1.99-.95-2.99-1.44h0Z"/>
        </g>
        <g>
          <g>
            <path class="cls-2" d="M28.15,83.05c1.56-2.55,4.23-4.48,7.15-5.13l-.52,1.27-.31.78c-1.62.61-3.04,1.65-4.11,2.98l-2.21.1h-.01Z"/>
            <path d="M35.25,77.95l-.52,1.33-.27.68c-1.62.62-3.04,1.65-4.1,2.97-.37.02-.73.04-1.1.05-.36.02-.71.03-1.06.05,1.54-2.53,4.17-4.43,7.05-5.09h0ZM35.3,77.91c-2.95.66-5.59,2.57-7.15,5.16h0c.74-.04,1.48-.07,2.22-.11,1.07-1.34,2.51-2.37,4.11-2.98.27-.69.54-1.38.81-2.07h0Z"/>
          </g>
          <g>
            <path class="cls-2" d="M47.36,83.04c-.34-.02-.67-.03-1.01-.05-.34-.02-1.04-.05-1.04-.05-.13,0-.19-.08-.25-.15-1.09-1.3-2.45-2.25-3.99-2.82-.27-.68-.54-1.37-.81-2.06,2.9.66,5.56,2.57,7.1,5.13Z"/>
            <path d="M40.3,77.96c2.88.65,5.51,2.54,7.04,5.07-.33-.02-.66-.03-.98-.05-.34-.01-.69-.03-1.04-.05-.01,0-.02,0-.03,0-.09,0-.15-.07-.21-.15-.02-.02-.04-.05-.06-.07-1.03-1.23-2.39-2.18-3.92-2.75-.27-.67-.54-1.35-.79-2h0ZM40.25,77.92c.27.69.54,1.38.82,2.07,1.51.56,2.88,1.51,3.92,2.75.08.08.16.22.29.22.01,0,.03,0,.04,0,.69.04,1.38.06,2.07.1-1.55-2.59-4.19-4.49-7.14-5.14h0Z"/>
          </g>
          <g>
            <path class="cls-2" d="M41.04,87.61c-.44-.34-.89-.67-1.34-1-.57-.41-1.17-.84-1.72-1.3,0-.81,0-3.66,0-3.66.45-.21.9-.43,1.36-.65.54-.26,1.07-.51,1.6-.78,1.55.58,2.99,1.62,4.04,2.96-.09.63-.17,1.28-.25,1.93l-.16,1.28-1.38.47c-.72.25-1.43.5-2.15.74Z"/>
            <path d="M40.92,80.26h.01c1.55.56,2.99,1.6,4.04,2.92-.09.63-.17,1.28-.24,1.91-.05.42-.11.86-.16,1.28-.45.16-.9.31-1.36.47-.71.25-1.44.5-2.16.75-.44-.34-.89-.67-1.33-.99-.57-.41-1.16-.84-1.71-1.29,0-.82,0-1.64,0-2.44,0-.4,0-.8,0-1.2.46-.23.92-.45,1.38-.67.51-.24,1.03-.49,1.54-.75h0ZM40.94,80.22c-.98.49-1.98.95-2.97,1.44,0,1.22,0,2.44,0,3.67.98.81,2.06,1.51,3.07,2.3,1.19-.4,2.36-.82,3.55-1.23.14-1.07.26-2.15.41-3.22-1.05-1.33-2.47-2.37-4.06-2.94v-.02h0Z"/>
          </g>
          <g>
            <path class="cls-2" d="M33.45,94.51c-.82-.15-1.65-.29-2.47-.43l-.88-.15c-.84-1.28-1.36-2.78-1.49-4.32l2.2-2.9,1.79.64,1.82.64.49,1.49c.23.69.46,1.38.69,2.06-.31.42-.62.86-.94,1.3-.4.56-.8,1.12-1.2,1.67ZM30.8,86.7h.09-.09s0,0,0,0Z"/>
            <path d="M30.81,86.75c.6.21,1.19.42,1.79.63.6.21,1.2.42,1.8.63.17.51.34,1.01.51,1.52.22.66.45,1.35.67,2.02-.31.43-.62.87-.93,1.29-.39.55-.8,1.12-1.2,1.67-.83-.16-1.68-.3-2.5-.44-.28-.05-.55-.09-.83-.14-.84-1.28-1.36-2.77-1.49-4.29.36-.48.73-.96,1.09-1.45.36-.48.73-.96,1.09-1.44h0ZM30.8,86.71h0s0,0,0,0c0,0,0,0,0,0h0ZM30.79,86.71c-.73.97-1.47,1.94-2.2,2.91.13,1.54.65,3.04,1.5,4.33,1.12.19,2.24.37,3.36.58.73-.99,1.43-2,2.15-2.99-.4-1.18-.79-2.37-1.19-3.56-1.21-.42-2.41-.85-3.62-1.27h0Z"/>
          </g>
          <g>
            <path class="cls-2" d="M39.94,91.52c.4-1.17.79-2.35,1.18-3.53l3.53-1.28,1.12,1.43,1.16,1.47c-.18,1.66-.7,3.16-1.53,4.31-.65.12-1.32.23-1.98.34-.45.07-.9.15-1.34.23-.35-.5-1.78-2.48-2.13-2.98Z"/>
            <path d="M44.64,86.73c.38.48.75.96,1.13,1.44.38.48.76.96,1.14,1.45-.17,1.66-.7,3.14-1.52,4.29-.66.13-1.33.24-1.98.35-.44.07-.89.15-1.33.23-.35-.49-.71-1-1.06-1.48-.35-.49-.71-.99-1.06-1.48.4-1.18.79-2.37,1.17-3.52.58-.21,1.17-.42,1.75-.63.58-.21,1.17-.42,1.75-.63h0ZM44.65,86.7c-1.18.43-2.36.85-3.54,1.28h0c-.39,1.19-.78,2.37-1.18,3.55.71,1,1.43,1.99,2.14,2.99,1.11-.2,2.23-.36,3.34-.58.9-1.26,1.37-2.79,1.53-4.33-.76-.97-1.53-1.94-2.29-2.91h0Z"/>
          </g>
          <g>
            <path class="cls-2" d="M46.27,96.16c-.07-.27-.15-.54-.23-.81-.12-.42-.25-.84-.35-1.26.87-1.4,1.4-2.93,1.52-4.41l.53-.4c.42-.32.83-.63,1.24-.95.12,2.83-.86,5.69-2.71,7.83Z"/>
            <path d="M48.95,88.38c.12,2.82-.85,5.63-2.67,7.75-.07-.26-.15-.52-.22-.77-.12-.41-.25-.84-.35-1.26.87-1.41,1.39-2.93,1.52-4.4.17-.13.35-.27.52-.4.39-.3.8-.61,1.2-.92h0ZM48.98,88.31h0c-.59.47-1.19.92-1.78,1.37-.13,1.57-.7,3.08-1.52,4.41.17.71.4,1.4.59,2.1,1.87-2.15,2.85-5.03,2.71-7.88h0Z"/>
          </g>
          <g>
            <path class="cls-2" d="M29.28,96.16c-1.86-2.12-2.84-4.98-2.7-7.84l.99.79.77.58c.14,1.57.67,3.09,1.54,4.4l-.18.59c-.14.49-.29.98-.42,1.48Z"/>
            <path d="M26.59,88.38c.28.21.56.43.85.65.29.22.59.45.88.67.14,1.57.67,3.09,1.54,4.39-.06.21-.12.42-.18.63-.13.46-.27.94-.4,1.42-1.83-2.1-2.8-4.92-2.68-7.75h0ZM26.57,88.32c-.14,2.84.84,5.73,2.72,7.87.19-.71.4-1.41.6-2.11-.87-1.31-1.4-2.84-1.54-4.4-.59-.45-1.19-.91-1.78-1.36h0Z"/>
          </g>
          <g>
            <path class="cls-2" d="M37.84,98.05c-.74,0-1.52-.09-2.31-.28-.3-.5-1.81-2.97-1.81-2.97.66-.91,1.31-1.86,1.97-2.8l.19-.27h3.8c.36.52,1.8,2.58,2.16,3.09-.22.35-.45.71-.67,1.08-.37.61-.74,1.23-1.13,1.83-.67.2-1.41.31-2.2.31Z"/>
            <path d="M39.66,91.76c.36.51.72,1.03,1.08,1.53.35.5.71,1.02,1.07,1.53-.23.36-.45.74-.67,1.1-.36.59-.73,1.21-1.11,1.8-.67.21-1.41.31-2.19.31-.73,0-1.51-.09-2.29-.27-.3-.49-.61-.99-.9-1.48-.29-.48-.6-.99-.9-1.48.72-1.02,1.44-2.05,2.14-3.05h3.78ZM39.68,91.73h-3.81c-.72,1.03-1.44,2.06-2.17,3.09h.01c.61.98,1.21,1.98,1.82,2.97.75.17,1.53.28,2.31.28s1.5-.1,2.21-.32c.62-.97,1.2-1.96,1.8-2.93-.73-1.03-1.44-2.06-2.17-3.09h0Z"/>
          </g>
          <g>
            <path class="cls-2" d="M37.77,100.06c-1.5,0-3.01-.31-4.36-.88.38-.18.76-.4,1.14-.62.31-.17.61-.35.92-.52.73.19,1.5.28,2.28.28s1.56-.09,2.33-.28c.33.19.68.38,1.02.58.34.2.68.39,1.03.58-1.35.55-2.85.86-4.36.86Z"/>
            <path d="M40.07,98.06c.34.19.69.38,1.02.57.32.18.65.37.98.55-1.33.56-2.82.86-4.3.86s-2.97-.3-4.3-.86c.37-.2.73-.41,1.08-.61.3-.17.61-.35.92-.52.74.19,1.5.28,2.28.28s1.56-.09,2.32-.28h0ZM40.08,98.03c-.76.19-1.54.28-2.32.28s-1.54-.09-2.29-.28c-.69.38-1.37.78-2.07,1.16h0c1.38.59,2.87.89,4.37.89s2.99-.3,4.36-.89c-.69-.38-1.37-.78-2.06-1.16h0Z"/>
          </g>
        </g>
      </g>
      <path d="M40.21,81.66c1.23-.61,2.9-.32,3.73.81-.14.11-.28.23-.43.34-.34-.4-.78-.73-1.29-.85-.91-.24-1.95.09-2.52.85-.44.59-.54,1.39-.33,2.08.28.92,1.21,1.57,2.16,1.56.76.05,1.48-.31,1.98-.87.14.11.28.21.43.32-1.09,1.39-3.49,1.46-4.61.07-.56-.67-.74-1.6-.57-2.44.16-.81.72-1.5,1.45-1.87h0Z"/>
      <path d="M41.58,86.99c-.92,0-1.74-.37-2.26-1.01-.54-.65-.75-1.56-.57-2.45.16-.79.7-1.5,1.46-1.88h0c1.3-.64,2.94-.28,3.75.82h0s-.01.02-.01.02c-.05.04-.09.08-.14.11-.09.08-.19.15-.29.23h-.01s0,0,0,0c-.26-.31-.7-.71-1.28-.84-.92-.24-1.95.1-2.5.84-.42.56-.54,1.35-.33,2.07.27.89,1.18,1.55,2.12,1.55h.02c.72.05,1.44-.27,1.97-.86h0s.01,0,.01,0c.13.1.25.19.38.29l.06.04h0c-.53.68-1.41,1.09-2.35,1.1h-.02ZM40.21,81.67c-.75.38-1.29,1.07-1.44,1.86-.18.88.03,1.79.57,2.43.51.64,1.33,1,2.24,1h.02c.93,0,1.79-.4,2.32-1.06l-.03-.02c-.13-.09-.25-.18-.37-.28-.5.56-1.17.87-1.84.87-.05,0-.1,0-.15,0h-.02c-.95,0-1.88-.67-2.15-1.57-.22-.72-.09-1.52.33-2.09.56-.75,1.61-1.1,2.54-.86.58.14,1.02.53,1.29.84.1-.07.19-.15.28-.22.04-.04.09-.07.13-.1-.8-1.08-2.43-1.43-3.7-.79h0Z"/>
      <path d="M33.16,81.48h2.68v.53h-2.15v1.67h2.14v.53h-2.15v2.62h-.55c.02-1.78,0-3.56,0-5.34h.02Z"/>
      <polygon class="cls-2" points="47.7 63.84 47.67 63.86 37.77 70.67 37.76 56.82 37.76 56.79 47.7 63.84"/>
      <polygon class="cls-2" points="37.77 70.67 21.69 70.67 21.69 59.98 37.77 70.67"/>
    </g>
    <g>
      <polygon class="cls-2" points="12.43 38.6 63.51 38.6 63.51 74.86 12.43 38.6"/>
      <path d="M18.26,42.73v-.23l-.62-.44v.09l-.09.09.76.54-.05-.05ZM18.26,42.73v-.23l-.62-.44v.09l-.09.09.76.54-.05-.05ZM11.8,38.41l.28.2,4.31,3.06.16.11.53.38.39.27.97.69.17.12.23.16.64.46.22.16.17.12.2.14.33.23.89.63.4.29,16.07,11.4,9.91,7.03,6.16,4.37h0s.34.25.34.25l.06.04.96.68.17.12.22.16.3.21.65.46.71.51,1,.71,1.41,1,.3.21.24.17.31.22.24.17,2.77,1.97.2.14v-36.84H11.8ZM63.51,74.61l-2.09-1.48-.23-.17-.31-.22-.24-.17-.99-.7-1.28-.91-1.15-.81-.38-.27-.33-.24-.24-.17-.91-.64-.17-.12-.96-.69-.17-.12-6.16-4.37-9.91-7.03-16.07-11.41-.63-.44h0s-1.42-1.01-1.42-1.01l-.17-.12-.24-.17-.37-.26-.23-.17-.27-.19-.16-.11-.17-.12-.62-.44-.17-.12-.15-.11h-.01l-.15-.11-4.39-3.12h50.74v36.01Z"/>
    </g>
    <polygon points="58.36 71.47 58.36 71.47 58.36 71.47 58.36 71.47"/>
    <g>
      <path d="M23.38,42.92c0-1.14.93-2.07,2.07-2.07h4.92c1.14,0,2.07.93,2.07,2.07h-9.06ZM34.13,53.18v-8.56h.01v-1.7c0-2.08-1.69-3.77-3.77-3.77h-4.92c-2.08,0-3.77,1.69-3.77,3.77v1.33l1.7,1.22v-.85h9.05v7.34l1.7,1.22Z"/>
      <path d="M44.41,40.85c1.14,0,2.07.93,2.07,2.07h0v17.05l-9.06-6.52v-12.61h6.99ZM44.41,39.15h-8.69v15.18l12.46,8.94v-20.35c0-2.08-1.69-3.77-3.77-3.77h0Z"/>
      <path d="M60.53,43.55v-.63c0-1.14-.93-2.07-2.07-2.07h-4.92c-1.15,0-2.07.93-2.07,2.07v20.62l9.06,6.5v-3.66h1.7v6.97l-12.46-8.94v-21.49c0-2.08,1.69-3.77,3.77-3.77h4.92c2.08,0,3.77,1.69,3.77,3.77v.63h-1.7Z"/>
    </g>
    <g>
      <path d="M54.25,86.43c0-.45-.01-.9,0-1.34v-1.25c.01-.83.01-1.67,0-2.5v-.4h-.02v-12.92l-.17-.12-6.16-4.37-9.91-7.03-16.07-11.41-.63-.45v36.7c-.02.83,0,1.67,0,2.5,0,.42,0,.83,0,1.24v1.35c-.02,1.65-.03,3.36.34,5.03.76,3.67,2.88,7.11,5.8,9.44,2.83,2.27,6.47,3.52,10.25,3.52h.18c3.77,0,7.41-1.25,10.25-3.52,2.92-2.33,5.03-5.77,5.8-9.44.36-1.67.35-3.38.34-5.03ZM53.52,91.37c-.75,3.6-2.78,6.92-5.66,9.21-.18.14-.36.28-.54.41-.19.14-.39.28-.59.41-.17.12-.35.23-.53.33-.19.12-.38.23-.58.34-.39.21-.79.41-1.21.59-.41.18-.83.34-1.25.48-.42.15-.86.27-1.29.38-.44.11-.88.2-1.32.28-.45.07-.89.13-1.34.16-.45.04-.9.06-1.35.06h-.18c-.45,0-.9-.02-1.35-.06-.45-.03-.89-.09-1.34-.16-.44-.08-.88-.17-1.32-.28-.43-.1-.86-.23-1.29-.38-.42-.14-.84-.3-1.25-.48-.42-.18-.82-.38-1.21-.59-.59-.32-1.16-.68-1.7-1.08-.18-.13-.36-.27-.54-.41-2.88-2.29-4.91-5.61-5.66-9.21-.45-2.07-.31-4.19-.33-6.29,0-1.24-.02-2.49,0-3.74v-35.93l16.07,11.41,9.91,7.03,6.16,4.37v13.11s.01.01.02.01c.02,1.25,0,2.5,0,3.74-.02,2.1.12,4.22-.33,6.29Z"/>
      <path d="M53.83,68.23v13.11h-.01v-10.66c-5.36,0-16.05,0-16.05,0l9.9-6.82,6.16,4.37Z"/>
      <polygon points="37.77 70.67 21.69 59.98 21.69 45.42 37.76 56.82 37.77 70.67"/>
      <path d="M37.77,70.67s-11.06,7.33-16.08,10.67v-10.67h16.08Z"/>
    </g>
  </g>
  <g>
    <path class="cls-2" d="M25.95,25.59c6.01-.81,12.1-1.07,18.14-.59,5.04.38,10.05,1.2,14.92,2.57,1.16.33,2.32.69,3.45,1.11-.42,1.8-.76,3.61-1.18,5.41-2-.78-4.08-1.31-6.16-1.78-5.73-1.25-11.61-1.76-17.48-1.75-6.98.01-14.02.7-20.75,2.63-.94.28-1.88.59-2.79.94-.35-1.81-.75-3.61-1.15-5.41,4.17-1.62,8.58-2.5,12.99-3.11v-.02Z"/>
    <path class="cls-2" d="M32.59,31.1c5.89-.31,11.81-.11,17.65.74,3.64.55,7.26,1.3,10.72,2.56.39.16.88.27,1.08.69.37.71-.33,1.74-1.15,1.48-1.37-.52-2.8-.85-4.22-1.19-5.18-1.23-10.47-2.07-15.79-2.28-2.9-.15-5.8-.07-8.7.07-5.93.34-11.92,1.19-17.48,3.38-.73.31-1.48-.47-1.33-1.19.06-.52.58-.75,1.01-.89,3.58-1.34,7.35-2.12,11.13-2.67,2.35-.33,4.71-.56,7.07-.68v-.02Z"/>
    <path d="M13.94,33.48c-.09-.47-.21-1.09-.35-1.72.12.58.23,1.15.34,1.73l.1.49h.01l-.1-.5ZM13.03,29.15l-.16-.76-.52.57.51-.52.16.71s.02.1.04.16c-.02-.1-.03-.15-.03-.16Z"/>
    <g>
      <path class="cls-3" d="M13.91,34.15c-.36-1.81-.75-3.61-1.15-5.41l-.04-.17.16-.06c3.56-1.39,7.55-2.35,12.93-3.11l.11-.03c4.09-.55,8.13-.83,12.01-.83,2.08,0,4.16.08,6.18.24,5.26.41,10.29,1.27,14.96,2.58,1.05.3,2.28.67,3.47,1.12l.16.06-.04.17c-.21.9-.4,1.8-.59,2.7-.19.9-.38,1.81-.59,2.71l-.05.22-.21-.08c-2.15-.83-4.4-1.38-6.13-1.77-5.32-1.16-11.18-1.75-17.44-1.75-7.85.02-14.62.88-20.69,2.62-.96.28-1.9.59-2.77.93l-.22.09-.05-.23Z"/>
      <path d="M37.93,24.74c2.06,0,4.11.08,6.16.24,5.04.39,10.05,1.21,14.92,2.57,1.16.33,2.32.68,3.45,1.11-.42,1.8-.76,3.61-1.18,5.41-1.99-.77-4.07-1.31-6.16-1.78-5.74-1.25-11.62-1.75-17.48-1.75-6.99.02-14.02.7-20.75,2.63-.94.27-1.87.58-2.79.94-.36-1.81-.75-3.61-1.15-5.41,4.16-1.62,8.58-2.49,12.99-3.11v-.02c3.98-.54,7.98-.83,11.99-.83h0ZM37.93,24.34c-3.88,0-7.93.28-12.03.83l-.21.03v.02c-5.35.76-9.33,1.72-12.88,3.1l-.32.12.07.33c.33,1.47.75,3.42,1.15,5.4l.09.47.44-.17c.87-.34,1.8-.65,2.75-.93,6.06-1.74,12.81-2.59,20.64-2.61,6.24,0,12.09.59,17.39,1.74,1.72.39,3.97.94,6.1,1.76l.43.17.1-.45c.21-.9.4-1.81.59-2.71.19-.9.38-1.8.59-2.7l.08-.34-.33-.12c-1.19-.45-2.43-.82-3.48-1.12-4.68-1.31-9.72-2.18-15-2.58-2.02-.16-4.1-.24-6.19-.24h0Z"/>
    </g>
    <g>
      <path class="cls-3" d="M14.37,36.8c-.34,0-.68-.17-.92-.46-.24-.3-.35-.69-.27-1.04.08-.67.82-.93,1.14-1.04,3.14-1.18,6.69-2.03,11.17-2.68,2.33-.33,4.67-.56,6.97-.68l.13-.03c1.74-.09,3.48-.13,5.16-.13,4.32,0,8.54.29,12.53.88,4.27.64,7.69,1.45,10.76,2.57l.21.08c.37.14.78.29.98.71.18.35.16.82-.08,1.2-.23.38-.6.6-.99.6-.11,0-.22-.02-.32-.05-1.35-.5-2.78-.84-4.15-1.17-5.55-1.32-10.85-2.08-15.8-2.29-1.06-.05-2.15-.08-3.31-.08-1.6,0-3.3.05-5.37.15-7.08.41-12.61,1.48-17.42,3.37-.13.06-.27.08-.41.08Z"/>
      <path d="M37.75,30.95c4.18,0,8.36.27,12.5.87,3.63.54,7.26,1.3,10.72,2.56.39.16.88.27,1.08.69.33.63-.19,1.52-.89,1.52-.08,0-.17-.01-.26-.04-1.37-.51-2.8-.85-4.22-1.19-5.18-1.23-10.47-2.06-15.79-2.28-1.11-.05-2.22-.08-3.32-.08-1.79,0-3.58.06-5.38.15-5.94.34-11.92,1.19-17.48,3.38-.11.05-.23.07-.34.07-.6,0-1.12-.65-.99-1.26.06-.51.58-.74,1.01-.89,3.58-1.34,7.35-2.12,11.13-2.67,2.34-.33,4.7-.56,7.07-.68v-.02c1.73-.09,3.44-.13,5.16-.13h0ZM37.75,30.55c-1.69,0-3.43.04-5.17.13h-.23s-.01.03-.01.03c-2.26.12-4.58.35-6.87.67-4.49.65-8.05,1.51-11.21,2.69-.34.12-1.17.41-1.27,1.22-.08.37.04.82.32,1.17.28.34.67.54,1.07.54.17,0,.33-.03.49-.1,4.77-1.88,10.29-2.94,17.35-3.35,2.06-.1,3.76-.15,5.35-.15,1.17,0,2.25.02,3.3.08,4.95.2,10.24.97,15.72,2.27h.05c1.37.34,2.79.68,4.12,1.18.14.05.27.07.4.07.46,0,.9-.26,1.16-.7.27-.45.3-.98.08-1.41-.23-.48-.7-.66-1.09-.8-.07-.02-.13-.05-.2-.08-3.1-1.13-6.53-1.95-10.81-2.59-4-.58-8.23-.88-12.56-.88h0Z"/>
    </g>
    <g>
      <path class="cls-3" d="M25.79,30.36c-.16,0-.32-.02-.47-.07-.39-.12-.78-.23-1.17-.35-.69-.2-1.39-.41-2.08-.63-.22-.01-.26-.19-.27-.25-.03-.19.13-.39.29-.45.5-.35,1.04-.71,1.58-1.06.39-.26.78-.51,1.16-.77.27-.18.59-.27.93-.27.19,0,.39.03.58.09l.15.05h0c.84.27,2.5.8,3.03.97l.12.04.08.2c.02.11-.03.22-.12.28-.47.32-1.91,1.29-2.68,1.84-.34.26-.74.41-1.14.41h0Z"/>
      <path d="M25.77,26.69c.17,0,.35.03.52.08h0c.78.25,2.61.84,3.18,1.02.07.02.09.12.02.16-.47.32-1.91,1.29-2.68,1.84-.29.22-.65.37-1.02.37-.14,0-.27-.02-.4-.06-1.09-.33-2.17-.63-3.25-.98-.26-.02-.1-.27.04-.33.92-.63,1.86-1.24,2.78-1.85.24-.16.53-.24.82-.24M25.77,26.29c-.38,0-.74.11-1.04.31-.38.26-.77.51-1.15.77-.54.35-1.07.71-1.6,1.07-.22.11-.41.38-.37.65.03.17.16.37.44.42.68.22,1.36.42,2.04.62.39.12.79.23,1.18.35.16.05.34.08.52.08.44,0,.88-.16,1.26-.45.76-.54,2.2-1.51,2.66-1.83.16-.11.24-.29.21-.47-.03-.19-.16-.34-.34-.4-.52-.17-2.08-.67-2.95-.94l-.23-.08c-.21-.07-.42-.1-.64-.1h0Z"/>
    </g>
    <path class="cls-5" d="M26.3,27.07c.65.2,1.3.39,1.96.58.18.06.42.11.47.31.01.2-.2.31-.34.41-.64.42-1.27.86-1.92,1.28-.33.23-.78.23-1.16.11-.69-.2-1.38-.41-2.07-.62-.18-.05-.41-.13-.39-.36.06-.17.23-.26.37-.36.62-.4,1.24-.82,1.86-1.24.37-.24.84-.25,1.25-.1v-.02Z"/>
    <g>
      <path class="cls-3" d="M16.4,32.39c-.19,0-.38-.03-.55-.09-.5-.12-.94-.48-1.21-.97-.27-.49-.32-1.06-.15-1.55.24-.82,1.05-1.42,1.92-1.42.17,0,.34.02.5.07.49.11.93.45,1.21.91.28.46.36,1,.23,1.49-.18.87-1.04,1.56-1.96,1.56h0Z"/>
      <path d="M16.41,28.56c.15,0,.3.02.45.06.93.22,1.55,1.24,1.31,2.16-.17.81-.96,1.41-1.77,1.41-.16,0-.33-.02-.49-.08-.95-.24-1.55-1.34-1.23-2.27.22-.75.97-1.28,1.73-1.28M16.41,28.16c-.96,0-1.86.66-2.12,1.57-.18.53-.12,1.15.17,1.69.29.54.78.93,1.35,1.08.17.06.38.09.59.09,1.03,0,1.96-.74,2.16-1.73.14-.52.04-1.12-.26-1.62-.31-.51-.8-.88-1.35-1.01-.16-.05-.35-.07-.54-.07h0Z"/>
    </g>
    <path class="cls-2" d="M17.88,30.43c0,.78-.73,1.47-1.52,1.42-.87,0-1.59-.89-1.4-1.74.13-.8,1-1.38,1.79-1.16.67.15,1.17.8,1.13,1.48Z"/>
    <g>
      <g>
        <path class="cls-3" d="M49.62,30.36c-.39,0-.8-.15-1.14-.41-.76-.54-2.2-1.52-2.67-1.83l-.1-.07-.02-.21c.01-.11.09-.2.2-.23.54-.17,2.23-.71,3.06-.97l.12-.05c.19-.06.38-.09.58-.09.34,0,.66.09.93.27.38.26.76.51,1.15.76.54.36,1.09.72,1.63,1.09.13.05.29.25.26.43,0,.06-.06.24-.32.26-.64.21-1.34.42-2.03.62-.39.12-.78.23-1.17.35-.14.05-.3.07-.46.07h0Z"/>
        <path d="M49.64,26.69c.29,0,.58.08.82.24.92.62,1.86,1.23,2.78,1.85.13.05.29.31.04.33-1.08.35-2.16.65-3.25.98-.13.04-.27.06-.4.06-.37,0-.73-.15-1.02-.37-.77-.55-2.21-1.52-2.68-1.84-.06-.04-.05-.13.02-.16.57-.18,2.4-.77,3.18-1.01h0c.17-.06.34-.09.52-.09M49.64,26.29c-.22,0-.43.03-.64.1l-.29.09h0c-.88.28-2.38.76-2.89.93-.18.06-.31.21-.34.4-.03.19.05.37.21.47.47.32,1.9,1.29,2.67,1.84.37.28.82.44,1.25.44.18,0,.36-.03.53-.08.38-.12.78-.23,1.17-.35.68-.2,1.36-.4,2.04-.62.29-.05.42-.25.44-.42.04-.27-.15-.53-.37-.65-.53-.36-1.07-.72-1.6-1.07-.39-.25-.77-.51-1.15-.77-.3-.2-.66-.31-1.04-.31h0Z"/>
      </g>
      <path class="cls-5" d="M49.1,27.09c.4-.15.87-.14,1.25.1.62.41,1.24.83,1.86,1.24.13.1.31.2.37.36.02.23-.22.31-.39.36-.69.2-1.38.41-2.07.62-.37.13-.83.12-1.16-.11-.65-.42-1.28-.86-1.92-1.28-.13-.1-.35-.21-.34-.41.05-.2.29-.25.47-.31.65-.19,1.3-.38,1.96-.58v.02Z"/>
      <g>
        <path class="cls-3" d="M59.01,32.39c-.92,0-1.79-.69-1.96-1.57-.12-.48-.04-1.02.24-1.48.28-.46.73-.8,1.22-.92.15-.04.32-.07.49-.07.88,0,1.69.6,1.93,1.43.17.48.11,1.05-.15,1.54-.27.49-.71.85-1.22.98-.16.05-.35.08-.54.08h0Z"/>
        <path d="M59,28.56c.77,0,1.52.53,1.73,1.28.32.93-.28,2.03-1.23,2.27-.16.05-.33.08-.49.08-.81,0-1.6-.59-1.77-1.41-.24-.92.38-1.94,1.31-2.16.15-.04.3-.06.45-.06M59,28.16c-.19,0-.38.03-.56.08-.53.13-1.02.49-1.33,1-.3.51-.4,1.1-.26,1.64.2.96,1.12,1.71,2.16,1.71.21,0,.42-.03.62-.1.54-.13,1.03-.53,1.32-1.07.29-.54.35-1.16.16-1.71-.26-.89-1.15-1.55-2.11-1.55h0Z"/>
      </g>
      <path class="cls-2" d="M58.66,28.95c.79-.22,1.66.36,1.79,1.16.19.85-.53,1.74-1.4,1.74-.79.05-1.52-.64-1.52-1.42-.04-.68.46-1.33,1.13-1.48Z"/>
    </g>
    <g>
      <path class="cls-3" d="M12.43,28.59c-.36,0-.72-.2-.96-.54-.25-.35-.31-.78-.17-1.15.17-.56.78-.76,1.15-.87,3.85-1.3,8.12-2.27,13.04-2.97,2.63-.36,5.24-.6,7.76-.73h0c1.51-.08,3.04-.12,4.55-.12,4.9,0,9.8.4,14.56,1.2,4.06.69,7.54,1.54,10.64,2.59l.15.05c.34.12.72.25.95.6.24.35.25.84.04,1.26-.21.41-.58.66-1,.67-.37-.01-.69-.14-.99-.26-.16-.06-.31-.12-.48-.17-4.71-1.57-9.81-2.61-15.58-3.2-2.66-.27-5.41-.41-8.16-.41-4.09,0-8.29.3-12.48.9-5.09.73-9.11,1.71-12.66,3.09-.12.05-.25.07-.37.07Z"/>
      <path d="M37.8,22.42c4.86,0,9.73.39,14.53,1.19,3.59.61,7.16,1.41,10.61,2.58.36.13.77.23,1,.57.41.61-.05,1.59-.8,1.61-.5-.02-.94-.29-1.41-.42-5.05-1.68-10.32-2.67-15.61-3.21-2.72-.28-5.45-.41-8.18-.41-4.19,0-8.37.31-12.51.9-4.32.62-8.63,1.52-12.7,3.1-.1.04-.2.05-.3.05-.65,0-1.18-.78-.94-1.41.14-.45.61-.62,1.02-.75,4.22-1.43,8.6-2.34,13.01-2.96,2.57-.35,5.16-.6,7.76-.73h-.02c1.51-.08,3.03-.11,4.54-.11M37.8,22.02c-1.51,0-3.05.04-4.56.11h0c-2.52.13-5.14.37-7.77.73-4.94.69-9.22,1.67-13.08,2.98-.37.12-1.06.34-1.27,1.01-.15.41-.08.91.2,1.31.27.39.69.62,1.12.62.15,0,.3-.03.44-.08,3.54-1.37,7.55-2.35,12.62-3.08,4.19-.59,8.38-.9,12.46-.9,2.74,0,5.48.14,8.14.41,5.76.59,10.84,1.63,15.52,3.19.17.05.32.11.48.17.31.12.66.26,1.04.27.51-.01.95-.3,1.19-.78.25-.48.23-1.04-.05-1.46-.27-.41-.71-.55-1.05-.67l-.14-.05c-3.12-1.06-6.61-1.91-10.68-2.6-4.77-.8-9.68-1.2-14.59-1.2h0Z"/>
    </g>
    <g>
      <path class="cls-2" d="M39.43,7.27c-.13-.09-.26-.16-.4-.24-.13-.07-.25-.15-.38-.23l-.11-.07v.03s-.77-.06-.77-.06c0,0-.02-.34-.02-.42,0,.08-.02.42-.02.42l-.76.06v-.04s0,.07,0,.07l-.16.06c-.25.1-.49.23-.74.41l-.19.13-.1-.21c-.48-.96-1.51-1.54-2.45-1.99l-.24-.11.17-.2c.25-.29.59-.37.91-.44-.03-.06-.06-.11-.1-.17-.07-.11-.15-.24-.19-.4-.07-.31-.04-.62,0-.91l.03-.27.12-.04c.29-.1.6-.16.92-.16.41,0,.83.09,1.21.27.03-.06.04-.14.06-.24.02-.1.04-.22.09-.34l.15-.33.03.04c.29-.52.71-.95,1.13-1.35l.14-.13.14.14c.6.59,1.29,1.27,1.42,2.19,0,.02.01.05.03.07.39-.18.81-.27,1.22-.27.32,0,.63.06.91.16l.12.04.03.26c.03.29.06.58,0,.88-.03.16-.12.29-.19.41-.04.07-.08.13-.11.18.33.06.65.15.9.41l.19.19-.24.12c-1.02.52-1.97,1.06-2.45,2l-.1.2-.19-.13Z"/>
      <path d="M37.76.69c.59.58,1.24,1.22,1.36,2.07.02.11.08.21.17.29.39-.21.84-.32,1.28-.32.29,0,.57.05.84.15.03.32.08.65.02.96-.06.29-.35.48-.33.79.35.06.73.12.99.39-.98.5-2.02,1.07-2.54,2.09-.25-.17-.52-.3-.78-.47.16-.68.47-1.32.65-1.99-.24.13-.35.38-.48.61-.22.41-.39.85-.54,1.29-.14,0-.29-.03-.43-.04-.06-1.33-.09-2.66-.11-3.99-.02-.15.04-.37-.18-.4-.03,1.46-.07,2.93-.13,4.39-.14.01-.29.03-.43.04-.24-.68-.5-1.36-.96-1.93-.04.12-.03.24.02.35.21.56.43,1.12.57,1.7-.28.11-.54.26-.78.43-.51-1.01-1.55-1.61-2.54-2.08.25-.29.64-.34.99-.41,0-.3-.27-.49-.33-.77-.07-.33-.02-.66,0-.99.28-.1.56-.15.85-.15.44,0,.88.11,1.27.32.22-.19.17-.5.28-.75l.02.03c.26-.64.75-1.14,1.24-1.61M37.76.13l-.28.27c-.35.34-.71.7-1,1.12l-.35.58c-.06.13-.08.26-.11.38,0,0,0,0,0,0-.35-.13-.71-.19-1.08-.19-.34,0-.67.06-.99.17l-.24.09-.02.25v.14c-.04.29-.08.63,0,.97.03.16.11.29.17.4-.26.07-.53.19-.74.44l-.34.4.47.23c.91.43,1.9.99,2.35,1.9l.21.41.38-.27c.23-.17.47-.29.7-.38l.23-.09h.02c.07,0,.15-.01.23-.02.07,0,.14-.01.2-.02h.18s.18,0,.18,0c.07,0,.13.01.2.02.08,0,.15.02.23.02h.16s.02.03.02.03c.13.08.26.16.39.23.13.07.26.15.38.23l.38.26.21-.4c.45-.88,1.38-1.41,2.37-1.92l.48-.25-.37-.39c-.22-.22-.48-.34-.74-.41.07-.11.14-.25.18-.41.06-.33.03-.65,0-.94v-.14s-.04-.25-.04-.25l-.23-.09c-.31-.12-.64-.18-.98-.18-.36,0-.73.07-1.08.2-.19-.89-.85-1.54-1.44-2.12l-.28-.27h0Z"/>
    </g>
    <g>
      <path class="cls-2" d="M32.3,13.05l.03-.21c.03-.22.09-.44.14-.66.04-.15.08-.3.11-.45l-.28-.1c-.42-.15-.85-.3-1.24-.56-.37-.22-.64-.55-.89-.88-.15-.19-.29-.38-.47-.54l-.16-.15.17-.14c.19-.16.34-.35.5-.56.21-.27.44-.56.75-.76.43-.31.94-.48,1.43-.65l.17-.06c.03-.1-.02-.24-.09-.43-.05-.13-.1-.26-.12-.4l-.02-.17.16-.05c.31-.09.59-.14.84-.14s.51.05.72.15c.63.29,1.18.72,1.65,1.11l.15.12-.11.15c-.24.33-.41.65-.51.97l-.04.13-.08.8h-.06s.07,0,.07,0l.03.15c.07.32.2.66.35.98l.06.12h.02s.09.1.09.1c.05.06.1.12.16.18l.23.25-.15.13c-.89.77-1.94,1.59-3.21,1.59-.06,0-.4-.02-.4-.02Z"/>
      <path d="M33.33,6.32c.22,0,.43.04.64.13.59.27,1.11.67,1.61,1.08-.23.32-.42.66-.54,1.03-.29-.13-.58-.29-.88-.4.17.32.53.46.82.65-.02.19-.03.37-.05.56-1.04.07-2.09.05-3.13.13-.03.03-.1.1-.13.13,1.1.05,2.19.1,3.29.13.08.35.21.7.37,1.02-.27.2-.7.26-.85.59.35-.08.7-.21,1.04-.33.08.1.17.19.26.29-.87.75-1.87,1.55-3.08,1.55-.06,0-.11,0-.17,0,.06-.41.2-.8.27-1.21l-.07-.09c-.53-.2-1.08-.35-1.55-.67-.57-.33-.86-.95-1.33-1.4.46-.39.72-.98,1.23-1.31.49-.35,1.07-.52,1.63-.72.19-.31-.11-.68-.16-1.02.25-.08.52-.13.78-.13M32.55,6.44s0,0,0,0c0,0,0,0,0,0h0M33.33,5.92c-.27,0-.57.05-.9.15l-.32.1.04.34c.02.16.08.31.13.45.02.05.06.15.08.22h-.03c-.5.18-1.02.36-1.48.7-.33.21-.56.51-.78.8-.16.2-.3.39-.47.53l-.34.29.32.31c.16.15.3.33.45.52.27.34.54.69.96.94.38.26.83.42,1.26.57.04.01.07.03.11.04-.02.09-.04.18-.07.27-.06.22-.11.45-.15.68l-.06.43.43.03c.07,0,.13,0,.2,0,1.34,0,2.42-.85,3.34-1.64l.31-.27-.27-.3-.09-.1c-.05-.06-.11-.11-.15-.17l-.13-.17v-.02c-.16-.3-.28-.62-.35-.93l-.03-.15v-.11c.02-.1.03-.19.04-.29,0-.09.01-.18.02-.27v-.05s.04-.11.04-.11c.1-.3.26-.6.48-.92l.22-.3-.29-.24c-.48-.39-1.04-.83-1.7-1.13-.24-.11-.51-.17-.8-.17h0Z"/>
    </g>
    <g>
      <path class="cls-2" d="M42.81,13.1c-1.27,0-2.32-.82-3.21-1.59l-.15-.13.49-.54.06-.11c.17-.34.28-.65.35-.97l.03-.15s.16,0,.17,0h-.18s-.05-.8-.05-.8l-.05-.15c-.11-.33-.28-.66-.51-.98l-.11-.15.14-.12c.44-.37.97-.79,1.6-1.08l.08-.05c.21-.09.43-.14.69-.14.31,0,.61.07.84.13l.15.04v.16c0,.16-.07.32-.12.47-.07.19-.12.32-.09.42l.12.04c.48.17.98.34,1.42.65.34.21.59.52.82.81.16.2.31.39.48.55l.17.15-.16.15c-.18.16-.33.35-.48.55-.25.31-.5.64-.88.86-.39.26-.84.42-1.27.58l-.25.09c.03.14.06.27.1.4.06.24.12.48.16.72l.03.21s-.34.02-.4.02Z"/>
      <path d="M42.16,6.32c.27,0,.54.05.79.12-.01.34-.36.74-.15,1.05.54.19,1.1.36,1.57.69.55.33.82.93,1.29,1.35-.47.43-.75,1.05-1.32,1.38-.48.32-1.03.48-1.56.68l-.07.1c.08.41.21.8.27,1.21-.06,0-.11,0-.17,0-1.2,0-2.21-.79-3.08-1.55.09-.1.17-.19.26-.29.34.13.69.26,1.05.32-.2-.3-.58-.38-.87-.58.16-.32.29-.66.37-1.02,1.1-.03,2.19-.09,3.29-.13-.07-.11-.17-.16-.3-.16-.99-.05-1.98-.06-2.97-.11-.01-.19-.03-.37-.04-.56.3-.18.63-.34.83-.64-.31.09-.6.26-.89.39-.12-.37-.31-.72-.54-1.04.5-.42,1.02-.81,1.62-1.08v-.02c.2-.09.41-.12.62-.12M42.16,5.92h0c-.28,0-.54.05-.77.16l-.13.06v.02c-.63.3-1.16.71-1.59,1.08l-.28.24.22.3c.22.31.38.62.48.93l.04.12v.03c0,.1.01.2.02.29,0,.09.01.18.02.27v.2s-.01.1-.01.1c-.07.3-.18.61-.34.93l-.04.09-.08.08-.13.15-.13.14-.27.3.31.27c.92.8,2,1.64,3.34,1.64.06,0,.13,0,.2,0l.43-.03-.06-.43c-.04-.26-.1-.5-.16-.74-.02-.08-.04-.15-.06-.23.03,0,.05-.02.08-.03.44-.16.9-.32,1.32-.61.39-.22.66-.57.91-.9.15-.19.29-.37.45-.52l.33-.3-.33-.29c-.17-.15-.31-.33-.46-.52-.25-.31-.5-.64-.89-.87-.43-.3-.94-.48-1.43-.65.02-.06.05-.15.07-.2.06-.16.13-.34.13-.53v-.32s-.3-.08-.3-.08c-.24-.06-.56-.13-.89-.13h0Z"/>
    </g>
    <g>
      <path class="cls-2" d="M37.76,12.02c-.81,0-1.6-.37-2.1-.98-.64-.74-.8-1.86-.41-2.78.33-.76,1.02-1.36,1.8-1.56.22-.06.45-.09.68-.09,1.31,0,2.48.98,2.67,2.23.29,1.36-.67,2.82-2.05,3.12-.19.05-.39.07-.6.07Z"/>
      <path d="M37.74,6.81c1.16,0,2.29.88,2.47,2.06.27,1.27-.63,2.62-1.89,2.89-.18.04-.37.07-.56.07-.74,0-1.47-.33-1.94-.91-.6-.7-.74-1.73-.38-2.57.3-.7.93-1.26,1.67-1.45h0c.2-.06.41-.09.62-.09M37.74,6.41h0c-.23,0-.47.03-.69.09h-.04c-.84.23-1.59.87-1.94,1.69-.42.98-.24,2.19.44,2.99.53.65,1.38,1.05,2.25,1.05.22,0,.44-.03.65-.08,1.47-.32,2.5-1.89,2.19-3.36-.2-1.32-1.46-2.37-2.86-2.37h0Z"/>
    </g>
    <g>
      <path class="cls-2" d="M37.78,11.51c-.09,0-.19,0-.28-.02-.58-.05-1.13-.38-1.51-.9-.37-.52-.5-1.14-.36-1.71.16-.83.87-1.52,1.71-1.68l.24-.04h0c.06,0,.13,0,.2,0,.56,0,1.12.25,1.54.67.41.42.63.95.61,1.5.02.53-.2,1.08-.61,1.5-.42.43-.98.68-1.54.68Z"/>
      <path d="M37.77,7.35c1.02,0,1.98.91,1.95,1.97.04,1.05-.91,1.99-1.95,1.99-.08,0-.17,0-.25-.02-1.11-.1-1.97-1.28-1.7-2.37.15-.76.79-1.39,1.55-1.53h0c.13-.02.27-.04.4-.04M37.78,6.92l-.47.08c-.92.17-1.69.93-1.87,1.85-.15.61,0,1.29.39,1.86.41.57,1.01.93,1.66.99.08.01.19.02.29.02.61,0,1.23-.27,1.68-.74.44-.46.69-1.07.66-1.66.02-.58-.22-1.16-.67-1.62-.45-.47-1.07-.73-1.68-.73v-.03h0Z"/>
    </g>
    <g>
      <path d="M37.78,11.52c-.1,0-.19,0-.29-.02-.58-.05-1.14-.38-1.52-.91-.37-.52-.5-1.15-.36-1.72.16-.83.87-1.53,1.72-1.69l.24-.04h0c.07,0,.13,0,.2,0,.47,0,.95.18,1.34.49.53.43.84,1.06.82,1.69.02.6-.25,1.2-.74,1.63-.41.36-.91.56-1.42.56ZM37.18,7.66c-.57.2-1.03.7-1.14,1.3-.11.46,0,.96.29,1.38.3.42.75.69,1.22.73.09.01.16.02.23.02.4,0,.81-.16,1.14-.45.39-.35.61-.83.59-1.31.01-.51-.23-1.02-.66-1.36-.32-.26-.69-.4-1.07-.4-.12,0-.24.01-.35.04l-.25.06h0Z"/>
      <path d="M37.78,7.34c.43,0,.85.16,1.22.45.48.39.76.96.75,1.53.02.55-.22,1.09-.67,1.49-.37.33-.83.51-1.29.51-.09,0-.17,0-.26-.02-.54-.05-1.04-.35-1.38-.83-.34-.47-.46-1.04-.33-1.56.15-.77.79-1.4,1.56-1.54h.02s0,0,0,0c.13-.03.26-.04.39-.04M37.36,7.42h0c-.75.14-1.37.76-1.52,1.5-.13.51,0,1.07.32,1.53.34.47.83.77,1.36.82.08.01.17.02.25.02.45,0,.9-.18,1.27-.5.44-.39.68-.93.66-1.47.01-.56-.26-1.13-.74-1.51-.36-.29-.78-.44-1.2-.44-.13,0-.27.02-.4.05h-.02M37.79,6.9l-.47.08c-.94.17-1.72.94-1.9,1.86-.15.61-.01,1.3.39,1.87.41.57,1.02.94,1.67,1,.08.01.19.02.29.02.56,0,1.11-.22,1.56-.61.53-.48.83-1.13.8-1.8.02-.67-.32-1.36-.89-1.83-.43-.34-.94-.54-1.45-.54v-.04h0ZM37.24,7.85l.21-.05h.02c.1-.03.2-.04.3-.04.33,0,.66.12.95.35.38.31.6.75.59,1.19.01.45-.18.87-.53,1.18-.29.26-.65.4-1,.4-.06,0-.13,0-.19-.01-.44-.04-.83-.28-1.1-.65-.26-.37-.36-.81-.26-1.21.11-.54.51-.99,1.01-1.17h0Z"/>
    </g>
    <g>
      <path class="cls-2" d="M8.42,19.94c-.59,0-1.1-.13-1.54-.4-.54-.27-1.01-.63-1.37-1.06l-.73-.87.96.56c-.38-.37-.73-.79-1.09-1.3l-.3-.42.5.11c.31.07.64.12.98.14-.13-.04-.72-.21-.88-.25l-.5-.13.46-.24c.33-.17.66-.33.99-.5-.23.09-.45.17-.68.26l-.86.31.66-.64c.06-.06.11-.11.17-.17-.23.18-.47.34-.71.49l-.2.13-.09-.22c-.26-.65-.44-1.33-.57-2,.02.21.05.42.08.65l.14,1.02-.51-.9c-.32-.56-.64-1.18-.76-1.85-.08-.37-.14-.76-.19-1.14-.13-.86-.26-1.75-.65-2.55-.19-.45-.48-.82-.77-1.22l-.4-.54.3-.06c.14-.03.28-.04.42-.04.87,0,1.62.54,2.32,1.09.15.1.26.26.35.41.08.12.14.22.21.27.39-.51.96-.81,1.57-.82h.11s.06.09.06.09c.3.44.61,1.02.51,1.64.08.02.16.03.25.04.22.03.46.05.68.23l.17.14-.15.15c-.51.52-1.07,1.15-1.31,1.92-.12.38-.13.69-.03.92.31-.3.55-.66.81-1.05.18-.27.36-.55.57-.8.26-.31.64-.42.97-.51l.2-.06.13.18c.03.15.06.3.09.46.03.2.07.4.12.59l.11-.06h.12s.22,0,.22,0c.74,0,1.35.16,1.8.48.32.22.61.4.88.54l.15.08-.05.16c-.09.29-.13.59-.18.91l-.03.24c-.15.75-.67,1.32-1.13,1.79.06.09.12.18.19.26.17.24.34.47.49.72l.12.2-.22.09c-.29.12-.64.23-1.02.23-.09,0-.19,0-.28-.02l-.49-.08c-.57-.09-1.15-.18-1.73-.21l.11.05c.95.61,1.7,1.25,2.3,1.95l.19.22-.28.09c-.61.21-1.18.31-1.7.31Z"/>
      <path d="M1.26,7.29c.83,0,1.57.56,2.2,1.05.31.2.38.69.76.77.33-.51.88-.86,1.5-.87.32.48.62,1.06.44,1.65.32.17.73.05,1.03.3-.57.58-1.11,1.22-1.36,2-.13.42-.19.93.12,1.28.67-.54,1.03-1.37,1.57-2.02.24-.28.61-.37.95-.47.08.35.11.71.21,1.06.05.07.12.09.21.09.07,0,.14-.01.21-.01.02,0,.04,0,.05,0,.05,0,.11,0,.16,0,.59,0,1.2.1,1.69.44.29.2.59.39.9.55-.12.38-.16.78-.22,1.18-.15.73-.69,1.29-1.19,1.8.25.37.53.73.76,1.11-.3.12-.62.22-.94.22-.08,0-.16,0-.25-.02-.74-.11-1.49-.25-2.24-.29-.23.05-.21.33-.01.42.83.53,1.61,1.15,2.25,1.91-.51.17-1.08.3-1.64.3-.5,0-1-.1-1.43-.37-.5-.25-.96-.59-1.32-1.02.31.18.62.41.99.45-.17-.27-.43-.45-.66-.67-.44-.41-.83-.88-1.18-1.38.49.11.99.16,1.49.16.27,0,.54-.01.81-.04-.13-.17-.34-.16-.52-.21-.54-.09-1.06-.27-1.59-.41.97-.5,1.96-.97,2.95-1.46.15-.08.32-.16.4-.32-1.09.3-2.13.79-3.2,1.17.36-.35.68-.76.89-1.23.07-.11.07-.24.02-.37-.38.71-1.04,1.19-1.7,1.61-.45-1.11-.65-2.3-.8-3.48-.04-.15,0-.37-.2-.42-.07.89,0,1.78.12,2.65-.32-.56-.62-1.15-.74-1.79-.26-1.25-.29-2.57-.86-3.74-.25-.57-.64-1.04-1.01-1.54.13-.03.26-.04.38-.04M.86,7.3s.01.02.02.03c0,0,0,0,0,0l-.02-.03M1.26,6.89c-.16,0-.31.02-.46.05l-.6.13.34.46v.02s.02,0,.02,0h.01c.07.11.15.21.22.31.29.39.57.76.75,1.17.38.78.51,1.62.64,2.51.06.39.12.78.2,1.16.13.7.45,1.33.78,1.91l.89,1.56-.14-.03.07.11-.4.39.54-.19.38.54c.09.14.19.27.29.39l-.88-.51,1.46,1.75c.38.45.87.83,1.45,1.12.44.27.99.41,1.61.41.54,0,1.13-.11,1.76-.32l.56-.19-.38-.45c-.48-.57-1.06-1.09-1.76-1.6.3.04.6.09.9.13l.5.08c.1.02.2.02.31.02.41,0,.78-.13,1.09-.25l.44-.17-.25-.41c-.15-.25-.32-.49-.49-.73-.03-.04-.06-.09-.09-.13.44-.47.92-1.03,1.07-1.76l.04-.26c.04-.31.09-.61.17-.88l.1-.32-.3-.15c-.26-.13-.54-.3-.86-.52-.49-.34-1.13-.51-1.91-.51-.05,0-.1,0-.15,0-.02,0-.04,0-.07,0-.03,0-.06,0-.08,0-.02-.12-.04-.24-.07-.36-.03-.16-.05-.31-.09-.47l-.09-.41-.41.12-.08.02c-.34.1-.76.22-1.06.57-.22.26-.41.55-.59.82-.17.25-.33.49-.5.71.01-.14.05-.29.08-.41.23-.72.77-1.33,1.26-1.84l.3-.31-.33-.28c-.26-.22-.55-.25-.78-.28-.02,0-.03,0-.05,0,.03-.6-.27-1.15-.56-1.58l-.12-.18h-.22c-.59.01-1.15.27-1.56.72-.01-.02-.03-.05-.04-.07-.1-.15-.22-.35-.43-.48-.7-.55-1.48-1.11-2.42-1.11h0Z"/>
    </g>
    <g>
      <path class="cls-2" d="M67.06,19.92c-.54,0-1.1-.1-1.69-.31l-.27-.1.19-.22c.59-.7,1.27-1.29,2.02-1.77.11-.07.21-.14.3-.22,0,0,0,0,0,0-.54.03-1.09.12-1.62.21l-.5.08c-.09.02-.19.02-.29.02-.32,0-.66-.08-1.03-.25l-.21-.09.12-.19c.15-.23.3-.45.46-.67.07-.1.14-.2.21-.3-.48-.5-.96-1.04-1.12-1.74l-.05-.34c-.04-.29-.09-.58-.17-.85l-.05-.17.16-.07c.22-.1.42-.23.62-.37.35-.23.72-.47,1.18-.55.29-.08.6-.08.9-.09.15,0,.29,0,.44-.01.05-.16.08-.34.11-.53.02-.15.05-.3.08-.44l.05-.2.2.05c.37.1.82.22,1.11.6.16.22.31.44.46.66.29.43.56.83.9,1.18-.03-.03.02-.15.01-.23.06-1.05-.65-1.9-1.4-2.68l-.15-.16.18-.13c.21-.16.45-.19.66-.21.09-.01.18-.02.25-.04-.11-.62.21-1.2.51-1.64l.06-.09h.11c.6.04,1.13.31,1.46.74.04.08.1.12.13.12.45-.81,1.23-1.27,2.01-1.65l.09-.04h.02c.19-.07.4-.1.65-.1.17,0,.34.02.51.04l.32.04-.19.27c-.1.14-.2.27-.3.41-.21.28-.41.54-.56.84-.5.89-.66,1.92-.81,2.92-.06.37-.11.73-.18,1.09-.13.68-.46,1.29-.75,1.82l-.52.92.14-1.04c.03-.22.06-.43.08-.64-.13.68-.3,1.35-.57,2l-.09.22-.2-.13c-.22-.14-.44-.29-.65-.45.04.04.82.78.82.78l-.91-.33c-.23-.08-.45-.17-.68-.26.33.16,1.44.73,1.44.73,0,0-1.21.33-1.34.37.32-.02.62-.07.92-.13l.49-.1-.29.41c-.32.47-.68.89-1.06,1.26l.96-.59-.75.92c-.47.57-1.14,1.03-2.01,1.36-.31.08-.61.11-.92.11Z"/>
      <path d="M74.14,7.29c.16,0,.33.02.49.04-.29.42-.64.81-.87,1.27-.7,1.24-.74,2.7-1.01,4.06-.12.63-.42,1.21-.73,1.76.12-.87.18-1.76.12-2.64-.04.03-.11.1-.15.13-.19,1.27-.35,2.57-.85,3.76-.66-.42-1.31-.9-1.7-1.6-.11.15,0,.3.06.44.21.43.51.81.86,1.14-1.07-.39-2.12-.87-3.21-1.18.07.17.25.24.4.32.98.48,1.97.96,2.95,1.46-.53.14-1.04.31-1.58.4-.18.05-.41.03-.53.21.25.02.51.04.76.04.51,0,1.03-.05,1.53-.16-.4.58-.87,1.12-1.41,1.58-.16.13-.31.28-.42.46.37-.05.68-.27.99-.46-.5.61-1.2,1.02-1.93,1.3-.28.07-.57.1-.85.1-.55,0-1.1-.11-1.62-.3.57-.67,1.24-1.26,1.98-1.73.18-.11.34-.24.48-.4-.06-.05-.17-.15-.22-.2-.75.04-1.49.18-2.23.29-.09.01-.18.02-.26.02-.33,0-.65-.1-.95-.23.24-.38.51-.73.76-1.1-.49-.51-1.02-1.05-1.18-1.76-.07-.41-.11-.82-.23-1.21.6-.27,1.08-.79,1.75-.9.47-.13.97-.05,1.45-.11.14-.35.15-.75.24-1.11.37.1.76.21,1,.53.46.62.84,1.3,1.37,1.86.04.03.08.04.11.04.16,0,.26-.27.25-.42.07-1.13-.73-2.05-1.45-2.81.31-.23.71-.12,1.03-.29-.19-.59.11-1.17.44-1.65.51.03,1,.24,1.31.65.05.1.18.2.28.2.07,0,.13-.04.17-.14.43-.73,1.19-1.17,1.93-1.53h.02c.2-.09.43-.13.65-.13M74.14,6.89c-.24,0-.45.03-.64.1h-.01s-.2.07-.2.07c-.74.36-1.48.79-1.97,1.49-.36-.41-.91-.67-1.52-.7h-.23s-.13.17-.13.17c-.27.4-.6.96-.57,1.59-.02,0-.04,0-.06,0-.22.03-.5.06-.75.25l-.36.27.31.33c.64.68,1.27,1.41,1.34,2.25-.19-.24-.36-.5-.54-.77-.15-.22-.3-.45-.46-.67-.33-.44-.84-.58-1.22-.68l-.39-.11-.1.4c-.04.15-.06.31-.09.46-.02.13-.04.25-.07.37-.09,0-.19,0-.28,0-.31,0-.64,0-.97.1-.46.07-.86.34-1.21.57-.2.13-.4.26-.59.35l-.32.14.1.34c.08.26.12.53.17.83.02.11.03.22.05.33.16.72.61,1.26,1.06,1.73-.04.06-.08.11-.12.17-.16.22-.32.45-.47.68l-.25.39.42.19c.4.18.76.27,1.11.27.11,0,.22,0,.33-.03l.5-.08c.28-.04.57-.09.86-.13-.64.45-1.23.98-1.75,1.59l-.38.44.55.19c.6.21,1.19.32,1.75.32.33,0,.64-.04.94-.11h.02s.02-.02.02-.02c.9-.35,1.61-.82,2.1-1.42l1.5-1.83-.86.53c.07-.1.14-.2.21-.3l.36-.52.68.25-.51-.48.05-.07-.08.02.87-1.54c.3-.54.64-1.17.77-1.88.07-.36.13-.73.18-1.1.16-1.02.3-1.99.78-2.84.15-.3.34-.55.55-.82.1-.14.21-.27.3-.42l.37-.54-.65-.09c-.16-.02-.34-.04-.54-.04h0Z"/>
    </g>
    <g>
      <path class="cls-2" d="M34.65,14.4c.04-.96.46-1.95,1.26-2.93l.11-.13.38.21c.12.07.24.14.37.21l.17.09-.08.16s.12-.15.12-.15l.11.02c.22.04.44.06.66.06s.45-.02.67-.06l.12-.02.16.22s-.11-.24-.11-.24l.9-.5.11.13c.79.96,1.22,1.94,1.27,2.92v.22s-.21-.01-.21-.01c-1.03-.06-2.01-.48-2.76-1.16-.08-.07-.14-.12-.17-.13-.79.79-1.82,1.24-2.88,1.3h-.21s0-.21,0-.21Z"/>
      <path d="M39.46,11.6c.66.8,1.17,1.75,1.22,2.8-.97-.06-1.92-.45-2.64-1.11-.08-.06-.19-.18-.29-.18-.04,0-.09.02-.13.07-.75.71-1.73,1.17-2.77,1.23h0c.04-1.06.56-2.01,1.21-2.81.2.11.4.23.61.34-.18.38-.4.74-.6,1.11.48-.09.7-.63.99-.97.23.04.46.06.7.06s.47-.02.7-.06c.28.38.53.81.97,1.02-.13-.42-.4-.77-.57-1.17.2-.11.4-.22.6-.33M35.96,11.09l-.21.26c-.82,1.01-1.26,2.04-1.3,3.04l-.02.44.44-.02c1.05-.06,2.07-.49,2.9-1.22h.02c.76.72,1.79,1.15,2.87,1.21l.45.03-.02-.45c-.05-1.02-.49-2.04-1.31-3.04l-.21-.26-.29.16-.6.33-.16.09-.12.02c-.21.04-.43.05-.64.05s-.42-.02-.63-.05l-.12-.02-.15-.08c-.12-.06-.24-.13-.36-.2l-.24-.13-.29-.16h0Z"/>
    </g>
    <g>
      <path class="cls-2" d="M14.99,24.41c-1.88,0-3.75-.56-5.26-1.59-1.04-.68-1.95-1.61-2.7-2.74l-.35-.52.59.23c.34.13.73.2,1.15.2.4,0,.84-.06,1.34-.18l.11-.03.08.08c1.09,1.11,2.6,1.83,4.16,1.97.25.03.5.04.74.04,1.91,0,3.67-.73,4.85-2.02.91-.96,1.44-2.35,1.46-3.81v-.09s.07-.06.07-.06c.43-.37.72-.84.81-1.31l.09-.45.27.37c.3.41.68.72,1.08.89.21.08.28.27.34.41.02.04.03.09.05.12.57,1.37,1.59,2.47,2.82,3.03.89.43,1.91.65,2.94.65h0c2.45,0,4.72-1.19,5.93-3.1.39-.61.65-1.25.79-1.9.05-.21.1-.41.32-.49.36-.21.69-.44.96-.66l.13-.11.13.11c.37.31.72.54,1.07.72l.09.04.02.09c.32,1.56,1.19,2.96,2.39,3.83,1.24.95,2.82,1.46,4.43,1.46.51,0,1.02-.05,1.52-.16,1.28-.27,2.44-.93,3.26-1.88.45-.5.83-1.14,1.16-1.97l.03-.08.08-.03c.51-.2.92-.53,1.2-.96l.27-.41.09.48c.09.49.38.95.81,1.31l.07.06v.09c0,1.69.75,3.29,2,4.3,1.15.95,2.67,1.48,4.28,1.48,1.9,0,3.69-.73,4.92-2l.08-.08.11.03c.49.12.92.17,1.33.17.42,0,.81-.07,1.16-.19l.57-.21-.33.51c-.92,1.41-2.16,2.53-3.57,3.25-1.35.7-2.87,1.08-4.4,1.08-.96,0-1.9-.15-2.79-.44-2.29-.72-4.2-2.48-5.09-4.72-.03-.12-.1-.2-.12-.22-.85.99-1.89,1.77-3,2.27-1.12.51-2.39.78-3.67.78-2.15,0-4.24-.72-5.87-2.03-.85-.67-1.61-1.54-2.21-2.52-.05.04-.09.1-.16.21-.04.06-.08.13-.12.18-1.62,2.52-4.69,4.16-7.81,4.16-.51,0-1.03-.04-1.52-.13-1.9-.31-3.65-1.25-4.94-2.65-.03-.03-.07-.07-.11-.11-.05-.05-.09-.09-.13-.13-.03.04-.05.09-.08.16l-.06.12c-.69,1.66-1.92,3.06-3.47,3.93-1.29.74-2.8,1.13-4.37,1.13Z"/>
      <path d="M37.76,13.62c.34.28.71.54,1.11.74.32,1.55,1.18,3.01,2.47,3.95,1.29.98,2.93,1.5,4.55,1.5.52,0,1.05-.05,1.56-.16,1.29-.27,2.5-.94,3.37-1.94.53-.59.9-1.3,1.19-2.03.52-.21.98-.56,1.29-1.03.11.57.44,1.06.88,1.43,0,1.7.75,3.39,2.08,4.46,1.23,1.02,2.82,1.52,4.4,1.52,1.87,0,3.75-.7,5.06-2.06.45.1.91.18,1.37.18.42,0,.83-.06,1.23-.21-.87,1.33-2.07,2.46-3.49,3.18-1.32.69-2.82,1.06-4.31,1.06-.92,0-1.85-.14-2.73-.43-2.23-.7-4.1-2.43-4.97-4.6-.04-.13-.15-.34-.29-.34-.05,0-.1.02-.15.08-.82.92-1.82,1.69-2.95,2.2-1.13.52-2.36.76-3.59.76-2.06,0-4.13-.69-5.75-1.98-.9-.71-1.66-1.61-2.24-2.6-.29,0-.38.31-.53.5-1.64,2.55-4.64,4.09-7.65,4.09-.5,0-1-.04-1.49-.13-1.84-.3-3.57-1.22-4.83-2.59-.13-.12-.23-.28-.4-.34-.18.07-.22.27-.3.43-.67,1.61-1.87,2.99-3.39,3.85-1.3.75-2.78,1.1-4.27,1.1-1.82,0-3.64-.54-5.15-1.55-1.06-.7-1.95-1.64-2.65-2.69.39.15.8.21,1.22.21.46,0,.93-.07,1.38-.18,1.13,1.15,2.67,1.88,4.28,2.03.25.03.51.04.76.04,1.85,0,3.73-.7,5-2.08.99-1.05,1.49-2.5,1.51-3.94.43-.37.77-.86.88-1.42.3.41.69.76,1.16.96.19.07.21.3.3.45.55,1.34,1.58,2.5,2.91,3.11.94.45,1.98.67,3.03.67,2.39,0,4.8-1.14,6.1-3.19.38-.6.67-1.27.82-1.97.04-.12.04-.29.19-.34h.02c.35-.21.7-.44,1.01-.7M37.75,13.1l-.25.21c-.26.22-.57.43-.94.64-.3.12-.36.4-.39.53v.05c-.16.67-.42,1.29-.79,1.88-1.18,1.85-3.39,3-5.77,3-1.01,0-1.99-.22-2.85-.63-1.19-.55-2.18-1.6-2.71-2.9v-.03s-.03-.03-.03-.03c-.02-.03-.03-.06-.04-.09-.06-.16-.16-.42-.46-.53-.35-.15-.69-.44-.98-.82l-.54-.74-.18.9c-.08.43-.35.85-.75,1.19l-.14.12v.18c-.02,1.41-.53,2.75-1.4,3.67-1.14,1.24-2.85,1.95-4.71,1.95-.24,0-.48-.01-.72-.04-1.51-.14-2.98-.84-4.04-1.91l-.16-.16-.22.05c-.49.11-.91.17-1.29.17-.4,0-.75-.06-1.07-.18l-1.18-.45.7,1.05c.77,1.16,1.7,2.1,2.76,2.8,1.55,1.04,3.46,1.62,5.37,1.62,1.6,0,3.15-.4,4.47-1.16,1.58-.9,2.85-2.33,3.56-4.04,0,0,0,0,0,0,.02.02.04.04.06.06,1.29,1.41,3.09,2.37,5.04,2.69.5.09,1.03.13,1.55.13,3.18,0,6.32-1.68,7.99-4.27.02-.02.05-.07.09-.13.58.9,1.3,1.7,2.1,2.33,1.67,1.33,3.8,2.07,6,2.07,1.31,0,2.61-.28,3.76-.8,1.05-.47,2.04-1.19,2.88-2.08.95,2.27,2.88,4.03,5.19,4.76.91.29,1.87.44,2.85.44,1.56,0,3.12-.38,4.5-1.1,1.44-.73,2.7-1.88,3.64-3.32l.67-1.02-1.14.43c-.32.12-.69.18-1.09.18s-.8-.05-1.28-.17l-.22-.05-.16.16c-1.18,1.23-2.92,1.94-4.77,1.94-1.56,0-3.03-.51-4.15-1.43-1.21-.98-1.94-2.53-1.94-4.15v-.19l-.14-.12c-.28-.24-.64-.63-.74-1.2l-.19-.96-.54.82c-.25.39-.64.69-1.11.88l-.16.06-.06.16c-.32.82-.68,1.42-1.12,1.91-.79.91-1.91,1.56-3.15,1.82-.48.1-.98.15-1.48.15-1.57,0-3.1-.5-4.31-1.42-1.16-.85-2.01-2.2-2.32-3.71l-.04-.19-.17-.09c-.33-.17-.67-.39-1.03-.69l-.26-.21h0Z"/>
    </g>
    <g>
      <path class="cls-3" d="M39.45,7.3c-.12-.08-.25-.15-.38-.23-.14-.08-.28-.16-.41-.25l-.11-.07v.03s-.77-.06-.77-.06c0,0-.01-.37-.02-.47,0,.1-.02.47-.02.47h-.18c-.15.02-.28.03-.42.05l-.16.02-.02-.06.02.08-.16.06c-.25.1-.51.24-.74.41l-.19.13-.11-.21c-.5-.97-1.52-1.55-2.45-1.99l-.23-.11.17-.2c.25-.3.59-.38.91-.44-.03-.06-.06-.11-.1-.17-.07-.11-.15-.24-.19-.4-.07-.3-.04-.59-.01-.88l.03-.3.12-.04c.29-.11.6-.16.91-.16.41,0,.83.09,1.22.27.03-.06.04-.14.06-.24.02-.1.04-.22.09-.34l.15-.33.03.04c.29-.52.71-.95,1.13-1.35l.14-.13.14.14c.6.59,1.29,1.27,1.42,2.18,0,.02.01.05.02.07.39-.18.81-.27,1.22-.27.32,0,.63.06.91.16l.12.04.03.26c.03.28.06.58,0,.88-.03.16-.12.29-.19.4-.04.07-.08.13-.11.19.33.06.66.15.91.41l.19.2-.24.12c-.98.49-1.97,1.05-2.45,2l-.1.2-.19-.13Z"/>
      <path d="M37.78.72c.59.58,1.24,1.22,1.36,2.07.02.12.08.21.17.29.39-.21.84-.32,1.28-.32.29,0,.57.05.84.15.03.31.08.64.02.96-.06.28-.35.48-.33.79.35.06.73.12.99.39-.98.49-2.03,1.07-2.54,2.09-.25-.17-.53-.3-.78-.47.16-.68.47-1.31.65-1.99-.25.12-.36.38-.48.61-.22.41-.39.85-.54,1.29-.15-.01-.29-.03-.43-.04-.05-1.33-.09-2.66-.11-3.99-.02-.16.03-.37-.18-.4-.04,1.46-.08,2.93-.13,4.39-.15.01-.29.02-.43.04-.25-.67-.51-1.36-.96-1.93-.04.12-.03.24.02.35.21.56.43,1.12.57,1.7-.27.11-.54.26-.78.43-.52-1.01-1.55-1.61-2.54-2.08.25-.3.64-.34.99-.41,0-.3-.27-.49-.33-.77-.08-.33-.02-.66,0-.99.27-.1.56-.15.84-.15.44,0,.88.11,1.28.32.22-.19.17-.5.28-.75,0,0,.42-.82,1.26-1.58M37.78.16l-.28.27c-.35.34-1.35,1.71-1.35,1.71-.06.13-.08.26-.11.38,0,0,0,0,0,0-.35-.13-.72-.2-1.08-.2-.34,0-.67.06-.98.18l-.23.09-.02.25-.02.17c-.03.29-.07.61.02.95.03.15.1.28.17.38-.26.07-.53.19-.75.45l-.33.4.47.22c.9.43,1.89.99,2.36,1.9l.21.41.38-.27c.22-.16.46-.29.7-.39l.21-.08h.07c.13-.03.26-.04.4-.05h.19s.18,0,.18,0c.06,0,.12.01.19.02.08,0,.16.02.24.02h.16s.02.02.02.02c.13.09.28.17.42.25.12.07.25.14.36.22l.38.26.2-.41c.45-.9,1.41-1.44,2.36-1.91l.49-.24-.38-.39c-.22-.22-.48-.34-.74-.41.07-.11.15-.24.18-.41.06-.34.03-.67,0-.95v-.13s-.04-.25-.04-.25l-.23-.09c-.31-.12-.64-.18-.98-.18-.36,0-.73.07-1.08.2-.19-.89-.85-1.54-1.44-2.12l-.28-.27h0Z"/>
    </g>
    <g>
      <path class="cls-3" d="M32.51,13.08h-.22s.03-.23.03-.23c.03-.22.09-.44.14-.66.04-.15.08-.3.11-.45-.1-.04-.2-.07-.3-.11-.41-.15-.84-.3-1.22-.55-.39-.22-.65-.56-.91-.9-.14-.18-.28-.37-.45-.53l-.16-.15.17-.14c.19-.16.33-.35.49-.56.21-.28.44-.56.76-.77.43-.31.93-.48,1.42-.65l.17-.06c.03-.1-.02-.24-.09-.43-.05-.13-.1-.26-.12-.4l-.02-.17.17-.05c.33-.09.6-.14.85-.14s.5.05.71.15c.63.29,1.18.72,1.65,1.11l.15.12-.11.15c-.23.31-.4.64-.51.97l-.04.13-.08.8h-.04s.05,0,.05,0l.03.15c.08.36.2.69.35.97l.07.12.09.09c.06.06.12.13.18.2l.22.25-.15.13c-.89.77-1.94,1.59-3.21,1.59-.06,0-.12,0-.18,0Z"/>
      <path d="M33.34,6.33c.21,0,.42.04.62.13.59.27,1.11.67,1.61,1.08-.23.31-.42.66-.54,1.03-.29-.13-.58-.29-.88-.4.17.32.53.46.82.65-.02.19-.03.37-.05.56-1.04.06-2.09.04-3.13.13-.03.03-.1.1-.13.13,1.1.05,2.19.1,3.29.13.08.35.2.7.37,1.02-.28.2-.7.26-.85.59.35-.09.7-.21,1.04-.33.09.09.17.19.26.29-.87.75-1.87,1.55-3.08,1.55-.06,0-.11,0-.17,0,.06-.41.2-.8.27-1.21l-.07-.09c-.52-.2-1.08-.35-1.55-.67-.58-.33-.87-.95-1.33-1.4.46-.39.71-.98,1.23-1.31.49-.35,1.07-.52,1.63-.72.2-.31-.11-.68-.16-1.02.26-.07.53-.13.79-.13M32.55,6.45s0,0,0,0c0,0,0,0,0,0h0M33.34,5.93c-.27,0-.56.05-.9.14l-.33.09.05.34c.02.16.08.32.13.45.02.06.06.15.08.22h-.04c-.5.19-1.02.37-1.48.7-.33.21-.57.51-.79.8-.15.2-.3.38-.46.53l-.33.28.31.31c.15.15.28.32.43.5.27.35.55.71.98.96.37.25.81.41,1.23.56.05.02.09.03.14.05-.02.09-.04.18-.07.27-.06.22-.11.45-.15.68l-.06.43.43.03c.07,0,.13,0,.2,0,1.34,0,2.42-.85,3.34-1.64l.31-.27-.27-.3-.09-.1c-.06-.07-.12-.14-.19-.21l-.07-.07-.05-.1c-.14-.27-.26-.58-.33-.92l-.03-.15v-.11c.02-.1.03-.19.04-.29,0-.09.01-.18.02-.27v-.05s.04-.11.04-.11c.1-.31.27-.63.48-.92l.23-.31-.29-.24c-.48-.39-1.04-.83-1.7-1.13-.23-.11-.5-.17-.79-.17h0Z"/>
    </g>
    <path class="cls-3" d="M42.82,13.08c-1.27,0-2.32-.82-3.21-1.59l-.15-.13.12-.15c.06-.08.12-.15.19-.22l.17-.18.05-.11c.17-.35.28-.66.35-.98l.04-.15s.16,0,.17,0h-.18s-.05-.8-.05-.8l-.05-.15c-.1-.32-.27-.65-.51-.98l-.11-.15.14-.12c.48-.39,1-.79,1.6-1.08l.08-.05c.2-.09.42-.14.68-.14.29,0,.58.06.85.12l.16.04v.16c-.01.17-.07.32-.12.47-.07.18-.11.31-.09.41l.14.05c.47.17.96.34,1.4.64.35.21.59.52.82.81.16.2.31.39.49.55l.17.15-.16.15c-.18.16-.33.35-.47.55-.25.32-.5.65-.88.86-.38.26-.82.42-1.24.57l-.27.1c.03.13.06.25.09.38.06.24.12.49.16.74l.03.21h-.22c-.06.02-.12.02-.18.02Z"/>
    <path d="M42.16,6.3c.27,0,.54.06.8.12-.01.35-.35.74-.15,1.05.53.19,1.09.36,1.57.69.55.33.82.93,1.29,1.35-.47.43-.75,1.06-1.32,1.38-.48.33-1.03.48-1.56.68l-.07.1c.08.4.21.8.27,1.21-.06,0-.11,0-.17,0-1.2,0-2.21-.79-3.08-1.55.08-.1.17-.19.26-.29.34.13.69.26,1.05.32-.21-.3-.58-.38-.87-.58.16-.33.29-.67.37-1.02,1.1-.03,2.19-.08,3.29-.13-.07-.11-.17-.16-.3-.16-.99-.04-1.98-.06-2.97-.11-.01-.19-.03-.37-.04-.56.3-.18.63-.34.83-.64-.31.09-.6.26-.89.39-.12-.38-.31-.72-.54-1.04.5-.41,1.03-.81,1.62-1.08v-.02c.2-.09.4-.12.61-.12M42.16,5.9c-.28,0-.53.05-.76.15l-.13.06v.02c-.6.29-1.12.69-1.59,1.07l-.29.24.22.3c.23.32.39.62.48.93l.04.13v.02c0,.1.01.2.02.29,0,.09.01.18.02.27v.2s-.01.09-.01.09c-.07.3-.18.6-.34.93l-.04.08-.08.09-.08.09c-.07.07-.13.14-.19.22l-.24.3.29.25c.92.8,2,1.64,3.34,1.64.07,0,.13,0,.2,0l.43-.03-.06-.43c-.04-.26-.1-.51-.16-.76-.02-.07-.03-.14-.05-.21.03-.01.07-.02.1-.04.44-.15.89-.31,1.3-.6.39-.21.65-.56.91-.89.15-.19.29-.37.45-.52l.33-.3-.33-.29c-.17-.15-.31-.33-.46-.52-.25-.31-.5-.64-.89-.87-.44-.3-.94-.48-1.42-.65h0c.02-.06.05-.14.07-.2.06-.16.13-.34.13-.54v-.32s-.31-.08-.31-.08c-.28-.07-.58-.13-.9-.13h0Z"/>
    <path class="cls-3" d="M40.41,8.84c-.19-1.25-1.36-2.23-2.67-2.23-.23,0-.45.03-.68.1-.8.2-1.49.8-1.8,1.56-.4.92-.23,2.04.41,2.78.05.06.11.12.16.18.05.05.1.09.15.13.27.24.59.42.93.53t.02.01c.27.08.55.13.84.13.2,0,.41-.03.6-.07.07-.02.14-.03.21-.06.02,0,.04-.01.05-.01.34-.11.64-.3.9-.53.05-.04.1-.09.14-.14.61-.62.92-1.52.74-2.38ZM39.5,11.11c-.32.32-.73.55-1.18.65-.18.04-.37.07-.55.07-.67,0-1.34-.28-1.8-.76h-.01s-.1-.1-.14-.15c-.6-.69-.74-1.73-.38-2.57.29-.71.93-1.26,1.67-1.45h.01c.21-.06.42-.09.62-.09,1.17,0,2.3.88,2.47,2.06.17.82-.13,1.67-.71,2.24Z"/>
    <path d="M40.61,8.79c-.2-1.32-1.46-2.38-2.87-2.38-.23,0-.46.03-.68.09h-.04c-.87.23-1.61.88-1.95,1.7-.42.99-.24,2.19.45,2.98.06.07.12.14.19.2.05.05.1.1.15.13.05.05.1.09.15.13.19.14.4.26.62.35.12.06.25.1.38.13.24.07.5.11.76.11.22,0,.44-.03.65-.08.02-.01.05-.01.07-.02.07-.01.14-.03.21-.06.06-.02.13-.04.19-.07.21-.09.41-.21.6-.36.06-.03.11-.08.16-.13.05-.04.1-.08.15-.13.14-.14.27-.3.38-.47.42-.64.58-1.42.43-2.12ZM39.5,11.11c-.32.32-.73.55-1.18.65-.18.04-.37.07-.55.07-.67,0-1.34-.28-1.8-.76h-.01s-.1-.1-.14-.15c-.6-.69-.74-1.73-.38-2.57.29-.71.93-1.26,1.67-1.45h.01c.21-.06.42-.09.62-.09,1.17,0,2.3.88,2.47,2.06.17.82-.13,1.67-.71,2.24Z"/>
    <path class="cls-3" d="M39.5,11.11c-.32.32-.73.55-1.18.65-.18.04-.37.07-.55.07-.67,0-1.34-.28-1.8-.76h-.01s-.1-.1-.14-.15c-.6-.69-.74-1.73-.38-2.57.29-.71.93-1.26,1.67-1.45h.01c.21-.06.42-.09.62-.09,1.17,0,2.3.88,2.47,2.06.17.82-.13,1.67-.71,2.24Z"/>
    <g>
      <path class="cls-3" d="M8.44,19.98c-.59,0-1.1-.14-1.54-.41-.53-.26-1-.62-1.37-1.06l-.79-.94,1.02.62c-.4-.39-.75-.82-1.09-1.3l-.3-.42.5.11c.31.07.64.12.98.14-.13-.04-.72-.21-.89-.25l-.5-.13.46-.24c.32-.17.64-.33.96-.49-.22.08-.43.17-.65.24l-.84.3.63-.63c.05-.05.11-.11.16-.16-.23.17-.46.33-.7.48l-.2.13-.09-.22c-.26-.65-.44-1.32-.57-1.99.02.2.05.42.08.64l.14,1.02-.51-.9c-.32-.56-.64-1.18-.76-1.85-.08-.37-.14-.76-.19-1.14-.13-.86-.26-1.75-.65-2.55-.19-.44-.47-.82-.77-1.22l-.4-.54.3-.07c.14-.03.29-.05.44-.05.87,0,1.65.57,2.31,1.1.15.1.26.26.35.41.08.13.14.22.22.27.39-.51.96-.81,1.57-.82h.11s.06.09.06.09c.3.44.63,1.02.51,1.64.08.02.17.03.26.04.21.03.45.05.66.22l.17.14-.15.16c-.54.56-1.08,1.18-1.31,1.92-.09.27-.15.63-.03.92.32-.3.56-.67.82-1.06.18-.27.35-.54.56-.78.29-.33.71-.45,1.05-.54l.2-.05.05.2c.03.15.06.3.08.46.03.2.07.4.12.59l.11-.06s.08,0,.12,0h.21c.73,0,1.34.16,1.8.48.28.2.58.38.88.54l.15.08-.05.16c-.09.29-.13.6-.18.9l-.04.25c-.15.74-.66,1.3-1.13,1.79.06.09.12.17.18.26.17.24.34.47.49.73l.12.2-.21.09c-.25.1-.62.24-1.02.24-.09,0-.19,0-.28-.02l-.53-.08c-.55-.09-1.12-.18-1.68-.21l.11.05c.94.59,1.69,1.23,2.3,1.95l.19.22-.27.1c-.61.21-1.18.32-1.7.32Z"/>
      <path d="M1.29,7.31c.82,0,1.56.55,2.18,1.05.31.2.37.69.76.77.33-.51.88-.86,1.5-.87.33.48.63,1.06.44,1.65.32.18.73.06,1.03.3-.56.58-1.11,1.22-1.36,2-.13.41-.19.93.12,1.28.67-.54,1.03-1.36,1.57-2.02.24-.28.61-.38.95-.47.08.35.11.72.21,1.06.05.07.12.09.21.09.07,0,.14-.01.21-.01.02,0,.04,0,.05,0,.05,0,.11,0,.16,0,.58,0,1.19.1,1.69.44.29.2.59.39.9.55-.12.39-.16.79-.22,1.18-.15.73-.69,1.28-1.19,1.8.25.37.53.72.76,1.11-.3.12-.62.22-.94.22-.08,0-.16,0-.25-.02-.75-.11-1.49-.25-2.24-.29-.23.06-.21.33-.01.42.84.53,1.61,1.15,2.25,1.91-.51.18-1.08.31-1.63.31-.5,0-1-.11-1.44-.38-.51-.25-.96-.59-1.32-1.02.31.19.62.41.99.45-.17-.27-.43-.46-.66-.67-.44-.42-.83-.88-1.18-1.38.49.11.99.16,1.49.16.27,0,.54-.01.81-.04-.12-.17-.34-.17-.52-.21-.54-.09-1.06-.27-1.59-.41.98-.51,1.97-.98,2.95-1.46.15-.08.32-.16.4-.32-1.09.3-2.13.79-3.2,1.17.36-.36.68-.76.89-1.23.07-.12.07-.25.02-.37-.38.71-1.04,1.19-1.7,1.61-.45-1.11-.65-2.3-.8-3.48-.04-.15,0-.37-.2-.42-.07.88,0,1.77.12,2.65-.32-.56-.62-1.15-.74-1.79-.26-1.25-.29-2.57-.86-3.74-.25-.57-.64-1.04-1.01-1.54.13-.03.26-.04.39-.04M.88,7.33s.01.02.02.03c0,0,0,0,0,0l-.02-.03M1.29,6.91h0c-.16,0-.32.02-.48.05l-.6.13.33.46v.02s.02,0,.02,0h.01c.07.11.15.21.22.31.29.39.57.76.75,1.17.38.78.51,1.62.64,2.51.06.39.12.78.2,1.16.13.7.45,1.33.78,1.91l.89,1.56-.14-.03.08.12-.36.36.49-.17.38.54c.08.11.16.22.24.33l-.94-.57,1.57,1.88c.39.46.88.84,1.45,1.12.43.27.99.42,1.61.42.54,0,1.14-.11,1.77-.33l.55-.19-.37-.44c-.49-.58-1.06-1.1-1.75-1.59.28.04.56.08.85.13.18.03.36.06.54.08.1.02.2.02.31.02.43,0,.83-.14,1.09-.25l.43-.17-.24-.4c-.16-.27-.33-.51-.5-.75-.03-.04-.06-.08-.09-.12.47-.5.92-1.04,1.07-1.76l.04-.27c.04-.31.08-.6.17-.87l.1-.32-.3-.15c-.26-.14-.53-.3-.86-.52-.5-.34-1.14-.51-1.91-.51-.05,0-.1,0-.15,0-.02,0-.04,0-.07,0-.03,0-.06,0-.09,0-.02-.12-.04-.24-.07-.36-.03-.16-.05-.31-.09-.47l-.09-.4-.4.11c-.37.1-.83.22-1.15.6-.22.26-.4.54-.57.81-.17.26-.33.5-.51.73.01-.15.05-.3.08-.41.22-.7.74-1.3,1.27-1.84l.3-.32-.34-.27c-.25-.2-.53-.24-.76-.26-.02,0-.04,0-.06,0,.04-.63-.29-1.19-.57-1.59l-.12-.18h-.21c-.59.01-1.15.27-1.57.72-.01-.02-.03-.05-.05-.07-.1-.15-.22-.35-.42-.48-.65-.53-1.46-1.12-2.4-1.12h0Z"/>
    </g>
    <g>
      <path class="cls-3" d="M67.07,19.93c-.54,0-1.11-.1-1.69-.31l-.27-.1.19-.22c.59-.7,1.28-1.29,2.03-1.77.11-.07.21-.14.3-.22h0c-.54.03-1.09.12-1.62.2l-.51.08c-.1.02-.2.02-.3.02-.33,0-.68-.09-1.02-.25l-.2-.1.12-.19c.15-.23.3-.45.46-.67.07-.1.14-.2.21-.3-.45-.46-.96-1.02-1.12-1.74l-.06-.35c-.04-.29-.09-.57-.17-.85l-.05-.17.16-.07c.22-.1.42-.23.62-.37.35-.23.72-.47,1.18-.55.29-.08.6-.08.9-.09.15,0,.29,0,.44-.01.05-.16.08-.34.11-.53.02-.15.05-.3.08-.45l.05-.2.2.06c.39.11.83.23,1.11.6.16.22.31.44.46.66.29.42.56.83.89,1.18-.03-.04.01-.16.01-.24.07-1.02-.62-1.84-1.4-2.67l-.15-.16.17-.13c.21-.16.45-.19.66-.21.09-.01.18-.02.26-.04-.11-.62.21-1.2.51-1.64l.06-.09h.11c.62.04,1.14.3,1.46.74.04.07.11.11.13.12.44-.81,1.23-1.27,2-1.65l.09-.04h.02c.19-.07.4-.11.65-.11.17,0,.34.02.51.04l.32.04-.19.27c-.1.14-.2.27-.3.41-.21.28-.41.54-.56.84-.51.9-.66,1.93-.81,2.93-.05.36-.11.73-.18,1.08-.13.69-.46,1.31-.75,1.82l-.51.87.14-1c.03-.21.05-.42.07-.62-.13.67-.3,1.34-.57,1.98l-.09.22-.2-.13c-.22-.14-.44-.29-.65-.44.04.04.82.78.82.78l-.91-.33c-.22-.08-.45-.17-.67-.25.33.16.65.32.97.49l.46.24-.5.13s-.71.2-.83.23c.32-.02.62-.07.92-.13l.49-.1-.29.41c-.32.47-.68.89-1.06,1.27l.96-.56-.76.89c-.49.58-1.17,1.03-2.01,1.36-.31.08-.61.11-.92.11Z"/>
      <path d="M74.16,7.3c.16,0,.33.02.49.04-.29.42-.64.81-.87,1.27-.7,1.24-.74,2.69-1.01,4.06-.12.63-.41,1.21-.73,1.76.12-.87.17-1.76.12-2.64-.04.03-.11.1-.15.13-.19,1.27-.35,2.57-.85,3.76-.66-.42-1.32-.9-1.7-1.6-.11.15,0,.3.06.44.21.43.51.81.86,1.14-1.07-.39-2.11-.87-3.21-1.18.07.17.25.24.4.32.99.49,1.98.96,2.95,1.46-.53.14-1.04.31-1.58.4-.19.05-.41.03-.53.21.25.02.51.04.76.04.51,0,1.03-.05,1.53-.16-.4.58-.87,1.12-1.41,1.58-.16.14-.31.28-.42.46.37-.05.68-.28.99-.46-.51.6-1.2,1.02-1.93,1.3-.28.07-.57.1-.85.1-.55,0-1.1-.12-1.62-.3.57-.67,1.24-1.26,1.98-1.73.18-.11.34-.24.48-.4-.05-.05-.17-.15-.22-.2-.75.04-1.49.18-2.23.29-.09.02-.18.02-.27.02-.33,0-.65-.09-.94-.23.24-.38.51-.73.76-1.1-.49-.5-1.02-1.05-1.18-1.76-.07-.4-.11-.82-.23-1.21.6-.27,1.08-.79,1.75-.9.47-.13.97-.05,1.45-.11.14-.35.15-.74.24-1.11.36.1.76.21,1,.53.46.62.84,1.3,1.37,1.86.04.03.08.04.11.04.16,0,.25-.28.25-.42.08-1.12-.73-2.04-1.45-2.81.3-.23.71-.12,1.03-.29-.19-.59.11-1.17.44-1.65.5.03,1,.23,1.31.65.06.1.18.2.29.2.07,0,.13-.04.16-.14.43-.73,1.19-1.17,1.93-1.53h.02c.2-.09.43-.13.65-.13M74.16,6.9c-.24,0-.45.03-.64.1h-.01s-.2.07-.2.07c-.74.36-1.48.79-1.97,1.48-.36-.41-.9-.67-1.52-.7h-.23s-.13.17-.13.17c-.27.4-.6.96-.57,1.59-.02,0-.04,0-.06,0-.22.03-.5.06-.76.25l-.35.27.3.32c.68.72,1.28,1.44,1.34,2.26-.19-.24-.36-.5-.55-.77-.15-.22-.3-.45-.46-.67-.32-.43-.81-.57-1.21-.68l-.4-.11-.1.4c-.04.15-.06.3-.09.46-.02.13-.04.25-.07.37-.09,0-.19,0-.28,0-.31,0-.64,0-.97.1-.46.07-.86.34-1.21.57-.2.13-.4.26-.59.35l-.32.14.1.34c.08.25.12.52.16.81.02.12.04.23.06.35.16.72.62,1.28,1.06,1.73-.04.05-.08.11-.12.16-.16.22-.32.45-.47.68l-.24.38.4.2c.37.18.75.27,1.11.27.11,0,.23,0,.34-.03l.5-.08c.28-.04.57-.09.86-.13-.64.45-1.23.98-1.75,1.59l-.37.44.54.2c.6.21,1.19.32,1.75.32.33,0,.65-.04.95-.11h.02s.02-.02.02-.02c.88-.34,1.58-.81,2.09-1.41l1.51-1.77-.91.53c.09-.12.18-.24.26-.37l.36-.52.68.25-.51-.48.05-.07-.1.02h0s.89-1.54.89-1.54c.31-.53.64-1.17.78-1.89.07-.36.13-.72.18-1.09.15-1.02.3-1.99.78-2.85.15-.3.34-.55.55-.82.1-.14.21-.27.3-.42l.37-.54-.65-.09c-.16-.02-.34-.04-.54-.04h0Z"/>
    </g>
    <g>
      <path class="cls-2" d="M54.11,12.12c-.17,0-.35-.02-.51-.06-.98-.22-1.73-1.18-1.7-2.18-.01-.97.7-1.88,1.66-2.12.17-.05.35-.07.54-.07.76,0,1.5.41,1.89,1.04.47.74.44,1.75-.08,2.46-.4.57-1.09.93-1.8.93h0Z"/>
      <path d="M54.1,7.88c.68,0,1.36.36,1.72.95.43.67.4,1.6-.07,2.24-.37.53-1,.85-1.64.85-.16,0-.31-.02-.46-.06-.89-.2-1.58-1.06-1.55-1.98,0-.89.65-1.72,1.51-1.93.16-.05.33-.07.49-.07M54.1,7.48c-.21,0-.41.03-.6.08-1.03.25-1.81,1.25-1.8,2.32-.04,1.08.78,2.12,1.86,2.37.17.04.36.07.55.07.77,0,1.53-.39,1.96-1.02.56-.77.6-1.87.08-2.68-.42-.68-1.23-1.13-2.05-1.13h0Z"/>
    </g>
    <g>
      <path class="cls-2" d="M51.22,15.57c-.12,0-.24-.01-.36-.03-1.07-.15-1.91-1.14-1.87-2.22-.02-.96.7-1.88,1.67-2.12.17-.04.35-.07.53-.07.81,0,1.57.45,1.94,1.14.37.63.38,1.46.02,2.12-.38.71-1.14,1.17-1.94,1.17h0Z"/>
      <path d="M51.2,11.34c.72,0,1.42.4,1.77,1.03.34.58.34,1.34.02,1.93-.34.64-1.04,1.07-1.77,1.07-.11,0-.22,0-.32-.03-.96-.13-1.74-1.04-1.7-2.01-.02-.9.66-1.72,1.52-1.93.16-.04.32-.06.48-.06M51.2,10.94c-.2,0-.4.03-.59.08-1.06.26-1.84,1.26-1.82,2.33-.05,1.15.87,2.24,2.05,2.4.11.02.24.03.38.03.88,0,1.71-.5,2.12-1.28.39-.71.38-1.63-.03-2.32-.4-.74-1.23-1.23-2.11-1.23h0Z"/>
    </g>
    <path class="cls-3" d="M40.88,14.38v.22h-.21c-1.03-.06-2.01-.47-2.77-1.17-.09-.07-.15-.12-.17-.13-.8.79-1.83,1.25-2.88,1.3h-.21s0-.21,0-.21c.04-.94.45-1.92,1.22-2.88.05.05.1.09.15.13.19.14.4.26.62.35.12.06.25.1.38.13.24.07.5.11.76.11.22,0,.44-.03.65-.08.02-.01.05-.01.07-.02.07-.01.14-.03.21-.06.06-.02.13-.04.19-.07.21-.09.41-.21.6-.36.06-.03.11-.08.16-.13.76.96,1.18,1.93,1.23,2.87Z"/>
    <path d="M36.63,11.99c-.17.36-.38.7-.57,1.05.46-.09.68-.57.95-.92-.13-.03-.26-.07-.38-.13ZM38.89,12c-.06.03-.13.05-.19.07-.07.03-.14.05-.21.06.27.36.51.75.93.96-.12-.39-.36-.72-.53-1.09ZM41.07,14.37c-.04-.99-.47-1.99-1.27-2.99-.05.05-.1.09-.15.13-.05.05-.1.1-.16.13.63.79,1.13,1.72,1.18,2.75-.98-.05-1.92-.45-2.64-1.11-.08-.06-.19-.18-.29-.18-.04,0-.08.02-.13.07-.75.71-1.73,1.18-2.77,1.23h0c.04-1.04.54-1.97,1.17-2.76-.05-.04-.1-.08-.15-.13-.05-.03-.1-.08-.15-.13-.8,1-1.23,2-1.27,2.99v.44s.42-.01.42-.01c1.05-.05,2.07-.48,2.9-1.22.01,0,.02.01.03.02.77.7,1.8,1.13,2.86,1.19l.45.02-.03-.44ZM39.42,13.09c-.12-.39-.36-.72-.53-1.09-.06.03-.13.05-.19.07-.07.03-.14.05-.21.06.27.36.51.75.93.96ZM37.01,12.12c-.13-.03-.26-.07-.38-.13-.17.36-.38.7-.57,1.05.46-.09.68-.57.95-.92ZM38.89,12c-.06.03-.13.05-.19.07-.07.03-.14.05-.21.06.27.36.51.75.93.96-.12-.39-.36-.72-.53-1.09ZM36.63,11.99c-.17.36-.38.7-.57,1.05.46-.09.68-.57.95-.92-.13-.03-.26-.07-.38-.13Z"/>
    <g>
      <path class="cls-2" d="M55.66,16.34c-.43,0-.84-.12-1.19-.34-.71-.44-1.13-1.33-1.01-2.17.1-.76.62-1.43,1.33-1.74h-.01s.33-.12.33-.12c.17-.05.35-.07.53-.07.98,0,1.9.7,2.15,1.62.25.86-.08,1.84-.81,2.37-.36.28-.83.44-1.32.44h0Z"/>
      <path d="M55.64,12.1c.87,0,1.73.61,1.95,1.47.23.78-.07,1.68-.73,2.16-.34.27-.77.4-1.2.4-.38,0-.76-.1-1.08-.31-.65-.4-1.03-1.21-.92-1.97.1-.8.73-1.49,1.51-1.68h-.01c.16-.05.32-.07.48-.07M55.64,11.7c-.2,0-.39.03-.58.08l-.66.18.07.07c-.64.37-1.11,1.03-1.2,1.77-.13.9.32,1.88,1.11,2.36.37.24.82.37,1.29.37.54,0,1.05-.17,1.45-.48.79-.57,1.15-1.64.87-2.59-.26-1-1.27-1.76-2.34-1.76h0Z"/>
    </g>
    <g>
      <g>
        <path class="cls-2" d="M21.4,12.12c-.71,0-1.4-.36-1.8-.93-.52-.71-.55-1.72-.07-2.46.39-.63,1.13-1.04,1.89-1.04.19,0,.37.03.55.07.95.23,1.67,1.15,1.66,2.12.03.99-.72,1.95-1.71,2.17-.16.04-.33.06-.51.06Z"/>
        <path d="M22,7.56c-.18-.05-.38-.08-.59-.08-.82,0-1.63.45-2.06,1.14-.51.8-.48,1.91.09,2.69.1.15.22.28.36.4.09.08.18.15.29.22.29.19.63.32.98.36.11.02.22.03.33.03h.02c.18,0,.37-.03.54-.07.08-.02.16-.04.23-.07.12-.03.23-.08.33-.15h.01c.29-.15.55-.37.75-.63.08-.1.15-.2.22-.31h0c.21-.38.33-.8.31-1.22.02-1.05-.76-2.05-1.81-2.31ZM21.86,11.86c-.15.04-.3.06-.46.06-.64,0-1.27-.32-1.64-.85-.47-.64-.5-1.57-.07-2.24.37-.59,1.04-.95,1.72-.95.17,0,.33.02.49.07.86.21,1.52,1.04,1.51,1.93.03.92-.66,1.78-1.55,1.98Z"/>
      </g>
      <g>
        <path class="cls-2" d="M24.3,15.57c-.8,0-1.57-.46-1.94-1.18-.36-.66-.35-1.49.02-2.12.37-.69,1.13-1.13,1.94-1.13.18,0,.36.02.53.07.97.24,1.69,1.15,1.67,2.13.04,1.06-.8,2.06-1.87,2.2-.11.02-.23.03-.35.03h0Z"/>
        <path d="M24.89,11.01c-.18-.05-.38-.07-.58-.07-.28,0-.56.05-.81.14h0c-.12.04-.23.09-.34.15-.3.16-.57.38-.77.65-.08.09-.14.19-.2.3-.13.23-.22.47-.26.73-.03.12-.05.24-.05.36,0,.33.05.66.17.97.04.09.08.17.12.25.01.02.03.05.04.07.42.74,1.23,1.21,2.08,1.21.13,0,.27-.01.4-.04,1.15-.15,2.07-1.24,2.02-2.42.03-1.04-.76-2.04-1.82-2.3ZM24.29,15.37c-.72,0-1.43-.43-1.77-1.07-.32-.59-.32-1.35.02-1.93.35-.64,1.05-1.03,1.77-1.03.16,0,.33.02.48.06.86.21,1.54,1.03,1.52,1.93.04.97-.74,1.88-1.7,2.01-.1.02-.21.03-.32.03Z"/>
      </g>
      <g>
        <path class="cls-2" d="M19.85,16.34c-.49,0-.96-.16-1.33-.44-.72-.53-1.06-1.5-.8-2.37.24-.92,1.17-1.62,2.15-1.62.18,0,.36.02.53.07l.32.09-.02.02c.71.3,1.25.98,1.35,1.75.12.83-.3,1.72-1.01,2.17-.34.22-.75.34-1.18.34h0Z"/>
        <path d="M22.24,13.8c-.02-.18-.07-.36-.14-.53h0c-.05-.13-.11-.25-.17-.36-.14-.22-.31-.43-.51-.59-.09-.08-.18-.15-.28-.22h0s-.06-.04-.09-.06l.06-.06-.65-.2c-.1-.02-.19-.04-.29-.05-.09-.01-.19-.02-.29-.02h-.07c-1.04.03-2.02.78-2.27,1.77-.28.94.08,2,.88,2.58.39.31.9.48,1.44.48.47,0,.91-.13,1.29-.37.56-.34.95-.95,1.07-1.61.03-.12.05-.24.05-.37.01-.13,0-.26-.02-.39ZM19.85,16.14c-.43,0-.87-.13-1.21-.4-.66-.48-.96-1.38-.73-2.16.23-.86,1.09-1.47,1.96-1.47.16,0,.32.02.47.06h-.01c.78.2,1.41.89,1.51,1.69.11.76-.27,1.57-.92,1.97-.31.21-.69.31-1.07.31Z"/>
        <path class="cls-3" d="M22.19,12.18c-.13.23-.22.47-.26.73-.14-.22-.31-.43-.51-.59.18,0,.37-.03.54-.07.08-.02.16-.04.23-.07Z"/>
      </g>
    </g>
    <g>
      <path class="cls-3" d="M53.4,12.9c-.06-.2-.12-.4-.21-.59l-.17-.37.4.1c.2.05.41.09.61.11l.41.04-.28.3c-.14.15-.28.32-.4.49l-.24.33-.11-.4Z"/>
      <path d="M53.38,12.23c.21.05.43.09.64.11-.15.16-.29.33-.42.51-.06-.21-.13-.42-.22-.62M52.68,11.65l.33.74c.07.16.14.34.2.57l.23.79.48-.67c.12-.17.25-.32.39-.47l.56-.59-.81-.08c-.18-.02-.38-.05-.59-.1l-.79-.19h0Z"/>
    </g>
    <g>
      <path class="cls-3" d="M15.01,24.4c-1.88,0-3.75-.56-5.27-1.58-1.04-.68-1.95-1.6-2.71-2.75l-.34-.52.58.23c.34.13.72.2,1.15.2.4,0,.83-.06,1.34-.18l.11-.03.08.08c1.09,1.11,2.6,1.83,4.16,1.97.25.03.5.04.75.04,1.91,0,3.67-.73,4.85-2.02.91-.96,1.44-2.35,1.46-3.81v-.09s.07-.06.07-.06c.43-.36.72-.82.81-1.3l.09-.45.27.37c.3.41.68.72,1.08.89.21.06.29.26.34.41.02.04.03.09.05.13.56,1.36,1.58,2.46,2.82,3.03.89.42,1.9.65,2.93.65,2.45,0,4.73-1.19,5.94-3.09.37-.59.64-1.23.79-1.91.05-.21.1-.41.32-.48.36-.21.69-.44.96-.66l.13-.11.13.11c.37.31.71.54,1.07.71l.09.04.02.1c.32,1.55,1.19,2.94,2.39,3.83,1.25.94,2.83,1.46,4.44,1.46.51,0,1.02-.05,1.51-.16,1.29-.27,2.44-.93,3.26-1.88.46-.51.85-1.18,1.16-1.97l.03-.08.08-.03c.49-.2.9-.53,1.2-.96l.27-.39.09.46c.1.49.38.95.81,1.32l.07.06v.09c0,1.68.75,3.29,2,4.3,1.15.96,2.67,1.48,4.27,1.48,1.9,0,3.7-.73,4.92-2.01l.08-.08.11.03c.49.12.92.17,1.33.17.42,0,.81-.07,1.16-.19l.58-.22-.34.51c-.93,1.4-2.16,2.53-3.56,3.25-1.35.71-2.87,1.08-4.4,1.08-.96,0-1.9-.15-2.79-.44-2.3-.71-4.21-2.47-5.09-4.72-.04-.12-.1-.21-.13-.22-.88,1.03-1.9,1.79-2.99,2.27-1.13.52-2.37.78-3.67.78-2.15,0-4.24-.72-5.87-2.03-.86-.67-1.6-1.52-2.21-2.53-.05.04-.1.11-.18.23-.03.05-.06.1-.09.15-1.63,2.53-4.7,4.17-7.82,4.17-.51,0-1.03-.04-1.52-.13-1.9-.31-3.65-1.25-4.94-2.65l-.08-.09c-.05-.06-.1-.11-.15-.15-.03.04-.05.09-.08.16l-.06.13c-.69,1.66-1.92,3.06-3.47,3.93-1.29.73-2.8,1.12-4.36,1.12Z"/>
      <path d="M37.78,13.61c.34.29.71.55,1.11.74.32,1.55,1.18,3,2.47,3.95,1.3.98,2.93,1.5,4.55,1.5.52,0,1.05-.05,1.56-.16,1.29-.27,2.5-.94,3.37-1.94.53-.59.91-1.3,1.19-2.03.52-.21.97-.57,1.29-1.03.11.57.44,1.06.88,1.43,0,1.7.75,3.39,2.08,4.46,1.23,1.03,2.81,1.53,4.4,1.53,1.87,0,3.75-.7,5.06-2.07.45.1.91.18,1.37.18.42,0,.83-.06,1.23-.21-.88,1.33-2.07,2.45-3.49,3.18-1.32.69-2.82,1.06-4.31,1.06-.92,0-1.85-.14-2.73-.43-2.24-.69-4.11-2.43-4.97-4.6-.04-.13-.16-.35-.3-.35-.05,0-.09.02-.14.09-.83.92-1.82,1.7-2.95,2.2-1.13.52-2.36.76-3.59.76-2.06,0-4.13-.69-5.75-1.98-.91-.71-1.66-1.61-2.24-2.6-.29,0-.39.3-.53.5-1.64,2.55-4.64,4.09-7.65,4.09-.5,0-1-.04-1.49-.13-1.84-.3-3.57-1.22-4.83-2.59-.12-.12-.23-.28-.4-.34-.18.07-.22.27-.3.43-.67,1.61-1.87,2.99-3.39,3.85-1.3.74-2.78,1.1-4.26,1.1-1.82,0-3.65-.53-5.16-1.55-1.06-.69-1.95-1.63-2.65-2.69.39.15.8.21,1.22.21.46,0,.93-.07,1.38-.18,1.13,1.15,2.67,1.88,4.28,2.03.25.03.51.04.76.04,1.85,0,3.73-.7,5-2.08.99-1.05,1.49-2.5,1.51-3.94.43-.36.77-.85.88-1.42.3.41.69.76,1.16.96.19.06.21.29.3.45.55,1.35,1.58,2.5,2.91,3.11.94.45,1.98.67,3.02.67,2.4,0,4.81-1.14,6.11-3.19.38-.6.66-1.27.82-1.97.04-.12.04-.29.19-.34h.02c.35-.21.7-.44,1.01-.7M37.78,13.08l-.26.22c-.26.22-.57.43-.94.64-.3.12-.36.4-.39.53v.05c-.17.69-.43,1.31-.79,1.88-1.18,1.85-3.39,3-5.77,3-1,0-1.99-.22-2.85-.63-1.2-.55-2.19-1.61-2.71-2.9v-.02s-.02-.02-.02-.02c-.02-.03-.03-.07-.04-.1-.06-.15-.17-.44-.49-.54-.33-.14-.68-.43-.96-.81l-.54-.74-.17.9c-.08.44-.35.86-.74,1.19l-.14.12v.18c-.02,1.41-.53,2.75-1.4,3.67-1.14,1.24-2.85,1.95-4.71,1.95-.24,0-.48-.01-.72-.04-1.51-.14-2.98-.84-4.04-1.91l-.16-.16-.22.05c-.49.11-.91.17-1.29.17-.4,0-.75-.06-1.07-.18l-1.17-.45.69,1.04c.77,1.17,1.7,2.11,2.77,2.8,1.55,1.04,3.46,1.61,5.37,1.61,1.6,0,3.15-.4,4.46-1.15,1.58-.9,2.85-2.33,3.56-4.04,0,0,0,0,0,0,.01.02.03.03.04.05,1.31,1.42,3.1,2.38,5.05,2.7.5.09,1.03.13,1.55.13,3.18,0,6.32-1.68,7.99-4.27.02-.03.05-.08.08-.13.59.92,1.3,1.7,2.1,2.33,1.67,1.33,3.8,2.07,5.99,2.07,1.33,0,2.6-.27,3.76-.8,1.03-.46,2-1.16,2.88-2.08.93,2.28,2.87,4.04,5.19,4.76.9.29,1.86.44,2.85.44,1.56,0,3.12-.38,4.5-1.1,1.43-.74,2.69-1.88,3.64-3.31l.68-1.03-1.15.43c-.32.12-.69.18-1.09.18s-.8-.05-1.28-.17l-.22-.05-.16.16c-1.19,1.24-2.93,1.94-4.77,1.94-1.56,0-3.03-.51-4.14-1.43-1.21-.98-1.94-2.53-1.94-4.15v-.19l-.14-.12c-.28-.24-.64-.63-.74-1.2l-.18-.93-.54.78c-.28.4-.66.71-1.11.89l-.16.07-.06.16c-.3.77-.67,1.41-1.11,1.91-.79.91-1.91,1.56-3.15,1.82-.48.1-.98.15-1.47.15-1.57,0-3.1-.51-4.31-1.42-1.17-.86-2.01-2.21-2.32-3.71l-.04-.19-.18-.09c-.34-.16-.67-.38-1.02-.68l-.26-.22h0Z"/>
    </g>
    <g>
      <g>
        <path class="cls-2" d="M71.42,18.3c-.06,0-.12,0-.18-.02l-.29-.04.14-.25c.31-.57.63-1.13.95-1.69l.7-1.23.19.22c.43.5.49,1.22.17,1.89-.34.7-1,1.14-1.68,1.12h0Z"/>
        <path d="M72.78,15.42c.85.99-.09,2.72-1.35,2.68-.05,0-.1,0-.15-.01.49-.9,1.01-1.78,1.5-2.67M72.71,14.72l-.28.5c-.18.32-.36.64-.54.96-.32.57-.65,1.14-.96,1.71l-.28.51.57.08c.07,0,.13.02.2.02.76.02,1.49-.46,1.87-1.24.35-.74.28-1.54-.2-2.1l-.37-.44h0Z"/>
      </g>
      <g>
        <polygon points="72.47 13.74 73.08 14.8 70.82 18.81 69.61 18.83 72.47 13.74"/>
        <polygon class="cls-3" points="72.46 14.58 72.61 14.82 70.6 18.39 70.31 18.39 72.46 14.58"/>
      </g>
    </g>
    <g>
      <g>
        <path class="cls-2" d="M4.14,18.3c.06,0,.12,0,.18-.02l.29-.04-.14-.25c-.31-.57-.63-1.13-.95-1.69l-.7-1.23-.19.22c-.43.5-.49,1.22-.17,1.89.34.7,1,1.14,1.68,1.12h0Z"/>
        <path d="M2.78,15.42c.5.89,1.01,1.77,1.5,2.67-.05,0-.1.01-.15.01-1.26.04-2.2-1.69-1.35-2.68M2.85,14.72l-.37.44c-.48.56-.55,1.36-.2,2.1.37.77,1.1,1.26,1.87,1.24.06,0,.13,0,.2-.02l.57-.08-.28-.51c-.31-.57-.64-1.14-.96-1.71-.18-.32-.36-.64-.54-.96l-.28-.5h0Z"/>
      </g>
      <g>
        <polygon points="3.09 13.74 2.48 14.8 4.74 18.81 5.96 18.83 3.09 13.74"/>
        <polygon class="cls-3" points="3.1 14.58 2.95 14.82 4.96 18.39 5.25 18.39 3.1 14.58"/>
      </g>
    </g>
    <g>
      <path class="cls-2" d="M37.77,11.1c-.08,0-.16,0-.24-.02-.48-.05-.93-.32-1.23-.75-.3-.43-.4-.93-.28-1.4.13-.62.62-1.14,1.22-1.32l.2-.04c.11-.02.22-.04.33-.04.46,0,.93.21,1.27.57.33.35.5.78.49,1.22.01.45-.16.87-.5,1.21-.34.35-.81.56-1.26.56Z"/>
      <path d="M37.77,7.75c.41,0,.82.18,1.13.5.29.31.45.69.43,1.1,0,.38-.15.75-.44,1.06-.31.32-.71.5-1.12.5-.07,0-.14,0-.23-.02-.41-.04-.8-.28-1.07-.66-.26-.38-.36-.83-.25-1.25.11-.51.51-.96,1-1.13l.26-.06c.09-.02.19-.03.29-.03M37.77,7.35c-.12,0-.25.01-.37.04h0c-.76.12-1.41.74-1.57,1.5-.28,1.09.56,2.28,1.67,2.39.09.01.18.02.27.02,1.03,0,1.99-.91,1.96-1.96.04-1.06-.92-1.99-1.96-1.99h0Z"/>
    </g>
    <g>
      <path class="cls-3" d="M39.8,25.89h-4.2c-.92,0-1.66.88-1.66,1.77-.04.92.72,1.84,1.66,1.84h4.2c.94,0,1.7-.92,1.66-1.84,0-.89-.74-1.77-1.66-1.77ZM40.69,28.54c-.32.38-.83.54-1.32.53h-3.34c-.49.01-1-.15-1.32-.53-.37-.41-.42-1.07-.11-1.53.33-.51.96-.73,1.54-.68.52.02,1.04.01,1.56,0,.52.01,1.04.02,1.56,0,.58-.05,1.21.17,1.54.68.31.46.26,1.12-.11,1.53Z"/>
      <path d="M39.8,25.49h-4.2c-1.1,0-2.06,1.01-2.06,2.15-.03.59.2,1.18.63,1.62.39.41.9.64,1.43.64h4.2c.53,0,1.04-.23,1.43-.64.43-.44.66-1.03.63-1.62,0-1.14-.96-2.15-2.06-2.15ZM39.8,29.5h-4.2c-.94,0-1.7-.92-1.66-1.84,0-.89.74-1.77,1.66-1.77h4.2c.92,0,1.66.88,1.66,1.77.04.92-.72,1.84-1.66,1.84Z"/>
      <path class="cls-4" d="M40.69,28.54c-.32.38-.83.54-1.32.53h-3.34c-.49.01-1-.15-1.32-.53-.37-.41-.42-1.07-.11-1.53.33-.51.96-.73,1.54-.68.52.02,1.04.01,1.56,0,.52.01,1.04.02,1.56,0,.58-.05,1.21.17,1.54.68.31.46.26,1.12-.11,1.53Z"/>
    </g>
    <line class="cls-1" x1="12.86" y1="28.44" x2="12.35" y2="28.96"/>
    <line class="cls-1" x1="14.04" y1="33.98" x2="14.03" y2="33.99"/>
    <line class="cls-1" x1="13.89" y1="33.91" x2="13.63" y2="33.8"/>
    <g>
      <path d="M13.93,33.49c-.11-.58-.22-1.15-.34-1.73-.05-.27-.11-.54-.17-.8-.11-.52-.21-.99-.29-1.32-.02-.08-.03-.14-.04-.2-.01-.05-.02-.09-.03-.13-.02-.06-.03-.11-.04-.16l-.16-.71-.51.52-.08.08-.25.26h0s-.23.24-.23.24l-.52.64c-.43.54-.59,1.29-.41,1.99.16.63.57,1.14,1.13,1.38l.7.3,1.13.49.21-.35h0s-.1-.5-.1-.5ZM13.31,33.66l-.16-.07-.8-4.03.1-.11.19-.21.99,4.56-.32-.14Z"/>
      <polygon class="cls-3" points="13.63 33.8 13.31 33.66 13.15 33.59 12.35 29.56 12.45 29.45 12.64 29.24 13.63 33.8"/>
      <path class="cls-4" d="M12.15,33.18c-1.04-.45-1.25-1.9-.57-2.75.17-.19.35-.39.35-.39l.68,3.33s-.31-.1-.46-.19Z"/>
    </g>
    <g>
      <path d="M61.38,33.98h0s.21.36.21.36l1.13-.49.7-.3c.56-.24.97-.75,1.13-1.38.18-.7.02-1.45-.41-1.99l-.52-.64-.23-.23h0s-.25-.27-.25-.27l-.08-.08-.51-.52-.16.71s-.02.1-.04.16c-.01.04-.02.08-.03.13-.01.06-.02.12-.04.2-.08.33-.18.8-.29,1.32-.06.26-.12.53-.17.8-.12.58-.23,1.15-.34,1.73l-.1.49ZM61.78,33.8l.99-4.56.19.21.1.11-.8,4.03-.16.07-.32.14Z"/>
      <polygon class="cls-3" points="61.78 33.8 62.1 33.66 62.26 33.59 63.06 29.56 62.96 29.45 62.77 29.24 61.78 33.8"/>
      <path class="cls-4" d="M63.26,33.18c1.04-.45,1.25-1.9.57-2.75-.17-.19-.35-.39-.35-.39l-.68,3.33s.31-.1.46-.19Z"/>
    </g>
  </g>
</svg>