<?xml version="1.0" encoding="UTF-8" standalone="no"?>
<svg
   version="1.1"
   width="600pt"
   height="600pt"
   id="svg17"
   viewBox="0 0 600 600"
   xmlns="http://www.w3.org/2000/svg"
   xmlns:svg="http://www.w3.org/2000/svg">
  <defs
     id="defs21" />
  <path
     style="fill:#000d88;fill-rule:evenodd;stroke-width:1"
     d="M 87.8686,87.8686 C 142.15824,33.57932 217.15834,0 300.00001,0 c 82.84167,0 157.84177,33.57932 212.13141,87.8686 54.28965,54.28964 87.8686,129.29036 87.8686,212.13178 0,82.84167 -33.57932,157.84127 -87.8686,212.13092 -54.28964,54.28977 -129.29011,87.86872 -212.13141,87.86872 -82.84143,0 -157.84177,-33.57895 -212.13141,-87.86872 C 33.579321,457.84165 0,382.84205 0,300.00038 0,217.15896 33.578949,142.15824 87.8686,87.8686 Z"
     id="path313" />
  <path
     style="fill:#ffb500;fill-rule:evenodd;stroke-width:1"
     d="m 300.00002,22.500005 c -76.63006,0 -146.00577,31.060315 -196.22286,81.277145 -50.216838,50.21672 -81.277156,119.5928 -81.277156,196.22323 0,76.6303 31.060689,146.00564 81.277156,196.22248 50.21684,50.21672 119.59243,81.27715 196.22286,81.27715 76.6303,0 146.00601,-31.06043 196.22285,-81.27715 50.21647,-50.21684 81.27715,-119.59218 81.27715,-196.22248 0,-76.63043 -31.06031,-146.00651 -81.27715,-196.22323 C 446.00566,53.56032 376.63007,22.500005 300.00002,22.500005 Z"
     id="path317" />
  <path
     style="fill:#ff0b10;fill-rule:evenodd;stroke-width:1"
     d="M 119.68856,119.70149 C 165.83474,73.558414 229.5849,45.018187 300.00002,45.018187 c 70.41512,0 134.16528,28.540227 180.31146,74.683303 46.14582,46.1427 74.68853,109.88862 74.68853,180.29877 0,70.40977 -28.54233,134.15607 -74.68853,180.29839 -46.14618,46.14307 -109.89634,74.68318 -180.31146,74.68318 -70.41512,0 -134.16528,-28.54011 -180.31146,-74.68318 C 73.542365,434.15633 45.000017,370.41003 45.000017,300.00026 c 0,-70.41015 28.5426,-134.15607 74.688543,-180.29877 z"
     id="path321" />
  <path
     style="fill:#000d88;fill-rule:evenodd;stroke-width:1"
     d="m 300.00001,67.499932 c -64.20414,0 -122.32967,26.023641 -164.40291,68.097088 -42.073739,42.07393 -68.097078,100.19942 -68.097078,164.40325 0,64.20344 26.023711,122.32929 68.097078,164.40274 42.07324,42.07344 100.19877,68.09708 164.40291,68.09708 64.20401,0 122.32954,-26.02364 164.4029,-68.09708 C 506.47628,422.32956 532.5,364.20371 532.5,300.00027 532.5,235.79644 506.47666,177.67095 464.40291,135.59702 422.32954,93.523573 364.20401,67.499932 300.00001,67.499932 Z"
     id="path325" />
  <path
     d="m 259.96571,343.75358 80.39536,-0.0183 -40.0546,-62.60081 z m -116.6392,61.57141 -24.57987,-15.535 169.65884,-265.12816 24.18517,0.11573 168.66274,263.89986 -24.8117,16.13851 -94.73771,-148.25528 -43.11853,-0.0165 107.71909,168.40394 -24.1619,15.39564 -43.44825,-67.95498 -42.49572,0.009 55.10257,87.65708 -24.27416,15.28337 -46.49003,-73.953 -47.35493,73.82565 -24.1619,-15.50864 55.99507,-87.29752 -43.51348,0.01 -43.41198,67.43044 -24.16203,-15.50864 108.07654,-167.80638 -43.77897,-0.0168 z m 201.0306,-177.38197 -43.89618,-68.63881 -44.06648,68.5591 z"
     style="fill:#ffffff;fill-rule:evenodd;stroke-width:1"
     id="path6" />
</svg>
