<svg width="827" height="884" viewBox="0 0 827 884" fill="none" xmlns="http://www.w3.org/2000/svg">
<path d="M353.155 200.922C353.155 200.922 339.439 206.408 330.523 222.866C361.385 227.666 390.19 236.58 416.936 248.238C377.159 211.208 353.155 200.922 353.155 200.922Z" fill="#0B4390"/>
<path d="M227.646 448.479C276.339 440.936 305.144 393.619 305.144 393.619C306.515 370.304 280.454 354.532 280.454 354.532C214.616 349.046 189.241 378.533 189.241 378.533C183.754 390.191 187.183 412.134 187.183 412.134C196.785 439.564 227.646 448.479 227.646 448.479ZM215.302 394.305C222.16 389.505 237.934 382.647 264.681 382.647C266.738 382.647 268.11 382.647 270.167 382.647C271.539 384.019 272.91 385.39 274.282 387.448C266.052 397.734 250.278 413.506 229.704 418.992C224.903 416.935 218.731 412.134 215.302 405.277C215.302 401.162 215.302 397.048 215.302 394.305Z" fill="#0B4390"/>
<path d="M667.257 701.513C685.774 679.57 720.751 630.196 740.64 557.508L742.011 553.393V549.279C742.011 543.107 739.954 499.22 720.751 462.19C726.923 460.818 733.781 458.761 739.268 457.389C748.184 442.989 754.356 441.617 766.701 400.473C782.474 405.273 811.279 421.045 826.367 427.217L824.995 379.901C825.681 376.472 815.394 312.698 777.674 288.697C758.471 290.069 746.812 285.954 696.062 298.297C699.491 283.211 703.605 255.096 696.062 223.552C707.035 209.151 719.379 175.55 720.751 153.606C687.832 148.806 675.487 146.063 641.196 155.663C624.737 147.434 596.618 133.72 571.243 131.662C582.216 112.462 589.074 94.6324 589.074 74.7459C577.415 61.031 567.814 32.2299 505.405 14.4006L453.968 0C457.397 10.9719 471.114 52.1163 473.857 63.0882C447.796 69.2598 399.103 86.4034 366.184 107.661C368.241 120.69 368.241 126.176 372.356 142.634C359.326 139.205 342.18 137.148 327.092 136.463C313.376 146.749 294.173 152.92 266.055 192.693C235.193 195.436 165.24 205.722 100.087 248.238L68.5395 268.811C72.6544 272.239 98.0296 294.183 101.459 297.612L72.6544 301.726C51.3941 304.469 12.3025 325.727 1.32947 383.329C-2.78543 405.959 2.70112 429.96 17.1033 448.475C28.7621 463.561 52.0799 482.076 95.2863 484.133C95.9721 484.133 82.9417 501.963 76.0835 512.934L26.7047 595.223L113.118 554.079C122.719 549.279 152.209 537.621 173.469 538.307C181.013 542.421 194.73 549.279 212.561 555.45C182.385 562.994 146.723 576.023 117.232 599.338C111.746 611.681 60.9955 678.884 40.421 809.86L28.7621 883.921L87.0565 835.919C87.7423 835.233 185.814 757.744 383.329 757.744C400.475 757.744 437.509 757.058 437.509 757.058L451.911 764.601C495.117 787.917 536.266 798.889 576.729 798.889C654.227 798.889 703.605 763.916 771.501 744.715C744.754 731 685.774 724.143 667.257 701.513ZM105.574 302.412C110.374 307.898 115.175 314.755 117.232 320.241C115.861 327.784 113.803 342.871 111.746 362.071L111.06 368.243C106.945 358.643 104.888 345.614 105.574 329.842V302.412ZM464.941 738.543C464.941 738.543 534.209 641.854 524.607 547.222C486.888 686.427 425.85 729.629 425.85 729.629C185.128 717.285 69.2254 812.603 69.2254 812.603C87.7424 693.284 138.493 617.853 138.493 617.853C194.73 575.337 274.97 573.965 274.97 573.965C351.782 545.85 373.042 481.39 373.042 481.39C322.977 531.449 278.399 541.05 278.399 541.05C228.335 535.564 181.699 508.134 181.699 508.134C148.094 503.334 100.087 525.964 100.087 525.964C132.32 471.79 167.983 459.447 167.983 459.447C173.469 434.074 187.186 410.759 187.186 410.759C187.186 410.759 164.554 438.189 129.577 449.161C118.604 452.589 107.631 454.646 95.9722 453.961C53.4515 451.903 33.5628 430.646 28.7621 408.702C27.3905 401.159 27.3905 394.301 28.0763 387.444C38.3636 334.642 75.3977 329.156 75.3977 329.156C73.3402 374.415 95.2863 418.302 146.723 417.616C167.297 417.616 187.186 410.759 186.5 410.759C147.408 385.387 138.493 364.129 138.493 364.129C141.922 335.328 144.665 317.498 144.665 317.498C144.665 301.726 150.837 295.555 150.837 295.555C159.753 280.468 209.132 272.239 209.132 272.239L154.267 273.611C137.807 268.125 130.949 259.896 130.263 259.896C204.331 218.752 279.771 218.752 279.771 218.752C298.974 183.779 331.207 163.892 331.207 163.892C386.758 167.321 421.049 193.379 421.049 193.379C399.103 154.977 394.302 120.69 394.302 120.69C447.11 91.2036 502.661 83.6604 502.661 83.6604C502.661 65.1454 494.432 39.773 494.432 39.773C537.638 51.4306 556.155 80.2317 556.155 80.2317C554.098 113.147 504.719 164.578 504.719 164.578C501.29 189.265 533.523 221.494 533.523 221.494C541.067 183.779 558.898 157.72 558.898 157.72C589.074 157.72 634.338 185.15 634.338 185.15C658.342 174.864 681.659 177.607 681.659 177.607C676.173 200.237 660.399 214.637 660.399 214.637C675.487 257.153 662.457 298.297 662.457 298.297C637.081 307.898 602.105 298.983 602.105 298.983C621.308 326.413 650.798 341.499 650.798 341.499C704.291 316.127 762.586 315.441 762.586 315.441C790.704 341.499 792.076 379.215 792.076 379.215C764.643 366.186 740.64 367.557 740.64 367.557C733.096 412.131 718.693 431.331 718.693 431.331C688.518 440.246 648.74 432.017 648.74 432.017C611.706 414.188 576.044 378.529 576.044 378.529C596.618 415.559 633.652 445.046 633.652 445.046C655.598 454.647 678.23 453.961 678.23 453.961C709.092 486.191 710.464 549.279 710.464 549.279C685.088 642.54 632.966 693.284 632.966 693.284C633.652 727.571 680.974 744.029 680.974 744.029C627.48 765.287 563.699 791.345 464.941 738.543Z" fill="#0B4390"/>
<path d="M130.264 449.848C119.291 453.277 108.318 455.334 96.6589 454.649C54.1382 452.591 34.2495 431.333 29.4488 409.39C28.0772 401.847 28.0771 394.989 28.763 388.132C39.0502 335.33 76.0844 329.844 76.0844 329.844C74.0269 375.103 95.973 418.99 147.409 418.304C167.984 418.304 187.872 411.447 187.187 411.447C187.872 411.447 165.24 438.877 130.264 449.848Z" fill="#E20A17"/>
<path d="M765.329 316.809C765.329 316.809 707.035 316.809 653.541 342.867C653.541 342.867 624.051 328.466 604.848 300.351C604.848 300.351 639.139 308.58 665.2 299.665C665.2 299.665 678.916 258.521 663.142 216.005C663.142 216.005 679.602 201.604 684.403 178.975C684.403 178.975 661.085 176.917 637.081 186.518C637.081 186.518 591.818 159.088 561.642 159.088C561.642 159.088 543.81 185.146 536.266 222.862C536.266 222.862 503.347 190.632 507.462 165.946C507.462 165.946 556.155 114.515 558.898 81.5994C558.898 81.5994 540.381 52.7982 497.175 41.1406C497.175 41.1406 505.405 66.5131 505.405 85.0281C505.405 85.0281 449.854 92.5712 397.046 122.058C397.046 122.058 401.846 156.345 423.793 194.747C423.793 194.747 389.502 168.689 333.951 165.26C333.951 165.26 301.717 185.146 282.514 220.119C282.514 220.119 207.075 220.119 133.006 261.264C133.006 261.264 139.865 270.178 157.01 274.978L211.875 273.607C211.875 273.607 163.182 281.836 153.581 296.922C153.581 296.922 146.723 303.094 147.409 318.866C147.409 318.866 143.98 336.695 141.236 365.496C141.236 365.496 149.466 386.069 189.243 412.127C189.243 412.127 185.814 390.869 191.301 378.525C191.301 378.525 216.676 349.038 282.514 354.524C282.514 354.524 308.575 370.297 307.204 393.612C307.204 393.612 278.399 440.928 229.707 448.471C229.707 448.471 198.845 440.242 189.929 411.441C189.929 411.441 176.899 434.756 170.726 460.129C170.726 460.129 135.75 472.472 102.83 526.645C102.83 526.645 150.838 504.016 184.443 508.816C184.443 508.816 231.078 535.56 281.143 541.732C281.143 541.732 325.721 532.131 375.785 482.072C375.785 482.072 354.525 545.846 277.714 574.647C277.714 574.647 197.473 576.019 141.236 618.535C141.236 618.535 89.8 694.652 71.9688 813.285C71.9688 813.285 187.872 717.967 428.593 730.311C428.593 730.311 489.631 687.109 527.351 547.903C536.952 642.536 467.685 739.225 467.685 739.225C566.442 792.027 630.223 765.283 685.774 745.397C685.774 745.397 638.453 729.625 637.767 694.652C637.767 694.652 689.889 643.907 715.265 550.646C715.265 550.646 713.893 486.873 683.031 455.328C683.031 455.328 660.399 456.014 638.453 446.414C638.453 446.414 602.105 416.927 580.844 379.897C580.844 379.897 617.193 416.241 653.541 433.385C653.541 433.385 693.318 441.614 723.494 432.699C723.494 432.699 737.896 413.498 745.44 368.925C745.44 368.925 769.444 367.553 796.877 380.583C794.819 379.897 793.448 342.181 765.329 316.809ZM330.522 222.862C340.123 207.09 353.153 200.918 353.153 200.918C353.153 200.918 377.157 211.204 416.249 248.234C390.188 236.577 360.697 227.662 330.522 222.862Z" fill="#FDD617"/>
</svg>
